G04 #@! TF.GenerationSoftware,KiCad,Pcbnew,8.0.3*
G04 #@! TF.CreationDate,2024-08-23T22:21:50+02:00*
G04 #@! TF.ProjectId,temp_power_management,74656d70-5f70-46f7-9765-725f6d616e61,rev?*
G04 #@! TF.SameCoordinates,Original*
G04 #@! TF.FileFunction,Copper,L3,Inr*
G04 #@! TF.FilePolarity,Positive*
%FSLAX46Y46*%
G04 Gerber Fmt 4.6, Leading zero omitted, Abs format (unit mm)*
G04 Created by KiCad (PCBNEW 8.0.3) date 2024-08-23 22:21:50*
%MOMM*%
%LPD*%
G01*
G04 APERTURE LIST*
G04 Aperture macros list*
%AMRoundRect*
0 Rectangle with rounded corners*
0 $1 Rounding radius*
0 $2 $3 $4 $5 $6 $7 $8 $9 X,Y pos of 4 corners*
0 Add a 4 corners polygon primitive as box body*
4,1,4,$2,$3,$4,$5,$6,$7,$8,$9,$2,$3,0*
0 Add four circle primitives for the rounded corners*
1,1,$1+$1,$2,$3*
1,1,$1+$1,$4,$5*
1,1,$1+$1,$6,$7*
1,1,$1+$1,$8,$9*
0 Add four rect primitives between the rounded corners*
20,1,$1+$1,$2,$3,$4,$5,0*
20,1,$1+$1,$4,$5,$6,$7,0*
20,1,$1+$1,$6,$7,$8,$9,0*
20,1,$1+$1,$8,$9,$2,$3,0*%
%AMOutline5P*
0 Free polygon, 5 corners , with rotation*
0 The origin of the aperture is its center*
0 number of corners: always 5*
0 $1 to $10 corner X, Y*
0 $11 Rotation angle, in degrees counterclockwise*
0 create outline with 5 corners*
4,1,5,$1,$2,$3,$4,$5,$6,$7,$8,$9,$10,$1,$2,$11*%
%AMOutline6P*
0 Free polygon, 6 corners , with rotation*
0 The origin of the aperture is its center*
0 number of corners: always 6*
0 $1 to $12 corner X, Y*
0 $13 Rotation angle, in degrees counterclockwise*
0 create outline with 6 corners*
4,1,6,$1,$2,$3,$4,$5,$6,$7,$8,$9,$10,$11,$12,$1,$2,$13*%
%AMOutline7P*
0 Free polygon, 7 corners , with rotation*
0 The origin of the aperture is its center*
0 number of corners: always 7*
0 $1 to $14 corner X, Y*
0 $15 Rotation angle, in degrees counterclockwise*
0 create outline with 7 corners*
4,1,7,$1,$2,$3,$4,$5,$6,$7,$8,$9,$10,$11,$12,$13,$14,$1,$2,$15*%
%AMOutline8P*
0 Free polygon, 8 corners , with rotation*
0 The origin of the aperture is its center*
0 number of corners: always 8*
0 $1 to $16 corner X, Y*
0 $17 Rotation angle, in degrees counterclockwise*
0 create outline with 8 corners*
4,1,8,$1,$2,$3,$4,$5,$6,$7,$8,$9,$10,$11,$12,$13,$14,$15,$16,$1,$2,$17*%
%AMFreePoly0*
4,1,18,-0.850000,0.510000,-0.510000,0.850000,0.600000,0.850000,0.695671,0.830970,0.776777,0.776777,0.830970,0.695671,0.850000,0.600000,0.850000,-0.600000,0.830970,-0.695671,0.776777,-0.776777,0.695671,-0.830970,0.600000,-0.850000,-0.600000,-0.850000,-0.695671,-0.830970,-0.776777,-0.776777,-0.830970,-0.695671,-0.850000,-0.600000,-0.850000,0.510000,-0.850000,0.510000,$1*%
G04 Aperture macros list end*
G04 #@! TA.AperFunction,ComponentPad*
%ADD10C,0.800000*%
G04 #@! TD*
G04 #@! TA.AperFunction,ComponentPad*
%ADD11C,6.400000*%
G04 #@! TD*
G04 #@! TA.AperFunction,ComponentPad*
%ADD12R,1.800000X1.800000*%
G04 #@! TD*
G04 #@! TA.AperFunction,ComponentPad*
%ADD13C,1.800000*%
G04 #@! TD*
G04 #@! TA.AperFunction,ComponentPad*
%ADD14C,2.500000*%
G04 #@! TD*
G04 #@! TA.AperFunction,ComponentPad*
%ADD15C,4.000000*%
G04 #@! TD*
G04 #@! TA.AperFunction,ComponentPad*
%ADD16C,3.500000*%
G04 #@! TD*
G04 #@! TA.AperFunction,ComponentPad*
%ADD17R,3.800000X3.800000*%
G04 #@! TD*
G04 #@! TA.AperFunction,ComponentPad*
%ADD18C,3.800000*%
G04 #@! TD*
G04 #@! TA.AperFunction,ComponentPad*
%ADD19C,5.000000*%
G04 #@! TD*
G04 #@! TA.AperFunction,ComponentPad*
%ADD20RoundRect,1.500000X1.500000X-1.500000X1.500000X1.500000X-1.500000X1.500000X-1.500000X-1.500000X0*%
G04 #@! TD*
G04 #@! TA.AperFunction,ComponentPad*
%ADD21C,6.000000*%
G04 #@! TD*
G04 #@! TA.AperFunction,ComponentPad*
%ADD22R,1.500000X1.500000*%
G04 #@! TD*
G04 #@! TA.AperFunction,ComponentPad*
%ADD23C,1.500000*%
G04 #@! TD*
G04 #@! TA.AperFunction,ComponentPad*
%ADD24R,1.700000X1.700000*%
G04 #@! TD*
G04 #@! TA.AperFunction,ComponentPad*
%ADD25O,1.700000X1.700000*%
G04 #@! TD*
G04 #@! TA.AperFunction,ComponentPad*
%ADD26RoundRect,2.500000X-0.000010X-1.500000X0.000010X-1.500000X0.000010X1.500000X-0.000010X1.500000X0*%
G04 #@! TD*
G04 #@! TA.AperFunction,ComponentPad*
%ADD27RoundRect,2.500000X0.000010X-1.500000X0.000010X1.500000X-0.000010X1.500000X-0.000010X-1.500000X0*%
G04 #@! TD*
G04 #@! TA.AperFunction,ComponentPad*
%ADD28Outline8P,-2.500000X2.750000X-1.250000X4.000000X1.250000X4.000000X2.500000X2.750000X2.500000X-2.750000X1.250000X-4.000000X-1.250000X-4.000000X-2.500000X-2.750000X0.000000*%
G04 #@! TD*
G04 #@! TA.AperFunction,ComponentPad*
%ADD29R,1.300000X1.300000*%
G04 #@! TD*
G04 #@! TA.AperFunction,ComponentPad*
%ADD30C,1.300000*%
G04 #@! TD*
G04 #@! TA.AperFunction,ComponentPad*
%ADD31FreePoly0,0.000000*%
G04 #@! TD*
G04 #@! TA.AperFunction,ComponentPad*
%ADD32C,1.700000*%
G04 #@! TD*
G04 #@! TA.AperFunction,ComponentPad*
%ADD33RoundRect,0.250000X-0.900000X-0.600000X0.900000X-0.600000X0.900000X0.600000X-0.900000X0.600000X0*%
G04 #@! TD*
G04 #@! TA.AperFunction,ViaPad*
%ADD34C,0.450000*%
G04 #@! TD*
G04 APERTURE END LIST*
D10*
X192672000Y-73152000D03*
X193374944Y-71454944D03*
X193374944Y-74849056D03*
X195072000Y-70752000D03*
D11*
X195072000Y-73152000D03*
D10*
X195072000Y-75552000D03*
X196769056Y-71454944D03*
X196769056Y-74849056D03*
X197472000Y-73152000D03*
D12*
X149240000Y-80833000D03*
D13*
X144240000Y-80833000D03*
X149240000Y-84333000D03*
X144240000Y-84333000D03*
D14*
X172694000Y-105949000D03*
X172694000Y-116149000D03*
D15*
X188094000Y-119949000D03*
D16*
X195794000Y-119949000D03*
D15*
X185554000Y-102169000D03*
D17*
X128858000Y-81280000D03*
D18*
X133858000Y-81280000D03*
D19*
X147754000Y-63754000D03*
X170254000Y-63754000D03*
D20*
X145415000Y-138430000D03*
D21*
X145415000Y-131230000D03*
D12*
X149240000Y-90231000D03*
D13*
X144240000Y-90231000D03*
X149240000Y-93731000D03*
X144240000Y-93731000D03*
D22*
X105736000Y-129540000D03*
D23*
X108236000Y-129540000D03*
X110236000Y-129540000D03*
X112736000Y-129540000D03*
X105736000Y-126920000D03*
X108236000Y-126920000D03*
X110236000Y-126920000D03*
X112736000Y-126920000D03*
D16*
X102666000Y-132250000D03*
X115806000Y-132250000D03*
X102666000Y-126570000D03*
X115806000Y-126570000D03*
D24*
X101849000Y-62240000D03*
D25*
X104389000Y-62240000D03*
X101849000Y-64780000D03*
X104389000Y-64780000D03*
X101849000Y-67320000D03*
X104389000Y-67320000D03*
X101849000Y-69860000D03*
X104389000Y-69860000D03*
D20*
X174498000Y-138474000D03*
D21*
X174498000Y-131274000D03*
D20*
X194056000Y-138518000D03*
D21*
X194056000Y-131318000D03*
D20*
X184150000Y-138430000D03*
D21*
X184150000Y-131230000D03*
D26*
X139358000Y-73406000D03*
D27*
X133858000Y-73406000D03*
D28*
X128358000Y-73406000D03*
D22*
X127112000Y-129540000D03*
D23*
X129612000Y-129540000D03*
X131612000Y-129540000D03*
X134112000Y-129540000D03*
X127112000Y-126920000D03*
X129612000Y-126920000D03*
X131612000Y-126920000D03*
X134112000Y-126920000D03*
D16*
X124042000Y-132250000D03*
X137182000Y-132250000D03*
X124042000Y-126570000D03*
X137182000Y-126570000D03*
D28*
X128358000Y-63754000D03*
D27*
X133858000Y-63754000D03*
D26*
X139358000Y-63754000D03*
D20*
X164846000Y-138430000D03*
D21*
X164846000Y-131230000D03*
D29*
X101346000Y-96520000D03*
D30*
X103886000Y-97790000D03*
X101346000Y-99060000D03*
X103886000Y-100330000D03*
D12*
X149240000Y-99629000D03*
D13*
X144240000Y-99629000D03*
X149240000Y-103129000D03*
X144240000Y-103129000D03*
D21*
X155194000Y-131230000D03*
D20*
X155194000Y-138430000D03*
D31*
X102616000Y-86702000D03*
D32*
X102616000Y-84702000D03*
X102616000Y-82702000D03*
D33*
X102616000Y-80702000D03*
X102616000Y-88702000D03*
D24*
X107950000Y-112268000D03*
D32*
X110490000Y-112268000D03*
X113030000Y-112268000D03*
X115570000Y-112268000D03*
X118110000Y-112268000D03*
X120650000Y-112268000D03*
X140970000Y-112268000D03*
X143510000Y-112268000D03*
X146050000Y-112268000D03*
X148590000Y-112268000D03*
X151130000Y-112268000D03*
X153670000Y-112268000D03*
X156210000Y-112268000D03*
D34*
X194310000Y-123190000D03*
X194564000Y-116840000D03*
X117094000Y-67056000D03*
X116332000Y-67310000D03*
X116586000Y-69342000D03*
X118872000Y-68834000D03*
X107442000Y-84836000D03*
X107442000Y-86106000D03*
X102870000Y-71374000D03*
X118364000Y-84582000D03*
X114554000Y-84328000D03*
X113792000Y-84328000D03*
X120904000Y-71628000D03*
X120904000Y-70612000D03*
X111760000Y-71628000D03*
X109474000Y-71374000D03*
X109474000Y-73152000D03*
X109728000Y-75692000D03*
X104648000Y-89916000D03*
X119634000Y-66548000D03*
X121920000Y-66548000D03*
X118618000Y-89154000D03*
X115316000Y-90424000D03*
X109474000Y-64008000D03*
X117602000Y-62484000D03*
X112268000Y-62230000D03*
X104394000Y-95758000D03*
X109220000Y-94234000D03*
X107442000Y-94996000D03*
X111252000Y-100076000D03*
X112014000Y-94996000D03*
X116332000Y-94742000D03*
X122682000Y-84582000D03*
X121412000Y-85090000D03*
X119380000Y-85090000D03*
X117602000Y-87376000D03*
X117602000Y-84582000D03*
X117094000Y-81280000D03*
X115570000Y-66548000D03*
X111506000Y-70612000D03*
X177292000Y-71374000D03*
X177292000Y-72136000D03*
X173228000Y-72136000D03*
X180340000Y-94996000D03*
X181864000Y-96774000D03*
X183896000Y-94996000D03*
X177800000Y-95250000D03*
X177546000Y-92710000D03*
X185674000Y-93472000D03*
X185674000Y-92456000D03*
X181102000Y-92456000D03*
X184658000Y-80010000D03*
X185674000Y-81534000D03*
X185674000Y-80010000D03*
X193548000Y-64770000D03*
X192024000Y-67310000D03*
X192532000Y-66548000D03*
X182118000Y-61976000D03*
X183134000Y-61976000D03*
X186944000Y-61976000D03*
X185928000Y-61976000D03*
X184150000Y-74930000D03*
X177292000Y-117602000D03*
X149098000Y-108712000D03*
X150876000Y-109982000D03*
X155194000Y-97282000D03*
X153162000Y-105156000D03*
X155448000Y-78740000D03*
X147828000Y-82550000D03*
X137668000Y-78994000D03*
X169926000Y-89154000D03*
X165279747Y-87833568D03*
X158295723Y-87851475D03*
X154929065Y-89570620D03*
X154982788Y-91791181D03*
X157328704Y-89534804D03*
X161984720Y-89552712D03*
X166624000Y-89662000D03*
X169164000Y-93472000D03*
X177546000Y-119126000D03*
X175260000Y-121666000D03*
X151130000Y-115316000D03*
X151384000Y-121412000D03*
X103886000Y-129286000D03*
X105918000Y-120904000D03*
X108458000Y-125476000D03*
X126746000Y-131572000D03*
X126238000Y-121158000D03*
X129032000Y-125222000D03*
X119634000Y-120396000D03*
X135128000Y-124714000D03*
X133350000Y-125222000D03*
X101854000Y-92202000D03*
X100838000Y-80518000D03*
X109474000Y-86614000D03*
X109474000Y-84836000D03*
X107696000Y-87376000D03*
X108204000Y-88138000D03*
X107696000Y-81026000D03*
X107696000Y-82042000D03*
X121158000Y-77216000D03*
X120142000Y-80264000D03*
X113030000Y-77470000D03*
X118364000Y-73406000D03*
X117856000Y-78232000D03*
X113284000Y-73152000D03*
X115062000Y-70104000D03*
X115062000Y-68834000D03*
X110998000Y-69850000D03*
X122682000Y-73660000D03*
X123698000Y-85598000D03*
X193040000Y-68326000D03*
X185464000Y-79248000D03*
X187452000Y-78994000D03*
X116332000Y-96012000D03*
X116332000Y-98552000D03*
X115824000Y-72644000D03*
X121666000Y-79502000D03*
X104902000Y-77978000D03*
X111887000Y-93980000D03*
X113538000Y-89154000D03*
X110490000Y-88265000D03*
X111506000Y-87122000D03*
X107950000Y-85488000D03*
X111252000Y-81534000D03*
X112014000Y-81026000D03*
X113284000Y-69850000D03*
X188595000Y-59309000D03*
X194945000Y-59309000D03*
X198120000Y-62484000D03*
X197612000Y-116840000D03*
X197612000Y-123190000D03*
X194945000Y-141859000D03*
X188595000Y-65659000D03*
X198374000Y-141859000D03*
X188595000Y-72009000D03*
X198120000Y-76962000D03*
X198374000Y-135509000D03*
X198120000Y-68834000D03*
X188595000Y-141859000D03*
X188595000Y-135509000D03*
X182245000Y-59309000D03*
X112395000Y-59309000D03*
X106045000Y-59309000D03*
X118745000Y-59309000D03*
X99822000Y-59309000D03*
X125095000Y-59309000D03*
X182245000Y-72009000D03*
X175895000Y-72009000D03*
X99822000Y-65659000D03*
X112395000Y-65659000D03*
X99822000Y-72009000D03*
X125095000Y-72009000D03*
X125095000Y-65659000D03*
X163195000Y-135509000D03*
X144145000Y-141859000D03*
X137795000Y-141859000D03*
X137795000Y-129159000D03*
X169545000Y-135509000D03*
X150495000Y-135509000D03*
X150495000Y-141859000D03*
X156845000Y-141859000D03*
X182245000Y-135509000D03*
X137795000Y-135509000D03*
X169545000Y-141859000D03*
X163195000Y-141859000D03*
X175895000Y-141859000D03*
X182245000Y-141859000D03*
X99822000Y-129159000D03*
X112395000Y-135509000D03*
X106045000Y-135509000D03*
X118745000Y-129159000D03*
X118745000Y-135509000D03*
X99822000Y-135509000D03*
X99822000Y-141859000D03*
X106045000Y-141859000D03*
X131445000Y-135509000D03*
X125095000Y-135509000D03*
X118745000Y-141859000D03*
X125095000Y-129159000D03*
X112395000Y-141859000D03*
X125095000Y-141859000D03*
X131445000Y-141859000D03*
X99822000Y-103759000D03*
X112395000Y-110109000D03*
X106045000Y-103759000D03*
X106045000Y-110109000D03*
X112395000Y-103759000D03*
X118745000Y-103759000D03*
X99822000Y-110109000D03*
X99822000Y-122809000D03*
X99822000Y-116459000D03*
X106045000Y-116459000D03*
X131445000Y-110109000D03*
X125095000Y-110109000D03*
X131445000Y-103759000D03*
X118745000Y-116459000D03*
X125095000Y-103759000D03*
X125095000Y-116459000D03*
X131445000Y-116459000D03*
X131445000Y-122809000D03*
X163195000Y-110109000D03*
X156845000Y-103759000D03*
X156845000Y-110109000D03*
X137795000Y-116459000D03*
X169545000Y-103759000D03*
X137795000Y-122809000D03*
X137795000Y-103759000D03*
X156845000Y-116459000D03*
X175895000Y-110109000D03*
X137795000Y-110109000D03*
X169545000Y-116459000D03*
X175895000Y-103759000D03*
X137795000Y-91059000D03*
X144145000Y-97409000D03*
X137795000Y-97409000D03*
X150495000Y-97409000D03*
X137795000Y-84709000D03*
X175895000Y-97409000D03*
X169545000Y-97409000D03*
X163195000Y-97409000D03*
X125095000Y-91059000D03*
X131445000Y-91059000D03*
X131445000Y-97409000D03*
X125095000Y-97409000D03*
X118745000Y-91059000D03*
X118745000Y-97409000D03*
X125095000Y-78359000D03*
X131445000Y-84709000D03*
X125095000Y-84709000D03*
X99822000Y-91059000D03*
X106045000Y-91059000D03*
X99822000Y-97409000D03*
X99822000Y-78359000D03*
X106045000Y-78359000D03*
X99822000Y-84709000D03*
X190246000Y-62230000D03*
X103632000Y-74930000D03*
X110236000Y-74942000D03*
X194945000Y-135509000D03*
X175895000Y-135509000D03*
G04 #@! TA.AperFunction,Conductor*
G36*
X136341039Y-58980185D02*
G01*
X136386794Y-59032989D01*
X136398000Y-59084500D01*
X136398000Y-61749886D01*
X136396691Y-61767857D01*
X136363852Y-61992047D01*
X136357500Y-62137533D01*
X136357500Y-65370465D01*
X136363852Y-65515951D01*
X136396691Y-65740140D01*
X136398000Y-65758112D01*
X136398000Y-71401886D01*
X136396691Y-71419857D01*
X136363852Y-71644047D01*
X136357500Y-71789533D01*
X136357500Y-75022465D01*
X136363852Y-75167951D01*
X136396691Y-75392140D01*
X136398000Y-75410112D01*
X136398000Y-83006638D01*
X136378315Y-83073677D01*
X136361681Y-83094319D01*
X135418319Y-84037681D01*
X135356996Y-84071166D01*
X135330638Y-84074000D01*
X132385362Y-84074000D01*
X132318323Y-84054315D01*
X132297681Y-84037681D01*
X131354319Y-83094319D01*
X131320834Y-83032996D01*
X131318000Y-83006638D01*
X131318000Y-76377996D01*
X131327439Y-76330543D01*
X131347940Y-76281050D01*
X131358500Y-76196977D01*
X131358499Y-70615025D01*
X131347940Y-70530950D01*
X131344135Y-70521765D01*
X131327439Y-70481455D01*
X131318000Y-70434003D01*
X131318000Y-66725996D01*
X131327439Y-66678543D01*
X131347940Y-66629050D01*
X131358500Y-66544977D01*
X131358499Y-60963025D01*
X131347940Y-60878950D01*
X131344135Y-60869765D01*
X131327439Y-60829455D01*
X131318000Y-60782003D01*
X131318000Y-59084500D01*
X131337685Y-59017461D01*
X131390489Y-58971706D01*
X131442000Y-58960500D01*
X136274000Y-58960500D01*
X136341039Y-58980185D01*
G37*
G04 #@! TD.AperFunction*
G04 #@! TA.AperFunction,Conductor*
G36*
X115079941Y-58980185D02*
G01*
X115125696Y-59032989D01*
X115135640Y-59102147D01*
X115106615Y-59165703D01*
X115100583Y-59172181D01*
X115089481Y-59183282D01*
X115089475Y-59183290D01*
X115010426Y-59320209D01*
X115010423Y-59320216D01*
X114969500Y-59472943D01*
X114969500Y-59631056D01*
X115010423Y-59783783D01*
X115010426Y-59783790D01*
X115089475Y-59920709D01*
X115089479Y-59920714D01*
X115089480Y-59920716D01*
X115201284Y-60032520D01*
X115201286Y-60032521D01*
X115201290Y-60032524D01*
X115286529Y-60081736D01*
X115338216Y-60111577D01*
X115490943Y-60152500D01*
X115490945Y-60152500D01*
X115649055Y-60152500D01*
X115649057Y-60152500D01*
X115801784Y-60111577D01*
X115938716Y-60032520D01*
X116050520Y-59920716D01*
X116129577Y-59783784D01*
X116170500Y-59631057D01*
X116170500Y-59472943D01*
X116129577Y-59320216D01*
X116129573Y-59320209D01*
X116050524Y-59183290D01*
X116050518Y-59183282D01*
X116039417Y-59172181D01*
X116005932Y-59110858D01*
X116010916Y-59041166D01*
X116052788Y-58985233D01*
X116118252Y-58960816D01*
X116127098Y-58960500D01*
X130688500Y-58960500D01*
X130755539Y-58980185D01*
X130801294Y-59032989D01*
X130812500Y-59084500D01*
X130812500Y-60782000D01*
X130822212Y-60880619D01*
X130831652Y-60928074D01*
X130847660Y-60980847D01*
X130852999Y-61016841D01*
X130852999Y-66491156D01*
X130847660Y-66527150D01*
X130831652Y-66579920D01*
X130822211Y-66627387D01*
X130812500Y-66725998D01*
X130812500Y-70434000D01*
X130822212Y-70532619D01*
X130831652Y-70580074D01*
X130847660Y-70632847D01*
X130852999Y-70668841D01*
X130852999Y-76143156D01*
X130847660Y-76179150D01*
X130831652Y-76231920D01*
X130822211Y-76279387D01*
X130812500Y-76377998D01*
X130812500Y-83006640D01*
X130815397Y-83060688D01*
X130815397Y-83060689D01*
X130818229Y-83087022D01*
X130818232Y-83087049D01*
X130826885Y-83140445D01*
X130826885Y-83140447D01*
X130855102Y-83216097D01*
X130877168Y-83275257D01*
X130910653Y-83336580D01*
X130996877Y-83451761D01*
X130996881Y-83451765D01*
X130996886Y-83451771D01*
X131499828Y-83954712D01*
X131940239Y-84395123D01*
X131940255Y-84395137D01*
X131940262Y-84395144D01*
X131980480Y-84431271D01*
X131980492Y-84431281D01*
X131980500Y-84431288D01*
X132001142Y-84447922D01*
X132045026Y-84479567D01*
X132175903Y-84539338D01*
X132242942Y-84559023D01*
X132242946Y-84559024D01*
X132385362Y-84579500D01*
X132385365Y-84579500D01*
X135330640Y-84579500D01*
X135340786Y-84578955D01*
X135384678Y-84576603D01*
X135384686Y-84576602D01*
X135384688Y-84576602D01*
X135384689Y-84576602D01*
X135391682Y-84575849D01*
X135411036Y-84573769D01*
X135411046Y-84573767D01*
X135411049Y-84573767D01*
X135420648Y-84572211D01*
X135464448Y-84565114D01*
X135599257Y-84514832D01*
X135660580Y-84481347D01*
X135775761Y-84395123D01*
X135837885Y-84332999D01*
X143080554Y-84332999D01*
X143080554Y-84333000D01*
X143100295Y-84546047D01*
X143100296Y-84546050D01*
X143158846Y-84751835D01*
X143158849Y-84751840D01*
X143254219Y-84943370D01*
X143383159Y-85114114D01*
X143541278Y-85258258D01*
X143541283Y-85258261D01*
X143541286Y-85258263D01*
X143723186Y-85370891D01*
X143723187Y-85370891D01*
X143723190Y-85370893D01*
X143922703Y-85448185D01*
X144133020Y-85487500D01*
X144133022Y-85487500D01*
X144346978Y-85487500D01*
X144346980Y-85487500D01*
X144557297Y-85448185D01*
X144756810Y-85370893D01*
X144938722Y-85258258D01*
X145096841Y-85114114D01*
X145225781Y-84943370D01*
X145321151Y-84751840D01*
X145321151Y-84751837D01*
X145321153Y-84751835D01*
X145371010Y-84576603D01*
X145379704Y-84546048D01*
X145399446Y-84333000D01*
X145399446Y-84332999D01*
X148080554Y-84332999D01*
X148080554Y-84333000D01*
X148100295Y-84546047D01*
X148100296Y-84546050D01*
X148158846Y-84751835D01*
X148158849Y-84751840D01*
X148254219Y-84943370D01*
X148383159Y-85114114D01*
X148541278Y-85258258D01*
X148541283Y-85258261D01*
X148541286Y-85258263D01*
X148723186Y-85370891D01*
X148723187Y-85370891D01*
X148723190Y-85370893D01*
X148922703Y-85448185D01*
X149133020Y-85487500D01*
X149133022Y-85487500D01*
X149346978Y-85487500D01*
X149346980Y-85487500D01*
X149557297Y-85448185D01*
X149756810Y-85370893D01*
X149938722Y-85258258D01*
X150096841Y-85114114D01*
X150225781Y-84943370D01*
X150321151Y-84751840D01*
X150321151Y-84751837D01*
X150321153Y-84751835D01*
X150371010Y-84576603D01*
X150379704Y-84546048D01*
X150399446Y-84333000D01*
X150396508Y-84301299D01*
X150379704Y-84119952D01*
X150379703Y-84119949D01*
X150321153Y-83914164D01*
X150321150Y-83914158D01*
X150272678Y-83816812D01*
X150225781Y-83722630D01*
X150096841Y-83551886D01*
X149938722Y-83407742D01*
X149938716Y-83407738D01*
X149938713Y-83407736D01*
X149756813Y-83295108D01*
X149756807Y-83295106D01*
X149705571Y-83275257D01*
X149557297Y-83217815D01*
X149346980Y-83178500D01*
X149133020Y-83178500D01*
X148922703Y-83217815D01*
X148796533Y-83266693D01*
X148723192Y-83295106D01*
X148723186Y-83295108D01*
X148541286Y-83407736D01*
X148541283Y-83407738D01*
X148541279Y-83407740D01*
X148541278Y-83407742D01*
X148492975Y-83451776D01*
X148383158Y-83551887D01*
X148254219Y-83722629D01*
X148158849Y-83914158D01*
X148158846Y-83914164D01*
X148100296Y-84119949D01*
X148100295Y-84119952D01*
X148080554Y-84332999D01*
X145399446Y-84332999D01*
X145396508Y-84301299D01*
X145379704Y-84119952D01*
X145379703Y-84119949D01*
X145321153Y-83914164D01*
X145321150Y-83914158D01*
X145272678Y-83816812D01*
X145225781Y-83722630D01*
X145096841Y-83551886D01*
X144938722Y-83407742D01*
X144938716Y-83407738D01*
X144938713Y-83407736D01*
X144756813Y-83295108D01*
X144756807Y-83295106D01*
X144705571Y-83275257D01*
X144557297Y-83217815D01*
X144346980Y-83178500D01*
X144133020Y-83178500D01*
X143922703Y-83217815D01*
X143796533Y-83266693D01*
X143723192Y-83295106D01*
X143723186Y-83295108D01*
X143541286Y-83407736D01*
X143541283Y-83407738D01*
X143541279Y-83407740D01*
X143541278Y-83407742D01*
X143492975Y-83451776D01*
X143383158Y-83551887D01*
X143254219Y-83722629D01*
X143158849Y-83914158D01*
X143158846Y-83914164D01*
X143100296Y-84119949D01*
X143100295Y-84119952D01*
X143080554Y-84332999D01*
X135837885Y-84332999D01*
X136719123Y-83451761D01*
X136755288Y-83411500D01*
X136771922Y-83390858D01*
X136803567Y-83346974D01*
X136863338Y-83216097D01*
X136883023Y-83149058D01*
X136883024Y-83149054D01*
X136903500Y-83006638D01*
X136903500Y-80832999D01*
X143080554Y-80832999D01*
X143080554Y-80833000D01*
X143100295Y-81046047D01*
X143100296Y-81046050D01*
X143158846Y-81251835D01*
X143158849Y-81251841D01*
X143254219Y-81443370D01*
X143383159Y-81614114D01*
X143541278Y-81758258D01*
X143541283Y-81758261D01*
X143541286Y-81758263D01*
X143723186Y-81870891D01*
X143723187Y-81870891D01*
X143723190Y-81870893D01*
X143922703Y-81948185D01*
X144133020Y-81987500D01*
X144133022Y-81987500D01*
X144346978Y-81987500D01*
X144346980Y-81987500D01*
X144557297Y-81948185D01*
X144756810Y-81870893D01*
X144938722Y-81758258D01*
X145096841Y-81614114D01*
X145225781Y-81443370D01*
X145321151Y-81251840D01*
X145321151Y-81251837D01*
X145321153Y-81251835D01*
X145354679Y-81134000D01*
X145379704Y-81046048D01*
X145399446Y-80833000D01*
X145379704Y-80619952D01*
X145358805Y-80546500D01*
X145321153Y-80414164D01*
X145321150Y-80414158D01*
X145225781Y-80222630D01*
X145096841Y-80051886D01*
X144938926Y-79907928D01*
X148085500Y-79907928D01*
X148085500Y-81758063D01*
X148100266Y-81832301D01*
X148156515Y-81916484D01*
X148190234Y-81939014D01*
X148240699Y-81972734D01*
X148240702Y-81972734D01*
X148240703Y-81972735D01*
X148265666Y-81977700D01*
X148314933Y-81987500D01*
X150165066Y-81987499D01*
X150239301Y-81972734D01*
X150323484Y-81916484D01*
X150379734Y-81832301D01*
X150394500Y-81758067D01*
X150394499Y-79907934D01*
X150379734Y-79833699D01*
X150353947Y-79795106D01*
X150323484Y-79749515D01*
X150273019Y-79715796D01*
X150239301Y-79693266D01*
X150239299Y-79693265D01*
X150239296Y-79693264D01*
X150165069Y-79678500D01*
X148314936Y-79678500D01*
X148240698Y-79693266D01*
X148156515Y-79749515D01*
X148100266Y-79833699D01*
X148100264Y-79833703D01*
X148085500Y-79907928D01*
X144938926Y-79907928D01*
X144938722Y-79907742D01*
X144938716Y-79907738D01*
X144938713Y-79907736D01*
X144756813Y-79795108D01*
X144756807Y-79795106D01*
X144557297Y-79717815D01*
X144346980Y-79678500D01*
X144133020Y-79678500D01*
X143922703Y-79717815D01*
X143840876Y-79749515D01*
X143723192Y-79795106D01*
X143723186Y-79795108D01*
X143541286Y-79907736D01*
X143541283Y-79907738D01*
X143541279Y-79907740D01*
X143541278Y-79907742D01*
X143460369Y-79981500D01*
X143383158Y-80051887D01*
X143254219Y-80222629D01*
X143158849Y-80414158D01*
X143158846Y-80414164D01*
X143100296Y-80619949D01*
X143100295Y-80619952D01*
X143080554Y-80832999D01*
X136903500Y-80832999D01*
X136903500Y-79248000D01*
X184979569Y-79248000D01*
X184999191Y-79384478D01*
X184999192Y-79384480D01*
X185056468Y-79509899D01*
X185056470Y-79509901D01*
X185056471Y-79509903D01*
X185146765Y-79614109D01*
X185262760Y-79688654D01*
X185262762Y-79688654D01*
X185262763Y-79688655D01*
X185395057Y-79727500D01*
X185395058Y-79727500D01*
X185532942Y-79727500D01*
X185665240Y-79688654D01*
X185781235Y-79614109D01*
X185871529Y-79509903D01*
X185928808Y-79384480D01*
X185948431Y-79248000D01*
X185928808Y-79111520D01*
X185888154Y-79022500D01*
X185875139Y-78994000D01*
X186967569Y-78994000D01*
X186987191Y-79130478D01*
X186987192Y-79130480D01*
X187044468Y-79255899D01*
X187044470Y-79255901D01*
X187044471Y-79255903D01*
X187134765Y-79360109D01*
X187250760Y-79434654D01*
X187250762Y-79434654D01*
X187250763Y-79434655D01*
X187383057Y-79473500D01*
X187383058Y-79473500D01*
X187520942Y-79473500D01*
X187653240Y-79434654D01*
X187769235Y-79360109D01*
X187859529Y-79255903D01*
X187916808Y-79130480D01*
X187936431Y-78994000D01*
X187916808Y-78857520D01*
X187876154Y-78768500D01*
X187859531Y-78732100D01*
X187859529Y-78732098D01*
X187859529Y-78732097D01*
X187769235Y-78627891D01*
X187653240Y-78553346D01*
X187653238Y-78553345D01*
X187653236Y-78553344D01*
X187520943Y-78514500D01*
X187520942Y-78514500D01*
X187383058Y-78514500D01*
X187383057Y-78514500D01*
X187250763Y-78553344D01*
X187134764Y-78627891D01*
X187044471Y-78732097D01*
X187044468Y-78732100D01*
X186987192Y-78857519D01*
X186987191Y-78857521D01*
X186967569Y-78994000D01*
X185875139Y-78994000D01*
X185871531Y-78986100D01*
X185871529Y-78986098D01*
X185871529Y-78986097D01*
X185781235Y-78881891D01*
X185665240Y-78807346D01*
X185665238Y-78807345D01*
X185665236Y-78807344D01*
X185532943Y-78768500D01*
X185532942Y-78768500D01*
X185395058Y-78768500D01*
X185395057Y-78768500D01*
X185262763Y-78807344D01*
X185146764Y-78881891D01*
X185056471Y-78986097D01*
X185056468Y-78986100D01*
X184999192Y-79111519D01*
X184999191Y-79111521D01*
X184979569Y-79248000D01*
X136903500Y-79248000D01*
X136903500Y-76596892D01*
X136923185Y-76529853D01*
X136975989Y-76484098D01*
X137045147Y-76474154D01*
X137108703Y-76503179D01*
X137129550Y-76526452D01*
X137185736Y-76607852D01*
X137406713Y-76857286D01*
X137561286Y-76994225D01*
X137656143Y-77078260D01*
X137930388Y-77267558D01*
X138225451Y-77422420D01*
X138411152Y-77492847D01*
X138537023Y-77540584D01*
X138537027Y-77540585D01*
X138537030Y-77540586D01*
X138860580Y-77620334D01*
X139191383Y-77660500D01*
X139524616Y-77660499D01*
X139524619Y-77660499D01*
X139683759Y-77641176D01*
X139855420Y-77620334D01*
X139855423Y-77620333D01*
X139855425Y-77620333D01*
X139930615Y-77601800D01*
X140178970Y-77540586D01*
X140490549Y-77422420D01*
X140785612Y-77267558D01*
X141059857Y-77078260D01*
X141309286Y-76857286D01*
X141530260Y-76607857D01*
X141719558Y-76333612D01*
X141874420Y-76038549D01*
X141992586Y-75726970D01*
X142072334Y-75403420D01*
X142112500Y-75072617D01*
X142112499Y-71739384D01*
X142072334Y-71408580D01*
X141992586Y-71085030D01*
X141980307Y-71052654D01*
X141946875Y-70964500D01*
X141874420Y-70773451D01*
X141719558Y-70478388D01*
X141530260Y-70204143D01*
X141405942Y-70063816D01*
X141309286Y-69954713D01*
X141059852Y-69733736D01*
X140785609Y-69544440D01*
X140490556Y-69389583D01*
X140490551Y-69389581D01*
X140490549Y-69389580D01*
X140424182Y-69364410D01*
X140178976Y-69271415D01*
X140051797Y-69240068D01*
X139855420Y-69191666D01*
X139656938Y-69167566D01*
X139524619Y-69151500D01*
X139191380Y-69151500D01*
X138860574Y-69191666D01*
X138537024Y-69271415D01*
X138291817Y-69364410D01*
X138225451Y-69389580D01*
X138225448Y-69389581D01*
X138225444Y-69389583D01*
X138225443Y-69389583D01*
X137930390Y-69544440D01*
X137656147Y-69733736D01*
X137406713Y-69954713D01*
X137185736Y-70204147D01*
X137129550Y-70285547D01*
X137075267Y-70329537D01*
X137005818Y-70337197D01*
X136943254Y-70306094D01*
X136907436Y-70246103D01*
X136903500Y-70215107D01*
X136903500Y-68326000D01*
X192555569Y-68326000D01*
X192575191Y-68462478D01*
X192575192Y-68462480D01*
X192632468Y-68587899D01*
X192632470Y-68587901D01*
X192632471Y-68587903D01*
X192722765Y-68692109D01*
X192838760Y-68766654D01*
X192838762Y-68766654D01*
X192838763Y-68766655D01*
X192971057Y-68805500D01*
X192971058Y-68805500D01*
X193108942Y-68805500D01*
X193241240Y-68766654D01*
X193357235Y-68692109D01*
X193447529Y-68587903D01*
X193504808Y-68462480D01*
X193524431Y-68326000D01*
X193504808Y-68189520D01*
X193448986Y-68067287D01*
X193447531Y-68064100D01*
X193447529Y-68064098D01*
X193447529Y-68064097D01*
X193357235Y-67959891D01*
X193241240Y-67885346D01*
X193241238Y-67885345D01*
X193241236Y-67885344D01*
X193108943Y-67846500D01*
X193108942Y-67846500D01*
X192971058Y-67846500D01*
X192971057Y-67846500D01*
X192838763Y-67885344D01*
X192722764Y-67959891D01*
X192632471Y-68064097D01*
X192632468Y-68064100D01*
X192575192Y-68189519D01*
X192575191Y-68189521D01*
X192555569Y-68326000D01*
X136903500Y-68326000D01*
X136903500Y-66944892D01*
X136923185Y-66877853D01*
X136975989Y-66832098D01*
X137045147Y-66822154D01*
X137108703Y-66851179D01*
X137129550Y-66874452D01*
X137185736Y-66955852D01*
X137185738Y-66955854D01*
X137185740Y-66955857D01*
X137249210Y-67027500D01*
X137406713Y-67205286D01*
X137533833Y-67317903D01*
X137656143Y-67426260D01*
X137656145Y-67426261D01*
X137656147Y-67426263D01*
X137750119Y-67491127D01*
X137930388Y-67615558D01*
X137930390Y-67615559D01*
X138130725Y-67720704D01*
X138225451Y-67770420D01*
X138411152Y-67840847D01*
X138537023Y-67888584D01*
X138537027Y-67888585D01*
X138537030Y-67888586D01*
X138860580Y-67968334D01*
X139191383Y-68008500D01*
X139524616Y-68008499D01*
X139524619Y-68008499D01*
X139683759Y-67989176D01*
X139855420Y-67968334D01*
X139855423Y-67968333D01*
X139855425Y-67968333D01*
X139930615Y-67949800D01*
X140178970Y-67888586D01*
X140490549Y-67770420D01*
X140785612Y-67615558D01*
X141059857Y-67426260D01*
X141309286Y-67205286D01*
X141530260Y-66955857D01*
X141719558Y-66681612D01*
X141874420Y-66386549D01*
X141976306Y-66117895D01*
X141992584Y-66074976D01*
X141992584Y-66074973D01*
X141992586Y-66074970D01*
X142072334Y-65751420D01*
X142112500Y-65420617D01*
X142112499Y-63754000D01*
X144994465Y-63754000D01*
X145014584Y-64086619D01*
X145014584Y-64086624D01*
X145014585Y-64086625D01*
X145074652Y-64414400D01*
X145074653Y-64414404D01*
X145074654Y-64414408D01*
X145173783Y-64732526D01*
X145173787Y-64732537D01*
X145173788Y-64732540D01*
X145173790Y-64732545D01*
X145310553Y-65036420D01*
X145397774Y-65180701D01*
X145482946Y-65321593D01*
X145482952Y-65321602D01*
X145688460Y-65583913D01*
X145924086Y-65819539D01*
X146007002Y-65884500D01*
X146186405Y-66025053D01*
X146471580Y-66197447D01*
X146775455Y-66334210D01*
X146775465Y-66334213D01*
X146775473Y-66334216D01*
X146943436Y-66386555D01*
X147093600Y-66433348D01*
X147421375Y-66493415D01*
X147754000Y-66513535D01*
X148086625Y-66493415D01*
X148414400Y-66433348D01*
X148732545Y-66334210D01*
X149036420Y-66197447D01*
X149321595Y-66025053D01*
X149583910Y-65819542D01*
X149819542Y-65583910D01*
X150025053Y-65321595D01*
X150197447Y-65036420D01*
X150334210Y-64732545D01*
X150433348Y-64414400D01*
X150493415Y-64086625D01*
X150513535Y-63754000D01*
X167494465Y-63754000D01*
X167514584Y-64086619D01*
X167514584Y-64086624D01*
X167514585Y-64086625D01*
X167574652Y-64414400D01*
X167574653Y-64414404D01*
X167574654Y-64414408D01*
X167673783Y-64732526D01*
X167673787Y-64732537D01*
X167673788Y-64732540D01*
X167673790Y-64732545D01*
X167810553Y-65036420D01*
X167897774Y-65180701D01*
X167982946Y-65321593D01*
X167982952Y-65321602D01*
X168188460Y-65583913D01*
X168424086Y-65819539D01*
X168507002Y-65884500D01*
X168686405Y-66025053D01*
X168971580Y-66197447D01*
X169275455Y-66334210D01*
X169275465Y-66334213D01*
X169275473Y-66334216D01*
X169443436Y-66386555D01*
X169593600Y-66433348D01*
X169921375Y-66493415D01*
X170254000Y-66513535D01*
X170586625Y-66493415D01*
X170914400Y-66433348D01*
X171232545Y-66334210D01*
X171536420Y-66197447D01*
X171821595Y-66025053D01*
X172083910Y-65819542D01*
X172319542Y-65583910D01*
X172525053Y-65321595D01*
X172697447Y-65036420D01*
X172834210Y-64732545D01*
X172933348Y-64414400D01*
X172993415Y-64086625D01*
X173013535Y-63754000D01*
X172993415Y-63421375D01*
X172933348Y-63093600D01*
X172834210Y-62775455D01*
X172697447Y-62471580D01*
X172551407Y-62230000D01*
X189761569Y-62230000D01*
X189781191Y-62366478D01*
X189781192Y-62366480D01*
X189838468Y-62491899D01*
X189838470Y-62491901D01*
X189838471Y-62491903D01*
X189928765Y-62596109D01*
X190044760Y-62670654D01*
X190044762Y-62670654D01*
X190044763Y-62670655D01*
X190177057Y-62709500D01*
X190177058Y-62709500D01*
X190314942Y-62709500D01*
X190447240Y-62670654D01*
X190563235Y-62596109D01*
X190653529Y-62491903D01*
X190710808Y-62366480D01*
X190730431Y-62230000D01*
X190710808Y-62093520D01*
X190684283Y-62035439D01*
X190653531Y-61968100D01*
X190653529Y-61968098D01*
X190653529Y-61968097D01*
X190563235Y-61863891D01*
X190447240Y-61789346D01*
X190447238Y-61789345D01*
X190447236Y-61789344D01*
X190314943Y-61750500D01*
X190314942Y-61750500D01*
X190177058Y-61750500D01*
X190177057Y-61750500D01*
X190044763Y-61789344D01*
X189928764Y-61863891D01*
X189838471Y-61968097D01*
X189838468Y-61968100D01*
X189781192Y-62093519D01*
X189781191Y-62093521D01*
X189761569Y-62230000D01*
X172551407Y-62230000D01*
X172525053Y-62186405D01*
X172452281Y-62093519D01*
X172319539Y-61924086D01*
X172083913Y-61688460D01*
X171821602Y-61482952D01*
X171821597Y-61482949D01*
X171821595Y-61482947D01*
X171536420Y-61310553D01*
X171232545Y-61173790D01*
X171232540Y-61173788D01*
X171232537Y-61173787D01*
X171232526Y-61173783D01*
X170914408Y-61074654D01*
X170914404Y-61074653D01*
X170914400Y-61074652D01*
X170586625Y-61014585D01*
X170586624Y-61014584D01*
X170586619Y-61014584D01*
X170254000Y-60994465D01*
X169921380Y-61014584D01*
X169921375Y-61014585D01*
X169593600Y-61074652D01*
X169593597Y-61074652D01*
X169593591Y-61074654D01*
X169275473Y-61173783D01*
X169275462Y-61173787D01*
X168971584Y-61310551D01*
X168971582Y-61310552D01*
X168686406Y-61482946D01*
X168686397Y-61482952D01*
X168424086Y-61688460D01*
X168188460Y-61924086D01*
X167982952Y-62186397D01*
X167982946Y-62186406D01*
X167810552Y-62471582D01*
X167810551Y-62471584D01*
X167673787Y-62775462D01*
X167673783Y-62775473D01*
X167574654Y-63093591D01*
X167574652Y-63093597D01*
X167574652Y-63093600D01*
X167557114Y-63189301D01*
X167514584Y-63421380D01*
X167494465Y-63754000D01*
X150513535Y-63754000D01*
X150493415Y-63421375D01*
X150433348Y-63093600D01*
X150334210Y-62775455D01*
X150197447Y-62471580D01*
X150025053Y-62186405D01*
X149952281Y-62093519D01*
X149819539Y-61924086D01*
X149583913Y-61688460D01*
X149321602Y-61482952D01*
X149321597Y-61482949D01*
X149321595Y-61482947D01*
X149036420Y-61310553D01*
X148732545Y-61173790D01*
X148732540Y-61173788D01*
X148732537Y-61173787D01*
X148732526Y-61173783D01*
X148414408Y-61074654D01*
X148414404Y-61074653D01*
X148414400Y-61074652D01*
X148086625Y-61014585D01*
X148086624Y-61014584D01*
X148086619Y-61014584D01*
X147754000Y-60994465D01*
X147421380Y-61014584D01*
X147421375Y-61014585D01*
X147093600Y-61074652D01*
X147093597Y-61074652D01*
X147093591Y-61074654D01*
X146775473Y-61173783D01*
X146775462Y-61173787D01*
X146471584Y-61310551D01*
X146471582Y-61310552D01*
X146186406Y-61482946D01*
X146186397Y-61482952D01*
X145924086Y-61688460D01*
X145688460Y-61924086D01*
X145482952Y-62186397D01*
X145482946Y-62186406D01*
X145310552Y-62471582D01*
X145310551Y-62471584D01*
X145173787Y-62775462D01*
X145173783Y-62775473D01*
X145074654Y-63093591D01*
X145074652Y-63093597D01*
X145074652Y-63093600D01*
X145057114Y-63189301D01*
X145014584Y-63421380D01*
X144994465Y-63754000D01*
X142112499Y-63754000D01*
X142112499Y-62087384D01*
X142106282Y-62036183D01*
X142072333Y-61756574D01*
X142007296Y-61492712D01*
X141992586Y-61433030D01*
X141991837Y-61431056D01*
X141962922Y-61354812D01*
X141874420Y-61121451D01*
X141719558Y-60826388D01*
X141530260Y-60552143D01*
X141446225Y-60457286D01*
X141309286Y-60302713D01*
X141093535Y-60111576D01*
X141059857Y-60081740D01*
X141059854Y-60081738D01*
X141059852Y-60081736D01*
X140785609Y-59892440D01*
X140490556Y-59737583D01*
X140490551Y-59737581D01*
X140490549Y-59737580D01*
X140424182Y-59712410D01*
X140178976Y-59619415D01*
X140051797Y-59588068D01*
X139855420Y-59539666D01*
X139656938Y-59515566D01*
X139524619Y-59499500D01*
X139191380Y-59499500D01*
X138860574Y-59539666D01*
X138537024Y-59619415D01*
X138291817Y-59712410D01*
X138225451Y-59737580D01*
X138225448Y-59737581D01*
X138225444Y-59737583D01*
X138225443Y-59737583D01*
X137930390Y-59892440D01*
X137656147Y-60081736D01*
X137406713Y-60302713D01*
X137185736Y-60552147D01*
X137129550Y-60633547D01*
X137075267Y-60677537D01*
X137005818Y-60685197D01*
X136943254Y-60654094D01*
X136907436Y-60594103D01*
X136903500Y-60563107D01*
X136903500Y-59084500D01*
X136923185Y-59017461D01*
X136975989Y-58971706D01*
X137027500Y-58960500D01*
X198547500Y-58960500D01*
X198614539Y-58980185D01*
X198660294Y-59032989D01*
X198671500Y-59084500D01*
X198671500Y-142935500D01*
X198651815Y-143002539D01*
X198599011Y-143048294D01*
X198547500Y-143059500D01*
X99696500Y-143059500D01*
X99629461Y-143039815D01*
X99583706Y-142987011D01*
X99572500Y-142935500D01*
X99572500Y-131229997D01*
X142155720Y-131229997D01*
X142155720Y-131230002D01*
X142174826Y-131582387D01*
X142174827Y-131582404D01*
X142231917Y-131930636D01*
X142231922Y-131930657D01*
X142326330Y-132270687D01*
X142326331Y-132270689D01*
X142456953Y-132598526D01*
X142456962Y-132598544D01*
X142622266Y-132910339D01*
X142622267Y-132910342D01*
X142820308Y-133202430D01*
X142820316Y-133202440D01*
X142895064Y-133290440D01*
X143048777Y-133471405D01*
X143304987Y-133714100D01*
X143585934Y-133927670D01*
X143585942Y-133927675D01*
X143585954Y-133927683D01*
X143888321Y-134109610D01*
X143888326Y-134109613D01*
X143888330Y-134109614D01*
X143888334Y-134109617D01*
X144078543Y-134197617D01*
X144208616Y-134257795D01*
X144543050Y-134370479D01*
X144887707Y-134446344D01*
X145238546Y-134484500D01*
X145238552Y-134484500D01*
X145591448Y-134484500D01*
X145591454Y-134484500D01*
X145942293Y-134446344D01*
X146286950Y-134370479D01*
X146621384Y-134257795D01*
X146941674Y-134109613D01*
X147170934Y-133971672D01*
X147244045Y-133927683D01*
X147244049Y-133927680D01*
X147244066Y-133927670D01*
X147525013Y-133714100D01*
X147781223Y-133471405D01*
X148009690Y-133202432D01*
X148177901Y-132954339D01*
X148207732Y-132910342D01*
X148207732Y-132910340D01*
X148207737Y-132910334D01*
X148373042Y-132598536D01*
X148503667Y-132270693D01*
X148598080Y-131930649D01*
X148640748Y-131670387D01*
X148655172Y-131582404D01*
X148655172Y-131582401D01*
X148655174Y-131582390D01*
X148674280Y-131230000D01*
X148674280Y-131229997D01*
X151934720Y-131229997D01*
X151934720Y-131230002D01*
X151953826Y-131582387D01*
X151953827Y-131582404D01*
X152010917Y-131930636D01*
X152010922Y-131930657D01*
X152105330Y-132270687D01*
X152105331Y-132270689D01*
X152235953Y-132598526D01*
X152235962Y-132598544D01*
X152401266Y-132910339D01*
X152401267Y-132910342D01*
X152599308Y-133202430D01*
X152599316Y-133202440D01*
X152674064Y-133290440D01*
X152827777Y-133471405D01*
X153083987Y-133714100D01*
X153364934Y-133927670D01*
X153364942Y-133927675D01*
X153364954Y-133927683D01*
X153667321Y-134109610D01*
X153667326Y-134109613D01*
X153667330Y-134109614D01*
X153667334Y-134109617D01*
X153857543Y-134197617D01*
X153987616Y-134257795D01*
X154322050Y-134370479D01*
X154666707Y-134446344D01*
X155017546Y-134484500D01*
X155017552Y-134484500D01*
X155370448Y-134484500D01*
X155370454Y-134484500D01*
X155721293Y-134446344D01*
X156065950Y-134370479D01*
X156400384Y-134257795D01*
X156720674Y-134109613D01*
X156949934Y-133971672D01*
X157023045Y-133927683D01*
X157023049Y-133927680D01*
X157023066Y-133927670D01*
X157304013Y-133714100D01*
X157560223Y-133471405D01*
X157788690Y-133202432D01*
X157956901Y-132954339D01*
X157986732Y-132910342D01*
X157986732Y-132910340D01*
X157986737Y-132910334D01*
X158152042Y-132598536D01*
X158282667Y-132270693D01*
X158377080Y-131930649D01*
X158419748Y-131670387D01*
X158434172Y-131582404D01*
X158434172Y-131582401D01*
X158434174Y-131582390D01*
X158453280Y-131230000D01*
X158453280Y-131229997D01*
X161586720Y-131229997D01*
X161586720Y-131230002D01*
X161605826Y-131582387D01*
X161605827Y-131582404D01*
X161662917Y-131930636D01*
X161662922Y-131930657D01*
X161757330Y-132270687D01*
X161757331Y-132270689D01*
X161887953Y-132598526D01*
X161887962Y-132598544D01*
X162053266Y-132910339D01*
X162053267Y-132910342D01*
X162251308Y-133202430D01*
X162251316Y-133202440D01*
X162326064Y-133290440D01*
X162479777Y-133471405D01*
X162735987Y-133714100D01*
X163016934Y-133927670D01*
X163016942Y-133927675D01*
X163016954Y-133927683D01*
X163319321Y-134109610D01*
X163319326Y-134109613D01*
X163319330Y-134109614D01*
X163319334Y-134109617D01*
X163509543Y-134197617D01*
X163639616Y-134257795D01*
X163974050Y-134370479D01*
X164318707Y-134446344D01*
X164669546Y-134484500D01*
X164669552Y-134484500D01*
X165022448Y-134484500D01*
X165022454Y-134484500D01*
X165373293Y-134446344D01*
X165717950Y-134370479D01*
X166052384Y-134257795D01*
X166372674Y-134109613D01*
X166601934Y-133971672D01*
X166675045Y-133927683D01*
X166675049Y-133927680D01*
X166675066Y-133927670D01*
X166956013Y-133714100D01*
X167212223Y-133471405D01*
X167440690Y-133202432D01*
X167608901Y-132954339D01*
X167638732Y-132910342D01*
X167638732Y-132910340D01*
X167638737Y-132910334D01*
X167804042Y-132598536D01*
X167934667Y-132270693D01*
X168029080Y-131930649D01*
X168071748Y-131670387D01*
X168086172Y-131582404D01*
X168086172Y-131582401D01*
X168086174Y-131582390D01*
X168102894Y-131274000D01*
X171238720Y-131274000D01*
X171255440Y-131582390D01*
X171257826Y-131626387D01*
X171257827Y-131626404D01*
X171314917Y-131974636D01*
X171314922Y-131974657D01*
X171409330Y-132314687D01*
X171409331Y-132314689D01*
X171539953Y-132642526D01*
X171539962Y-132642544D01*
X171607521Y-132769973D01*
X171681938Y-132910339D01*
X171705266Y-132954339D01*
X171705267Y-132954342D01*
X171903308Y-133246430D01*
X171903316Y-133246440D01*
X172094403Y-133471405D01*
X172131777Y-133515405D01*
X172387987Y-133758100D01*
X172668934Y-133971670D01*
X172668942Y-133971675D01*
X172668954Y-133971683D01*
X172898192Y-134109610D01*
X172971326Y-134153613D01*
X172971330Y-134153614D01*
X172971334Y-134153617D01*
X173291605Y-134301790D01*
X173291616Y-134301795D01*
X173626050Y-134414479D01*
X173970707Y-134490344D01*
X174321546Y-134528500D01*
X174321552Y-134528500D01*
X174674448Y-134528500D01*
X174674454Y-134528500D01*
X175025293Y-134490344D01*
X175369950Y-134414479D01*
X175704384Y-134301795D01*
X176024674Y-134153613D01*
X176253934Y-134015672D01*
X176327045Y-133971683D01*
X176327049Y-133971680D01*
X176327066Y-133971670D01*
X176608013Y-133758100D01*
X176864223Y-133515405D01*
X177092690Y-133246432D01*
X177260901Y-132998339D01*
X177290732Y-132954342D01*
X177290732Y-132954340D01*
X177290737Y-132954334D01*
X177456042Y-132642536D01*
X177586667Y-132314693D01*
X177681080Y-131974649D01*
X177698652Y-131867461D01*
X177738172Y-131626404D01*
X177738172Y-131626401D01*
X177738174Y-131626390D01*
X177757280Y-131274000D01*
X177754894Y-131229997D01*
X180890720Y-131229997D01*
X180890720Y-131230002D01*
X180909826Y-131582387D01*
X180909827Y-131582404D01*
X180966917Y-131930636D01*
X180966922Y-131930657D01*
X181061330Y-132270687D01*
X181061331Y-132270689D01*
X181191953Y-132598526D01*
X181191962Y-132598544D01*
X181357266Y-132910339D01*
X181357267Y-132910342D01*
X181555308Y-133202430D01*
X181555316Y-133202440D01*
X181630064Y-133290440D01*
X181783777Y-133471405D01*
X182039987Y-133714100D01*
X182320934Y-133927670D01*
X182320942Y-133927675D01*
X182320954Y-133927683D01*
X182623321Y-134109610D01*
X182623326Y-134109613D01*
X182623330Y-134109614D01*
X182623334Y-134109617D01*
X182813543Y-134197617D01*
X182943616Y-134257795D01*
X183278050Y-134370479D01*
X183622707Y-134446344D01*
X183973546Y-134484500D01*
X183973552Y-134484500D01*
X184326448Y-134484500D01*
X184326454Y-134484500D01*
X184677293Y-134446344D01*
X185021950Y-134370479D01*
X185356384Y-134257795D01*
X185676674Y-134109613D01*
X185905934Y-133971672D01*
X185979045Y-133927683D01*
X185979049Y-133927680D01*
X185979066Y-133927670D01*
X186260013Y-133714100D01*
X186516223Y-133471405D01*
X186744690Y-133202432D01*
X186912901Y-132954339D01*
X186942732Y-132910342D01*
X186942732Y-132910340D01*
X186942737Y-132910334D01*
X187108042Y-132598536D01*
X187238667Y-132270693D01*
X187333080Y-131930649D01*
X187375748Y-131670387D01*
X187390172Y-131582404D01*
X187390172Y-131582401D01*
X187390174Y-131582390D01*
X187404509Y-131318000D01*
X190796720Y-131318000D01*
X190813440Y-131626390D01*
X190815826Y-131670387D01*
X190815827Y-131670404D01*
X190872917Y-132018636D01*
X190872922Y-132018657D01*
X190967330Y-132358687D01*
X190967331Y-132358689D01*
X191097953Y-132686526D01*
X191097958Y-132686536D01*
X191239938Y-132954339D01*
X191263266Y-132998339D01*
X191263267Y-132998342D01*
X191461308Y-133290430D01*
X191461316Y-133290440D01*
X191652403Y-133515405D01*
X191689777Y-133559405D01*
X191945987Y-133802100D01*
X192226934Y-134015670D01*
X192226942Y-134015675D01*
X192226954Y-134015683D01*
X192383075Y-134109617D01*
X192529326Y-134197613D01*
X192529330Y-134197614D01*
X192529334Y-134197617D01*
X192849605Y-134345790D01*
X192849616Y-134345795D01*
X193184050Y-134458479D01*
X193528707Y-134534344D01*
X193879546Y-134572500D01*
X193879552Y-134572500D01*
X194232448Y-134572500D01*
X194232454Y-134572500D01*
X194583293Y-134534344D01*
X194927950Y-134458479D01*
X195262384Y-134345795D01*
X195582674Y-134197613D01*
X195769928Y-134084945D01*
X195885045Y-134015683D01*
X195885049Y-134015680D01*
X195885066Y-134015670D01*
X196166013Y-133802100D01*
X196422223Y-133559405D01*
X196650690Y-133290432D01*
X196848737Y-132998334D01*
X197014042Y-132686536D01*
X197144667Y-132358693D01*
X197239080Y-132018649D01*
X197296174Y-131670390D01*
X197315280Y-131318000D01*
X197296174Y-130965610D01*
X197288958Y-130921595D01*
X197239082Y-130617363D01*
X197239081Y-130617362D01*
X197239080Y-130617351D01*
X197172972Y-130379251D01*
X197144669Y-130277312D01*
X197144668Y-130277310D01*
X197014046Y-129949473D01*
X197014037Y-129949455D01*
X197001745Y-129926269D01*
X196848737Y-129637666D01*
X196848733Y-129637660D01*
X196848732Y-129637657D01*
X196650691Y-129345569D01*
X196650683Y-129345559D01*
X196422230Y-129076603D01*
X196422225Y-129076597D01*
X196375775Y-129032597D01*
X196166013Y-128833900D01*
X196166006Y-128833894D01*
X196166003Y-128833892D01*
X195977640Y-128690703D01*
X195885066Y-128620330D01*
X195885060Y-128620326D01*
X195885045Y-128620316D01*
X195582678Y-128438389D01*
X195582665Y-128438382D01*
X195262394Y-128290209D01*
X195262389Y-128290207D01*
X195262384Y-128290205D01*
X195099366Y-128235278D01*
X194927949Y-128177520D01*
X194583291Y-128101655D01*
X194232455Y-128063500D01*
X194232454Y-128063500D01*
X193879546Y-128063500D01*
X193879544Y-128063500D01*
X193528708Y-128101655D01*
X193184050Y-128177520D01*
X192980203Y-128246205D01*
X192849616Y-128290205D01*
X192849613Y-128290206D01*
X192849605Y-128290209D01*
X192529334Y-128438382D01*
X192529321Y-128438389D01*
X192226954Y-128620316D01*
X192226938Y-128620327D01*
X191945996Y-128833892D01*
X191945987Y-128833900D01*
X191689774Y-129076597D01*
X191689769Y-129076603D01*
X191461316Y-129345559D01*
X191461308Y-129345569D01*
X191263267Y-129637657D01*
X191263266Y-129637660D01*
X191097962Y-129949455D01*
X191097953Y-129949473D01*
X190967331Y-130277310D01*
X190967330Y-130277312D01*
X190872922Y-130617342D01*
X190872917Y-130617363D01*
X190815827Y-130965595D01*
X190815826Y-130965612D01*
X190799106Y-131274000D01*
X190796720Y-131318000D01*
X187404509Y-131318000D01*
X187409280Y-131230000D01*
X187390174Y-130877610D01*
X187333080Y-130529351D01*
X187250885Y-130233312D01*
X187238669Y-130189312D01*
X187238668Y-130189310D01*
X187203390Y-130100770D01*
X187125577Y-129905473D01*
X187108046Y-129861473D01*
X187108037Y-129861455D01*
X186942737Y-129549666D01*
X186942733Y-129549660D01*
X186942732Y-129549657D01*
X186744691Y-129257569D01*
X186744683Y-129257559D01*
X186516230Y-128988603D01*
X186516225Y-128988597D01*
X186352913Y-128833900D01*
X186260013Y-128745900D01*
X186260006Y-128745894D01*
X186260003Y-128745892D01*
X186094824Y-128620327D01*
X185979066Y-128532330D01*
X185979060Y-128532326D01*
X185979045Y-128532316D01*
X185676678Y-128350389D01*
X185676665Y-128350382D01*
X185356394Y-128202209D01*
X185356389Y-128202207D01*
X185356384Y-128202205D01*
X185193366Y-128147278D01*
X185021949Y-128089520D01*
X184677291Y-128013655D01*
X184326455Y-127975500D01*
X184326454Y-127975500D01*
X183973546Y-127975500D01*
X183973544Y-127975500D01*
X183622708Y-128013655D01*
X183278050Y-128089520D01*
X183019525Y-128176628D01*
X182943616Y-128202205D01*
X182943613Y-128202206D01*
X182943605Y-128202209D01*
X182623334Y-128350382D01*
X182623321Y-128350389D01*
X182320954Y-128532316D01*
X182320938Y-128532327D01*
X182039996Y-128745892D01*
X182039987Y-128745900D01*
X181783774Y-128988597D01*
X181783769Y-128988603D01*
X181555316Y-129257559D01*
X181555308Y-129257569D01*
X181357267Y-129549657D01*
X181357266Y-129549660D01*
X181191962Y-129861455D01*
X181191953Y-129861473D01*
X181061331Y-130189310D01*
X181061330Y-130189312D01*
X180966922Y-130529342D01*
X180966917Y-130529363D01*
X180909827Y-130877595D01*
X180909826Y-130877612D01*
X180890720Y-131229997D01*
X177754894Y-131229997D01*
X177738174Y-130921610D01*
X177730958Y-130877595D01*
X177681082Y-130573363D01*
X177681081Y-130573362D01*
X177681080Y-130573351D01*
X177629977Y-130389296D01*
X177586669Y-130233312D01*
X177586668Y-130233310D01*
X177456046Y-129905473D01*
X177456037Y-129905455D01*
X177432719Y-129861473D01*
X177290737Y-129593666D01*
X177290733Y-129593660D01*
X177290732Y-129593657D01*
X177092691Y-129301569D01*
X177092683Y-129301559D01*
X176864230Y-129032603D01*
X176864225Y-129032597D01*
X176817775Y-128988597D01*
X176608013Y-128789900D01*
X176608006Y-128789894D01*
X176608003Y-128789892D01*
X176477515Y-128690698D01*
X176327066Y-128576330D01*
X176327060Y-128576326D01*
X176327045Y-128576316D01*
X176024678Y-128394389D01*
X176024665Y-128394382D01*
X175704394Y-128246209D01*
X175704389Y-128246207D01*
X175704384Y-128246205D01*
X175541366Y-128191278D01*
X175369949Y-128133520D01*
X175025291Y-128057655D01*
X174674455Y-128019500D01*
X174674454Y-128019500D01*
X174321546Y-128019500D01*
X174321544Y-128019500D01*
X173970708Y-128057655D01*
X173626050Y-128133520D01*
X173422203Y-128202205D01*
X173291616Y-128246205D01*
X173291613Y-128246206D01*
X173291605Y-128246209D01*
X172971334Y-128394382D01*
X172971321Y-128394389D01*
X172668954Y-128576316D01*
X172668938Y-128576327D01*
X172387996Y-128789892D01*
X172387987Y-128789900D01*
X172131774Y-129032597D01*
X172131769Y-129032603D01*
X171903316Y-129301559D01*
X171903308Y-129301569D01*
X171705267Y-129593657D01*
X171705266Y-129593660D01*
X171539962Y-129905455D01*
X171539953Y-129905473D01*
X171409331Y-130233310D01*
X171409330Y-130233312D01*
X171314922Y-130573342D01*
X171314917Y-130573363D01*
X171257827Y-130921595D01*
X171257826Y-130921612D01*
X171241106Y-131230000D01*
X171238720Y-131274000D01*
X168102894Y-131274000D01*
X168105280Y-131230000D01*
X168086174Y-130877610D01*
X168029080Y-130529351D01*
X167946885Y-130233312D01*
X167934669Y-130189312D01*
X167934668Y-130189310D01*
X167899390Y-130100770D01*
X167821577Y-129905473D01*
X167804046Y-129861473D01*
X167804037Y-129861455D01*
X167638737Y-129549666D01*
X167638733Y-129549660D01*
X167638732Y-129549657D01*
X167440691Y-129257569D01*
X167440683Y-129257559D01*
X167212230Y-128988603D01*
X167212225Y-128988597D01*
X167048913Y-128833900D01*
X166956013Y-128745900D01*
X166956006Y-128745894D01*
X166956003Y-128745892D01*
X166790824Y-128620327D01*
X166675066Y-128532330D01*
X166675060Y-128532326D01*
X166675045Y-128532316D01*
X166372678Y-128350389D01*
X166372665Y-128350382D01*
X166052394Y-128202209D01*
X166052389Y-128202207D01*
X166052384Y-128202205D01*
X165889366Y-128147278D01*
X165717949Y-128089520D01*
X165373291Y-128013655D01*
X165022455Y-127975500D01*
X165022454Y-127975500D01*
X164669546Y-127975500D01*
X164669544Y-127975500D01*
X164318708Y-128013655D01*
X163974050Y-128089520D01*
X163715525Y-128176628D01*
X163639616Y-128202205D01*
X163639613Y-128202206D01*
X163639605Y-128202209D01*
X163319334Y-128350382D01*
X163319321Y-128350389D01*
X163016954Y-128532316D01*
X163016938Y-128532327D01*
X162735996Y-128745892D01*
X162735987Y-128745900D01*
X162479774Y-128988597D01*
X162479769Y-128988603D01*
X162251316Y-129257559D01*
X162251308Y-129257569D01*
X162053267Y-129549657D01*
X162053266Y-129549660D01*
X161887962Y-129861455D01*
X161887953Y-129861473D01*
X161757331Y-130189310D01*
X161757330Y-130189312D01*
X161662922Y-130529342D01*
X161662917Y-130529363D01*
X161605827Y-130877595D01*
X161605826Y-130877612D01*
X161586720Y-131229997D01*
X158453280Y-131229997D01*
X158434174Y-130877610D01*
X158377080Y-130529351D01*
X158294885Y-130233312D01*
X158282669Y-130189312D01*
X158282668Y-130189310D01*
X158247390Y-130100770D01*
X158169577Y-129905473D01*
X158152046Y-129861473D01*
X158152037Y-129861455D01*
X157986737Y-129549666D01*
X157986733Y-129549660D01*
X157986732Y-129549657D01*
X157788691Y-129257569D01*
X157788683Y-129257559D01*
X157560230Y-128988603D01*
X157560225Y-128988597D01*
X157396913Y-128833900D01*
X157304013Y-128745900D01*
X157304006Y-128745894D01*
X157304003Y-128745892D01*
X157138824Y-128620327D01*
X157023066Y-128532330D01*
X157023060Y-128532326D01*
X157023045Y-128532316D01*
X156720678Y-128350389D01*
X156720665Y-128350382D01*
X156400394Y-128202209D01*
X156400389Y-128202207D01*
X156400384Y-128202205D01*
X156237366Y-128147278D01*
X156065949Y-128089520D01*
X155721291Y-128013655D01*
X155370455Y-127975500D01*
X155370454Y-127975500D01*
X155017546Y-127975500D01*
X155017544Y-127975500D01*
X154666708Y-128013655D01*
X154322050Y-128089520D01*
X154063525Y-128176628D01*
X153987616Y-128202205D01*
X153987613Y-128202206D01*
X153987605Y-128202209D01*
X153667334Y-128350382D01*
X153667321Y-128350389D01*
X153364954Y-128532316D01*
X153364938Y-128532327D01*
X153083996Y-128745892D01*
X153083987Y-128745900D01*
X152827774Y-128988597D01*
X152827769Y-128988603D01*
X152599316Y-129257559D01*
X152599308Y-129257569D01*
X152401267Y-129549657D01*
X152401266Y-129549660D01*
X152235962Y-129861455D01*
X152235953Y-129861473D01*
X152105331Y-130189310D01*
X152105330Y-130189312D01*
X152010922Y-130529342D01*
X152010917Y-130529363D01*
X151953827Y-130877595D01*
X151953826Y-130877612D01*
X151934720Y-131229997D01*
X148674280Y-131229997D01*
X148655174Y-130877610D01*
X148598080Y-130529351D01*
X148515885Y-130233312D01*
X148503669Y-130189312D01*
X148503668Y-130189310D01*
X148468390Y-130100770D01*
X148390577Y-129905473D01*
X148373046Y-129861473D01*
X148373037Y-129861455D01*
X148207737Y-129549666D01*
X148207733Y-129549660D01*
X148207732Y-129549657D01*
X148009691Y-129257569D01*
X148009683Y-129257559D01*
X147781230Y-128988603D01*
X147781225Y-128988597D01*
X147617913Y-128833900D01*
X147525013Y-128745900D01*
X147525006Y-128745894D01*
X147525003Y-128745892D01*
X147359824Y-128620327D01*
X147244066Y-128532330D01*
X147244060Y-128532326D01*
X147244045Y-128532316D01*
X146941678Y-128350389D01*
X146941665Y-128350382D01*
X146621394Y-128202209D01*
X146621389Y-128202207D01*
X146621384Y-128202205D01*
X146458366Y-128147278D01*
X146286949Y-128089520D01*
X145942291Y-128013655D01*
X145591455Y-127975500D01*
X145591454Y-127975500D01*
X145238546Y-127975500D01*
X145238544Y-127975500D01*
X144887708Y-128013655D01*
X144543050Y-128089520D01*
X144284525Y-128176628D01*
X144208616Y-128202205D01*
X144208613Y-128202206D01*
X144208605Y-128202209D01*
X143888334Y-128350382D01*
X143888321Y-128350389D01*
X143585954Y-128532316D01*
X143585938Y-128532327D01*
X143304996Y-128745892D01*
X143304987Y-128745900D01*
X143048774Y-128988597D01*
X143048769Y-128988603D01*
X142820316Y-129257559D01*
X142820308Y-129257569D01*
X142622267Y-129549657D01*
X142622266Y-129549660D01*
X142456962Y-129861455D01*
X142456953Y-129861473D01*
X142326331Y-130189310D01*
X142326330Y-130189312D01*
X142231922Y-130529342D01*
X142231917Y-130529363D01*
X142174827Y-130877595D01*
X142174826Y-130877612D01*
X142155720Y-131229997D01*
X99572500Y-131229997D01*
X99572500Y-128764928D01*
X104731500Y-128764928D01*
X104731500Y-130315063D01*
X104746266Y-130389301D01*
X104802515Y-130473484D01*
X104836234Y-130496014D01*
X104886699Y-130529734D01*
X104886702Y-130529734D01*
X104886703Y-130529735D01*
X104911666Y-130534700D01*
X104960933Y-130544500D01*
X106511066Y-130544499D01*
X106585301Y-130529734D01*
X106669484Y-130473484D01*
X106725734Y-130389301D01*
X106740500Y-130315067D01*
X106740499Y-129540000D01*
X107226640Y-129540000D01*
X107246034Y-129736914D01*
X107303474Y-129926269D01*
X107396744Y-130100764D01*
X107396748Y-130100771D01*
X107522274Y-130253725D01*
X107675228Y-130379251D01*
X107675235Y-130379255D01*
X107849730Y-130472525D01*
X107849732Y-130472525D01*
X107849735Y-130472527D01*
X108039084Y-130529965D01*
X108039083Y-130529965D01*
X108056739Y-130531703D01*
X108236000Y-130549360D01*
X108432916Y-130529965D01*
X108622265Y-130472527D01*
X108796770Y-130379252D01*
X108949725Y-130253725D01*
X109075252Y-130100770D01*
X109126642Y-130004627D01*
X109175604Y-129954783D01*
X109243741Y-129939322D01*
X109309421Y-129963153D01*
X109345358Y-130004627D01*
X109396744Y-130100764D01*
X109396748Y-130100771D01*
X109522274Y-130253725D01*
X109675228Y-130379251D01*
X109675235Y-130379255D01*
X109849730Y-130472525D01*
X109849732Y-130472525D01*
X109849735Y-130472527D01*
X110039084Y-130529965D01*
X110039083Y-130529965D01*
X110056739Y-130531703D01*
X110236000Y-130549360D01*
X110432916Y-130529965D01*
X110622265Y-130472527D01*
X110796770Y-130379252D01*
X110949725Y-130253725D01*
X111075252Y-130100770D01*
X111168527Y-129926265D01*
X111225965Y-129736916D01*
X111245360Y-129540000D01*
X111225965Y-129343084D01*
X111168527Y-129153735D01*
X111168525Y-129153732D01*
X111168525Y-129153730D01*
X111075255Y-128979235D01*
X111075251Y-128979228D01*
X110949725Y-128826274D01*
X110874975Y-128764928D01*
X126107500Y-128764928D01*
X126107500Y-130315063D01*
X126122266Y-130389301D01*
X126178515Y-130473484D01*
X126212234Y-130496014D01*
X126262699Y-130529734D01*
X126262702Y-130529734D01*
X126262703Y-130529735D01*
X126287666Y-130534700D01*
X126336933Y-130544500D01*
X127887066Y-130544499D01*
X127961301Y-130529734D01*
X128045484Y-130473484D01*
X128101734Y-130389301D01*
X128116500Y-130315067D01*
X128116499Y-129540000D01*
X128602640Y-129540000D01*
X128622034Y-129736914D01*
X128679474Y-129926269D01*
X128772744Y-130100764D01*
X128772748Y-130100771D01*
X128898274Y-130253725D01*
X129051228Y-130379251D01*
X129051235Y-130379255D01*
X129225730Y-130472525D01*
X129225732Y-130472525D01*
X129225735Y-130472527D01*
X129415084Y-130529965D01*
X129415083Y-130529965D01*
X129432739Y-130531703D01*
X129612000Y-130549360D01*
X129808916Y-130529965D01*
X129998265Y-130472527D01*
X130172770Y-130379252D01*
X130325725Y-130253725D01*
X130451252Y-130100770D01*
X130502642Y-130004627D01*
X130551604Y-129954783D01*
X130619741Y-129939322D01*
X130685421Y-129963153D01*
X130721358Y-130004627D01*
X130772744Y-130100764D01*
X130772748Y-130100771D01*
X130898274Y-130253725D01*
X131051228Y-130379251D01*
X131051235Y-130379255D01*
X131225730Y-130472525D01*
X131225732Y-130472525D01*
X131225735Y-130472527D01*
X131415084Y-130529965D01*
X131415083Y-130529965D01*
X131432739Y-130531703D01*
X131612000Y-130549360D01*
X131808916Y-130529965D01*
X131998265Y-130472527D01*
X132172770Y-130379252D01*
X132325725Y-130253725D01*
X132451252Y-130100770D01*
X132544527Y-129926265D01*
X132601965Y-129736916D01*
X132621360Y-129540000D01*
X132601965Y-129343084D01*
X132544527Y-129153735D01*
X132544525Y-129153732D01*
X132544525Y-129153730D01*
X132451255Y-128979235D01*
X132451251Y-128979228D01*
X132325725Y-128826274D01*
X132172771Y-128700748D01*
X132172764Y-128700744D01*
X131998269Y-128607474D01*
X131895553Y-128576316D01*
X131808916Y-128550035D01*
X131808914Y-128550034D01*
X131808916Y-128550034D01*
X131612000Y-128530640D01*
X131415085Y-128550034D01*
X131225730Y-128607474D01*
X131051235Y-128700744D01*
X131051228Y-128700748D01*
X130898274Y-128826274D01*
X130772748Y-128979228D01*
X130772743Y-128979235D01*
X130721358Y-129075372D01*
X130672396Y-129125217D01*
X130604258Y-129140677D01*
X130538578Y-129116845D01*
X130502642Y-129075372D01*
X130451256Y-128979235D01*
X130451251Y-128979228D01*
X130325725Y-128826274D01*
X130172771Y-128700748D01*
X130172764Y-128700744D01*
X129998269Y-128607474D01*
X129895553Y-128576316D01*
X129808916Y-128550035D01*
X129808914Y-128550034D01*
X129808916Y-128550034D01*
X129612000Y-128530640D01*
X129415085Y-128550034D01*
X129225730Y-128607474D01*
X129051235Y-128700744D01*
X129051228Y-128700748D01*
X128898274Y-128826274D01*
X128772748Y-128979228D01*
X128772744Y-128979235D01*
X128679474Y-129153730D01*
X128622034Y-129343085D01*
X128602640Y-129540000D01*
X128116499Y-129540000D01*
X128116499Y-128764934D01*
X128101734Y-128690699D01*
X128083068Y-128662765D01*
X128045484Y-128606515D01*
X127995019Y-128572796D01*
X127961301Y-128550266D01*
X127961299Y-128550265D01*
X127961296Y-128550264D01*
X127887069Y-128535500D01*
X126336936Y-128535500D01*
X126262698Y-128550266D01*
X126178515Y-128606515D01*
X126122266Y-128690699D01*
X126122264Y-128690703D01*
X126107500Y-128764928D01*
X110874975Y-128764928D01*
X110796771Y-128700748D01*
X110796764Y-128700744D01*
X110622269Y-128607474D01*
X110519553Y-128576316D01*
X110432916Y-128550035D01*
X110432914Y-128550034D01*
X110432916Y-128550034D01*
X110236000Y-128530640D01*
X110039085Y-128550034D01*
X109849730Y-128607474D01*
X109675235Y-128700744D01*
X109675228Y-128700748D01*
X109522274Y-128826274D01*
X109396748Y-128979228D01*
X109396743Y-128979235D01*
X109345358Y-129075372D01*
X109296396Y-129125217D01*
X109228258Y-129140677D01*
X109162578Y-129116845D01*
X109126642Y-129075372D01*
X109075256Y-128979235D01*
X109075251Y-128979228D01*
X108949725Y-128826274D01*
X108796771Y-128700748D01*
X108796764Y-128700744D01*
X108622269Y-128607474D01*
X108519553Y-128576316D01*
X108432916Y-128550035D01*
X108432914Y-128550034D01*
X108432916Y-128550034D01*
X108236000Y-128530640D01*
X108039085Y-128550034D01*
X107849730Y-128607474D01*
X107675235Y-128700744D01*
X107675228Y-128700748D01*
X107522274Y-128826274D01*
X107396748Y-128979228D01*
X107396744Y-128979235D01*
X107303474Y-129153730D01*
X107246034Y-129343085D01*
X107226640Y-129540000D01*
X106740499Y-129540000D01*
X106740499Y-128764934D01*
X106725734Y-128690699D01*
X106707068Y-128662765D01*
X106669484Y-128606515D01*
X106619019Y-128572796D01*
X106585301Y-128550266D01*
X106585299Y-128550265D01*
X106585296Y-128550264D01*
X106511069Y-128535500D01*
X104960936Y-128535500D01*
X104886698Y-128550266D01*
X104802515Y-128606515D01*
X104746266Y-128690699D01*
X104746264Y-128690703D01*
X104731500Y-128764928D01*
X99572500Y-128764928D01*
X99572500Y-126920000D01*
X104726640Y-126920000D01*
X104746034Y-127116914D01*
X104803474Y-127306269D01*
X104896744Y-127480764D01*
X104896748Y-127480771D01*
X105022274Y-127633725D01*
X105175228Y-127759251D01*
X105175235Y-127759255D01*
X105349730Y-127852525D01*
X105349732Y-127852525D01*
X105349735Y-127852527D01*
X105539084Y-127909965D01*
X105539083Y-127909965D01*
X105556739Y-127911703D01*
X105736000Y-127929360D01*
X105932916Y-127909965D01*
X106122265Y-127852527D01*
X106296770Y-127759252D01*
X106449725Y-127633725D01*
X106575252Y-127480770D01*
X106668527Y-127306265D01*
X106725965Y-127116916D01*
X106745360Y-126920000D01*
X107226640Y-126920000D01*
X107246034Y-127116914D01*
X107303474Y-127306269D01*
X107396744Y-127480764D01*
X107396748Y-127480771D01*
X107522274Y-127633725D01*
X107675228Y-127759251D01*
X107675235Y-127759255D01*
X107849730Y-127852525D01*
X107849732Y-127852525D01*
X107849735Y-127852527D01*
X108039084Y-127909965D01*
X108039083Y-127909965D01*
X108056739Y-127911703D01*
X108236000Y-127929360D01*
X108432916Y-127909965D01*
X108622265Y-127852527D01*
X108796770Y-127759252D01*
X108949725Y-127633725D01*
X109075252Y-127480770D01*
X109126642Y-127384627D01*
X109175604Y-127334783D01*
X109243741Y-127319322D01*
X109309421Y-127343153D01*
X109345358Y-127384627D01*
X109396744Y-127480764D01*
X109396748Y-127480771D01*
X109522274Y-127633725D01*
X109675228Y-127759251D01*
X109675235Y-127759255D01*
X109849730Y-127852525D01*
X109849732Y-127852525D01*
X109849735Y-127852527D01*
X110039084Y-127909965D01*
X110039083Y-127909965D01*
X110056739Y-127911703D01*
X110236000Y-127929360D01*
X110432916Y-127909965D01*
X110622265Y-127852527D01*
X110796770Y-127759252D01*
X110949725Y-127633725D01*
X111075252Y-127480770D01*
X111168527Y-127306265D01*
X111225965Y-127116916D01*
X111245360Y-126920000D01*
X126102640Y-126920000D01*
X126122034Y-127116914D01*
X126179474Y-127306269D01*
X126272744Y-127480764D01*
X126272748Y-127480771D01*
X126398274Y-127633725D01*
X126551228Y-127759251D01*
X126551235Y-127759255D01*
X126725730Y-127852525D01*
X126725732Y-127852525D01*
X126725735Y-127852527D01*
X126915084Y-127909965D01*
X126915083Y-127909965D01*
X126932739Y-127911703D01*
X127112000Y-127929360D01*
X127308916Y-127909965D01*
X127498265Y-127852527D01*
X127672770Y-127759252D01*
X127825725Y-127633725D01*
X127951252Y-127480770D01*
X128044527Y-127306265D01*
X128101965Y-127116916D01*
X128121360Y-126920000D01*
X128602640Y-126920000D01*
X128622034Y-127116914D01*
X128679474Y-127306269D01*
X128772744Y-127480764D01*
X128772748Y-127480771D01*
X128898274Y-127633725D01*
X129051228Y-127759251D01*
X129051235Y-127759255D01*
X129225730Y-127852525D01*
X129225732Y-127852525D01*
X129225735Y-127852527D01*
X129415084Y-127909965D01*
X129415083Y-127909965D01*
X129432739Y-127911703D01*
X129612000Y-127929360D01*
X129808916Y-127909965D01*
X129998265Y-127852527D01*
X130172770Y-127759252D01*
X130325725Y-127633725D01*
X130451252Y-127480770D01*
X130502642Y-127384627D01*
X130551604Y-127334783D01*
X130619741Y-127319322D01*
X130685421Y-127343153D01*
X130721358Y-127384627D01*
X130772744Y-127480764D01*
X130772748Y-127480771D01*
X130898274Y-127633725D01*
X131051228Y-127759251D01*
X131051235Y-127759255D01*
X131225730Y-127852525D01*
X131225732Y-127852525D01*
X131225735Y-127852527D01*
X131415084Y-127909965D01*
X131415083Y-127909965D01*
X131432739Y-127911703D01*
X131612000Y-127929360D01*
X131808916Y-127909965D01*
X131998265Y-127852527D01*
X132172770Y-127759252D01*
X132325725Y-127633725D01*
X132451252Y-127480770D01*
X132544527Y-127306265D01*
X132601965Y-127116916D01*
X132621360Y-126920000D01*
X132601965Y-126723084D01*
X132544527Y-126533735D01*
X132544525Y-126533732D01*
X132544525Y-126533730D01*
X132451255Y-126359235D01*
X132451251Y-126359228D01*
X132325725Y-126206274D01*
X132172771Y-126080748D01*
X132172764Y-126080744D01*
X131998269Y-125987474D01*
X131903590Y-125958754D01*
X131808916Y-125930035D01*
X131808914Y-125930034D01*
X131808916Y-125930034D01*
X131612000Y-125910640D01*
X131415085Y-125930034D01*
X131225730Y-125987474D01*
X131051235Y-126080744D01*
X131051228Y-126080748D01*
X130898274Y-126206274D01*
X130772748Y-126359228D01*
X130772743Y-126359235D01*
X130721358Y-126455372D01*
X130672396Y-126505217D01*
X130604258Y-126520677D01*
X130538578Y-126496845D01*
X130502642Y-126455372D01*
X130451256Y-126359235D01*
X130451251Y-126359228D01*
X130325725Y-126206274D01*
X130172771Y-126080748D01*
X130172764Y-126080744D01*
X129998269Y-125987474D01*
X129903590Y-125958754D01*
X129808916Y-125930035D01*
X129808914Y-125930034D01*
X129808916Y-125930034D01*
X129612000Y-125910640D01*
X129415085Y-125930034D01*
X129225730Y-125987474D01*
X129051235Y-126080744D01*
X129051228Y-126080748D01*
X128898274Y-126206274D01*
X128772748Y-126359228D01*
X128772744Y-126359235D01*
X128679474Y-126533730D01*
X128622034Y-126723085D01*
X128602640Y-126920000D01*
X128121360Y-126920000D01*
X128101965Y-126723084D01*
X128044527Y-126533735D01*
X128044525Y-126533732D01*
X128044525Y-126533730D01*
X127951255Y-126359235D01*
X127951251Y-126359228D01*
X127825725Y-126206274D01*
X127672771Y-126080748D01*
X127672764Y-126080744D01*
X127498269Y-125987474D01*
X127403590Y-125958754D01*
X127308916Y-125930035D01*
X127308914Y-125930034D01*
X127308916Y-125930034D01*
X127112000Y-125910640D01*
X126915085Y-125930034D01*
X126725730Y-125987474D01*
X126551235Y-126080744D01*
X126551228Y-126080748D01*
X126398274Y-126206274D01*
X126272748Y-126359228D01*
X126272744Y-126359235D01*
X126179474Y-126533730D01*
X126122034Y-126723085D01*
X126102640Y-126920000D01*
X111245360Y-126920000D01*
X111225965Y-126723084D01*
X111168527Y-126533735D01*
X111168525Y-126533732D01*
X111168525Y-126533730D01*
X111075255Y-126359235D01*
X111075251Y-126359228D01*
X110949725Y-126206274D01*
X110796771Y-126080748D01*
X110796764Y-126080744D01*
X110622269Y-125987474D01*
X110527590Y-125958754D01*
X110432916Y-125930035D01*
X110432914Y-125930034D01*
X110432916Y-125930034D01*
X110236000Y-125910640D01*
X110039085Y-125930034D01*
X109849730Y-125987474D01*
X109675235Y-126080744D01*
X109675228Y-126080748D01*
X109522274Y-126206274D01*
X109396748Y-126359228D01*
X109396743Y-126359235D01*
X109345358Y-126455372D01*
X109296396Y-126505217D01*
X109228258Y-126520677D01*
X109162578Y-126496845D01*
X109126642Y-126455372D01*
X109075256Y-126359235D01*
X109075251Y-126359228D01*
X108949725Y-126206274D01*
X108796771Y-126080748D01*
X108796764Y-126080744D01*
X108622269Y-125987474D01*
X108527590Y-125958754D01*
X108432916Y-125930035D01*
X108432914Y-125930034D01*
X108432916Y-125930034D01*
X108236000Y-125910640D01*
X108039085Y-125930034D01*
X107849730Y-125987474D01*
X107675235Y-126080744D01*
X107675228Y-126080748D01*
X107522274Y-126206274D01*
X107396748Y-126359228D01*
X107396744Y-126359235D01*
X107303474Y-126533730D01*
X107246034Y-126723085D01*
X107226640Y-126920000D01*
X106745360Y-126920000D01*
X106725965Y-126723084D01*
X106668527Y-126533735D01*
X106668525Y-126533732D01*
X106668525Y-126533730D01*
X106575255Y-126359235D01*
X106575251Y-126359228D01*
X106449725Y-126206274D01*
X106296771Y-126080748D01*
X106296764Y-126080744D01*
X106122269Y-125987474D01*
X106027590Y-125958754D01*
X105932916Y-125930035D01*
X105932914Y-125930034D01*
X105932916Y-125930034D01*
X105736000Y-125910640D01*
X105539085Y-125930034D01*
X105349730Y-125987474D01*
X105175235Y-126080744D01*
X105175228Y-126080748D01*
X105022274Y-126206274D01*
X104896748Y-126359228D01*
X104896744Y-126359235D01*
X104803474Y-126533730D01*
X104746034Y-126723085D01*
X104726640Y-126920000D01*
X99572500Y-126920000D01*
X99572500Y-119949000D01*
X185834663Y-119949000D01*
X185853408Y-120234999D01*
X185853992Y-120243901D01*
X185853994Y-120243913D01*
X185911646Y-120533751D01*
X185911651Y-120533771D01*
X186006641Y-120813603D01*
X186006645Y-120813613D01*
X186137357Y-121078670D01*
X186301548Y-121324398D01*
X186496406Y-121546593D01*
X186602465Y-121639603D01*
X186718603Y-121741453D01*
X186881677Y-121850415D01*
X186964329Y-121905642D01*
X187229386Y-122036354D01*
X187229396Y-122036358D01*
X187509228Y-122131348D01*
X187509232Y-122131349D01*
X187509241Y-122131352D01*
X187799097Y-122189008D01*
X188094000Y-122208337D01*
X188388903Y-122189008D01*
X188678759Y-122131352D01*
X188678771Y-122131348D01*
X188958603Y-122036358D01*
X188958613Y-122036354D01*
X189116242Y-121958620D01*
X189223669Y-121905643D01*
X189469397Y-121741453D01*
X189691593Y-121546593D01*
X189886453Y-121324397D01*
X190050643Y-121078669D01*
X190181355Y-120813611D01*
X190191466Y-120783827D01*
X190276348Y-120533771D01*
X190276348Y-120533770D01*
X190276352Y-120533759D01*
X190334008Y-120243903D01*
X190353337Y-119949000D01*
X190353337Y-119948998D01*
X193784380Y-119948998D01*
X193784380Y-119949001D01*
X193804835Y-120235004D01*
X193865782Y-120515168D01*
X193865784Y-120515175D01*
X193872720Y-120533771D01*
X193965985Y-120783827D01*
X193965987Y-120783831D01*
X194103396Y-121035477D01*
X194103397Y-121035478D01*
X194103400Y-121035483D01*
X194275231Y-121265021D01*
X194275235Y-121265025D01*
X194275240Y-121265031D01*
X194477968Y-121467759D01*
X194477974Y-121467764D01*
X194477979Y-121467769D01*
X194707517Y-121639600D01*
X194707521Y-121639602D01*
X194707522Y-121639603D01*
X194959168Y-121777012D01*
X194959172Y-121777014D01*
X194959174Y-121777015D01*
X195227825Y-121877216D01*
X195358496Y-121905642D01*
X195507995Y-121938164D01*
X195507997Y-121938164D01*
X195508001Y-121938165D01*
X195762156Y-121956342D01*
X195793999Y-121958620D01*
X195794000Y-121958620D01*
X195794001Y-121958620D01*
X195822653Y-121956570D01*
X196079999Y-121938165D01*
X196360175Y-121877216D01*
X196628826Y-121777015D01*
X196880483Y-121639600D01*
X197110021Y-121467769D01*
X197312769Y-121265021D01*
X197484600Y-121035483D01*
X197622015Y-120783826D01*
X197722216Y-120515175D01*
X197781228Y-120243903D01*
X197783164Y-120235004D01*
X197783164Y-120235003D01*
X197783165Y-120234999D01*
X197803620Y-119949000D01*
X197783165Y-119663001D01*
X197781228Y-119654098D01*
X197722217Y-119382831D01*
X197722216Y-119382825D01*
X197622015Y-119114174D01*
X197605753Y-119084393D01*
X197484603Y-118862522D01*
X197484602Y-118862521D01*
X197484600Y-118862517D01*
X197312769Y-118632979D01*
X197312764Y-118632974D01*
X197312759Y-118632968D01*
X197110031Y-118430240D01*
X197110025Y-118430235D01*
X197110021Y-118430231D01*
X196880483Y-118258400D01*
X196880478Y-118258397D01*
X196880477Y-118258396D01*
X196628831Y-118120987D01*
X196628827Y-118120985D01*
X196526975Y-118082997D01*
X196360175Y-118020784D01*
X196360171Y-118020783D01*
X196360168Y-118020782D01*
X196080004Y-117959835D01*
X195794001Y-117939380D01*
X195793999Y-117939380D01*
X195507995Y-117959835D01*
X195227831Y-118020782D01*
X195227826Y-118020783D01*
X195227825Y-118020784D01*
X195162874Y-118045009D01*
X194959172Y-118120985D01*
X194959168Y-118120987D01*
X194707522Y-118258396D01*
X194707521Y-118258397D01*
X194477980Y-118430230D01*
X194477968Y-118430240D01*
X194275240Y-118632968D01*
X194275230Y-118632980D01*
X194103397Y-118862521D01*
X194103396Y-118862522D01*
X193965987Y-119114168D01*
X193965985Y-119114172D01*
X193890009Y-119317874D01*
X193872716Y-119364241D01*
X193865782Y-119382831D01*
X193804835Y-119662995D01*
X193784380Y-119948998D01*
X190353337Y-119948998D01*
X190334008Y-119654097D01*
X190276352Y-119364241D01*
X190181355Y-119084389D01*
X190181347Y-119084372D01*
X190050648Y-118819341D01*
X190050635Y-118819319D01*
X189886454Y-118573604D01*
X189691593Y-118351406D01*
X189469398Y-118156548D01*
X189416177Y-118120987D01*
X189387860Y-118102065D01*
X189223670Y-117992357D01*
X188958613Y-117861645D01*
X188958603Y-117861641D01*
X188678771Y-117766651D01*
X188678751Y-117766646D01*
X188388913Y-117708994D01*
X188388903Y-117708992D01*
X188094000Y-117689663D01*
X187799097Y-117708992D01*
X187799091Y-117708993D01*
X187799086Y-117708994D01*
X187509248Y-117766646D01*
X187509233Y-117766650D01*
X187229393Y-117861643D01*
X187229372Y-117861652D01*
X186964341Y-117992351D01*
X186964319Y-117992364D01*
X186718604Y-118156545D01*
X186496406Y-118351406D01*
X186301545Y-118573604D01*
X186137364Y-118819319D01*
X186137351Y-118819341D01*
X186006652Y-119084372D01*
X186006643Y-119084393D01*
X185911650Y-119364233D01*
X185911646Y-119364248D01*
X185907951Y-119382825D01*
X185853992Y-119654097D01*
X185834663Y-119949000D01*
X99572500Y-119949000D01*
X99572500Y-111392928D01*
X106845500Y-111392928D01*
X106845500Y-113143063D01*
X106860266Y-113217301D01*
X106916515Y-113301484D01*
X106950234Y-113324014D01*
X107000699Y-113357734D01*
X107000702Y-113357734D01*
X107000703Y-113357735D01*
X107025666Y-113362700D01*
X107074933Y-113372500D01*
X108825066Y-113372499D01*
X108899301Y-113357734D01*
X108983484Y-113301484D01*
X109039734Y-113217301D01*
X109054500Y-113143067D01*
X109054499Y-112267999D01*
X109380768Y-112267999D01*
X109380768Y-112268000D01*
X109399654Y-112471816D01*
X109455673Y-112668704D01*
X109546912Y-112851935D01*
X109670269Y-113015287D01*
X109821537Y-113153185D01*
X109821539Y-113153187D01*
X109995569Y-113260942D01*
X109995575Y-113260945D01*
X110036010Y-113276609D01*
X110186444Y-113334888D01*
X110387653Y-113372500D01*
X110387656Y-113372500D01*
X110592344Y-113372500D01*
X110592347Y-113372500D01*
X110793556Y-113334888D01*
X110984427Y-113260944D01*
X111158462Y-113153186D01*
X111309732Y-113015285D01*
X111433088Y-112851935D01*
X111524328Y-112668701D01*
X111580345Y-112471821D01*
X111599232Y-112268000D01*
X111599232Y-112267999D01*
X111920768Y-112267999D01*
X111920768Y-112268000D01*
X111939654Y-112471816D01*
X111995673Y-112668704D01*
X112086912Y-112851935D01*
X112210269Y-113015287D01*
X112361537Y-113153185D01*
X112361539Y-113153187D01*
X112535569Y-113260942D01*
X112535575Y-113260945D01*
X112576010Y-113276609D01*
X112726444Y-113334888D01*
X112927653Y-113372500D01*
X112927656Y-113372500D01*
X113132344Y-113372500D01*
X113132347Y-113372500D01*
X113333556Y-113334888D01*
X113524427Y-113260944D01*
X113698462Y-113153186D01*
X113849732Y-113015285D01*
X113973088Y-112851935D01*
X114064328Y-112668701D01*
X114120345Y-112471821D01*
X114139232Y-112268000D01*
X114139232Y-112267999D01*
X114460768Y-112267999D01*
X114460768Y-112268000D01*
X114479654Y-112471816D01*
X114535673Y-112668704D01*
X114626912Y-112851935D01*
X114750269Y-113015287D01*
X114901537Y-113153185D01*
X114901539Y-113153187D01*
X115075569Y-113260942D01*
X115075575Y-113260945D01*
X115116010Y-113276609D01*
X115266444Y-113334888D01*
X115467653Y-113372500D01*
X115467656Y-113372500D01*
X115672344Y-113372500D01*
X115672347Y-113372500D01*
X115873556Y-113334888D01*
X116064427Y-113260944D01*
X116238462Y-113153186D01*
X116389732Y-113015285D01*
X116513088Y-112851935D01*
X116604328Y-112668701D01*
X116660345Y-112471821D01*
X116679232Y-112268000D01*
X116679232Y-112267999D01*
X144940768Y-112267999D01*
X144940768Y-112268000D01*
X144959654Y-112471816D01*
X145015673Y-112668704D01*
X145106912Y-112851935D01*
X145230269Y-113015287D01*
X145381537Y-113153185D01*
X145381539Y-113153187D01*
X145555569Y-113260942D01*
X145555575Y-113260945D01*
X145596010Y-113276609D01*
X145746444Y-113334888D01*
X145947653Y-113372500D01*
X145947656Y-113372500D01*
X146152344Y-113372500D01*
X146152347Y-113372500D01*
X146353556Y-113334888D01*
X146544427Y-113260944D01*
X146718462Y-113153186D01*
X146869732Y-113015285D01*
X146993088Y-112851935D01*
X147084328Y-112668701D01*
X147140345Y-112471821D01*
X147159232Y-112268000D01*
X147159232Y-112267999D01*
X147480768Y-112267999D01*
X147480768Y-112268000D01*
X147499654Y-112471816D01*
X147555673Y-112668704D01*
X147646912Y-112851935D01*
X147770269Y-113015287D01*
X147921537Y-113153185D01*
X147921539Y-113153187D01*
X148095569Y-113260942D01*
X148095575Y-113260945D01*
X148136010Y-113276609D01*
X148286444Y-113334888D01*
X148487653Y-113372500D01*
X148487656Y-113372500D01*
X148692344Y-113372500D01*
X148692347Y-113372500D01*
X148893556Y-113334888D01*
X149084427Y-113260944D01*
X149258462Y-113153186D01*
X149409732Y-113015285D01*
X149533088Y-112851935D01*
X149624328Y-112668701D01*
X149680345Y-112471821D01*
X149699232Y-112268000D01*
X149699232Y-112267999D01*
X150020768Y-112267999D01*
X150020768Y-112268000D01*
X150039654Y-112471816D01*
X150095673Y-112668704D01*
X150186912Y-112851935D01*
X150310269Y-113015287D01*
X150461537Y-113153185D01*
X150461539Y-113153187D01*
X150635569Y-113260942D01*
X150635575Y-113260945D01*
X150676010Y-113276609D01*
X150826444Y-113334888D01*
X151027653Y-113372500D01*
X151027656Y-113372500D01*
X151232344Y-113372500D01*
X151232347Y-113372500D01*
X151433556Y-113334888D01*
X151624427Y-113260944D01*
X151798462Y-113153186D01*
X151949732Y-113015285D01*
X152073088Y-112851935D01*
X152164328Y-112668701D01*
X152220345Y-112471821D01*
X152239232Y-112268000D01*
X152239232Y-112267999D01*
X152560768Y-112267999D01*
X152560768Y-112268000D01*
X152579654Y-112471816D01*
X152635673Y-112668704D01*
X152726912Y-112851935D01*
X152850269Y-113015287D01*
X153001537Y-113153185D01*
X153001539Y-113153187D01*
X153175569Y-113260942D01*
X153175575Y-113260945D01*
X153216010Y-113276609D01*
X153366444Y-113334888D01*
X153567653Y-113372500D01*
X153567656Y-113372500D01*
X153772344Y-113372500D01*
X153772347Y-113372500D01*
X153973556Y-113334888D01*
X154164427Y-113260944D01*
X154338462Y-113153186D01*
X154489732Y-113015285D01*
X154613088Y-112851935D01*
X154704328Y-112668701D01*
X154760345Y-112471821D01*
X154779232Y-112268000D01*
X154779232Y-112267999D01*
X155100768Y-112267999D01*
X155100768Y-112268000D01*
X155119654Y-112471816D01*
X155175673Y-112668704D01*
X155266912Y-112851935D01*
X155390269Y-113015287D01*
X155541537Y-113153185D01*
X155541539Y-113153187D01*
X155715569Y-113260942D01*
X155715575Y-113260945D01*
X155756010Y-113276609D01*
X155906444Y-113334888D01*
X156107653Y-113372500D01*
X156107656Y-113372500D01*
X156312344Y-113372500D01*
X156312347Y-113372500D01*
X156513556Y-113334888D01*
X156704427Y-113260944D01*
X156878462Y-113153186D01*
X157029732Y-113015285D01*
X157153088Y-112851935D01*
X157244328Y-112668701D01*
X157300345Y-112471821D01*
X157319232Y-112268000D01*
X157300345Y-112064179D01*
X157244328Y-111867299D01*
X157153088Y-111684065D01*
X157029732Y-111520715D01*
X157029730Y-111520712D01*
X156878462Y-111382814D01*
X156878460Y-111382812D01*
X156704430Y-111275057D01*
X156704424Y-111275054D01*
X156553993Y-111216777D01*
X156513556Y-111201112D01*
X156312347Y-111163500D01*
X156107653Y-111163500D01*
X155906444Y-111201112D01*
X155906441Y-111201112D01*
X155906441Y-111201113D01*
X155715575Y-111275054D01*
X155715569Y-111275057D01*
X155541539Y-111382812D01*
X155541537Y-111382814D01*
X155390269Y-111520712D01*
X155266912Y-111684064D01*
X155175673Y-111867295D01*
X155119654Y-112064183D01*
X155100768Y-112267999D01*
X154779232Y-112267999D01*
X154760345Y-112064179D01*
X154704328Y-111867299D01*
X154613088Y-111684065D01*
X154489732Y-111520715D01*
X154489730Y-111520712D01*
X154338462Y-111382814D01*
X154338460Y-111382812D01*
X154164430Y-111275057D01*
X154164424Y-111275054D01*
X154013993Y-111216777D01*
X153973556Y-111201112D01*
X153772347Y-111163500D01*
X153567653Y-111163500D01*
X153366444Y-111201112D01*
X153366441Y-111201112D01*
X153366441Y-111201113D01*
X153175575Y-111275054D01*
X153175569Y-111275057D01*
X153001539Y-111382812D01*
X153001537Y-111382814D01*
X152850269Y-111520712D01*
X152726912Y-111684064D01*
X152635673Y-111867295D01*
X152579654Y-112064183D01*
X152560768Y-112267999D01*
X152239232Y-112267999D01*
X152220345Y-112064179D01*
X152164328Y-111867299D01*
X152073088Y-111684065D01*
X151949732Y-111520715D01*
X151949730Y-111520712D01*
X151798462Y-111382814D01*
X151798460Y-111382812D01*
X151624430Y-111275057D01*
X151624424Y-111275054D01*
X151473993Y-111216777D01*
X151433556Y-111201112D01*
X151232347Y-111163500D01*
X151027653Y-111163500D01*
X150826444Y-111201112D01*
X150826441Y-111201112D01*
X150826441Y-111201113D01*
X150635575Y-111275054D01*
X150635569Y-111275057D01*
X150461539Y-111382812D01*
X150461537Y-111382814D01*
X150310269Y-111520712D01*
X150186912Y-111684064D01*
X150095673Y-111867295D01*
X150039654Y-112064183D01*
X150020768Y-112267999D01*
X149699232Y-112267999D01*
X149680345Y-112064179D01*
X149624328Y-111867299D01*
X149533088Y-111684065D01*
X149409732Y-111520715D01*
X149409730Y-111520712D01*
X149258462Y-111382814D01*
X149258460Y-111382812D01*
X149084430Y-111275057D01*
X149084424Y-111275054D01*
X148933993Y-111216777D01*
X148893556Y-111201112D01*
X148692347Y-111163500D01*
X148487653Y-111163500D01*
X148286444Y-111201112D01*
X148286441Y-111201112D01*
X148286441Y-111201113D01*
X148095575Y-111275054D01*
X148095569Y-111275057D01*
X147921539Y-111382812D01*
X147921537Y-111382814D01*
X147770269Y-111520712D01*
X147646912Y-111684064D01*
X147555673Y-111867295D01*
X147499654Y-112064183D01*
X147480768Y-112267999D01*
X147159232Y-112267999D01*
X147140345Y-112064179D01*
X147084328Y-111867299D01*
X146993088Y-111684065D01*
X146869732Y-111520715D01*
X146869730Y-111520712D01*
X146718462Y-111382814D01*
X146718460Y-111382812D01*
X146544430Y-111275057D01*
X146544424Y-111275054D01*
X146393993Y-111216777D01*
X146353556Y-111201112D01*
X146152347Y-111163500D01*
X145947653Y-111163500D01*
X145746444Y-111201112D01*
X145746441Y-111201112D01*
X145746441Y-111201113D01*
X145555575Y-111275054D01*
X145555569Y-111275057D01*
X145381539Y-111382812D01*
X145381537Y-111382814D01*
X145230269Y-111520712D01*
X145106912Y-111684064D01*
X145015673Y-111867295D01*
X144959654Y-112064183D01*
X144940768Y-112267999D01*
X116679232Y-112267999D01*
X116660345Y-112064179D01*
X116604328Y-111867299D01*
X116513088Y-111684065D01*
X116389732Y-111520715D01*
X116389730Y-111520712D01*
X116238462Y-111382814D01*
X116238460Y-111382812D01*
X116064430Y-111275057D01*
X116064424Y-111275054D01*
X115913993Y-111216777D01*
X115873556Y-111201112D01*
X115672347Y-111163500D01*
X115467653Y-111163500D01*
X115266444Y-111201112D01*
X115266441Y-111201112D01*
X115266441Y-111201113D01*
X115075575Y-111275054D01*
X115075569Y-111275057D01*
X114901539Y-111382812D01*
X114901537Y-111382814D01*
X114750269Y-111520712D01*
X114626912Y-111684064D01*
X114535673Y-111867295D01*
X114479654Y-112064183D01*
X114460768Y-112267999D01*
X114139232Y-112267999D01*
X114120345Y-112064179D01*
X114064328Y-111867299D01*
X113973088Y-111684065D01*
X113849732Y-111520715D01*
X113849730Y-111520712D01*
X113698462Y-111382814D01*
X113698460Y-111382812D01*
X113524430Y-111275057D01*
X113524424Y-111275054D01*
X113373993Y-111216777D01*
X113333556Y-111201112D01*
X113132347Y-111163500D01*
X112927653Y-111163500D01*
X112726444Y-111201112D01*
X112726441Y-111201112D01*
X112726441Y-111201113D01*
X112535575Y-111275054D01*
X112535569Y-111275057D01*
X112361539Y-111382812D01*
X112361537Y-111382814D01*
X112210269Y-111520712D01*
X112086912Y-111684064D01*
X111995673Y-111867295D01*
X111939654Y-112064183D01*
X111920768Y-112267999D01*
X111599232Y-112267999D01*
X111580345Y-112064179D01*
X111524328Y-111867299D01*
X111433088Y-111684065D01*
X111309732Y-111520715D01*
X111309730Y-111520712D01*
X111158462Y-111382814D01*
X111158460Y-111382812D01*
X110984430Y-111275057D01*
X110984424Y-111275054D01*
X110833993Y-111216777D01*
X110793556Y-111201112D01*
X110592347Y-111163500D01*
X110387653Y-111163500D01*
X110186444Y-111201112D01*
X110186441Y-111201112D01*
X110186441Y-111201113D01*
X109995575Y-111275054D01*
X109995569Y-111275057D01*
X109821539Y-111382812D01*
X109821537Y-111382814D01*
X109670269Y-111520712D01*
X109546912Y-111684064D01*
X109455673Y-111867295D01*
X109399654Y-112064183D01*
X109380768Y-112267999D01*
X109054499Y-112267999D01*
X109054499Y-111392934D01*
X109039734Y-111318699D01*
X109010571Y-111275054D01*
X108983484Y-111234515D01*
X108933019Y-111200796D01*
X108899301Y-111178266D01*
X108899299Y-111178265D01*
X108899296Y-111178264D01*
X108825069Y-111163500D01*
X107074936Y-111163500D01*
X107000698Y-111178266D01*
X106916515Y-111234515D01*
X106860266Y-111318699D01*
X106860264Y-111318703D01*
X106845500Y-111392928D01*
X99572500Y-111392928D01*
X99572500Y-105949000D01*
X171184848Y-105949000D01*
X171203427Y-106185080D01*
X171258709Y-106415349D01*
X171349335Y-106634141D01*
X171473068Y-106836054D01*
X171473071Y-106836059D01*
X171542786Y-106917685D01*
X171626868Y-107016132D01*
X171742133Y-107114577D01*
X171806940Y-107169928D01*
X171806945Y-107169931D01*
X172008858Y-107293664D01*
X172093470Y-107328711D01*
X172227646Y-107384289D01*
X172457917Y-107439572D01*
X172694000Y-107458152D01*
X172930083Y-107439572D01*
X173160354Y-107384289D01*
X173379141Y-107293664D01*
X173581057Y-107169930D01*
X173761132Y-107016132D01*
X173914930Y-106836057D01*
X174038664Y-106634141D01*
X174129289Y-106415354D01*
X174184572Y-106185083D01*
X174203152Y-105949000D01*
X174184572Y-105712917D01*
X174129289Y-105482646D01*
X174038664Y-105263859D01*
X174038664Y-105263858D01*
X173914931Y-105061945D01*
X173914928Y-105061940D01*
X173859577Y-104997133D01*
X173761132Y-104881868D01*
X173662685Y-104797786D01*
X173581059Y-104728071D01*
X173581054Y-104728068D01*
X173379141Y-104604335D01*
X173160349Y-104513709D01*
X172930079Y-104458427D01*
X172930080Y-104458427D01*
X172694000Y-104439848D01*
X172457919Y-104458427D01*
X172227650Y-104513709D01*
X172008858Y-104604335D01*
X171806945Y-104728068D01*
X171806940Y-104728071D01*
X171626868Y-104881868D01*
X171473071Y-105061940D01*
X171473068Y-105061945D01*
X171349335Y-105263858D01*
X171258709Y-105482650D01*
X171203427Y-105712919D01*
X171184848Y-105949000D01*
X99572500Y-105949000D01*
X99572500Y-103128999D01*
X143080554Y-103128999D01*
X143080554Y-103129000D01*
X143100295Y-103342047D01*
X143100296Y-103342050D01*
X143158846Y-103547835D01*
X143158849Y-103547840D01*
X143254219Y-103739370D01*
X143383159Y-103910114D01*
X143541278Y-104054258D01*
X143541283Y-104054261D01*
X143541286Y-104054263D01*
X143723186Y-104166891D01*
X143723187Y-104166891D01*
X143723190Y-104166893D01*
X143922703Y-104244185D01*
X144133020Y-104283500D01*
X144133022Y-104283500D01*
X144346978Y-104283500D01*
X144346980Y-104283500D01*
X144557297Y-104244185D01*
X144756810Y-104166893D01*
X144938722Y-104054258D01*
X145096841Y-103910114D01*
X145225781Y-103739370D01*
X145321151Y-103547840D01*
X145321151Y-103547837D01*
X145321153Y-103547835D01*
X145379703Y-103342050D01*
X145379704Y-103342047D01*
X145399446Y-103129000D01*
X145399446Y-103128999D01*
X148080554Y-103128999D01*
X148080554Y-103129000D01*
X148100295Y-103342047D01*
X148100296Y-103342050D01*
X148158846Y-103547835D01*
X148158849Y-103547840D01*
X148254219Y-103739370D01*
X148383159Y-103910114D01*
X148541278Y-104054258D01*
X148541283Y-104054261D01*
X148541286Y-104054263D01*
X148723186Y-104166891D01*
X148723187Y-104166891D01*
X148723190Y-104166893D01*
X148922703Y-104244185D01*
X149133020Y-104283500D01*
X149133022Y-104283500D01*
X149346978Y-104283500D01*
X149346980Y-104283500D01*
X149557297Y-104244185D01*
X149756810Y-104166893D01*
X149938722Y-104054258D01*
X150096841Y-103910114D01*
X150225781Y-103739370D01*
X150321151Y-103547840D01*
X150321151Y-103547837D01*
X150321153Y-103547835D01*
X150379703Y-103342050D01*
X150379704Y-103342047D01*
X150399446Y-103129000D01*
X150399446Y-103128999D01*
X150379704Y-102915952D01*
X150379703Y-102915949D01*
X150321153Y-102710164D01*
X150321150Y-102710158D01*
X150225781Y-102518630D01*
X150096841Y-102347886D01*
X149938722Y-102203742D01*
X149938716Y-102203738D01*
X149938713Y-102203736D01*
X149882613Y-102169000D01*
X183294663Y-102169000D01*
X183313992Y-102463901D01*
X183313994Y-102463913D01*
X183371646Y-102753751D01*
X183371651Y-102753771D01*
X183466641Y-103033603D01*
X183466645Y-103033613D01*
X183597357Y-103298670D01*
X183626343Y-103342050D01*
X183761547Y-103544397D01*
X183764567Y-103547841D01*
X183956406Y-103766593D01*
X184120060Y-103910112D01*
X184178603Y-103961453D01*
X184317496Y-104054258D01*
X184424329Y-104125642D01*
X184689386Y-104256354D01*
X184689396Y-104256358D01*
X184969228Y-104351348D01*
X184969232Y-104351349D01*
X184969241Y-104351352D01*
X185259097Y-104409008D01*
X185554000Y-104428337D01*
X185848903Y-104409008D01*
X186138759Y-104351352D01*
X186138771Y-104351348D01*
X186418603Y-104256358D01*
X186418613Y-104256354D01*
X186443291Y-104244184D01*
X186683669Y-104125643D01*
X186929397Y-103961453D01*
X187151593Y-103766593D01*
X187346453Y-103544397D01*
X187510643Y-103298669D01*
X187641355Y-103033611D01*
X187736352Y-102753759D01*
X187794008Y-102463903D01*
X187813337Y-102169000D01*
X187794008Y-101874097D01*
X187736352Y-101584241D01*
X187641355Y-101304389D01*
X187641347Y-101304372D01*
X187510648Y-101039341D01*
X187510635Y-101039319D01*
X187346454Y-100793604D01*
X187151593Y-100571406D01*
X186929398Y-100376548D01*
X186683670Y-100212357D01*
X186418613Y-100081645D01*
X186418603Y-100081641D01*
X186138771Y-99986651D01*
X186138751Y-99986646D01*
X185848913Y-99928994D01*
X185848903Y-99928992D01*
X185554000Y-99909663D01*
X185259097Y-99928992D01*
X185259091Y-99928993D01*
X185259086Y-99928994D01*
X184969248Y-99986646D01*
X184969233Y-99986650D01*
X184689393Y-100081643D01*
X184689372Y-100081652D01*
X184424341Y-100212351D01*
X184424319Y-100212364D01*
X184178604Y-100376545D01*
X183956406Y-100571406D01*
X183761545Y-100793604D01*
X183597364Y-101039319D01*
X183597351Y-101039341D01*
X183466652Y-101304372D01*
X183466643Y-101304393D01*
X183371650Y-101584233D01*
X183371646Y-101584248D01*
X183313994Y-101874086D01*
X183313992Y-101874098D01*
X183294663Y-102169000D01*
X149882613Y-102169000D01*
X149756813Y-102091108D01*
X149756807Y-102091106D01*
X149557297Y-102013815D01*
X149346980Y-101974500D01*
X149133020Y-101974500D01*
X148922703Y-102013815D01*
X148796533Y-102062693D01*
X148723192Y-102091106D01*
X148723186Y-102091108D01*
X148541286Y-102203736D01*
X148541283Y-102203738D01*
X148541279Y-102203740D01*
X148541278Y-102203742D01*
X148383159Y-102347886D01*
X148383158Y-102347887D01*
X148254219Y-102518629D01*
X148158849Y-102710158D01*
X148158846Y-102710164D01*
X148100296Y-102915949D01*
X148100295Y-102915952D01*
X148080554Y-103128999D01*
X145399446Y-103128999D01*
X145379704Y-102915952D01*
X145379703Y-102915949D01*
X145321153Y-102710164D01*
X145321150Y-102710158D01*
X145225781Y-102518630D01*
X145096841Y-102347886D01*
X144938722Y-102203742D01*
X144938716Y-102203738D01*
X144938713Y-102203736D01*
X144756813Y-102091108D01*
X144756807Y-102091106D01*
X144557297Y-102013815D01*
X144346980Y-101974500D01*
X144133020Y-101974500D01*
X143922703Y-102013815D01*
X143796533Y-102062693D01*
X143723192Y-102091106D01*
X143723186Y-102091108D01*
X143541286Y-102203736D01*
X143541283Y-102203738D01*
X143541279Y-102203740D01*
X143541278Y-102203742D01*
X143383159Y-102347886D01*
X143383158Y-102347887D01*
X143254219Y-102518629D01*
X143158849Y-102710158D01*
X143158846Y-102710164D01*
X143100296Y-102915949D01*
X143100295Y-102915952D01*
X143080554Y-103128999D01*
X99572500Y-103128999D01*
X99572500Y-100330000D01*
X102976518Y-100330000D01*
X102996392Y-100519092D01*
X102996393Y-100519095D01*
X103055144Y-100699913D01*
X103055147Y-100699920D01*
X103150214Y-100864580D01*
X103277438Y-101005877D01*
X103431259Y-101117635D01*
X103604955Y-101194969D01*
X103790933Y-101234500D01*
X103981067Y-101234500D01*
X104167045Y-101194969D01*
X104340741Y-101117635D01*
X104494562Y-101005877D01*
X104621786Y-100864580D01*
X104716853Y-100699920D01*
X104775608Y-100519092D01*
X104795482Y-100330000D01*
X104775608Y-100140908D01*
X104716853Y-99960080D01*
X104621786Y-99795420D01*
X104494562Y-99654123D01*
X104340741Y-99542365D01*
X104167045Y-99465031D01*
X104167043Y-99465030D01*
X103981067Y-99425500D01*
X103790933Y-99425500D01*
X103604957Y-99465030D01*
X103431257Y-99542366D01*
X103277436Y-99654124D01*
X103150213Y-99795421D01*
X103055147Y-99960079D01*
X103055144Y-99960086D01*
X102996393Y-100140904D01*
X102996392Y-100140908D01*
X102976518Y-100330000D01*
X99572500Y-100330000D01*
X99572500Y-99060000D01*
X100436518Y-99060000D01*
X100456392Y-99249092D01*
X100456393Y-99249095D01*
X100515144Y-99429913D01*
X100515147Y-99429920D01*
X100610214Y-99594580D01*
X100737438Y-99735877D01*
X100891259Y-99847635D01*
X101064955Y-99924969D01*
X101250933Y-99964500D01*
X101441067Y-99964500D01*
X101627045Y-99924969D01*
X101800741Y-99847635D01*
X101954562Y-99735877D01*
X102081786Y-99594580D01*
X102176853Y-99429920D01*
X102235608Y-99249092D01*
X102255482Y-99060000D01*
X102235608Y-98870908D01*
X102176853Y-98690080D01*
X102081786Y-98525420D01*
X101954562Y-98384123D01*
X101800741Y-98272365D01*
X101627045Y-98195031D01*
X101627043Y-98195030D01*
X101441067Y-98155500D01*
X101250933Y-98155500D01*
X101064957Y-98195030D01*
X100891257Y-98272366D01*
X100737436Y-98384124D01*
X100610213Y-98525421D01*
X100515147Y-98690079D01*
X100515144Y-98690086D01*
X100474914Y-98813903D01*
X100456392Y-98870908D01*
X100436518Y-99060000D01*
X99572500Y-99060000D01*
X99572500Y-97790000D01*
X102976518Y-97790000D01*
X102996392Y-97979092D01*
X102996393Y-97979095D01*
X103055144Y-98159913D01*
X103055147Y-98159920D01*
X103150214Y-98324580D01*
X103277438Y-98465877D01*
X103431259Y-98577635D01*
X103604955Y-98654969D01*
X103790933Y-98694500D01*
X103981067Y-98694500D01*
X104167045Y-98654969D01*
X104340741Y-98577635D01*
X104376024Y-98552000D01*
X115847569Y-98552000D01*
X115867191Y-98688478D01*
X115867192Y-98688480D01*
X115924468Y-98813899D01*
X115924470Y-98813901D01*
X115924471Y-98813903D01*
X116014765Y-98918109D01*
X116130760Y-98992654D01*
X116130762Y-98992654D01*
X116130763Y-98992655D01*
X116263057Y-99031500D01*
X116263058Y-99031500D01*
X116400942Y-99031500D01*
X116533240Y-98992654D01*
X116649235Y-98918109D01*
X116739529Y-98813903D01*
X116796808Y-98688480D01*
X116816431Y-98552000D01*
X116796808Y-98415520D01*
X116755276Y-98324578D01*
X116739531Y-98290100D01*
X116739529Y-98290098D01*
X116739529Y-98290097D01*
X116649235Y-98185891D01*
X116533240Y-98111346D01*
X116533238Y-98111345D01*
X116533236Y-98111344D01*
X116400943Y-98072500D01*
X116400942Y-98072500D01*
X116263058Y-98072500D01*
X116263057Y-98072500D01*
X116130763Y-98111344D01*
X116014764Y-98185891D01*
X115924471Y-98290097D01*
X115924468Y-98290100D01*
X115867192Y-98415519D01*
X115867191Y-98415521D01*
X115847569Y-98552000D01*
X104376024Y-98552000D01*
X104494562Y-98465877D01*
X104621786Y-98324580D01*
X104716853Y-98159920D01*
X104775608Y-97979092D01*
X104795482Y-97790000D01*
X104775608Y-97600908D01*
X104716853Y-97420080D01*
X104621786Y-97255420D01*
X104494562Y-97114123D01*
X104340741Y-97002365D01*
X104167045Y-96925031D01*
X104167043Y-96925030D01*
X103981067Y-96885500D01*
X103790933Y-96885500D01*
X103604957Y-96925030D01*
X103431257Y-97002366D01*
X103277436Y-97114124D01*
X103150213Y-97255421D01*
X103055147Y-97420079D01*
X103055144Y-97420086D01*
X102996393Y-97600904D01*
X102996392Y-97600908D01*
X102976518Y-97790000D01*
X99572500Y-97790000D01*
X99572500Y-95844928D01*
X100441500Y-95844928D01*
X100441500Y-97195063D01*
X100456266Y-97269301D01*
X100512515Y-97353484D01*
X100546234Y-97376014D01*
X100596699Y-97409734D01*
X100596702Y-97409734D01*
X100596703Y-97409735D01*
X100621666Y-97414700D01*
X100670933Y-97424500D01*
X102021066Y-97424499D01*
X102095301Y-97409734D01*
X102179484Y-97353484D01*
X102235734Y-97269301D01*
X102250500Y-97195067D01*
X102250499Y-95938782D01*
X102270184Y-95871744D01*
X102322987Y-95825989D01*
X102392146Y-95816045D01*
X102455702Y-95845070D01*
X102462180Y-95851102D01*
X102508214Y-95897136D01*
X102508218Y-95897139D01*
X102672079Y-96006628D01*
X102672092Y-96006635D01*
X102854160Y-96082049D01*
X102854165Y-96082051D01*
X102854169Y-96082051D01*
X102854170Y-96082052D01*
X103047456Y-96120500D01*
X103047459Y-96120500D01*
X103244543Y-96120500D01*
X103374582Y-96094632D01*
X103437835Y-96082051D01*
X103619914Y-96006632D01*
X103783782Y-95897139D01*
X103923139Y-95757782D01*
X104032632Y-95593914D01*
X104035614Y-95586716D01*
X104061493Y-95524237D01*
X104108051Y-95411835D01*
X104146500Y-95218541D01*
X104146500Y-95021459D01*
X104146500Y-95021456D01*
X104108052Y-94828170D01*
X104108051Y-94828169D01*
X104108051Y-94828165D01*
X104083499Y-94768891D01*
X104032635Y-94646092D01*
X104032628Y-94646079D01*
X103923139Y-94482218D01*
X103923136Y-94482214D01*
X103783785Y-94342863D01*
X103783781Y-94342860D01*
X103619920Y-94233371D01*
X103619907Y-94233364D01*
X103437839Y-94157950D01*
X103437829Y-94157947D01*
X103244543Y-94119500D01*
X103244541Y-94119500D01*
X103047459Y-94119500D01*
X103047457Y-94119500D01*
X102854170Y-94157947D01*
X102854160Y-94157950D01*
X102672092Y-94233364D01*
X102672079Y-94233371D01*
X102508218Y-94342860D01*
X102508214Y-94342863D01*
X102368863Y-94482214D01*
X102368860Y-94482218D01*
X102259371Y-94646079D01*
X102259364Y-94646092D01*
X102183950Y-94828160D01*
X102183947Y-94828170D01*
X102145500Y-95021456D01*
X102145500Y-95021459D01*
X102145500Y-95218541D01*
X102145500Y-95218543D01*
X102145499Y-95218543D01*
X102183947Y-95411829D01*
X102183949Y-95411834D01*
X102201732Y-95454768D01*
X102209199Y-95524237D01*
X102177924Y-95586716D01*
X102117834Y-95622368D01*
X102062980Y-95623837D01*
X102021067Y-95615500D01*
X102021065Y-95615500D01*
X100670936Y-95615500D01*
X100596698Y-95630266D01*
X100512515Y-95686515D01*
X100456266Y-95770699D01*
X100456264Y-95770703D01*
X100441500Y-95844928D01*
X99572500Y-95844928D01*
X99572500Y-93980000D01*
X111402569Y-93980000D01*
X111422191Y-94116478D01*
X111422192Y-94116480D01*
X111479468Y-94241899D01*
X111479470Y-94241901D01*
X111479471Y-94241903D01*
X111569765Y-94346109D01*
X111685760Y-94420654D01*
X111685762Y-94420654D01*
X111685763Y-94420655D01*
X111818057Y-94459500D01*
X111818058Y-94459500D01*
X111955942Y-94459500D01*
X112088240Y-94420654D01*
X112204235Y-94346109D01*
X112294529Y-94241903D01*
X112298426Y-94233371D01*
X112332869Y-94157950D01*
X112351808Y-94116480D01*
X112371431Y-93980000D01*
X112351808Y-93843520D01*
X112300422Y-93731000D01*
X112300422Y-93730999D01*
X143080554Y-93730999D01*
X143080554Y-93731000D01*
X143100295Y-93944047D01*
X143100296Y-93944050D01*
X143158846Y-94149835D01*
X143158849Y-94149841D01*
X143254219Y-94341370D01*
X143383159Y-94512114D01*
X143541278Y-94656258D01*
X143541283Y-94656261D01*
X143541286Y-94656263D01*
X143723186Y-94768891D01*
X143723187Y-94768891D01*
X143723190Y-94768893D01*
X143922703Y-94846185D01*
X144133020Y-94885500D01*
X144133022Y-94885500D01*
X144346978Y-94885500D01*
X144346980Y-94885500D01*
X144557297Y-94846185D01*
X144756810Y-94768893D01*
X144938722Y-94656258D01*
X145096841Y-94512114D01*
X145225781Y-94341370D01*
X145321151Y-94149840D01*
X145321151Y-94149837D01*
X145321153Y-94149835D01*
X145354679Y-94032000D01*
X145379704Y-93944048D01*
X145399446Y-93731000D01*
X145399446Y-93730999D01*
X148080554Y-93730999D01*
X148080554Y-93731000D01*
X148100295Y-93944047D01*
X148100296Y-93944050D01*
X148158846Y-94149835D01*
X148158849Y-94149841D01*
X148254219Y-94341370D01*
X148383159Y-94512114D01*
X148541278Y-94656258D01*
X148541283Y-94656261D01*
X148541286Y-94656263D01*
X148723186Y-94768891D01*
X148723187Y-94768891D01*
X148723190Y-94768893D01*
X148922703Y-94846185D01*
X149133020Y-94885500D01*
X149133022Y-94885500D01*
X149346978Y-94885500D01*
X149346980Y-94885500D01*
X149557297Y-94846185D01*
X149756810Y-94768893D01*
X149938722Y-94656258D01*
X150096841Y-94512114D01*
X150225781Y-94341370D01*
X150321151Y-94149840D01*
X150321151Y-94149837D01*
X150321153Y-94149835D01*
X150354679Y-94032000D01*
X150379704Y-93944048D01*
X150399446Y-93731000D01*
X150379704Y-93517952D01*
X150371200Y-93488065D01*
X150321153Y-93312164D01*
X150321150Y-93312158D01*
X150225781Y-93120630D01*
X150096841Y-92949886D01*
X149938722Y-92805742D01*
X149938716Y-92805738D01*
X149938713Y-92805736D01*
X149756813Y-92693108D01*
X149756807Y-92693106D01*
X149557297Y-92615815D01*
X149346980Y-92576500D01*
X149133020Y-92576500D01*
X148922703Y-92615815D01*
X148796533Y-92664693D01*
X148723192Y-92693106D01*
X148723186Y-92693108D01*
X148541286Y-92805736D01*
X148541283Y-92805738D01*
X148541279Y-92805740D01*
X148541278Y-92805742D01*
X148383159Y-92949886D01*
X148383158Y-92949887D01*
X148254219Y-93120629D01*
X148158849Y-93312158D01*
X148158846Y-93312164D01*
X148100296Y-93517949D01*
X148100295Y-93517952D01*
X148080554Y-93730999D01*
X145399446Y-93730999D01*
X145379704Y-93517952D01*
X145371200Y-93488065D01*
X145321153Y-93312164D01*
X145321150Y-93312158D01*
X145225781Y-93120630D01*
X145096841Y-92949886D01*
X144938722Y-92805742D01*
X144938716Y-92805738D01*
X144938713Y-92805736D01*
X144756813Y-92693108D01*
X144756807Y-92693106D01*
X144557297Y-92615815D01*
X144346980Y-92576500D01*
X144133020Y-92576500D01*
X143922703Y-92615815D01*
X143796533Y-92664693D01*
X143723192Y-92693106D01*
X143723186Y-92693108D01*
X143541286Y-92805736D01*
X143541283Y-92805738D01*
X143541279Y-92805740D01*
X143541278Y-92805742D01*
X143383159Y-92949886D01*
X143383158Y-92949887D01*
X143254219Y-93120629D01*
X143158849Y-93312158D01*
X143158846Y-93312164D01*
X143100296Y-93517949D01*
X143100295Y-93517952D01*
X143080554Y-93730999D01*
X112300422Y-93730999D01*
X112294531Y-93718100D01*
X112294529Y-93718098D01*
X112294529Y-93718097D01*
X112204235Y-93613891D01*
X112088240Y-93539346D01*
X112088238Y-93539345D01*
X112088236Y-93539344D01*
X111955943Y-93500500D01*
X111955942Y-93500500D01*
X111818058Y-93500500D01*
X111818057Y-93500500D01*
X111685763Y-93539344D01*
X111569764Y-93613891D01*
X111479471Y-93718097D01*
X111479468Y-93718100D01*
X111422192Y-93843519D01*
X111422191Y-93843521D01*
X111402569Y-93980000D01*
X99572500Y-93980000D01*
X99572500Y-90424000D01*
X114831569Y-90424000D01*
X114851191Y-90560478D01*
X114851192Y-90560480D01*
X114908468Y-90685899D01*
X114908470Y-90685901D01*
X114908471Y-90685903D01*
X114998765Y-90790109D01*
X115114760Y-90864654D01*
X115114762Y-90864654D01*
X115114763Y-90864655D01*
X115247057Y-90903500D01*
X115247058Y-90903500D01*
X115384942Y-90903500D01*
X115517240Y-90864654D01*
X115633235Y-90790109D01*
X115723529Y-90685903D01*
X115780808Y-90560480D01*
X115800431Y-90424000D01*
X115780808Y-90287520D01*
X115754995Y-90230999D01*
X143080554Y-90230999D01*
X143080554Y-90231000D01*
X143100295Y-90444047D01*
X143100296Y-90444050D01*
X143158846Y-90649835D01*
X143158849Y-90649841D01*
X143176806Y-90685903D01*
X143254219Y-90841370D01*
X143383159Y-91012114D01*
X143541278Y-91156258D01*
X143541283Y-91156261D01*
X143541286Y-91156263D01*
X143723186Y-91268891D01*
X143723187Y-91268891D01*
X143723190Y-91268893D01*
X143922703Y-91346185D01*
X144133020Y-91385500D01*
X144133022Y-91385500D01*
X144346978Y-91385500D01*
X144346980Y-91385500D01*
X144557297Y-91346185D01*
X144756810Y-91268893D01*
X144938722Y-91156258D01*
X145096841Y-91012114D01*
X145225781Y-90841370D01*
X145321151Y-90649840D01*
X145321151Y-90649837D01*
X145321153Y-90649835D01*
X145379703Y-90444050D01*
X145379704Y-90444047D01*
X145394209Y-90287521D01*
X145399446Y-90231000D01*
X145379704Y-90017952D01*
X145350696Y-89916000D01*
X145321153Y-89812164D01*
X145321150Y-89812158D01*
X145232189Y-89633500D01*
X145225781Y-89620630D01*
X145096841Y-89449886D01*
X144938926Y-89305928D01*
X148085500Y-89305928D01*
X148085500Y-91156063D01*
X148100266Y-91230301D01*
X148156515Y-91314484D01*
X148190234Y-91337014D01*
X148240699Y-91370734D01*
X148240702Y-91370734D01*
X148240703Y-91370735D01*
X148265666Y-91375700D01*
X148314933Y-91385500D01*
X150165066Y-91385499D01*
X150239301Y-91370734D01*
X150323484Y-91314484D01*
X150379734Y-91230301D01*
X150394500Y-91156067D01*
X150394499Y-89305934D01*
X150379734Y-89231699D01*
X150327817Y-89154000D01*
X150323484Y-89147515D01*
X150273019Y-89113796D01*
X150239301Y-89091266D01*
X150239299Y-89091265D01*
X150239296Y-89091264D01*
X150165069Y-89076500D01*
X148314936Y-89076500D01*
X148240698Y-89091266D01*
X148156515Y-89147515D01*
X148100266Y-89231699D01*
X148100264Y-89231703D01*
X148085500Y-89305928D01*
X144938926Y-89305928D01*
X144938722Y-89305742D01*
X144938716Y-89305738D01*
X144938713Y-89305736D01*
X144756813Y-89193108D01*
X144756807Y-89193106D01*
X144557297Y-89115815D01*
X144346980Y-89076500D01*
X144133020Y-89076500D01*
X143922703Y-89115815D01*
X143796533Y-89164693D01*
X143723192Y-89193106D01*
X143723186Y-89193108D01*
X143541286Y-89305736D01*
X143541283Y-89305738D01*
X143541279Y-89305740D01*
X143541278Y-89305742D01*
X143420441Y-89415899D01*
X143383158Y-89449887D01*
X143254219Y-89620629D01*
X143158849Y-89812158D01*
X143158846Y-89812164D01*
X143100296Y-90017949D01*
X143100295Y-90017952D01*
X143080554Y-90230999D01*
X115754995Y-90230999D01*
X115754283Y-90229439D01*
X115723531Y-90162100D01*
X115723529Y-90162098D01*
X115723529Y-90162097D01*
X115633235Y-90057891D01*
X115517240Y-89983346D01*
X115517238Y-89983345D01*
X115517236Y-89983344D01*
X115384943Y-89944500D01*
X115384942Y-89944500D01*
X115247058Y-89944500D01*
X115247057Y-89944500D01*
X115114763Y-89983344D01*
X114998764Y-90057891D01*
X114908471Y-90162097D01*
X114908468Y-90162100D01*
X114851192Y-90287519D01*
X114851191Y-90287521D01*
X114831569Y-90424000D01*
X99572500Y-90424000D01*
X99572500Y-89916000D01*
X104163569Y-89916000D01*
X104183191Y-90052478D01*
X104183192Y-90052480D01*
X104240468Y-90177899D01*
X104240470Y-90177901D01*
X104240471Y-90177903D01*
X104330765Y-90282109D01*
X104446760Y-90356654D01*
X104446762Y-90356654D01*
X104446763Y-90356655D01*
X104579057Y-90395500D01*
X104579058Y-90395500D01*
X104716942Y-90395500D01*
X104849240Y-90356654D01*
X104965235Y-90282109D01*
X105055529Y-90177903D01*
X105112808Y-90052480D01*
X105132431Y-89916000D01*
X105112808Y-89779520D01*
X105086283Y-89721439D01*
X105055531Y-89654100D01*
X105055529Y-89654098D01*
X105055529Y-89654097D01*
X104965235Y-89549891D01*
X104849240Y-89475346D01*
X104849238Y-89475345D01*
X104849236Y-89475344D01*
X104716943Y-89436500D01*
X104716942Y-89436500D01*
X104579058Y-89436500D01*
X104579057Y-89436500D01*
X104446763Y-89475344D01*
X104330764Y-89549891D01*
X104240471Y-89654097D01*
X104240468Y-89654100D01*
X104183192Y-89779519D01*
X104183191Y-89779521D01*
X104163569Y-89916000D01*
X99572500Y-89916000D01*
X99572500Y-89154000D01*
X113053569Y-89154000D01*
X113073191Y-89290478D01*
X113073192Y-89290480D01*
X113130468Y-89415899D01*
X113130470Y-89415901D01*
X113130471Y-89415903D01*
X113220765Y-89520109D01*
X113336760Y-89594654D01*
X113336762Y-89594654D01*
X113336763Y-89594655D01*
X113469057Y-89633500D01*
X113469058Y-89633500D01*
X113606942Y-89633500D01*
X113739240Y-89594654D01*
X113855235Y-89520109D01*
X113945529Y-89415903D01*
X114002808Y-89290480D01*
X114022431Y-89154000D01*
X118133569Y-89154000D01*
X118153191Y-89290478D01*
X118153192Y-89290480D01*
X118210468Y-89415899D01*
X118210470Y-89415901D01*
X118210471Y-89415903D01*
X118300765Y-89520109D01*
X118416760Y-89594654D01*
X118416762Y-89594654D01*
X118416763Y-89594655D01*
X118549057Y-89633500D01*
X118549058Y-89633500D01*
X118686942Y-89633500D01*
X118819240Y-89594654D01*
X118935235Y-89520109D01*
X119025529Y-89415903D01*
X119082808Y-89290480D01*
X119102431Y-89154000D01*
X119082808Y-89017520D01*
X119056283Y-88959439D01*
X119025531Y-88892100D01*
X119025529Y-88892098D01*
X119025529Y-88892097D01*
X118935235Y-88787891D01*
X118819240Y-88713346D01*
X118819238Y-88713345D01*
X118819236Y-88713344D01*
X118686943Y-88674500D01*
X118686942Y-88674500D01*
X118549058Y-88674500D01*
X118549057Y-88674500D01*
X118416763Y-88713344D01*
X118300764Y-88787891D01*
X118210471Y-88892097D01*
X118210468Y-88892100D01*
X118153192Y-89017519D01*
X118153191Y-89017521D01*
X118133569Y-89154000D01*
X114022431Y-89154000D01*
X114002808Y-89017520D01*
X113976283Y-88959439D01*
X113945531Y-88892100D01*
X113945529Y-88892098D01*
X113945529Y-88892097D01*
X113855235Y-88787891D01*
X113739240Y-88713346D01*
X113739238Y-88713345D01*
X113739236Y-88713344D01*
X113606943Y-88674500D01*
X113606942Y-88674500D01*
X113469058Y-88674500D01*
X113469057Y-88674500D01*
X113336763Y-88713344D01*
X113220764Y-88787891D01*
X113130471Y-88892097D01*
X113130468Y-88892100D01*
X113073192Y-89017519D01*
X113073191Y-89017521D01*
X113053569Y-89154000D01*
X99572500Y-89154000D01*
X99572500Y-88265000D01*
X110005569Y-88265000D01*
X110025191Y-88401478D01*
X110025192Y-88401480D01*
X110082468Y-88526899D01*
X110082470Y-88526901D01*
X110082471Y-88526903D01*
X110172765Y-88631109D01*
X110288760Y-88705654D01*
X110288762Y-88705654D01*
X110288763Y-88705655D01*
X110421057Y-88744500D01*
X110421058Y-88744500D01*
X110558942Y-88744500D01*
X110691240Y-88705654D01*
X110807235Y-88631109D01*
X110897529Y-88526903D01*
X110954808Y-88401480D01*
X110974431Y-88265000D01*
X110954808Y-88128520D01*
X110928283Y-88070439D01*
X110897531Y-88003100D01*
X110897529Y-88003098D01*
X110897529Y-88003097D01*
X110807235Y-87898891D01*
X110691240Y-87824346D01*
X110691238Y-87824345D01*
X110691236Y-87824344D01*
X110558943Y-87785500D01*
X110558942Y-87785500D01*
X110421058Y-87785500D01*
X110421057Y-87785500D01*
X110288763Y-87824344D01*
X110172764Y-87898891D01*
X110082471Y-88003097D01*
X110082468Y-88003100D01*
X110025192Y-88128519D01*
X110025191Y-88128521D01*
X110005569Y-88265000D01*
X99572500Y-88265000D01*
X99572500Y-82701999D01*
X101506768Y-82701999D01*
X101506768Y-82702000D01*
X101525654Y-82905816D01*
X101525654Y-82905818D01*
X101525655Y-82905821D01*
X101569719Y-83060689D01*
X101581673Y-83102704D01*
X101672912Y-83285935D01*
X101796269Y-83449287D01*
X101947537Y-83587185D01*
X101947538Y-83587186D01*
X101962699Y-83596574D01*
X102009334Y-83648603D01*
X102020437Y-83717585D01*
X101992483Y-83781619D01*
X101962699Y-83807426D01*
X101947538Y-83816813D01*
X101947537Y-83816814D01*
X101796269Y-83954712D01*
X101672912Y-84118064D01*
X101581673Y-84301295D01*
X101525654Y-84498183D01*
X101506768Y-84701999D01*
X101506768Y-84702000D01*
X101525654Y-84905816D01*
X101525654Y-84905818D01*
X101525655Y-84905821D01*
X101554159Y-85006001D01*
X101581673Y-85102704D01*
X101672912Y-85285935D01*
X101796267Y-85449284D01*
X101884710Y-85529911D01*
X101920991Y-85589623D01*
X101919230Y-85659470D01*
X101888852Y-85709229D01*
X101568317Y-86029764D01*
X101526265Y-86092701D01*
X101526264Y-86092701D01*
X101511500Y-86166928D01*
X101511500Y-87350251D01*
X101511501Y-87350257D01*
X101517960Y-87410344D01*
X101568655Y-87546261D01*
X101568656Y-87546264D01*
X101568658Y-87546267D01*
X101580925Y-87562654D01*
X101655595Y-87662404D01*
X101713443Y-87705707D01*
X101771733Y-87749342D01*
X101907658Y-87800040D01*
X101967745Y-87806500D01*
X103264254Y-87806499D01*
X103324342Y-87800040D01*
X103460267Y-87749342D01*
X103576404Y-87662404D01*
X103663342Y-87546267D01*
X103714040Y-87410342D01*
X103716883Y-87383899D01*
X103720499Y-87350271D01*
X103720499Y-87350264D01*
X103720500Y-87350255D01*
X103720500Y-87122000D01*
X111021569Y-87122000D01*
X111041191Y-87258478D01*
X111041192Y-87258480D01*
X111098468Y-87383899D01*
X111098470Y-87383901D01*
X111098471Y-87383903D01*
X111188765Y-87488109D01*
X111304760Y-87562654D01*
X111304762Y-87562654D01*
X111304763Y-87562655D01*
X111437057Y-87601500D01*
X111437058Y-87601500D01*
X111574942Y-87601500D01*
X111707240Y-87562654D01*
X111823235Y-87488109D01*
X111913529Y-87383903D01*
X111970808Y-87258480D01*
X111990431Y-87122000D01*
X111970808Y-86985520D01*
X111944283Y-86927439D01*
X111913531Y-86860100D01*
X111913529Y-86860098D01*
X111913529Y-86860097D01*
X111823235Y-86755891D01*
X111707240Y-86681346D01*
X111707238Y-86681345D01*
X111707236Y-86681344D01*
X111574943Y-86642500D01*
X111574942Y-86642500D01*
X111437058Y-86642500D01*
X111437057Y-86642500D01*
X111304763Y-86681344D01*
X111188764Y-86755891D01*
X111098471Y-86860097D01*
X111098468Y-86860100D01*
X111041192Y-86985519D01*
X111041191Y-86985521D01*
X111021569Y-87122000D01*
X103720500Y-87122000D01*
X103720499Y-86053746D01*
X103714040Y-85993658D01*
X103705037Y-85969519D01*
X103663344Y-85857738D01*
X103663343Y-85857737D01*
X103663342Y-85857733D01*
X103619707Y-85799443D01*
X103576404Y-85741595D01*
X103460267Y-85654658D01*
X103456637Y-85652676D01*
X103453712Y-85649751D01*
X103453168Y-85649344D01*
X103453226Y-85649265D01*
X103407232Y-85603271D01*
X103392380Y-85534998D01*
X103416797Y-85469533D01*
X103432534Y-85452200D01*
X103435732Y-85449285D01*
X103559088Y-85285935D01*
X103650328Y-85102701D01*
X103706345Y-84905821D01*
X103712815Y-84836000D01*
X106957569Y-84836000D01*
X106977191Y-84972478D01*
X106977192Y-84972480D01*
X107034468Y-85097899D01*
X107034470Y-85097901D01*
X107034471Y-85097903D01*
X107124765Y-85202109D01*
X107240760Y-85276654D01*
X107240762Y-85276654D01*
X107240763Y-85276655D01*
X107381568Y-85317999D01*
X107380575Y-85321380D01*
X107428781Y-85343376D01*
X107466575Y-85402142D01*
X107470347Y-85454761D01*
X107465569Y-85487997D01*
X107465569Y-85488001D01*
X107465637Y-85488474D01*
X107465569Y-85488946D01*
X107465569Y-85496869D01*
X107464430Y-85496869D01*
X107455693Y-85557633D01*
X107409937Y-85610436D01*
X107377834Y-85625097D01*
X107240763Y-85665344D01*
X107124764Y-85739891D01*
X107034471Y-85844097D01*
X107034468Y-85844100D01*
X106977192Y-85969519D01*
X106977191Y-85969521D01*
X106957569Y-86106000D01*
X106977191Y-86242478D01*
X106977192Y-86242480D01*
X107034468Y-86367899D01*
X107034470Y-86367901D01*
X107034471Y-86367903D01*
X107124765Y-86472109D01*
X107240760Y-86546654D01*
X107240762Y-86546654D01*
X107240763Y-86546655D01*
X107373057Y-86585500D01*
X107373058Y-86585500D01*
X107510942Y-86585500D01*
X107643240Y-86546654D01*
X107759235Y-86472109D01*
X107849529Y-86367903D01*
X107906808Y-86242480D01*
X107926431Y-86106000D01*
X107926364Y-86105535D01*
X107926431Y-86105069D01*
X107926431Y-86097131D01*
X107927572Y-86097131D01*
X107936301Y-86036377D01*
X107982052Y-85983569D01*
X108014166Y-85968902D01*
X108018941Y-85967500D01*
X108018942Y-85967500D01*
X108151240Y-85928654D01*
X108267235Y-85854109D01*
X108357529Y-85749903D01*
X108364573Y-85734480D01*
X108376104Y-85709229D01*
X108414808Y-85624480D01*
X108418615Y-85598000D01*
X123213569Y-85598000D01*
X123233191Y-85734478D01*
X123233192Y-85734480D01*
X123290468Y-85859899D01*
X123290470Y-85859901D01*
X123290471Y-85859903D01*
X123380765Y-85964109D01*
X123496760Y-86038654D01*
X123496762Y-86038654D01*
X123496763Y-86038655D01*
X123629057Y-86077500D01*
X123629058Y-86077500D01*
X123766942Y-86077500D01*
X123899240Y-86038654D01*
X124015235Y-85964109D01*
X124105529Y-85859903D01*
X124106522Y-85857730D01*
X124113988Y-85841378D01*
X124162808Y-85734480D01*
X124182431Y-85598000D01*
X124162808Y-85461520D01*
X124112573Y-85351521D01*
X124105531Y-85336100D01*
X124105529Y-85336098D01*
X124105529Y-85336097D01*
X124015235Y-85231891D01*
X123899240Y-85157346D01*
X123899238Y-85157345D01*
X123899236Y-85157344D01*
X123766943Y-85118500D01*
X123766942Y-85118500D01*
X123629058Y-85118500D01*
X123629057Y-85118500D01*
X123496763Y-85157344D01*
X123380764Y-85231891D01*
X123290471Y-85336097D01*
X123290468Y-85336100D01*
X123233192Y-85461519D01*
X123233191Y-85461521D01*
X123213569Y-85598000D01*
X108418615Y-85598000D01*
X108434431Y-85488000D01*
X108414808Y-85351520D01*
X108372218Y-85258261D01*
X108357531Y-85226100D01*
X108357529Y-85226098D01*
X108357529Y-85226097D01*
X108267235Y-85121891D01*
X108151240Y-85047346D01*
X108151238Y-85047345D01*
X108151236Y-85047344D01*
X108010432Y-85006001D01*
X108011420Y-85002633D01*
X107963138Y-84980553D01*
X107925394Y-84921755D01*
X107921652Y-84869235D01*
X107926431Y-84836000D01*
X107906808Y-84699520D01*
X107880283Y-84641439D01*
X107849531Y-84574100D01*
X107849529Y-84574098D01*
X107849529Y-84574097D01*
X107759235Y-84469891D01*
X107643240Y-84395346D01*
X107643238Y-84395345D01*
X107643236Y-84395344D01*
X107510943Y-84356500D01*
X107510942Y-84356500D01*
X107373058Y-84356500D01*
X107373057Y-84356500D01*
X107240763Y-84395344D01*
X107124764Y-84469891D01*
X107034471Y-84574097D01*
X107034468Y-84574100D01*
X106977192Y-84699519D01*
X106977191Y-84699521D01*
X106957569Y-84836000D01*
X103712815Y-84836000D01*
X103725232Y-84702000D01*
X103706345Y-84498179D01*
X103650328Y-84301299D01*
X103559088Y-84118065D01*
X103435732Y-83954715D01*
X103435730Y-83954712D01*
X103284462Y-83816814D01*
X103284460Y-83816812D01*
X103269302Y-83807427D01*
X103222666Y-83755400D01*
X103211562Y-83686418D01*
X103239515Y-83622384D01*
X103269302Y-83596573D01*
X103284460Y-83587187D01*
X103284459Y-83587187D01*
X103284462Y-83587186D01*
X103435732Y-83449285D01*
X103559088Y-83285935D01*
X103650328Y-83102701D01*
X103706345Y-82905821D01*
X103725232Y-82702000D01*
X103706345Y-82498179D01*
X103650328Y-82301299D01*
X103559088Y-82118065D01*
X103449340Y-81972735D01*
X103435730Y-81954712D01*
X103284462Y-81816814D01*
X103284460Y-81816812D01*
X103110430Y-81709057D01*
X103110424Y-81709054D01*
X102959993Y-81650777D01*
X102919556Y-81635112D01*
X102718347Y-81597500D01*
X102513653Y-81597500D01*
X102312444Y-81635112D01*
X102312441Y-81635112D01*
X102312441Y-81635113D01*
X102121575Y-81709054D01*
X102121569Y-81709057D01*
X101947539Y-81816812D01*
X101947537Y-81816814D01*
X101796269Y-81954712D01*
X101672912Y-82118064D01*
X101581673Y-82301295D01*
X101525654Y-82498183D01*
X101506768Y-82701999D01*
X99572500Y-82701999D01*
X99572500Y-81534000D01*
X110767569Y-81534000D01*
X110787191Y-81670478D01*
X110787192Y-81670480D01*
X110844468Y-81795899D01*
X110844470Y-81795901D01*
X110844471Y-81795903D01*
X110934765Y-81900109D01*
X111050760Y-81974654D01*
X111050762Y-81974654D01*
X111050763Y-81974655D01*
X111183057Y-82013500D01*
X111183058Y-82013500D01*
X111320942Y-82013500D01*
X111453240Y-81974654D01*
X111569235Y-81900109D01*
X111659529Y-81795903D01*
X111716808Y-81670480D01*
X111728447Y-81589522D01*
X111757471Y-81525969D01*
X111816249Y-81488194D01*
X111886119Y-81488194D01*
X111945058Y-81505500D01*
X112082942Y-81505500D01*
X112215240Y-81466654D01*
X112331235Y-81392109D01*
X112421529Y-81287903D01*
X112478808Y-81162480D01*
X112498431Y-81026000D01*
X112478808Y-80889520D01*
X112452283Y-80831439D01*
X112421531Y-80764100D01*
X112421529Y-80764098D01*
X112421529Y-80764097D01*
X112331235Y-80659891D01*
X112215240Y-80585346D01*
X112215238Y-80585345D01*
X112215236Y-80585344D01*
X112082943Y-80546500D01*
X112082942Y-80546500D01*
X111945058Y-80546500D01*
X111945057Y-80546500D01*
X111812763Y-80585344D01*
X111696764Y-80659891D01*
X111606471Y-80764097D01*
X111606468Y-80764100D01*
X111549192Y-80889519D01*
X111549191Y-80889522D01*
X111537552Y-80970475D01*
X111508527Y-81034031D01*
X111449749Y-81071805D01*
X111379880Y-81071805D01*
X111320944Y-81054500D01*
X111320942Y-81054500D01*
X111183058Y-81054500D01*
X111183057Y-81054500D01*
X111050763Y-81093344D01*
X110934764Y-81167891D01*
X110844471Y-81272097D01*
X110844468Y-81272100D01*
X110787192Y-81397519D01*
X110787191Y-81397521D01*
X110767569Y-81534000D01*
X99572500Y-81534000D01*
X99572500Y-79502000D01*
X121181569Y-79502000D01*
X121201191Y-79638478D01*
X121201192Y-79638480D01*
X121258468Y-79763899D01*
X121258470Y-79763901D01*
X121258471Y-79763903D01*
X121348765Y-79868109D01*
X121464760Y-79942654D01*
X121464762Y-79942654D01*
X121464763Y-79942655D01*
X121597057Y-79981500D01*
X121597058Y-79981500D01*
X121734942Y-79981500D01*
X121867240Y-79942654D01*
X121983235Y-79868109D01*
X122073529Y-79763903D01*
X122130808Y-79638480D01*
X122150431Y-79502000D01*
X122130808Y-79365520D01*
X122104283Y-79307439D01*
X122073531Y-79240100D01*
X122073529Y-79240098D01*
X122073529Y-79240097D01*
X121983235Y-79135891D01*
X121867240Y-79061346D01*
X121867238Y-79061345D01*
X121867236Y-79061344D01*
X121734943Y-79022500D01*
X121734942Y-79022500D01*
X121597058Y-79022500D01*
X121597057Y-79022500D01*
X121464763Y-79061344D01*
X121348764Y-79135891D01*
X121258471Y-79240097D01*
X121258468Y-79240100D01*
X121201192Y-79365519D01*
X121201191Y-79365521D01*
X121181569Y-79502000D01*
X99572500Y-79502000D01*
X99572500Y-77978000D01*
X104417569Y-77978000D01*
X104437191Y-78114478D01*
X104437192Y-78114480D01*
X104494468Y-78239899D01*
X104494470Y-78239901D01*
X104494471Y-78239903D01*
X104584765Y-78344109D01*
X104700760Y-78418654D01*
X104700762Y-78418654D01*
X104700763Y-78418655D01*
X104833057Y-78457500D01*
X104833058Y-78457500D01*
X104970942Y-78457500D01*
X105103240Y-78418654D01*
X105219235Y-78344109D01*
X105309529Y-78239903D01*
X105366808Y-78114480D01*
X105386431Y-77978000D01*
X105366808Y-77841520D01*
X105340283Y-77783439D01*
X105309531Y-77716100D01*
X105309529Y-77716098D01*
X105309529Y-77716097D01*
X105219235Y-77611891D01*
X105103240Y-77537346D01*
X105103238Y-77537345D01*
X105103236Y-77537344D01*
X104970943Y-77498500D01*
X104970942Y-77498500D01*
X104833058Y-77498500D01*
X104833057Y-77498500D01*
X104700763Y-77537344D01*
X104584764Y-77611891D01*
X104494471Y-77716097D01*
X104494468Y-77716100D01*
X104437192Y-77841519D01*
X104437191Y-77841521D01*
X104417569Y-77978000D01*
X99572500Y-77978000D01*
X99572500Y-75692000D01*
X109243569Y-75692000D01*
X109263191Y-75828478D01*
X109263192Y-75828480D01*
X109320468Y-75953899D01*
X109320470Y-75953901D01*
X109320471Y-75953903D01*
X109410765Y-76058109D01*
X109526760Y-76132654D01*
X109526762Y-76132654D01*
X109526763Y-76132655D01*
X109659057Y-76171500D01*
X109659058Y-76171500D01*
X109796942Y-76171500D01*
X109929240Y-76132654D01*
X110045235Y-76058109D01*
X110135529Y-75953903D01*
X110192808Y-75828480D01*
X110212431Y-75692000D01*
X110193847Y-75562747D01*
X110203791Y-75493590D01*
X110249545Y-75440786D01*
X110298941Y-75422363D01*
X110304941Y-75421500D01*
X110304942Y-75421500D01*
X110437240Y-75382654D01*
X110553235Y-75308109D01*
X110643529Y-75203903D01*
X110700808Y-75078480D01*
X110720431Y-74942000D01*
X110700808Y-74805520D01*
X110674283Y-74747439D01*
X110643531Y-74680100D01*
X110643529Y-74680098D01*
X110643529Y-74680097D01*
X110553235Y-74575891D01*
X110437240Y-74501346D01*
X110437238Y-74501345D01*
X110437236Y-74501344D01*
X110304943Y-74462500D01*
X110304942Y-74462500D01*
X110167058Y-74462500D01*
X110167057Y-74462500D01*
X110034763Y-74501344D01*
X109918764Y-74575891D01*
X109828471Y-74680097D01*
X109828468Y-74680100D01*
X109771192Y-74805519D01*
X109771191Y-74805521D01*
X109751569Y-74942000D01*
X109770152Y-75071251D01*
X109760208Y-75140410D01*
X109714453Y-75193214D01*
X109665068Y-75211635D01*
X109659059Y-75212499D01*
X109526763Y-75251344D01*
X109410764Y-75325891D01*
X109320471Y-75430097D01*
X109320468Y-75430100D01*
X109263192Y-75555519D01*
X109263191Y-75555521D01*
X109243569Y-75692000D01*
X99572500Y-75692000D01*
X99572500Y-74930000D01*
X103147569Y-74930000D01*
X103167191Y-75066478D01*
X103167192Y-75066480D01*
X103224468Y-75191899D01*
X103224470Y-75191901D01*
X103224471Y-75191903D01*
X103314765Y-75296109D01*
X103430760Y-75370654D01*
X103430762Y-75370654D01*
X103430763Y-75370655D01*
X103563057Y-75409500D01*
X103563058Y-75409500D01*
X103700942Y-75409500D01*
X103833240Y-75370654D01*
X103949235Y-75296109D01*
X104039529Y-75191903D01*
X104096808Y-75066480D01*
X104116431Y-74930000D01*
X104096808Y-74793520D01*
X104045011Y-74680100D01*
X104039531Y-74668100D01*
X104039529Y-74668098D01*
X104039529Y-74668097D01*
X103949235Y-74563891D01*
X103833240Y-74489346D01*
X103833238Y-74489345D01*
X103833236Y-74489344D01*
X103700943Y-74450500D01*
X103700942Y-74450500D01*
X103563058Y-74450500D01*
X103563057Y-74450500D01*
X103430763Y-74489344D01*
X103314764Y-74563891D01*
X103224471Y-74668097D01*
X103224468Y-74668100D01*
X103167192Y-74793519D01*
X103167191Y-74793521D01*
X103147569Y-74930000D01*
X99572500Y-74930000D01*
X99572500Y-73660000D01*
X122197569Y-73660000D01*
X122217191Y-73796478D01*
X122217192Y-73796480D01*
X122274468Y-73921899D01*
X122274470Y-73921901D01*
X122274471Y-73921903D01*
X122364765Y-74026109D01*
X122480760Y-74100654D01*
X122480762Y-74100654D01*
X122480763Y-74100655D01*
X122613057Y-74139500D01*
X122613058Y-74139500D01*
X122750942Y-74139500D01*
X122883240Y-74100654D01*
X122999235Y-74026109D01*
X123089529Y-73921903D01*
X123146808Y-73796480D01*
X123166431Y-73660000D01*
X123146808Y-73523520D01*
X123120283Y-73465439D01*
X123089531Y-73398100D01*
X123089529Y-73398098D01*
X123089529Y-73398097D01*
X122999235Y-73293891D01*
X122883240Y-73219346D01*
X122883238Y-73219345D01*
X122883236Y-73219344D01*
X122750943Y-73180500D01*
X122750942Y-73180500D01*
X122613058Y-73180500D01*
X122613057Y-73180500D01*
X122480763Y-73219344D01*
X122364764Y-73293891D01*
X122274471Y-73398097D01*
X122274468Y-73398100D01*
X122217192Y-73523519D01*
X122217191Y-73523521D01*
X122197569Y-73660000D01*
X99572500Y-73660000D01*
X99572500Y-72644000D01*
X115339569Y-72644000D01*
X115359191Y-72780478D01*
X115359192Y-72780480D01*
X115416468Y-72905899D01*
X115416470Y-72905901D01*
X115416471Y-72905903D01*
X115506765Y-73010109D01*
X115622760Y-73084654D01*
X115622762Y-73084654D01*
X115622763Y-73084655D01*
X115755057Y-73123500D01*
X115755058Y-73123500D01*
X115892942Y-73123500D01*
X116025240Y-73084654D01*
X116141235Y-73010109D01*
X116231529Y-72905903D01*
X116288808Y-72780480D01*
X116308431Y-72644000D01*
X116288808Y-72507520D01*
X116262283Y-72449439D01*
X116231531Y-72382100D01*
X116231529Y-72382098D01*
X116231529Y-72382097D01*
X116141235Y-72277891D01*
X116025240Y-72203346D01*
X116025238Y-72203345D01*
X116025236Y-72203344D01*
X115892943Y-72164500D01*
X115892942Y-72164500D01*
X115755058Y-72164500D01*
X115755057Y-72164500D01*
X115622763Y-72203344D01*
X115506764Y-72277891D01*
X115416471Y-72382097D01*
X115416468Y-72382100D01*
X115359192Y-72507519D01*
X115359191Y-72507521D01*
X115339569Y-72644000D01*
X99572500Y-72644000D01*
X99572500Y-71628000D01*
X111275569Y-71628000D01*
X111295191Y-71764478D01*
X111295192Y-71764480D01*
X111352468Y-71889899D01*
X111352470Y-71889901D01*
X111352471Y-71889903D01*
X111442765Y-71994109D01*
X111558760Y-72068654D01*
X111558762Y-72068654D01*
X111558763Y-72068655D01*
X111691057Y-72107500D01*
X111691058Y-72107500D01*
X111828942Y-72107500D01*
X111961240Y-72068654D01*
X112077235Y-71994109D01*
X112167529Y-71889903D01*
X112224808Y-71764480D01*
X112244431Y-71628000D01*
X112224808Y-71491520D01*
X112198283Y-71433439D01*
X112167531Y-71366100D01*
X112167529Y-71366098D01*
X112167529Y-71366097D01*
X112077235Y-71261891D01*
X111961240Y-71187346D01*
X111961238Y-71187345D01*
X111961236Y-71187344D01*
X111828943Y-71148500D01*
X111828942Y-71148500D01*
X111691058Y-71148500D01*
X111691057Y-71148500D01*
X111558763Y-71187344D01*
X111442764Y-71261891D01*
X111352471Y-71366097D01*
X111352468Y-71366100D01*
X111295192Y-71491519D01*
X111295191Y-71491521D01*
X111275569Y-71628000D01*
X99572500Y-71628000D01*
X99572500Y-69859999D01*
X100739768Y-69859999D01*
X100739768Y-69860000D01*
X100758654Y-70063816D01*
X100758654Y-70063818D01*
X100758655Y-70063821D01*
X100801984Y-70216108D01*
X100814673Y-70260704D01*
X100905912Y-70443935D01*
X101029269Y-70607287D01*
X101180537Y-70745185D01*
X101180539Y-70745187D01*
X101354569Y-70852942D01*
X101354575Y-70852945D01*
X101395010Y-70868609D01*
X101545444Y-70926888D01*
X101746653Y-70964500D01*
X101746656Y-70964500D01*
X101951344Y-70964500D01*
X101951347Y-70964500D01*
X102152556Y-70926888D01*
X102343427Y-70852944D01*
X102517462Y-70745186D01*
X102663560Y-70612000D01*
X120419569Y-70612000D01*
X120439191Y-70748478D01*
X120439192Y-70748480D01*
X120496468Y-70873899D01*
X120496470Y-70873901D01*
X120496471Y-70873903D01*
X120586765Y-70978109D01*
X120702760Y-71052654D01*
X120702762Y-71052654D01*
X120702763Y-71052655D01*
X120835057Y-71091500D01*
X120835058Y-71091500D01*
X120972942Y-71091500D01*
X121105240Y-71052654D01*
X121221235Y-70978109D01*
X121311529Y-70873903D01*
X121368808Y-70748480D01*
X121388431Y-70612000D01*
X121368808Y-70475520D01*
X121342283Y-70417439D01*
X121311531Y-70350100D01*
X121311529Y-70350098D01*
X121311529Y-70350097D01*
X121221235Y-70245891D01*
X121105240Y-70171346D01*
X121105238Y-70171345D01*
X121105236Y-70171344D01*
X120972943Y-70132500D01*
X120972942Y-70132500D01*
X120835058Y-70132500D01*
X120835057Y-70132500D01*
X120702763Y-70171344D01*
X120586764Y-70245891D01*
X120496471Y-70350097D01*
X120496468Y-70350100D01*
X120439192Y-70475519D01*
X120439191Y-70475521D01*
X120419569Y-70612000D01*
X102663560Y-70612000D01*
X102668732Y-70607285D01*
X102792088Y-70443935D01*
X102883328Y-70260701D01*
X102939345Y-70063821D01*
X102958232Y-69860000D01*
X102957305Y-69850000D01*
X112799569Y-69850000D01*
X112819191Y-69986478D01*
X112819192Y-69986480D01*
X112876468Y-70111899D01*
X112876470Y-70111901D01*
X112876471Y-70111903D01*
X112927978Y-70171346D01*
X112956396Y-70204143D01*
X112966765Y-70216109D01*
X113082760Y-70290654D01*
X113082762Y-70290654D01*
X113082763Y-70290655D01*
X113215057Y-70329500D01*
X113215058Y-70329500D01*
X113352942Y-70329500D01*
X113485240Y-70290654D01*
X113601235Y-70216109D01*
X113691529Y-70111903D01*
X113748808Y-69986480D01*
X113768431Y-69850000D01*
X113748808Y-69713520D01*
X113722283Y-69655439D01*
X113691531Y-69588100D01*
X113691529Y-69588098D01*
X113691529Y-69588097D01*
X113601235Y-69483891D01*
X113485240Y-69409346D01*
X113485238Y-69409345D01*
X113485236Y-69409344D01*
X113352943Y-69370500D01*
X113352942Y-69370500D01*
X113215058Y-69370500D01*
X113215057Y-69370500D01*
X113082763Y-69409344D01*
X112966764Y-69483891D01*
X112876471Y-69588097D01*
X112876468Y-69588100D01*
X112819192Y-69713519D01*
X112819191Y-69713521D01*
X112799569Y-69850000D01*
X102957305Y-69850000D01*
X102939345Y-69656179D01*
X102883328Y-69459299D01*
X102792088Y-69276065D01*
X102668732Y-69112715D01*
X102668730Y-69112712D01*
X102517462Y-68974814D01*
X102517460Y-68974812D01*
X102343430Y-68867057D01*
X102343424Y-68867054D01*
X102184533Y-68805500D01*
X102152556Y-68793112D01*
X101951347Y-68755500D01*
X101746653Y-68755500D01*
X101545444Y-68793112D01*
X101545441Y-68793112D01*
X101545441Y-68793113D01*
X101354575Y-68867054D01*
X101354569Y-68867057D01*
X101180539Y-68974812D01*
X101180537Y-68974814D01*
X101029269Y-69112712D01*
X100905912Y-69276064D01*
X100814673Y-69459295D01*
X100758654Y-69656183D01*
X100739768Y-69859999D01*
X99572500Y-69859999D01*
X99572500Y-67319999D01*
X100739768Y-67319999D01*
X100739768Y-67320000D01*
X100758654Y-67523816D01*
X100758654Y-67523818D01*
X100758655Y-67523821D01*
X100784757Y-67615559D01*
X100814673Y-67720704D01*
X100905912Y-67903935D01*
X101029269Y-68067287D01*
X101180537Y-68205185D01*
X101180539Y-68205187D01*
X101354569Y-68312942D01*
X101354575Y-68312945D01*
X101388274Y-68326000D01*
X101545444Y-68386888D01*
X101746653Y-68424500D01*
X101746656Y-68424500D01*
X101951344Y-68424500D01*
X101951347Y-68424500D01*
X102152556Y-68386888D01*
X102343427Y-68312944D01*
X102517462Y-68205186D01*
X102668732Y-68067285D01*
X102792088Y-67903935D01*
X102883328Y-67720701D01*
X102939345Y-67523821D01*
X102958232Y-67320000D01*
X102958232Y-67319999D01*
X103279768Y-67319999D01*
X103279768Y-67320000D01*
X103298654Y-67523816D01*
X103298654Y-67523818D01*
X103298655Y-67523821D01*
X103324757Y-67615559D01*
X103354673Y-67720704D01*
X103445912Y-67903935D01*
X103569269Y-68067287D01*
X103720537Y-68205185D01*
X103720539Y-68205187D01*
X103894569Y-68312942D01*
X103894575Y-68312945D01*
X103928274Y-68326000D01*
X104085444Y-68386888D01*
X104286653Y-68424500D01*
X104286656Y-68424500D01*
X104491344Y-68424500D01*
X104491347Y-68424500D01*
X104692556Y-68386888D01*
X104883427Y-68312944D01*
X105057462Y-68205186D01*
X105208732Y-68067285D01*
X105332088Y-67903935D01*
X105423328Y-67720701D01*
X105479345Y-67523821D01*
X105498232Y-67320000D01*
X105497305Y-67310000D01*
X115847569Y-67310000D01*
X115867191Y-67446478D01*
X115867192Y-67446480D01*
X115924468Y-67571899D01*
X115924470Y-67571901D01*
X115924471Y-67571903D01*
X116014765Y-67676109D01*
X116130760Y-67750654D01*
X116130762Y-67750654D01*
X116130763Y-67750655D01*
X116263057Y-67789500D01*
X116263058Y-67789500D01*
X116400942Y-67789500D01*
X116533240Y-67750654D01*
X116649235Y-67676109D01*
X116739529Y-67571903D01*
X116743311Y-67563619D01*
X116789062Y-67510815D01*
X116856100Y-67491127D01*
X116891042Y-67496150D01*
X117025057Y-67535500D01*
X117025058Y-67535500D01*
X117162942Y-67535500D01*
X117295240Y-67496654D01*
X117411235Y-67422109D01*
X117501529Y-67317903D01*
X117558808Y-67192480D01*
X117578431Y-67056000D01*
X117558808Y-66919520D01*
X117518154Y-66830500D01*
X117501531Y-66794100D01*
X117501529Y-66794098D01*
X117501529Y-66794097D01*
X117411235Y-66689891D01*
X117295240Y-66615346D01*
X117295238Y-66615345D01*
X117295236Y-66615344D01*
X117162943Y-66576500D01*
X117162942Y-66576500D01*
X117025058Y-66576500D01*
X117025057Y-66576500D01*
X116892763Y-66615344D01*
X116776764Y-66689891D01*
X116686471Y-66794097D01*
X116686468Y-66794100D01*
X116682682Y-66802391D01*
X116636923Y-66855192D01*
X116569882Y-66874872D01*
X116534957Y-66869849D01*
X116400944Y-66830500D01*
X116400942Y-66830500D01*
X116263058Y-66830500D01*
X116263057Y-66830500D01*
X116130763Y-66869344D01*
X116014764Y-66943891D01*
X115924471Y-67048097D01*
X115924468Y-67048100D01*
X115867192Y-67173519D01*
X115867191Y-67173521D01*
X115847569Y-67310000D01*
X105497305Y-67310000D01*
X105479345Y-67116179D01*
X105423328Y-66919299D01*
X105332088Y-66736065D01*
X105250012Y-66627378D01*
X105208730Y-66572712D01*
X105181622Y-66548000D01*
X119149569Y-66548000D01*
X119169191Y-66684478D01*
X119169192Y-66684480D01*
X119226468Y-66809899D01*
X119226470Y-66809901D01*
X119226471Y-66809903D01*
X119316765Y-66914109D01*
X119432760Y-66988654D01*
X119432762Y-66988654D01*
X119432763Y-66988655D01*
X119565057Y-67027500D01*
X119565058Y-67027500D01*
X119702942Y-67027500D01*
X119835240Y-66988654D01*
X119951235Y-66914109D01*
X120041529Y-66809903D01*
X120098808Y-66684480D01*
X120118431Y-66548000D01*
X121435569Y-66548000D01*
X121455191Y-66684478D01*
X121455192Y-66684480D01*
X121512468Y-66809899D01*
X121512470Y-66809901D01*
X121512471Y-66809903D01*
X121602765Y-66914109D01*
X121718760Y-66988654D01*
X121718762Y-66988654D01*
X121718763Y-66988655D01*
X121851057Y-67027500D01*
X121851058Y-67027500D01*
X121988942Y-67027500D01*
X122121240Y-66988654D01*
X122237235Y-66914109D01*
X122327529Y-66809903D01*
X122384808Y-66684480D01*
X122404431Y-66548000D01*
X122384808Y-66411520D01*
X122349504Y-66334216D01*
X122327531Y-66286100D01*
X122327529Y-66286098D01*
X122327529Y-66286097D01*
X122237235Y-66181891D01*
X122121240Y-66107346D01*
X122121238Y-66107345D01*
X122121236Y-66107344D01*
X121988943Y-66068500D01*
X121988942Y-66068500D01*
X121851058Y-66068500D01*
X121851057Y-66068500D01*
X121718763Y-66107344D01*
X121602764Y-66181891D01*
X121512471Y-66286097D01*
X121512468Y-66286100D01*
X121455192Y-66411519D01*
X121455191Y-66411521D01*
X121435569Y-66548000D01*
X120118431Y-66548000D01*
X120098808Y-66411520D01*
X120063504Y-66334216D01*
X120041531Y-66286100D01*
X120041529Y-66286098D01*
X120041529Y-66286097D01*
X119951235Y-66181891D01*
X119835240Y-66107346D01*
X119835238Y-66107345D01*
X119835236Y-66107344D01*
X119702943Y-66068500D01*
X119702942Y-66068500D01*
X119565058Y-66068500D01*
X119565057Y-66068500D01*
X119432763Y-66107344D01*
X119316764Y-66181891D01*
X119226471Y-66286097D01*
X119226468Y-66286100D01*
X119169192Y-66411519D01*
X119169191Y-66411521D01*
X119149569Y-66548000D01*
X105181622Y-66548000D01*
X105057462Y-66434814D01*
X105057460Y-66434812D01*
X104883430Y-66327057D01*
X104883424Y-66327054D01*
X104732993Y-66268777D01*
X104692556Y-66253112D01*
X104491347Y-66215500D01*
X104286653Y-66215500D01*
X104085444Y-66253112D01*
X104085441Y-66253112D01*
X104085441Y-66253113D01*
X103894575Y-66327054D01*
X103894569Y-66327057D01*
X103720539Y-66434812D01*
X103720537Y-66434814D01*
X103569269Y-66572712D01*
X103445912Y-66736064D01*
X103354673Y-66919295D01*
X103298654Y-67116183D01*
X103279768Y-67319999D01*
X102958232Y-67319999D01*
X102939345Y-67116179D01*
X102883328Y-66919299D01*
X102792088Y-66736065D01*
X102710012Y-66627378D01*
X102668730Y-66572712D01*
X102517462Y-66434814D01*
X102517460Y-66434812D01*
X102343430Y-66327057D01*
X102343424Y-66327054D01*
X102192993Y-66268777D01*
X102152556Y-66253112D01*
X101951347Y-66215500D01*
X101746653Y-66215500D01*
X101545444Y-66253112D01*
X101545441Y-66253112D01*
X101545441Y-66253113D01*
X101354575Y-66327054D01*
X101354569Y-66327057D01*
X101180539Y-66434812D01*
X101180537Y-66434814D01*
X101029269Y-66572712D01*
X100905912Y-66736064D01*
X100814673Y-66919295D01*
X100758654Y-67116183D01*
X100739768Y-67319999D01*
X99572500Y-67319999D01*
X99572500Y-64779999D01*
X100739768Y-64779999D01*
X100739768Y-64780000D01*
X100758654Y-64983816D01*
X100758654Y-64983818D01*
X100758655Y-64983821D01*
X100773620Y-65036417D01*
X100814673Y-65180704D01*
X100905912Y-65363935D01*
X101029269Y-65527287D01*
X101180537Y-65665185D01*
X101180539Y-65665187D01*
X101354569Y-65772942D01*
X101354575Y-65772945D01*
X101395010Y-65788609D01*
X101545444Y-65846888D01*
X101746653Y-65884500D01*
X101746656Y-65884500D01*
X101951344Y-65884500D01*
X101951347Y-65884500D01*
X102152556Y-65846888D01*
X102343427Y-65772944D01*
X102517462Y-65665186D01*
X102668732Y-65527285D01*
X102792088Y-65363935D01*
X102883328Y-65180701D01*
X102939345Y-64983821D01*
X102958232Y-64780000D01*
X102958232Y-64779999D01*
X103279768Y-64779999D01*
X103279768Y-64780000D01*
X103298654Y-64983816D01*
X103298654Y-64983818D01*
X103298655Y-64983821D01*
X103313620Y-65036417D01*
X103354673Y-65180704D01*
X103445912Y-65363935D01*
X103569269Y-65527287D01*
X103720537Y-65665185D01*
X103720539Y-65665187D01*
X103894569Y-65772942D01*
X103894575Y-65772945D01*
X103935010Y-65788609D01*
X104085444Y-65846888D01*
X104286653Y-65884500D01*
X104286656Y-65884500D01*
X104491344Y-65884500D01*
X104491347Y-65884500D01*
X104692556Y-65846888D01*
X104883427Y-65772944D01*
X105057462Y-65665186D01*
X105208732Y-65527285D01*
X105332088Y-65363935D01*
X105423328Y-65180701D01*
X105479345Y-64983821D01*
X105498232Y-64780000D01*
X105479345Y-64576179D01*
X105423328Y-64379299D01*
X105332088Y-64196065D01*
X105208732Y-64032715D01*
X105208730Y-64032712D01*
X105057462Y-63894814D01*
X105057460Y-63894812D01*
X104883430Y-63787057D01*
X104883424Y-63787054D01*
X104732993Y-63728777D01*
X104692556Y-63713112D01*
X104491347Y-63675500D01*
X104286653Y-63675500D01*
X104085444Y-63713112D01*
X104085441Y-63713112D01*
X104085441Y-63713113D01*
X103894575Y-63787054D01*
X103894569Y-63787057D01*
X103720539Y-63894812D01*
X103720537Y-63894814D01*
X103569269Y-64032712D01*
X103445912Y-64196064D01*
X103354673Y-64379295D01*
X103298654Y-64576183D01*
X103279768Y-64779999D01*
X102958232Y-64779999D01*
X102939345Y-64576179D01*
X102883328Y-64379299D01*
X102792088Y-64196065D01*
X102668732Y-64032715D01*
X102668730Y-64032712D01*
X102517462Y-63894814D01*
X102517460Y-63894812D01*
X102343430Y-63787057D01*
X102343424Y-63787054D01*
X102192993Y-63728777D01*
X102152556Y-63713112D01*
X101951347Y-63675500D01*
X101746653Y-63675500D01*
X101545444Y-63713112D01*
X101545441Y-63713112D01*
X101545441Y-63713113D01*
X101354575Y-63787054D01*
X101354569Y-63787057D01*
X101180539Y-63894812D01*
X101180537Y-63894814D01*
X101029269Y-64032712D01*
X100905912Y-64196064D01*
X100814673Y-64379295D01*
X100758654Y-64576183D01*
X100739768Y-64779999D01*
X99572500Y-64779999D01*
X99572500Y-61364928D01*
X100744500Y-61364928D01*
X100744500Y-63115063D01*
X100759266Y-63189301D01*
X100815515Y-63273484D01*
X100849234Y-63296014D01*
X100899699Y-63329734D01*
X100899702Y-63329734D01*
X100899703Y-63329735D01*
X100924666Y-63334700D01*
X100973933Y-63344500D01*
X102724066Y-63344499D01*
X102798301Y-63329734D01*
X102882484Y-63273484D01*
X102938734Y-63189301D01*
X102953500Y-63115067D01*
X102953499Y-62239999D01*
X103279768Y-62239999D01*
X103279768Y-62240000D01*
X103298654Y-62443816D01*
X103298654Y-62443818D01*
X103298655Y-62443821D01*
X103341984Y-62596108D01*
X103354673Y-62640704D01*
X103445912Y-62823935D01*
X103569269Y-62987287D01*
X103720537Y-63125185D01*
X103720539Y-63125187D01*
X103894569Y-63232942D01*
X103894575Y-63232945D01*
X103935010Y-63248609D01*
X104085444Y-63306888D01*
X104286653Y-63344500D01*
X104286656Y-63344500D01*
X104491344Y-63344500D01*
X104491347Y-63344500D01*
X104692556Y-63306888D01*
X104883427Y-63232944D01*
X105057462Y-63125186D01*
X105208732Y-62987285D01*
X105332088Y-62823935D01*
X105423328Y-62640701D01*
X105479345Y-62443821D01*
X105498232Y-62240000D01*
X105479345Y-62036179D01*
X105423328Y-61839299D01*
X105332088Y-61656065D01*
X105208732Y-61492715D01*
X105208730Y-61492712D01*
X105057462Y-61354814D01*
X105057460Y-61354812D01*
X104925237Y-61272943D01*
X114969500Y-61272943D01*
X114969500Y-61431057D01*
X114986021Y-61492712D01*
X115010423Y-61583783D01*
X115010426Y-61583790D01*
X115089475Y-61720709D01*
X115089479Y-61720714D01*
X115089480Y-61720716D01*
X115201284Y-61832520D01*
X115201286Y-61832521D01*
X115201290Y-61832524D01*
X115338209Y-61911573D01*
X115338216Y-61911577D01*
X115490943Y-61952500D01*
X115490945Y-61952500D01*
X115649055Y-61952500D01*
X115649057Y-61952500D01*
X115801784Y-61911577D01*
X115938716Y-61832520D01*
X116050520Y-61720716D01*
X116129577Y-61583784D01*
X116170500Y-61431057D01*
X116170500Y-61272943D01*
X116129577Y-61120216D01*
X116069894Y-61016841D01*
X116050524Y-60983290D01*
X116050518Y-60983282D01*
X115938717Y-60871481D01*
X115938709Y-60871475D01*
X115801790Y-60792426D01*
X115801786Y-60792424D01*
X115801784Y-60792423D01*
X115649057Y-60751500D01*
X115490943Y-60751500D01*
X115338216Y-60792423D01*
X115338209Y-60792426D01*
X115201290Y-60871475D01*
X115201282Y-60871481D01*
X115089481Y-60983282D01*
X115089475Y-60983290D01*
X115010426Y-61120209D01*
X115010423Y-61120216D01*
X114969500Y-61272943D01*
X104925237Y-61272943D01*
X104883430Y-61247057D01*
X104883424Y-61247054D01*
X104694298Y-61173787D01*
X104692556Y-61173112D01*
X104491347Y-61135500D01*
X104286653Y-61135500D01*
X104085444Y-61173112D01*
X104085441Y-61173112D01*
X104085441Y-61173113D01*
X103894575Y-61247054D01*
X103894569Y-61247057D01*
X103720539Y-61354812D01*
X103720537Y-61354814D01*
X103569269Y-61492712D01*
X103445912Y-61656064D01*
X103354673Y-61839295D01*
X103298654Y-62036183D01*
X103279768Y-62239999D01*
X102953499Y-62239999D01*
X102953499Y-61364934D01*
X102938734Y-61290699D01*
X102909571Y-61247054D01*
X102882484Y-61206515D01*
X102832019Y-61172796D01*
X102798301Y-61150266D01*
X102798299Y-61150265D01*
X102798296Y-61150264D01*
X102724069Y-61135500D01*
X100973936Y-61135500D01*
X100899698Y-61150266D01*
X100815515Y-61206515D01*
X100759266Y-61290699D01*
X100759264Y-61290703D01*
X100744500Y-61364928D01*
X99572500Y-61364928D01*
X99572500Y-59084500D01*
X99592185Y-59017461D01*
X99644989Y-58971706D01*
X99696500Y-58960500D01*
X115012902Y-58960500D01*
X115079941Y-58980185D01*
G37*
G04 #@! TD.AperFunction*
M02*
