M48
; DRILL file {KiCad 8.0.3} date 2024-08-23T22:21:59+0200
; FORMAT={-:-/ absolute / metric / decimal}
; #@! TF.CreationDate,2024-08-23T22:21:59+02:00
; #@! TF.GenerationSoftware,Kicad,Pcbnew,8.0.3
; #@! TF.FileFunction,Plated,1,4,PTH
FMAT,2
METRIC
; #@! TA.AperFunction,Plated,PTH,ViaDrill
T1C0.200
; #@! TA.AperFunction,Plated,PTH,ComponentDrill
T2C0.500
; #@! TA.AperFunction,Plated,PTH,ComponentDrill
T3C0.800
; #@! TA.AperFunction,Plated,PTH,ComponentDrill
T4C0.920
; #@! TA.AperFunction,Plated,PTH,ComponentDrill
T5C1.000
; #@! TA.AperFunction,Plated,PTH,ComponentDrill
T6C1.200
; #@! TA.AperFunction,Plated,PTH,ComponentDrill
T7C1.300
; #@! TA.AperFunction,Plated,PTH,ComponentDrill
T8C1.350
; #@! TA.AperFunction,Plated,PTH,ComponentDrill
T9C2.300
; #@! TA.AperFunction,Plated,PTH,ComponentDrill
T10C2.350
; #@! TA.AperFunction,Plated,PTH,ComponentDrill
T11C2.700
; #@! TA.AperFunction,Plated,PTH,ComponentDrill
T12C3.200
; #@! TA.AperFunction,Plated,PTH,ComponentDrill
T13C4.250
; #@! TA.AperFunction,Plated,PTH,ComponentDrill
T14C4.500
%
G90
G05
T1
X99.822Y-59.309
X99.822Y-65.659
X99.822Y-72.009
X99.822Y-78.359
X99.822Y-84.709
X99.822Y-91.059
X99.822Y-97.409
X99.822Y-103.759
X99.822Y-110.109
X99.822Y-116.459
X99.822Y-122.809
X99.822Y-129.159
X99.822Y-135.509
X99.822Y-141.859
X100.838Y-80.518
X101.854Y-92.202
X102.87Y-71.374
X103.632Y-74.93
X103.886Y-129.286
X104.394Y-95.758
X104.648Y-89.916
X104.902Y-77.978
X105.918Y-120.904
X106.045Y-59.309
X106.045Y-78.359
X106.045Y-91.059
X106.045Y-103.759
X106.045Y-110.109
X106.045Y-116.459
X106.045Y-135.509
X106.045Y-141.859
X107.442Y-84.836
X107.442Y-86.106
X107.442Y-94.996
X107.696Y-81.026
X107.696Y-82.042
X107.696Y-87.376
X107.95Y-85.488
X108.204Y-88.138
X108.458Y-125.476
X109.22Y-94.234
X109.474Y-64.008
X109.474Y-71.374
X109.474Y-73.152
X109.474Y-84.836
X109.474Y-86.614
X109.728Y-75.692
X110.236Y-74.942
X110.49Y-88.265
X110.998Y-69.85
X111.252Y-81.534
X111.252Y-100.076
X111.506Y-70.612
X111.506Y-87.122
X111.76Y-71.628
X111.887Y-93.98
X112.014Y-81.026
X112.014Y-94.996
X112.268Y-62.23
X112.395Y-59.309
X112.395Y-65.659
X112.395Y-103.759
X112.395Y-110.109
X112.395Y-135.509
X112.395Y-141.859
X113.03Y-77.47
X113.284Y-69.85
X113.284Y-73.152
X113.538Y-89.154
X113.792Y-84.328
X114.554Y-84.328
X115.062Y-68.834
X115.062Y-70.104
X115.316Y-90.424
X115.57Y-66.548
X115.824Y-72.644
X116.332Y-67.31
X116.332Y-94.742
X116.332Y-96.012
X116.332Y-98.552
X116.586Y-69.342
X117.094Y-67.056
X117.094Y-81.28
X117.602Y-62.484
X117.602Y-84.582
X117.602Y-87.376
X117.856Y-78.232
X118.364Y-73.406
X118.364Y-84.582
X118.618Y-89.154
X118.745Y-59.309
X118.745Y-91.059
X118.745Y-97.409
X118.745Y-103.759
X118.745Y-116.459
X118.745Y-129.159
X118.745Y-135.509
X118.745Y-141.859
X118.872Y-68.834
X119.38Y-85.09
X119.634Y-66.548
X119.634Y-120.396
X120.142Y-80.264
X120.904Y-70.612
X120.904Y-71.628
X121.158Y-77.216
X121.412Y-85.09
X121.666Y-79.502
X121.92Y-66.548
X122.682Y-73.66
X122.682Y-84.582
X123.698Y-85.598
X125.095Y-59.309
X125.095Y-65.659
X125.095Y-72.009
X125.095Y-78.359
X125.095Y-84.709
X125.095Y-91.059
X125.095Y-97.409
X125.095Y-103.759
X125.095Y-110.109
X125.095Y-116.459
X125.095Y-129.159
X125.095Y-135.509
X125.095Y-141.859
X126.238Y-121.158
X126.746Y-131.572
X129.032Y-125.222
X131.445Y-84.709
X131.445Y-91.059
X131.445Y-97.409
X131.445Y-103.759
X131.445Y-110.109
X131.445Y-116.459
X131.445Y-122.809
X131.445Y-135.509
X131.445Y-141.859
X133.35Y-125.222
X135.128Y-124.714
X137.668Y-78.994
X137.795Y-84.709
X137.795Y-91.059
X137.795Y-97.409
X137.795Y-103.759
X137.795Y-110.109
X137.795Y-116.459
X137.795Y-122.809
X137.795Y-129.159
X137.795Y-135.509
X137.795Y-141.859
X144.145Y-97.409
X144.145Y-141.859
X147.828Y-82.55
X149.098Y-108.712
X150.495Y-97.409
X150.495Y-135.509
X150.495Y-141.859
X150.876Y-109.982
X151.13Y-115.316
X151.384Y-121.412
X153.162Y-105.156
X154.929Y-89.571
X154.983Y-91.791
X155.194Y-97.282
X155.448Y-78.74
X156.845Y-103.759
X156.845Y-110.109
X156.845Y-116.459
X156.845Y-141.859
X157.329Y-89.535
X158.296Y-87.851
X161.985Y-89.553
X163.195Y-97.409
X163.195Y-110.109
X163.195Y-135.509
X163.195Y-141.859
X165.28Y-87.834
X166.624Y-89.662
X169.164Y-93.472
X169.545Y-97.409
X169.545Y-103.759
X169.545Y-116.459
X169.545Y-135.509
X169.545Y-141.859
X169.926Y-89.154
X173.228Y-72.136
X175.26Y-121.666
X175.895Y-72.009
X175.895Y-97.409
X175.895Y-103.759
X175.895Y-110.109
X175.895Y-135.509
X175.895Y-141.859
X177.292Y-71.374
X177.292Y-72.136
X177.292Y-117.602
X177.546Y-92.71
X177.546Y-119.126
X177.8Y-95.25
X180.34Y-94.996
X181.102Y-92.456
X181.864Y-96.774
X182.118Y-61.976
X182.245Y-59.309
X182.245Y-72.009
X182.245Y-135.509
X182.245Y-141.859
X183.134Y-61.976
X183.896Y-94.996
X184.15Y-74.93
X184.658Y-80.01
X185.464Y-79.248
X185.674Y-80.01
X185.674Y-81.534
X185.674Y-92.456
X185.674Y-93.472
X185.928Y-61.976
X186.944Y-61.976
X187.452Y-78.994
X188.595Y-59.309
X188.595Y-65.659
X188.595Y-72.009
X188.595Y-135.509
X188.595Y-141.859
X190.246Y-62.23
X192.024Y-67.31
X192.532Y-66.548
X193.04Y-68.326
X193.548Y-64.77
X194.31Y-123.19
X194.564Y-116.84
X194.945Y-59.309
X194.945Y-135.509
X194.945Y-141.859
X197.612Y-116.84
X197.612Y-123.19
X198.12Y-62.484
X198.12Y-68.834
X198.12Y-76.962
X198.374Y-135.509
X198.374Y-141.859
T2
X192.672Y-73.152
X193.375Y-71.455
X193.375Y-74.849
X195.072Y-70.752
X195.072Y-75.552
X196.769Y-71.455
X196.769Y-74.849
X197.472Y-73.152
T3
X101.346Y-96.52
X101.346Y-99.06
X103.886Y-97.79
X103.886Y-100.33
T4
X105.736Y-126.92
X105.736Y-129.54
X108.236Y-126.92
X108.236Y-129.54
X110.236Y-126.92
X110.236Y-129.54
X112.736Y-126.92
X112.736Y-129.54
X127.112Y-126.92
X127.112Y-129.54
X129.612Y-126.92
X129.612Y-129.54
X131.612Y-126.92
X131.612Y-129.54
X134.112Y-126.92
X134.112Y-129.54
T5
X101.849Y-62.24
X101.849Y-64.78
X101.849Y-67.32
X101.849Y-69.86
X102.616Y-80.702
X102.616Y-82.702
X102.616Y-84.702
X102.616Y-86.702
X102.616Y-88.702
X104.389Y-62.24
X104.389Y-64.78
X104.389Y-67.32
X104.389Y-69.86
X107.95Y-112.268
X110.49Y-112.268
X113.03Y-112.268
X115.57Y-112.268
X118.11Y-112.268
X120.65Y-112.268
X140.97Y-112.268
X143.51Y-112.268
X146.05Y-112.268
X148.59Y-112.268
X151.13Y-112.268
X153.67Y-112.268
X156.21Y-112.268
T6
X144.24Y-80.833
X144.24Y-84.333
X144.24Y-90.231
X144.24Y-93.731
X144.24Y-99.629
X144.24Y-103.129
X149.24Y-80.833
X149.24Y-84.333
X149.24Y-90.231
X149.24Y-93.731
X149.24Y-99.629
X149.24Y-103.129
T7
X147.754Y-63.754
X170.254Y-63.754
T8
X172.694Y-105.949
X172.694Y-116.149
T9
X102.666Y-126.57
X102.666Y-132.25
X115.806Y-126.57
X115.806Y-132.25
X124.042Y-126.57
X124.042Y-132.25
X137.182Y-126.57
X137.182Y-132.25
X195.794Y-119.949
T10
X185.554Y-102.169
X188.094Y-119.949
T11
X128.858Y-81.28
X133.858Y-81.28
T12
X195.072Y-73.152
T13
X128.358Y-63.754
X128.358Y-73.406
X133.858Y-63.754
X133.858Y-73.406
X139.358Y-63.754
X139.358Y-73.406
T14
X145.415Y-131.23
X145.415Y-138.43
X155.194Y-131.23
X155.194Y-138.43
X164.846Y-131.23
X164.846Y-138.43
X174.498Y-131.274
X174.498Y-138.474
X184.15Y-131.23
X184.15Y-138.43
X194.056Y-131.318
X194.056Y-138.518
M30
