%TF.GenerationSoftware,KiCad,Pcbnew,8.0.3*%
%TF.CreationDate,2024-08-23T22:22:00+02:00*%
%TF.ProjectId,temp_power_management,74656d70-5f70-46f7-9765-725f6d616e61,rev?*%
%TF.SameCoordinates,Original*%
%TF.FileFunction,Drillmap*%
%TF.FilePolarity,Positive*%
%FSLAX45Y45*%
G04 Gerber Fmt 4.5, Leading zero omitted, Abs format (unit mm)*
G04 Created by KiCad (PCBNEW 8.0.3) date 2024-08-23 22:22:00*
%MOMM*%
%LPD*%
G01*
G04 APERTURE LIST*
%ADD10C,0.100000*%
%ADD11C,0.200000*%
%ADD12C,0.150000*%
G04 APERTURE END LIST*
D10*
X19912200Y-14351000D02*
X9912200Y-14351000D01*
X9912200Y-5851000D01*
X19912200Y-5851000D01*
X19912200Y-14351000D01*
D11*
D10*
X11522000Y-5920200D02*
X11592000Y-5990200D01*
X11592000Y-5920200D02*
X11522000Y-5990200D01*
X11522000Y-6100200D02*
X11592000Y-6170200D01*
X11592000Y-6100200D02*
X11522000Y-6170200D01*
D12*
X10389600Y-9512000D02*
G75*
G02*
X10239600Y-9512000I-75000J0D01*
G01*
X10239600Y-9512000D02*
G75*
G02*
X10389600Y-9512000I75000J0D01*
G01*
D11*
X10167977Y-14667484D02*
X10167977Y-14467484D01*
X10167977Y-14467484D02*
X10215596Y-14467484D01*
X10215596Y-14467484D02*
X10244167Y-14477008D01*
X10244167Y-14477008D02*
X10263215Y-14496055D01*
X10263215Y-14496055D02*
X10272739Y-14515103D01*
X10272739Y-14515103D02*
X10282263Y-14553198D01*
X10282263Y-14553198D02*
X10282263Y-14581769D01*
X10282263Y-14581769D02*
X10272739Y-14619865D01*
X10272739Y-14619865D02*
X10263215Y-14638912D01*
X10263215Y-14638912D02*
X10244167Y-14657960D01*
X10244167Y-14657960D02*
X10215596Y-14667484D01*
X10215596Y-14667484D02*
X10167977Y-14667484D01*
X10367977Y-14667484D02*
X10367977Y-14534150D01*
X10367977Y-14572246D02*
X10377501Y-14553198D01*
X10377501Y-14553198D02*
X10387024Y-14543674D01*
X10387024Y-14543674D02*
X10406072Y-14534150D01*
X10406072Y-14534150D02*
X10425120Y-14534150D01*
X10491786Y-14667484D02*
X10491786Y-14534150D01*
X10491786Y-14467484D02*
X10482263Y-14477008D01*
X10482263Y-14477008D02*
X10491786Y-14486531D01*
X10491786Y-14486531D02*
X10501310Y-14477008D01*
X10501310Y-14477008D02*
X10491786Y-14467484D01*
X10491786Y-14467484D02*
X10491786Y-14486531D01*
X10615596Y-14667484D02*
X10596548Y-14657960D01*
X10596548Y-14657960D02*
X10587024Y-14638912D01*
X10587024Y-14638912D02*
X10587024Y-14467484D01*
X10720358Y-14667484D02*
X10701310Y-14657960D01*
X10701310Y-14657960D02*
X10691786Y-14638912D01*
X10691786Y-14638912D02*
X10691786Y-14467484D01*
X10948929Y-14667484D02*
X10948929Y-14467484D01*
X10948929Y-14467484D02*
X11015596Y-14610341D01*
X11015596Y-14610341D02*
X11082263Y-14467484D01*
X11082263Y-14467484D02*
X11082263Y-14667484D01*
X11263215Y-14667484D02*
X11263215Y-14562722D01*
X11263215Y-14562722D02*
X11253691Y-14543674D01*
X11253691Y-14543674D02*
X11234643Y-14534150D01*
X11234643Y-14534150D02*
X11196548Y-14534150D01*
X11196548Y-14534150D02*
X11177501Y-14543674D01*
X11263215Y-14657960D02*
X11244167Y-14667484D01*
X11244167Y-14667484D02*
X11196548Y-14667484D01*
X11196548Y-14667484D02*
X11177501Y-14657960D01*
X11177501Y-14657960D02*
X11167977Y-14638912D01*
X11167977Y-14638912D02*
X11167977Y-14619865D01*
X11167977Y-14619865D02*
X11177501Y-14600817D01*
X11177501Y-14600817D02*
X11196548Y-14591293D01*
X11196548Y-14591293D02*
X11244167Y-14591293D01*
X11244167Y-14591293D02*
X11263215Y-14581769D01*
X11358453Y-14534150D02*
X11358453Y-14734150D01*
X11358453Y-14543674D02*
X11377501Y-14534150D01*
X11377501Y-14534150D02*
X11415596Y-14534150D01*
X11415596Y-14534150D02*
X11434643Y-14543674D01*
X11434643Y-14543674D02*
X11444167Y-14553198D01*
X11444167Y-14553198D02*
X11453691Y-14572246D01*
X11453691Y-14572246D02*
X11453691Y-14629388D01*
X11453691Y-14629388D02*
X11444167Y-14648436D01*
X11444167Y-14648436D02*
X11434643Y-14657960D01*
X11434643Y-14657960D02*
X11415596Y-14667484D01*
X11415596Y-14667484D02*
X11377501Y-14667484D01*
X11377501Y-14667484D02*
X11358453Y-14657960D01*
X11539405Y-14648436D02*
X11548929Y-14657960D01*
X11548929Y-14657960D02*
X11539405Y-14667484D01*
X11539405Y-14667484D02*
X11529882Y-14657960D01*
X11529882Y-14657960D02*
X11539405Y-14648436D01*
X11539405Y-14648436D02*
X11539405Y-14667484D01*
X11539405Y-14543674D02*
X11548929Y-14553198D01*
X11548929Y-14553198D02*
X11539405Y-14562722D01*
X11539405Y-14562722D02*
X11529882Y-14553198D01*
X11529882Y-14553198D02*
X11539405Y-14543674D01*
X11539405Y-14543674D02*
X11539405Y-14562722D01*
D10*
X9837200Y-14961000D02*
X9907200Y-15031000D01*
X9907200Y-14961000D02*
X9837200Y-15031000D01*
D11*
X10206072Y-14887484D02*
X10225120Y-14887484D01*
X10225120Y-14887484D02*
X10244167Y-14897008D01*
X10244167Y-14897008D02*
X10253691Y-14906531D01*
X10253691Y-14906531D02*
X10263215Y-14925579D01*
X10263215Y-14925579D02*
X10272739Y-14963674D01*
X10272739Y-14963674D02*
X10272739Y-15011293D01*
X10272739Y-15011293D02*
X10263215Y-15049388D01*
X10263215Y-15049388D02*
X10253691Y-15068436D01*
X10253691Y-15068436D02*
X10244167Y-15077960D01*
X10244167Y-15077960D02*
X10225120Y-15087484D01*
X10225120Y-15087484D02*
X10206072Y-15087484D01*
X10206072Y-15087484D02*
X10187024Y-15077960D01*
X10187024Y-15077960D02*
X10177501Y-15068436D01*
X10177501Y-15068436D02*
X10167977Y-15049388D01*
X10167977Y-15049388D02*
X10158453Y-15011293D01*
X10158453Y-15011293D02*
X10158453Y-14963674D01*
X10158453Y-14963674D02*
X10167977Y-14925579D01*
X10167977Y-14925579D02*
X10177501Y-14906531D01*
X10177501Y-14906531D02*
X10187024Y-14897008D01*
X10187024Y-14897008D02*
X10206072Y-14887484D01*
X10358453Y-15068436D02*
X10367977Y-15077960D01*
X10367977Y-15077960D02*
X10358453Y-15087484D01*
X10358453Y-15087484D02*
X10348929Y-15077960D01*
X10348929Y-15077960D02*
X10358453Y-15068436D01*
X10358453Y-15068436D02*
X10358453Y-15087484D01*
X10434644Y-14887484D02*
X10567977Y-14887484D01*
X10567977Y-14887484D02*
X10482263Y-15087484D01*
X10682263Y-14887484D02*
X10701310Y-14887484D01*
X10701310Y-14887484D02*
X10720358Y-14897008D01*
X10720358Y-14897008D02*
X10729882Y-14906531D01*
X10729882Y-14906531D02*
X10739405Y-14925579D01*
X10739405Y-14925579D02*
X10748929Y-14963674D01*
X10748929Y-14963674D02*
X10748929Y-15011293D01*
X10748929Y-15011293D02*
X10739405Y-15049388D01*
X10739405Y-15049388D02*
X10729882Y-15068436D01*
X10729882Y-15068436D02*
X10720358Y-15077960D01*
X10720358Y-15077960D02*
X10701310Y-15087484D01*
X10701310Y-15087484D02*
X10682263Y-15087484D01*
X10682263Y-15087484D02*
X10663215Y-15077960D01*
X10663215Y-15077960D02*
X10653691Y-15068436D01*
X10653691Y-15068436D02*
X10644167Y-15049388D01*
X10644167Y-15049388D02*
X10634644Y-15011293D01*
X10634644Y-15011293D02*
X10634644Y-14963674D01*
X10634644Y-14963674D02*
X10644167Y-14925579D01*
X10644167Y-14925579D02*
X10653691Y-14906531D01*
X10653691Y-14906531D02*
X10663215Y-14897008D01*
X10663215Y-14897008D02*
X10682263Y-14887484D01*
X10872739Y-14887484D02*
X10891786Y-14887484D01*
X10891786Y-14887484D02*
X10910834Y-14897008D01*
X10910834Y-14897008D02*
X10920358Y-14906531D01*
X10920358Y-14906531D02*
X10929882Y-14925579D01*
X10929882Y-14925579D02*
X10939405Y-14963674D01*
X10939405Y-14963674D02*
X10939405Y-15011293D01*
X10939405Y-15011293D02*
X10929882Y-15049388D01*
X10929882Y-15049388D02*
X10920358Y-15068436D01*
X10920358Y-15068436D02*
X10910834Y-15077960D01*
X10910834Y-15077960D02*
X10891786Y-15087484D01*
X10891786Y-15087484D02*
X10872739Y-15087484D01*
X10872739Y-15087484D02*
X10853691Y-15077960D01*
X10853691Y-15077960D02*
X10844167Y-15068436D01*
X10844167Y-15068436D02*
X10834644Y-15049388D01*
X10834644Y-15049388D02*
X10825120Y-15011293D01*
X10825120Y-15011293D02*
X10825120Y-14963674D01*
X10825120Y-14963674D02*
X10834644Y-14925579D01*
X10834644Y-14925579D02*
X10844167Y-14906531D01*
X10844167Y-14906531D02*
X10853691Y-14897008D01*
X10853691Y-14897008D02*
X10872739Y-14887484D01*
X11025120Y-15087484D02*
X11025120Y-14954150D01*
X11025120Y-14973198D02*
X11034644Y-14963674D01*
X11034644Y-14963674D02*
X11053691Y-14954150D01*
X11053691Y-14954150D02*
X11082263Y-14954150D01*
X11082263Y-14954150D02*
X11101310Y-14963674D01*
X11101310Y-14963674D02*
X11110834Y-14982722D01*
X11110834Y-14982722D02*
X11110834Y-15087484D01*
X11110834Y-14982722D02*
X11120358Y-14963674D01*
X11120358Y-14963674D02*
X11139405Y-14954150D01*
X11139405Y-14954150D02*
X11167977Y-14954150D01*
X11167977Y-14954150D02*
X11187024Y-14963674D01*
X11187024Y-14963674D02*
X11196548Y-14982722D01*
X11196548Y-14982722D02*
X11196548Y-15087484D01*
X11291786Y-15087484D02*
X11291786Y-14954150D01*
X11291786Y-14973198D02*
X11301310Y-14963674D01*
X11301310Y-14963674D02*
X11320358Y-14954150D01*
X11320358Y-14954150D02*
X11348929Y-14954150D01*
X11348929Y-14954150D02*
X11367977Y-14963674D01*
X11367977Y-14963674D02*
X11377501Y-14982722D01*
X11377501Y-14982722D02*
X11377501Y-15087484D01*
X11377501Y-14982722D02*
X11387024Y-14963674D01*
X11387024Y-14963674D02*
X11406072Y-14954150D01*
X11406072Y-14954150D02*
X11434643Y-14954150D01*
X11434643Y-14954150D02*
X11453691Y-14963674D01*
X11453691Y-14963674D02*
X11463215Y-14982722D01*
X11463215Y-14982722D02*
X11463215Y-15087484D01*
X11853691Y-14877960D02*
X11682263Y-15135103D01*
X12110834Y-14887484D02*
X12129882Y-14887484D01*
X12129882Y-14887484D02*
X12148929Y-14897008D01*
X12148929Y-14897008D02*
X12158453Y-14906531D01*
X12158453Y-14906531D02*
X12167977Y-14925579D01*
X12167977Y-14925579D02*
X12177501Y-14963674D01*
X12177501Y-14963674D02*
X12177501Y-15011293D01*
X12177501Y-15011293D02*
X12167977Y-15049388D01*
X12167977Y-15049388D02*
X12158453Y-15068436D01*
X12158453Y-15068436D02*
X12148929Y-15077960D01*
X12148929Y-15077960D02*
X12129882Y-15087484D01*
X12129882Y-15087484D02*
X12110834Y-15087484D01*
X12110834Y-15087484D02*
X12091786Y-15077960D01*
X12091786Y-15077960D02*
X12082263Y-15068436D01*
X12082263Y-15068436D02*
X12072739Y-15049388D01*
X12072739Y-15049388D02*
X12063215Y-15011293D01*
X12063215Y-15011293D02*
X12063215Y-14963674D01*
X12063215Y-14963674D02*
X12072739Y-14925579D01*
X12072739Y-14925579D02*
X12082263Y-14906531D01*
X12082263Y-14906531D02*
X12091786Y-14897008D01*
X12091786Y-14897008D02*
X12110834Y-14887484D01*
X12263215Y-15068436D02*
X12272739Y-15077960D01*
X12272739Y-15077960D02*
X12263215Y-15087484D01*
X12263215Y-15087484D02*
X12253691Y-15077960D01*
X12253691Y-15077960D02*
X12263215Y-15068436D01*
X12263215Y-15068436D02*
X12263215Y-15087484D01*
X12396548Y-14887484D02*
X12415596Y-14887484D01*
X12415596Y-14887484D02*
X12434644Y-14897008D01*
X12434644Y-14897008D02*
X12444167Y-14906531D01*
X12444167Y-14906531D02*
X12453691Y-14925579D01*
X12453691Y-14925579D02*
X12463215Y-14963674D01*
X12463215Y-14963674D02*
X12463215Y-15011293D01*
X12463215Y-15011293D02*
X12453691Y-15049388D01*
X12453691Y-15049388D02*
X12444167Y-15068436D01*
X12444167Y-15068436D02*
X12434644Y-15077960D01*
X12434644Y-15077960D02*
X12415596Y-15087484D01*
X12415596Y-15087484D02*
X12396548Y-15087484D01*
X12396548Y-15087484D02*
X12377501Y-15077960D01*
X12377501Y-15077960D02*
X12367977Y-15068436D01*
X12367977Y-15068436D02*
X12358453Y-15049388D01*
X12358453Y-15049388D02*
X12348929Y-15011293D01*
X12348929Y-15011293D02*
X12348929Y-14963674D01*
X12348929Y-14963674D02*
X12358453Y-14925579D01*
X12358453Y-14925579D02*
X12367977Y-14906531D01*
X12367977Y-14906531D02*
X12377501Y-14897008D01*
X12377501Y-14897008D02*
X12396548Y-14887484D01*
X12539406Y-14906531D02*
X12548929Y-14897008D01*
X12548929Y-14897008D02*
X12567977Y-14887484D01*
X12567977Y-14887484D02*
X12615596Y-14887484D01*
X12615596Y-14887484D02*
X12634644Y-14897008D01*
X12634644Y-14897008D02*
X12644167Y-14906531D01*
X12644167Y-14906531D02*
X12653691Y-14925579D01*
X12653691Y-14925579D02*
X12653691Y-14944627D01*
X12653691Y-14944627D02*
X12644167Y-14973198D01*
X12644167Y-14973198D02*
X12529882Y-15087484D01*
X12529882Y-15087484D02*
X12653691Y-15087484D01*
X12720358Y-14887484D02*
X12853691Y-14887484D01*
X12853691Y-14887484D02*
X12767977Y-15087484D01*
X13015596Y-14887484D02*
X12977501Y-14887484D01*
X12977501Y-14887484D02*
X12958453Y-14897008D01*
X12958453Y-14897008D02*
X12948929Y-14906531D01*
X12948929Y-14906531D02*
X12929882Y-14935103D01*
X12929882Y-14935103D02*
X12920358Y-14973198D01*
X12920358Y-14973198D02*
X12920358Y-15049388D01*
X12920358Y-15049388D02*
X12929882Y-15068436D01*
X12929882Y-15068436D02*
X12939406Y-15077960D01*
X12939406Y-15077960D02*
X12958453Y-15087484D01*
X12958453Y-15087484D02*
X12996548Y-15087484D01*
X12996548Y-15087484D02*
X13015596Y-15077960D01*
X13015596Y-15077960D02*
X13025120Y-15068436D01*
X13025120Y-15068436D02*
X13034644Y-15049388D01*
X13034644Y-15049388D02*
X13034644Y-15001769D01*
X13034644Y-15001769D02*
X13025120Y-14982722D01*
X13025120Y-14982722D02*
X13015596Y-14973198D01*
X13015596Y-14973198D02*
X12996548Y-14963674D01*
X12996548Y-14963674D02*
X12958453Y-14963674D01*
X12958453Y-14963674D02*
X12939406Y-14973198D01*
X12939406Y-14973198D02*
X12929882Y-14982722D01*
X12929882Y-14982722D02*
X12920358Y-15001769D01*
X13110834Y-14887484D02*
X13110834Y-14925579D01*
X13187025Y-14887484D02*
X13187025Y-14925579D01*
X13482263Y-15163674D02*
X13472739Y-15154150D01*
X13472739Y-15154150D02*
X13453691Y-15125579D01*
X13453691Y-15125579D02*
X13444168Y-15106531D01*
X13444168Y-15106531D02*
X13434644Y-15077960D01*
X13434644Y-15077960D02*
X13425120Y-15030341D01*
X13425120Y-15030341D02*
X13425120Y-14992246D01*
X13425120Y-14992246D02*
X13434644Y-14944627D01*
X13434644Y-14944627D02*
X13444168Y-14916055D01*
X13444168Y-14916055D02*
X13453691Y-14897008D01*
X13453691Y-14897008D02*
X13472739Y-14868436D01*
X13472739Y-14868436D02*
X13482263Y-14858912D01*
X13548929Y-14906531D02*
X13558453Y-14897008D01*
X13558453Y-14897008D02*
X13577501Y-14887484D01*
X13577501Y-14887484D02*
X13625120Y-14887484D01*
X13625120Y-14887484D02*
X13644168Y-14897008D01*
X13644168Y-14897008D02*
X13653691Y-14906531D01*
X13653691Y-14906531D02*
X13663215Y-14925579D01*
X13663215Y-14925579D02*
X13663215Y-14944627D01*
X13663215Y-14944627D02*
X13653691Y-14973198D01*
X13653691Y-14973198D02*
X13539406Y-15087484D01*
X13539406Y-15087484D02*
X13663215Y-15087484D01*
X13901310Y-15087484D02*
X13901310Y-14887484D01*
X13987025Y-15087484D02*
X13987025Y-14982722D01*
X13987025Y-14982722D02*
X13977501Y-14963674D01*
X13977501Y-14963674D02*
X13958453Y-14954150D01*
X13958453Y-14954150D02*
X13929882Y-14954150D01*
X13929882Y-14954150D02*
X13910834Y-14963674D01*
X13910834Y-14963674D02*
X13901310Y-14973198D01*
X14110834Y-15087484D02*
X14091787Y-15077960D01*
X14091787Y-15077960D02*
X14082263Y-15068436D01*
X14082263Y-15068436D02*
X14072739Y-15049388D01*
X14072739Y-15049388D02*
X14072739Y-14992246D01*
X14072739Y-14992246D02*
X14082263Y-14973198D01*
X14082263Y-14973198D02*
X14091787Y-14963674D01*
X14091787Y-14963674D02*
X14110834Y-14954150D01*
X14110834Y-14954150D02*
X14139406Y-14954150D01*
X14139406Y-14954150D02*
X14158453Y-14963674D01*
X14158453Y-14963674D02*
X14167977Y-14973198D01*
X14167977Y-14973198D02*
X14177501Y-14992246D01*
X14177501Y-14992246D02*
X14177501Y-15049388D01*
X14177501Y-15049388D02*
X14167977Y-15068436D01*
X14167977Y-15068436D02*
X14158453Y-15077960D01*
X14158453Y-15077960D02*
X14139406Y-15087484D01*
X14139406Y-15087484D02*
X14110834Y-15087484D01*
X14291787Y-15087484D02*
X14272739Y-15077960D01*
X14272739Y-15077960D02*
X14263215Y-15058912D01*
X14263215Y-15058912D02*
X14263215Y-14887484D01*
X14444168Y-15077960D02*
X14425120Y-15087484D01*
X14425120Y-15087484D02*
X14387025Y-15087484D01*
X14387025Y-15087484D02*
X14367977Y-15077960D01*
X14367977Y-15077960D02*
X14358453Y-15058912D01*
X14358453Y-15058912D02*
X14358453Y-14982722D01*
X14358453Y-14982722D02*
X14367977Y-14963674D01*
X14367977Y-14963674D02*
X14387025Y-14954150D01*
X14387025Y-14954150D02*
X14425120Y-14954150D01*
X14425120Y-14954150D02*
X14444168Y-14963674D01*
X14444168Y-14963674D02*
X14453691Y-14982722D01*
X14453691Y-14982722D02*
X14453691Y-15001769D01*
X14453691Y-15001769D02*
X14358453Y-15020817D01*
X14529882Y-15077960D02*
X14548930Y-15087484D01*
X14548930Y-15087484D02*
X14587025Y-15087484D01*
X14587025Y-15087484D02*
X14606072Y-15077960D01*
X14606072Y-15077960D02*
X14615596Y-15058912D01*
X14615596Y-15058912D02*
X14615596Y-15049388D01*
X14615596Y-15049388D02*
X14606072Y-15030341D01*
X14606072Y-15030341D02*
X14587025Y-15020817D01*
X14587025Y-15020817D02*
X14558453Y-15020817D01*
X14558453Y-15020817D02*
X14539406Y-15011293D01*
X14539406Y-15011293D02*
X14529882Y-14992246D01*
X14529882Y-14992246D02*
X14529882Y-14982722D01*
X14529882Y-14982722D02*
X14539406Y-14963674D01*
X14539406Y-14963674D02*
X14558453Y-14954150D01*
X14558453Y-14954150D02*
X14587025Y-14954150D01*
X14587025Y-14954150D02*
X14606072Y-14963674D01*
X14682263Y-15163674D02*
X14691787Y-15154150D01*
X14691787Y-15154150D02*
X14710834Y-15125579D01*
X14710834Y-15125579D02*
X14720358Y-15106531D01*
X14720358Y-15106531D02*
X14729882Y-15077960D01*
X14729882Y-15077960D02*
X14739406Y-15030341D01*
X14739406Y-15030341D02*
X14739406Y-14992246D01*
X14739406Y-14992246D02*
X14729882Y-14944627D01*
X14729882Y-14944627D02*
X14720358Y-14916055D01*
X14720358Y-14916055D02*
X14710834Y-14897008D01*
X14710834Y-14897008D02*
X14691787Y-14868436D01*
X14691787Y-14868436D02*
X14682263Y-14858912D01*
X15044168Y-15163674D02*
X15034644Y-15154150D01*
X15034644Y-15154150D02*
X15015596Y-15125579D01*
X15015596Y-15125579D02*
X15006072Y-15106531D01*
X15006072Y-15106531D02*
X14996549Y-15077960D01*
X14996549Y-15077960D02*
X14987025Y-15030341D01*
X14987025Y-15030341D02*
X14987025Y-14992246D01*
X14987025Y-14992246D02*
X14996549Y-14944627D01*
X14996549Y-14944627D02*
X15006072Y-14916055D01*
X15006072Y-14916055D02*
X15015596Y-14897008D01*
X15015596Y-14897008D02*
X15034644Y-14868436D01*
X15034644Y-14868436D02*
X15044168Y-14858912D01*
X15120358Y-14954150D02*
X15120358Y-15087484D01*
X15120358Y-14973198D02*
X15129882Y-14963674D01*
X15129882Y-14963674D02*
X15148930Y-14954150D01*
X15148930Y-14954150D02*
X15177501Y-14954150D01*
X15177501Y-14954150D02*
X15196549Y-14963674D01*
X15196549Y-14963674D02*
X15206072Y-14982722D01*
X15206072Y-14982722D02*
X15206072Y-15087484D01*
X15329882Y-15087484D02*
X15310834Y-15077960D01*
X15310834Y-15077960D02*
X15301311Y-15068436D01*
X15301311Y-15068436D02*
X15291787Y-15049388D01*
X15291787Y-15049388D02*
X15291787Y-14992246D01*
X15291787Y-14992246D02*
X15301311Y-14973198D01*
X15301311Y-14973198D02*
X15310834Y-14963674D01*
X15310834Y-14963674D02*
X15329882Y-14954150D01*
X15329882Y-14954150D02*
X15358453Y-14954150D01*
X15358453Y-14954150D02*
X15377501Y-14963674D01*
X15377501Y-14963674D02*
X15387025Y-14973198D01*
X15387025Y-14973198D02*
X15396549Y-14992246D01*
X15396549Y-14992246D02*
X15396549Y-15049388D01*
X15396549Y-15049388D02*
X15387025Y-15068436D01*
X15387025Y-15068436D02*
X15377501Y-15077960D01*
X15377501Y-15077960D02*
X15358453Y-15087484D01*
X15358453Y-15087484D02*
X15329882Y-15087484D01*
X15453692Y-14954150D02*
X15529882Y-14954150D01*
X15482263Y-14887484D02*
X15482263Y-15058912D01*
X15482263Y-15058912D02*
X15491787Y-15077960D01*
X15491787Y-15077960D02*
X15510834Y-15087484D01*
X15510834Y-15087484D02*
X15529882Y-15087484D01*
X15748930Y-14954150D02*
X15748930Y-15154150D01*
X15748930Y-14963674D02*
X15767977Y-14954150D01*
X15767977Y-14954150D02*
X15806073Y-14954150D01*
X15806073Y-14954150D02*
X15825120Y-14963674D01*
X15825120Y-14963674D02*
X15834644Y-14973198D01*
X15834644Y-14973198D02*
X15844168Y-14992246D01*
X15844168Y-14992246D02*
X15844168Y-15049388D01*
X15844168Y-15049388D02*
X15834644Y-15068436D01*
X15834644Y-15068436D02*
X15825120Y-15077960D01*
X15825120Y-15077960D02*
X15806073Y-15087484D01*
X15806073Y-15087484D02*
X15767977Y-15087484D01*
X15767977Y-15087484D02*
X15748930Y-15077960D01*
X15958453Y-15087484D02*
X15939406Y-15077960D01*
X15939406Y-15077960D02*
X15929882Y-15058912D01*
X15929882Y-15058912D02*
X15929882Y-14887484D01*
X16120358Y-15087484D02*
X16120358Y-14982722D01*
X16120358Y-14982722D02*
X16110834Y-14963674D01*
X16110834Y-14963674D02*
X16091787Y-14954150D01*
X16091787Y-14954150D02*
X16053692Y-14954150D01*
X16053692Y-14954150D02*
X16034644Y-14963674D01*
X16120358Y-15077960D02*
X16101311Y-15087484D01*
X16101311Y-15087484D02*
X16053692Y-15087484D01*
X16053692Y-15087484D02*
X16034644Y-15077960D01*
X16034644Y-15077960D02*
X16025120Y-15058912D01*
X16025120Y-15058912D02*
X16025120Y-15039865D01*
X16025120Y-15039865D02*
X16034644Y-15020817D01*
X16034644Y-15020817D02*
X16053692Y-15011293D01*
X16053692Y-15011293D02*
X16101311Y-15011293D01*
X16101311Y-15011293D02*
X16120358Y-15001769D01*
X16187025Y-14954150D02*
X16263215Y-14954150D01*
X16215596Y-14887484D02*
X16215596Y-15058912D01*
X16215596Y-15058912D02*
X16225120Y-15077960D01*
X16225120Y-15077960D02*
X16244168Y-15087484D01*
X16244168Y-15087484D02*
X16263215Y-15087484D01*
X16406073Y-15077960D02*
X16387025Y-15087484D01*
X16387025Y-15087484D02*
X16348930Y-15087484D01*
X16348930Y-15087484D02*
X16329882Y-15077960D01*
X16329882Y-15077960D02*
X16320358Y-15058912D01*
X16320358Y-15058912D02*
X16320358Y-14982722D01*
X16320358Y-14982722D02*
X16329882Y-14963674D01*
X16329882Y-14963674D02*
X16348930Y-14954150D01*
X16348930Y-14954150D02*
X16387025Y-14954150D01*
X16387025Y-14954150D02*
X16406073Y-14963674D01*
X16406073Y-14963674D02*
X16415596Y-14982722D01*
X16415596Y-14982722D02*
X16415596Y-15001769D01*
X16415596Y-15001769D02*
X16320358Y-15020817D01*
X16587025Y-15087484D02*
X16587025Y-14887484D01*
X16587025Y-15077960D02*
X16567977Y-15087484D01*
X16567977Y-15087484D02*
X16529882Y-15087484D01*
X16529882Y-15087484D02*
X16510834Y-15077960D01*
X16510834Y-15077960D02*
X16501311Y-15068436D01*
X16501311Y-15068436D02*
X16491787Y-15049388D01*
X16491787Y-15049388D02*
X16491787Y-14992246D01*
X16491787Y-14992246D02*
X16501311Y-14973198D01*
X16501311Y-14973198D02*
X16510834Y-14963674D01*
X16510834Y-14963674D02*
X16529882Y-14954150D01*
X16529882Y-14954150D02*
X16567977Y-14954150D01*
X16567977Y-14954150D02*
X16587025Y-14963674D01*
X16663215Y-15163674D02*
X16672739Y-15154150D01*
X16672739Y-15154150D02*
X16691787Y-15125579D01*
X16691787Y-15125579D02*
X16701311Y-15106531D01*
X16701311Y-15106531D02*
X16710834Y-15077960D01*
X16710834Y-15077960D02*
X16720358Y-15030341D01*
X16720358Y-15030341D02*
X16720358Y-14992246D01*
X16720358Y-14992246D02*
X16710834Y-14944627D01*
X16710834Y-14944627D02*
X16701311Y-14916055D01*
X16701311Y-14916055D02*
X16691787Y-14897008D01*
X16691787Y-14897008D02*
X16672739Y-14868436D01*
X16672739Y-14868436D02*
X16663215Y-14858912D01*
D12*
X9907200Y-15260000D02*
G75*
G02*
X9757200Y-15260000I-75000J0D01*
G01*
X9757200Y-15260000D02*
G75*
G02*
X9907200Y-15260000I75000J0D01*
G01*
D11*
X10272739Y-15351484D02*
X10158453Y-15351484D01*
X10215596Y-15351484D02*
X10215596Y-15151484D01*
X10215596Y-15151484D02*
X10196548Y-15180055D01*
X10196548Y-15180055D02*
X10177501Y-15199103D01*
X10177501Y-15199103D02*
X10158453Y-15208627D01*
X10358453Y-15332436D02*
X10367977Y-15341960D01*
X10367977Y-15341960D02*
X10358453Y-15351484D01*
X10358453Y-15351484D02*
X10348929Y-15341960D01*
X10348929Y-15341960D02*
X10358453Y-15332436D01*
X10358453Y-15332436D02*
X10358453Y-15351484D01*
X10548929Y-15151484D02*
X10453691Y-15151484D01*
X10453691Y-15151484D02*
X10444167Y-15246722D01*
X10444167Y-15246722D02*
X10453691Y-15237198D01*
X10453691Y-15237198D02*
X10472739Y-15227674D01*
X10472739Y-15227674D02*
X10520358Y-15227674D01*
X10520358Y-15227674D02*
X10539405Y-15237198D01*
X10539405Y-15237198D02*
X10548929Y-15246722D01*
X10548929Y-15246722D02*
X10558453Y-15265769D01*
X10558453Y-15265769D02*
X10558453Y-15313388D01*
X10558453Y-15313388D02*
X10548929Y-15332436D01*
X10548929Y-15332436D02*
X10539405Y-15341960D01*
X10539405Y-15341960D02*
X10520358Y-15351484D01*
X10520358Y-15351484D02*
X10472739Y-15351484D01*
X10472739Y-15351484D02*
X10453691Y-15341960D01*
X10453691Y-15341960D02*
X10444167Y-15332436D01*
X10682263Y-15151484D02*
X10701310Y-15151484D01*
X10701310Y-15151484D02*
X10720358Y-15161008D01*
X10720358Y-15161008D02*
X10729882Y-15170531D01*
X10729882Y-15170531D02*
X10739405Y-15189579D01*
X10739405Y-15189579D02*
X10748929Y-15227674D01*
X10748929Y-15227674D02*
X10748929Y-15275293D01*
X10748929Y-15275293D02*
X10739405Y-15313388D01*
X10739405Y-15313388D02*
X10729882Y-15332436D01*
X10729882Y-15332436D02*
X10720358Y-15341960D01*
X10720358Y-15341960D02*
X10701310Y-15351484D01*
X10701310Y-15351484D02*
X10682263Y-15351484D01*
X10682263Y-15351484D02*
X10663215Y-15341960D01*
X10663215Y-15341960D02*
X10653691Y-15332436D01*
X10653691Y-15332436D02*
X10644167Y-15313388D01*
X10644167Y-15313388D02*
X10634644Y-15275293D01*
X10634644Y-15275293D02*
X10634644Y-15227674D01*
X10634644Y-15227674D02*
X10644167Y-15189579D01*
X10644167Y-15189579D02*
X10653691Y-15170531D01*
X10653691Y-15170531D02*
X10663215Y-15161008D01*
X10663215Y-15161008D02*
X10682263Y-15151484D01*
X10872739Y-15151484D02*
X10891786Y-15151484D01*
X10891786Y-15151484D02*
X10910834Y-15161008D01*
X10910834Y-15161008D02*
X10920358Y-15170531D01*
X10920358Y-15170531D02*
X10929882Y-15189579D01*
X10929882Y-15189579D02*
X10939405Y-15227674D01*
X10939405Y-15227674D02*
X10939405Y-15275293D01*
X10939405Y-15275293D02*
X10929882Y-15313388D01*
X10929882Y-15313388D02*
X10920358Y-15332436D01*
X10920358Y-15332436D02*
X10910834Y-15341960D01*
X10910834Y-15341960D02*
X10891786Y-15351484D01*
X10891786Y-15351484D02*
X10872739Y-15351484D01*
X10872739Y-15351484D02*
X10853691Y-15341960D01*
X10853691Y-15341960D02*
X10844167Y-15332436D01*
X10844167Y-15332436D02*
X10834644Y-15313388D01*
X10834644Y-15313388D02*
X10825120Y-15275293D01*
X10825120Y-15275293D02*
X10825120Y-15227674D01*
X10825120Y-15227674D02*
X10834644Y-15189579D01*
X10834644Y-15189579D02*
X10844167Y-15170531D01*
X10844167Y-15170531D02*
X10853691Y-15161008D01*
X10853691Y-15161008D02*
X10872739Y-15151484D01*
X11025120Y-15351484D02*
X11025120Y-15218150D01*
X11025120Y-15237198D02*
X11034644Y-15227674D01*
X11034644Y-15227674D02*
X11053691Y-15218150D01*
X11053691Y-15218150D02*
X11082263Y-15218150D01*
X11082263Y-15218150D02*
X11101310Y-15227674D01*
X11101310Y-15227674D02*
X11110834Y-15246722D01*
X11110834Y-15246722D02*
X11110834Y-15351484D01*
X11110834Y-15246722D02*
X11120358Y-15227674D01*
X11120358Y-15227674D02*
X11139405Y-15218150D01*
X11139405Y-15218150D02*
X11167977Y-15218150D01*
X11167977Y-15218150D02*
X11187024Y-15227674D01*
X11187024Y-15227674D02*
X11196548Y-15246722D01*
X11196548Y-15246722D02*
X11196548Y-15351484D01*
X11291786Y-15351484D02*
X11291786Y-15218150D01*
X11291786Y-15237198D02*
X11301310Y-15227674D01*
X11301310Y-15227674D02*
X11320358Y-15218150D01*
X11320358Y-15218150D02*
X11348929Y-15218150D01*
X11348929Y-15218150D02*
X11367977Y-15227674D01*
X11367977Y-15227674D02*
X11377501Y-15246722D01*
X11377501Y-15246722D02*
X11377501Y-15351484D01*
X11377501Y-15246722D02*
X11387024Y-15227674D01*
X11387024Y-15227674D02*
X11406072Y-15218150D01*
X11406072Y-15218150D02*
X11434643Y-15218150D01*
X11434643Y-15218150D02*
X11453691Y-15227674D01*
X11453691Y-15227674D02*
X11463215Y-15246722D01*
X11463215Y-15246722D02*
X11463215Y-15351484D01*
X11853691Y-15141960D02*
X11682263Y-15399103D01*
X12110834Y-15151484D02*
X12129882Y-15151484D01*
X12129882Y-15151484D02*
X12148929Y-15161008D01*
X12148929Y-15161008D02*
X12158453Y-15170531D01*
X12158453Y-15170531D02*
X12167977Y-15189579D01*
X12167977Y-15189579D02*
X12177501Y-15227674D01*
X12177501Y-15227674D02*
X12177501Y-15275293D01*
X12177501Y-15275293D02*
X12167977Y-15313388D01*
X12167977Y-15313388D02*
X12158453Y-15332436D01*
X12158453Y-15332436D02*
X12148929Y-15341960D01*
X12148929Y-15341960D02*
X12129882Y-15351484D01*
X12129882Y-15351484D02*
X12110834Y-15351484D01*
X12110834Y-15351484D02*
X12091786Y-15341960D01*
X12091786Y-15341960D02*
X12082263Y-15332436D01*
X12082263Y-15332436D02*
X12072739Y-15313388D01*
X12072739Y-15313388D02*
X12063215Y-15275293D01*
X12063215Y-15275293D02*
X12063215Y-15227674D01*
X12063215Y-15227674D02*
X12072739Y-15189579D01*
X12072739Y-15189579D02*
X12082263Y-15170531D01*
X12082263Y-15170531D02*
X12091786Y-15161008D01*
X12091786Y-15161008D02*
X12110834Y-15151484D01*
X12263215Y-15332436D02*
X12272739Y-15341960D01*
X12272739Y-15341960D02*
X12263215Y-15351484D01*
X12263215Y-15351484D02*
X12253691Y-15341960D01*
X12253691Y-15341960D02*
X12263215Y-15332436D01*
X12263215Y-15332436D02*
X12263215Y-15351484D01*
X12396548Y-15151484D02*
X12415596Y-15151484D01*
X12415596Y-15151484D02*
X12434644Y-15161008D01*
X12434644Y-15161008D02*
X12444167Y-15170531D01*
X12444167Y-15170531D02*
X12453691Y-15189579D01*
X12453691Y-15189579D02*
X12463215Y-15227674D01*
X12463215Y-15227674D02*
X12463215Y-15275293D01*
X12463215Y-15275293D02*
X12453691Y-15313388D01*
X12453691Y-15313388D02*
X12444167Y-15332436D01*
X12444167Y-15332436D02*
X12434644Y-15341960D01*
X12434644Y-15341960D02*
X12415596Y-15351484D01*
X12415596Y-15351484D02*
X12396548Y-15351484D01*
X12396548Y-15351484D02*
X12377501Y-15341960D01*
X12377501Y-15341960D02*
X12367977Y-15332436D01*
X12367977Y-15332436D02*
X12358453Y-15313388D01*
X12358453Y-15313388D02*
X12348929Y-15275293D01*
X12348929Y-15275293D02*
X12348929Y-15227674D01*
X12348929Y-15227674D02*
X12358453Y-15189579D01*
X12358453Y-15189579D02*
X12367977Y-15170531D01*
X12367977Y-15170531D02*
X12377501Y-15161008D01*
X12377501Y-15161008D02*
X12396548Y-15151484D01*
X12644167Y-15151484D02*
X12548929Y-15151484D01*
X12548929Y-15151484D02*
X12539406Y-15246722D01*
X12539406Y-15246722D02*
X12548929Y-15237198D01*
X12548929Y-15237198D02*
X12567977Y-15227674D01*
X12567977Y-15227674D02*
X12615596Y-15227674D01*
X12615596Y-15227674D02*
X12634644Y-15237198D01*
X12634644Y-15237198D02*
X12644167Y-15246722D01*
X12644167Y-15246722D02*
X12653691Y-15265769D01*
X12653691Y-15265769D02*
X12653691Y-15313388D01*
X12653691Y-15313388D02*
X12644167Y-15332436D01*
X12644167Y-15332436D02*
X12634644Y-15341960D01*
X12634644Y-15341960D02*
X12615596Y-15351484D01*
X12615596Y-15351484D02*
X12567977Y-15351484D01*
X12567977Y-15351484D02*
X12548929Y-15341960D01*
X12548929Y-15341960D02*
X12539406Y-15332436D01*
X12748929Y-15351484D02*
X12787025Y-15351484D01*
X12787025Y-15351484D02*
X12806072Y-15341960D01*
X12806072Y-15341960D02*
X12815596Y-15332436D01*
X12815596Y-15332436D02*
X12834644Y-15303865D01*
X12834644Y-15303865D02*
X12844167Y-15265769D01*
X12844167Y-15265769D02*
X12844167Y-15189579D01*
X12844167Y-15189579D02*
X12834644Y-15170531D01*
X12834644Y-15170531D02*
X12825120Y-15161008D01*
X12825120Y-15161008D02*
X12806072Y-15151484D01*
X12806072Y-15151484D02*
X12767977Y-15151484D01*
X12767977Y-15151484D02*
X12748929Y-15161008D01*
X12748929Y-15161008D02*
X12739406Y-15170531D01*
X12739406Y-15170531D02*
X12729882Y-15189579D01*
X12729882Y-15189579D02*
X12729882Y-15237198D01*
X12729882Y-15237198D02*
X12739406Y-15256246D01*
X12739406Y-15256246D02*
X12748929Y-15265769D01*
X12748929Y-15265769D02*
X12767977Y-15275293D01*
X12767977Y-15275293D02*
X12806072Y-15275293D01*
X12806072Y-15275293D02*
X12825120Y-15265769D01*
X12825120Y-15265769D02*
X12834644Y-15256246D01*
X12834644Y-15256246D02*
X12844167Y-15237198D01*
X13034644Y-15351484D02*
X12920358Y-15351484D01*
X12977501Y-15351484D02*
X12977501Y-15151484D01*
X12977501Y-15151484D02*
X12958453Y-15180055D01*
X12958453Y-15180055D02*
X12939406Y-15199103D01*
X12939406Y-15199103D02*
X12920358Y-15208627D01*
X13110834Y-15151484D02*
X13110834Y-15189579D01*
X13187025Y-15151484D02*
X13187025Y-15189579D01*
X13482263Y-15427674D02*
X13472739Y-15418150D01*
X13472739Y-15418150D02*
X13453691Y-15389579D01*
X13453691Y-15389579D02*
X13444168Y-15370531D01*
X13444168Y-15370531D02*
X13434644Y-15341960D01*
X13434644Y-15341960D02*
X13425120Y-15294341D01*
X13425120Y-15294341D02*
X13425120Y-15256246D01*
X13425120Y-15256246D02*
X13434644Y-15208627D01*
X13434644Y-15208627D02*
X13444168Y-15180055D01*
X13444168Y-15180055D02*
X13453691Y-15161008D01*
X13453691Y-15161008D02*
X13472739Y-15132436D01*
X13472739Y-15132436D02*
X13482263Y-15122912D01*
X13663215Y-15351484D02*
X13548929Y-15351484D01*
X13606072Y-15351484D02*
X13606072Y-15151484D01*
X13606072Y-15151484D02*
X13587025Y-15180055D01*
X13587025Y-15180055D02*
X13567977Y-15199103D01*
X13567977Y-15199103D02*
X13548929Y-15208627D01*
X13901310Y-15351484D02*
X13901310Y-15151484D01*
X13987025Y-15351484D02*
X13987025Y-15246722D01*
X13987025Y-15246722D02*
X13977501Y-15227674D01*
X13977501Y-15227674D02*
X13958453Y-15218150D01*
X13958453Y-15218150D02*
X13929882Y-15218150D01*
X13929882Y-15218150D02*
X13910834Y-15227674D01*
X13910834Y-15227674D02*
X13901310Y-15237198D01*
X14110834Y-15351484D02*
X14091787Y-15341960D01*
X14091787Y-15341960D02*
X14082263Y-15332436D01*
X14082263Y-15332436D02*
X14072739Y-15313388D01*
X14072739Y-15313388D02*
X14072739Y-15256246D01*
X14072739Y-15256246D02*
X14082263Y-15237198D01*
X14082263Y-15237198D02*
X14091787Y-15227674D01*
X14091787Y-15227674D02*
X14110834Y-15218150D01*
X14110834Y-15218150D02*
X14139406Y-15218150D01*
X14139406Y-15218150D02*
X14158453Y-15227674D01*
X14158453Y-15227674D02*
X14167977Y-15237198D01*
X14167977Y-15237198D02*
X14177501Y-15256246D01*
X14177501Y-15256246D02*
X14177501Y-15313388D01*
X14177501Y-15313388D02*
X14167977Y-15332436D01*
X14167977Y-15332436D02*
X14158453Y-15341960D01*
X14158453Y-15341960D02*
X14139406Y-15351484D01*
X14139406Y-15351484D02*
X14110834Y-15351484D01*
X14291787Y-15351484D02*
X14272739Y-15341960D01*
X14272739Y-15341960D02*
X14263215Y-15322912D01*
X14263215Y-15322912D02*
X14263215Y-15151484D01*
X14444168Y-15341960D02*
X14425120Y-15351484D01*
X14425120Y-15351484D02*
X14387025Y-15351484D01*
X14387025Y-15351484D02*
X14367977Y-15341960D01*
X14367977Y-15341960D02*
X14358453Y-15322912D01*
X14358453Y-15322912D02*
X14358453Y-15246722D01*
X14358453Y-15246722D02*
X14367977Y-15227674D01*
X14367977Y-15227674D02*
X14387025Y-15218150D01*
X14387025Y-15218150D02*
X14425120Y-15218150D01*
X14425120Y-15218150D02*
X14444168Y-15227674D01*
X14444168Y-15227674D02*
X14453691Y-15246722D01*
X14453691Y-15246722D02*
X14453691Y-15265769D01*
X14453691Y-15265769D02*
X14358453Y-15284817D01*
X14520358Y-15427674D02*
X14529882Y-15418150D01*
X14529882Y-15418150D02*
X14548930Y-15389579D01*
X14548930Y-15389579D02*
X14558453Y-15370531D01*
X14558453Y-15370531D02*
X14567977Y-15341960D01*
X14567977Y-15341960D02*
X14577501Y-15294341D01*
X14577501Y-15294341D02*
X14577501Y-15256246D01*
X14577501Y-15256246D02*
X14567977Y-15208627D01*
X14567977Y-15208627D02*
X14558453Y-15180055D01*
X14558453Y-15180055D02*
X14548930Y-15161008D01*
X14548930Y-15161008D02*
X14529882Y-15132436D01*
X14529882Y-15132436D02*
X14520358Y-15122912D01*
X14882263Y-15427674D02*
X14872739Y-15418150D01*
X14872739Y-15418150D02*
X14853691Y-15389579D01*
X14853691Y-15389579D02*
X14844168Y-15370531D01*
X14844168Y-15370531D02*
X14834644Y-15341960D01*
X14834644Y-15341960D02*
X14825120Y-15294341D01*
X14825120Y-15294341D02*
X14825120Y-15256246D01*
X14825120Y-15256246D02*
X14834644Y-15208627D01*
X14834644Y-15208627D02*
X14844168Y-15180055D01*
X14844168Y-15180055D02*
X14853691Y-15161008D01*
X14853691Y-15161008D02*
X14872739Y-15132436D01*
X14872739Y-15132436D02*
X14882263Y-15122912D01*
X14958453Y-15218150D02*
X14958453Y-15351484D01*
X14958453Y-15237198D02*
X14967977Y-15227674D01*
X14967977Y-15227674D02*
X14987025Y-15218150D01*
X14987025Y-15218150D02*
X15015596Y-15218150D01*
X15015596Y-15218150D02*
X15034644Y-15227674D01*
X15034644Y-15227674D02*
X15044168Y-15246722D01*
X15044168Y-15246722D02*
X15044168Y-15351484D01*
X15167977Y-15351484D02*
X15148930Y-15341960D01*
X15148930Y-15341960D02*
X15139406Y-15332436D01*
X15139406Y-15332436D02*
X15129882Y-15313388D01*
X15129882Y-15313388D02*
X15129882Y-15256246D01*
X15129882Y-15256246D02*
X15139406Y-15237198D01*
X15139406Y-15237198D02*
X15148930Y-15227674D01*
X15148930Y-15227674D02*
X15167977Y-15218150D01*
X15167977Y-15218150D02*
X15196549Y-15218150D01*
X15196549Y-15218150D02*
X15215596Y-15227674D01*
X15215596Y-15227674D02*
X15225120Y-15237198D01*
X15225120Y-15237198D02*
X15234644Y-15256246D01*
X15234644Y-15256246D02*
X15234644Y-15313388D01*
X15234644Y-15313388D02*
X15225120Y-15332436D01*
X15225120Y-15332436D02*
X15215596Y-15341960D01*
X15215596Y-15341960D02*
X15196549Y-15351484D01*
X15196549Y-15351484D02*
X15167977Y-15351484D01*
X15291787Y-15218150D02*
X15367977Y-15218150D01*
X15320358Y-15151484D02*
X15320358Y-15322912D01*
X15320358Y-15322912D02*
X15329882Y-15341960D01*
X15329882Y-15341960D02*
X15348930Y-15351484D01*
X15348930Y-15351484D02*
X15367977Y-15351484D01*
X15587025Y-15218150D02*
X15587025Y-15418150D01*
X15587025Y-15227674D02*
X15606072Y-15218150D01*
X15606072Y-15218150D02*
X15644168Y-15218150D01*
X15644168Y-15218150D02*
X15663215Y-15227674D01*
X15663215Y-15227674D02*
X15672739Y-15237198D01*
X15672739Y-15237198D02*
X15682263Y-15256246D01*
X15682263Y-15256246D02*
X15682263Y-15313388D01*
X15682263Y-15313388D02*
X15672739Y-15332436D01*
X15672739Y-15332436D02*
X15663215Y-15341960D01*
X15663215Y-15341960D02*
X15644168Y-15351484D01*
X15644168Y-15351484D02*
X15606072Y-15351484D01*
X15606072Y-15351484D02*
X15587025Y-15341960D01*
X15796549Y-15351484D02*
X15777501Y-15341960D01*
X15777501Y-15341960D02*
X15767977Y-15322912D01*
X15767977Y-15322912D02*
X15767977Y-15151484D01*
X15958453Y-15351484D02*
X15958453Y-15246722D01*
X15958453Y-15246722D02*
X15948930Y-15227674D01*
X15948930Y-15227674D02*
X15929882Y-15218150D01*
X15929882Y-15218150D02*
X15891787Y-15218150D01*
X15891787Y-15218150D02*
X15872739Y-15227674D01*
X15958453Y-15341960D02*
X15939406Y-15351484D01*
X15939406Y-15351484D02*
X15891787Y-15351484D01*
X15891787Y-15351484D02*
X15872739Y-15341960D01*
X15872739Y-15341960D02*
X15863215Y-15322912D01*
X15863215Y-15322912D02*
X15863215Y-15303865D01*
X15863215Y-15303865D02*
X15872739Y-15284817D01*
X15872739Y-15284817D02*
X15891787Y-15275293D01*
X15891787Y-15275293D02*
X15939406Y-15275293D01*
X15939406Y-15275293D02*
X15958453Y-15265769D01*
X16025120Y-15218150D02*
X16101311Y-15218150D01*
X16053692Y-15151484D02*
X16053692Y-15322912D01*
X16053692Y-15322912D02*
X16063215Y-15341960D01*
X16063215Y-15341960D02*
X16082263Y-15351484D01*
X16082263Y-15351484D02*
X16101311Y-15351484D01*
X16244168Y-15341960D02*
X16225120Y-15351484D01*
X16225120Y-15351484D02*
X16187025Y-15351484D01*
X16187025Y-15351484D02*
X16167977Y-15341960D01*
X16167977Y-15341960D02*
X16158453Y-15322912D01*
X16158453Y-15322912D02*
X16158453Y-15246722D01*
X16158453Y-15246722D02*
X16167977Y-15227674D01*
X16167977Y-15227674D02*
X16187025Y-15218150D01*
X16187025Y-15218150D02*
X16225120Y-15218150D01*
X16225120Y-15218150D02*
X16244168Y-15227674D01*
X16244168Y-15227674D02*
X16253692Y-15246722D01*
X16253692Y-15246722D02*
X16253692Y-15265769D01*
X16253692Y-15265769D02*
X16158453Y-15284817D01*
X16425120Y-15351484D02*
X16425120Y-15151484D01*
X16425120Y-15341960D02*
X16406073Y-15351484D01*
X16406073Y-15351484D02*
X16367977Y-15351484D01*
X16367977Y-15351484D02*
X16348930Y-15341960D01*
X16348930Y-15341960D02*
X16339406Y-15332436D01*
X16339406Y-15332436D02*
X16329882Y-15313388D01*
X16329882Y-15313388D02*
X16329882Y-15256246D01*
X16329882Y-15256246D02*
X16339406Y-15237198D01*
X16339406Y-15237198D02*
X16348930Y-15227674D01*
X16348930Y-15227674D02*
X16367977Y-15218150D01*
X16367977Y-15218150D02*
X16406073Y-15218150D01*
X16406073Y-15218150D02*
X16425120Y-15227674D01*
X16501311Y-15427674D02*
X16510834Y-15418150D01*
X16510834Y-15418150D02*
X16529882Y-15389579D01*
X16529882Y-15389579D02*
X16539406Y-15370531D01*
X16539406Y-15370531D02*
X16548930Y-15341960D01*
X16548930Y-15341960D02*
X16558453Y-15294341D01*
X16558453Y-15294341D02*
X16558453Y-15256246D01*
X16558453Y-15256246D02*
X16548930Y-15208627D01*
X16548930Y-15208627D02*
X16539406Y-15180055D01*
X16539406Y-15180055D02*
X16529882Y-15161008D01*
X16529882Y-15161008D02*
X16510834Y-15132436D01*
X16510834Y-15132436D02*
X16501311Y-15122912D01*
M02*
