G04 #@! TF.GenerationSoftware,KiCad,Pcbnew,8.0.3*
G04 #@! TF.CreationDate,2024-08-23T22:21:50+02:00*
G04 #@! TF.ProjectId,temp_power_management,74656d70-5f70-46f7-9765-725f6d616e61,rev?*
G04 #@! TF.SameCoordinates,Original*
G04 #@! TF.FileFunction,Soldermask,Bot*
G04 #@! TF.FilePolarity,Negative*
%FSLAX46Y46*%
G04 Gerber Fmt 4.6, Leading zero omitted, Abs format (unit mm)*
G04 Created by KiCad (PCBNEW 8.0.3) date 2024-08-23 22:21:50*
%MOMM*%
%LPD*%
G01*
G04 APERTURE LIST*
G04 Aperture macros list*
%AMRoundRect*
0 Rectangle with rounded corners*
0 $1 Rounding radius*
0 $2 $3 $4 $5 $6 $7 $8 $9 X,Y pos of 4 corners*
0 Add a 4 corners polygon primitive as box body*
4,1,4,$2,$3,$4,$5,$6,$7,$8,$9,$2,$3,0*
0 Add four circle primitives for the rounded corners*
1,1,$1+$1,$2,$3*
1,1,$1+$1,$4,$5*
1,1,$1+$1,$6,$7*
1,1,$1+$1,$8,$9*
0 Add four rect primitives between the rounded corners*
20,1,$1+$1,$2,$3,$4,$5,0*
20,1,$1+$1,$4,$5,$6,$7,0*
20,1,$1+$1,$6,$7,$8,$9,0*
20,1,$1+$1,$8,$9,$2,$3,0*%
%AMOutline5P*
0 Free polygon, 5 corners , with rotation*
0 The origin of the aperture is its center*
0 number of corners: always 5*
0 $1 to $10 corner X, Y*
0 $11 Rotation angle, in degrees counterclockwise*
0 create outline with 5 corners*
4,1,5,$1,$2,$3,$4,$5,$6,$7,$8,$9,$10,$1,$2,$11*%
%AMOutline6P*
0 Free polygon, 6 corners , with rotation*
0 The origin of the aperture is its center*
0 number of corners: always 6*
0 $1 to $12 corner X, Y*
0 $13 Rotation angle, in degrees counterclockwise*
0 create outline with 6 corners*
4,1,6,$1,$2,$3,$4,$5,$6,$7,$8,$9,$10,$11,$12,$1,$2,$13*%
%AMOutline7P*
0 Free polygon, 7 corners , with rotation*
0 The origin of the aperture is its center*
0 number of corners: always 7*
0 $1 to $14 corner X, Y*
0 $15 Rotation angle, in degrees counterclockwise*
0 create outline with 7 corners*
4,1,7,$1,$2,$3,$4,$5,$6,$7,$8,$9,$10,$11,$12,$13,$14,$1,$2,$15*%
%AMOutline8P*
0 Free polygon, 8 corners , with rotation*
0 The origin of the aperture is its center*
0 number of corners: always 8*
0 $1 to $16 corner X, Y*
0 $17 Rotation angle, in degrees counterclockwise*
0 create outline with 8 corners*
4,1,8,$1,$2,$3,$4,$5,$6,$7,$8,$9,$10,$11,$12,$13,$14,$15,$16,$1,$2,$17*%
%AMFreePoly0*
4,1,19,0.550000,-0.750000,0.000000,-0.750000,0.000000,-0.744911,-0.071157,-0.744911,-0.207708,-0.704816,-0.327430,-0.627875,-0.420627,-0.520320,-0.479746,-0.390866,-0.500000,-0.250000,-0.500000,0.250000,-0.479746,0.390866,-0.420627,0.520320,-0.327430,0.627875,-0.207708,0.704816,-0.071157,0.744911,0.000000,0.744911,0.000000,0.750000,0.550000,0.750000,0.550000,-0.750000,0.550000,-0.750000,
$1*%
%AMFreePoly1*
4,1,19,0.000000,0.744911,0.071157,0.744911,0.207708,0.704816,0.327430,0.627875,0.420627,0.520320,0.479746,0.390866,0.500000,0.250000,0.500000,-0.250000,0.479746,-0.390866,0.420627,-0.520320,0.327430,-0.627875,0.207708,-0.704816,0.071157,-0.744911,0.000000,-0.744911,0.000000,-0.750000,-0.550000,-0.750000,-0.550000,0.750000,0.000000,0.750000,0.000000,0.744911,0.000000,0.744911,
$1*%
%AMFreePoly2*
4,1,19,0.500000,-0.750000,0.000000,-0.750000,0.000000,-0.744911,-0.071157,-0.744911,-0.207708,-0.704816,-0.327430,-0.627875,-0.420627,-0.520320,-0.479746,-0.390866,-0.500000,-0.250000,-0.500000,0.250000,-0.479746,0.390866,-0.420627,0.520320,-0.327430,0.627875,-0.207708,0.704816,-0.071157,0.744911,0.000000,0.744911,0.000000,0.750000,0.500000,0.750000,0.500000,-0.750000,0.500000,-0.750000,
$1*%
%AMFreePoly3*
4,1,19,0.000000,0.744911,0.071157,0.744911,0.207708,0.704816,0.327430,0.627875,0.420627,0.520320,0.479746,0.390866,0.500000,0.250000,0.500000,-0.250000,0.479746,-0.390866,0.420627,-0.520320,0.327430,-0.627875,0.207708,-0.704816,0.071157,-0.744911,0.000000,-0.744911,0.000000,-0.750000,-0.500000,-0.750000,-0.500000,0.750000,0.000000,0.750000,0.000000,0.744911,0.000000,0.744911,
$1*%
%AMFreePoly4*
4,1,18,-0.850000,0.510000,-0.510000,0.850000,0.600000,0.850000,0.695671,0.830970,0.776777,0.776777,0.830970,0.695671,0.850000,0.600000,0.850000,-0.600000,0.830970,-0.695671,0.776777,-0.776777,0.695671,-0.830970,0.600000,-0.850000,-0.600000,-0.850000,-0.695671,-0.830970,-0.776777,-0.776777,-0.830970,-0.695671,-0.850000,-0.600000,-0.850000,0.510000,-0.850000,0.510000,$1*%
G04 Aperture macros list end*
%ADD10RoundRect,0.160000X-0.197500X-0.160000X0.197500X-0.160000X0.197500X0.160000X-0.197500X0.160000X0*%
%ADD11RoundRect,0.135000X-0.185000X0.135000X-0.185000X-0.135000X0.185000X-0.135000X0.185000X0.135000X0*%
%ADD12RoundRect,0.135000X-0.135000X-0.185000X0.135000X-0.185000X0.135000X0.185000X-0.135000X0.185000X0*%
%ADD13RoundRect,0.135000X0.135000X0.185000X-0.135000X0.185000X-0.135000X-0.185000X0.135000X-0.185000X0*%
%ADD14C,0.800000*%
%ADD15C,6.400000*%
%ADD16RoundRect,0.250000X0.450000X-0.262500X0.450000X0.262500X-0.450000X0.262500X-0.450000X-0.262500X0*%
%ADD17R,1.800000X1.800000*%
%ADD18C,1.800000*%
%ADD19C,2.500000*%
%ADD20C,4.000000*%
%ADD21C,3.500000*%
%ADD22R,3.800000X3.800000*%
%ADD23C,3.800000*%
%ADD24RoundRect,0.150000X0.150000X-0.587500X0.150000X0.587500X-0.150000X0.587500X-0.150000X-0.587500X0*%
%ADD25FreePoly0,270.000000*%
%ADD26R,1.500000X1.000000*%
%ADD27FreePoly1,270.000000*%
%ADD28C,5.000000*%
%ADD29RoundRect,0.150000X0.200000X-0.150000X0.200000X0.150000X-0.200000X0.150000X-0.200000X-0.150000X0*%
%ADD30RoundRect,0.250000X0.250000X0.475000X-0.250000X0.475000X-0.250000X-0.475000X0.250000X-0.475000X0*%
%ADD31RoundRect,1.500000X1.500000X-1.500000X1.500000X1.500000X-1.500000X1.500000X-1.500000X-1.500000X0*%
%ADD32C,6.000000*%
%ADD33RoundRect,0.250000X-0.450000X0.262500X-0.450000X-0.262500X0.450000X-0.262500X0.450000X0.262500X0*%
%ADD34RoundRect,0.250000X-2.050000X-0.300000X2.050000X-0.300000X2.050000X0.300000X-2.050000X0.300000X0*%
%ADD35RoundRect,0.250002X-4.449998X-5.149998X4.449998X-5.149998X4.449998X5.149998X-4.449998X5.149998X0*%
%ADD36R,1.500000X1.500000*%
%ADD37C,1.500000*%
%ADD38RoundRect,0.135000X0.185000X-0.135000X0.185000X0.135000X-0.185000X0.135000X-0.185000X-0.135000X0*%
%ADD39RoundRect,0.140000X-0.140000X-0.170000X0.140000X-0.170000X0.140000X0.170000X-0.140000X0.170000X0*%
%ADD40RoundRect,0.250000X1.450000X-0.312500X1.450000X0.312500X-1.450000X0.312500X-1.450000X-0.312500X0*%
%ADD41R,1.700000X1.700000*%
%ADD42O,1.700000X1.700000*%
%ADD43RoundRect,0.140000X0.170000X-0.140000X0.170000X0.140000X-0.170000X0.140000X-0.170000X-0.140000X0*%
%ADD44RoundRect,0.140000X-0.170000X0.140000X-0.170000X-0.140000X0.170000X-0.140000X0.170000X0.140000X0*%
%ADD45FreePoly2,90.000000*%
%ADD46FreePoly3,90.000000*%
%ADD47RoundRect,2.500000X-0.000010X-1.500000X0.000010X-1.500000X0.000010X1.500000X-0.000010X1.500000X0*%
%ADD48RoundRect,2.500000X0.000010X-1.500000X0.000010X1.500000X-0.000010X1.500000X-0.000010X-1.500000X0*%
%ADD49Outline8P,-2.500000X2.750000X-1.250000X4.000000X1.250000X4.000000X2.500000X2.750000X2.500000X-2.750000X1.250000X-4.000000X-1.250000X-4.000000X-2.500000X-2.750000X0.000000*%
%ADD50RoundRect,0.140000X0.140000X0.170000X-0.140000X0.170000X-0.140000X-0.170000X0.140000X-0.170000X0*%
%ADD51R,0.510000X0.700000*%
%ADD52C,0.700000*%
%ADD53RoundRect,0.250000X-0.250000X-0.475000X0.250000X-0.475000X0.250000X0.475000X-0.250000X0.475000X0*%
%ADD54RoundRect,0.250000X0.800000X-0.450000X0.800000X0.450000X-0.800000X0.450000X-0.800000X-0.450000X0*%
%ADD55RoundRect,0.150000X0.825000X0.150000X-0.825000X0.150000X-0.825000X-0.150000X0.825000X-0.150000X0*%
%ADD56RoundRect,0.250000X0.450000X0.800000X-0.450000X0.800000X-0.450000X-0.800000X0.450000X-0.800000X0*%
%ADD57R,1.300000X1.300000*%
%ADD58C,1.300000*%
%ADD59FreePoly0,90.000000*%
%ADD60FreePoly1,90.000000*%
%ADD61RoundRect,0.250000X2.050000X0.300000X-2.050000X0.300000X-2.050000X-0.300000X2.050000X-0.300000X0*%
%ADD62RoundRect,0.250002X4.449998X5.149998X-4.449998X5.149998X-4.449998X-5.149998X4.449998X-5.149998X0*%
%ADD63FreePoly4,0.000000*%
%ADD64C,1.700000*%
%ADD65RoundRect,0.250000X-0.900000X-0.600000X0.900000X-0.600000X0.900000X0.600000X-0.900000X0.600000X0*%
%ADD66RoundRect,0.250000X-0.312500X-0.625000X0.312500X-0.625000X0.312500X0.625000X-0.312500X0.625000X0*%
%ADD67RoundRect,0.075000X-0.075000X0.662500X-0.075000X-0.662500X0.075000X-0.662500X0.075000X0.662500X0*%
%ADD68RoundRect,0.075000X-0.662500X0.075000X-0.662500X-0.075000X0.662500X-0.075000X0.662500X0.075000X0*%
G04 APERTURE END LIST*
D10*
X116586000Y-67818000D03*
X117781000Y-67818000D03*
D11*
X181102000Y-73910000D03*
X181102000Y-74930000D03*
D12*
X121408000Y-71628000D03*
X122428000Y-71628000D03*
D13*
X122426000Y-70612000D03*
X121406000Y-70612000D03*
D14*
X192672000Y-73152000D03*
X193374944Y-71454944D03*
X193374944Y-74849056D03*
X195072000Y-70752000D03*
D15*
X195072000Y-73152000D03*
D14*
X195072000Y-75552000D03*
X196769056Y-71454944D03*
X196769056Y-74849056D03*
X197472000Y-73152000D03*
D13*
X105920000Y-88138000D03*
X104900000Y-88138000D03*
D12*
X104900000Y-89154000D03*
X105920000Y-89154000D03*
D16*
X119634000Y-67611000D03*
X119634000Y-65786000D03*
X121920000Y-67564000D03*
X121920000Y-65739000D03*
D17*
X149240000Y-80833000D03*
D18*
X144240000Y-80833000D03*
X149240000Y-84333000D03*
X144240000Y-84333000D03*
D19*
X172694000Y-105949000D03*
X172694000Y-116149000D03*
D20*
X188094000Y-119949000D03*
D21*
X195794000Y-119949000D03*
D20*
X185554000Y-102169000D03*
D22*
X128858000Y-81280000D03*
D23*
X133858000Y-81280000D03*
D24*
X194498000Y-65199500D03*
X192598000Y-65199500D03*
X193548000Y-63324500D03*
D12*
X103122000Y-78008000D03*
X104142000Y-78008000D03*
D16*
X104902000Y-84478500D03*
X104902000Y-82653500D03*
D25*
X103632000Y-73630000D03*
D26*
X103632000Y-74930000D03*
D27*
X103632000Y-76230000D03*
D28*
X147754000Y-63754000D03*
X170254000Y-63754000D03*
D29*
X119380000Y-82804000D03*
X119380000Y-84204000D03*
D30*
X117602000Y-69342000D03*
X115702000Y-69342000D03*
D31*
X145415000Y-138430000D03*
D32*
X145415000Y-131230000D03*
D12*
X103120000Y-71912000D03*
X104140000Y-71912000D03*
D33*
X178925000Y-90678000D03*
X178925000Y-92503000D03*
D17*
X149240000Y-90231000D03*
D18*
X144240000Y-90231000D03*
X149240000Y-93731000D03*
X144240000Y-93731000D03*
D34*
X182735000Y-93726000D03*
D35*
X191885000Y-91186000D03*
D34*
X182735000Y-88646000D03*
D36*
X105736000Y-129540000D03*
D37*
X108236000Y-129540000D03*
X110236000Y-129540000D03*
X112736000Y-129540000D03*
X105736000Y-126920000D03*
X108236000Y-126920000D03*
X110236000Y-126920000D03*
X112736000Y-126920000D03*
D21*
X102666000Y-132250000D03*
X115806000Y-132250000D03*
X102666000Y-126570000D03*
X115806000Y-126570000D03*
D38*
X122682000Y-83822000D03*
X122682000Y-82802000D03*
D39*
X112550000Y-81534000D03*
X113510000Y-81534000D03*
D40*
X170434000Y-108860500D03*
X170434000Y-113135500D03*
D41*
X101849000Y-62240000D03*
D42*
X104389000Y-62240000D03*
X101849000Y-64780000D03*
X104389000Y-64780000D03*
X101849000Y-67320000D03*
X104389000Y-67320000D03*
X101849000Y-69860000D03*
X104389000Y-69860000D03*
D30*
X110424000Y-81534000D03*
X108524000Y-81534000D03*
D31*
X174498000Y-138474000D03*
D32*
X174498000Y-131274000D03*
D31*
X194056000Y-138518000D03*
D32*
X194056000Y-131318000D03*
D43*
X121666000Y-78712000D03*
X121666000Y-77752000D03*
D29*
X121412000Y-82804000D03*
X121412000Y-84204000D03*
D44*
X114046000Y-90706000D03*
X114046000Y-91666000D03*
D45*
X100838000Y-94376000D03*
D46*
X100838000Y-93076000D03*
D11*
X122682000Y-74420000D03*
X122682000Y-75440000D03*
D31*
X184150000Y-138430000D03*
D32*
X184150000Y-131230000D03*
D47*
X139358000Y-73406000D03*
D48*
X133858000Y-73406000D03*
D49*
X128358000Y-73406000D03*
D11*
X115570000Y-108966000D03*
X115570000Y-109986000D03*
D33*
X107188000Y-96266000D03*
X107188000Y-98091000D03*
D50*
X110970000Y-71882000D03*
X110010000Y-71882000D03*
D25*
X112268000Y-90394000D03*
D26*
X112268000Y-91694000D03*
D27*
X112268000Y-92994000D03*
D36*
X127112000Y-129540000D03*
D37*
X129612000Y-129540000D03*
X131612000Y-129540000D03*
X134112000Y-129540000D03*
X127112000Y-126920000D03*
X129612000Y-126920000D03*
X131612000Y-126920000D03*
X134112000Y-126920000D03*
D21*
X124042000Y-132250000D03*
X137182000Y-132250000D03*
X124042000Y-126570000D03*
X137182000Y-126570000D03*
D51*
X110424000Y-85488000D03*
X109474000Y-85488000D03*
X108524000Y-85488000D03*
X108524000Y-83168000D03*
X110424000Y-83168000D03*
D13*
X194564000Y-67818000D03*
X193544000Y-67818000D03*
D49*
X128358000Y-63754000D03*
D48*
X133858000Y-63754000D03*
D47*
X139358000Y-63754000D03*
D52*
X115570000Y-61352000D03*
X115570000Y-59552000D03*
D12*
X193544000Y-66802000D03*
X194564000Y-66802000D03*
D30*
X110490000Y-87122000D03*
X108590000Y-87122000D03*
D53*
X112268000Y-83058000D03*
X114168000Y-83058000D03*
D31*
X164846000Y-138430000D03*
D32*
X164846000Y-131230000D03*
D54*
X179070000Y-78060000D03*
X179070000Y-73660000D03*
D55*
X114489000Y-95250000D03*
X114489000Y-96520000D03*
X114489000Y-97790000D03*
X114489000Y-99060000D03*
X109539000Y-99060000D03*
X109539000Y-97790000D03*
X109539000Y-96520000D03*
X109539000Y-95250000D03*
D50*
X112776000Y-69850000D03*
X111816000Y-69850000D03*
D56*
X144862000Y-123952000D03*
X140462000Y-123952000D03*
D33*
X178925000Y-94234000D03*
X178925000Y-96059000D03*
D37*
X103146000Y-95120000D03*
D57*
X101346000Y-96520000D03*
D58*
X103886000Y-97790000D03*
X101346000Y-99060000D03*
X103886000Y-100330000D03*
D12*
X144080000Y-110420000D03*
X145100000Y-110420000D03*
D17*
X149240000Y-99629000D03*
D18*
X144240000Y-99629000D03*
X149240000Y-103129000D03*
X144240000Y-103129000D03*
D59*
X108966000Y-92994000D03*
D26*
X108966000Y-91694000D03*
D60*
X108966000Y-90394000D03*
D61*
X174758000Y-73406000D03*
D62*
X165608000Y-75946000D03*
D61*
X174758000Y-78486000D03*
D12*
X178050000Y-71882000D03*
X179070000Y-71882000D03*
D32*
X155194000Y-131230000D03*
D31*
X155194000Y-138430000D03*
D44*
X116332000Y-96672740D03*
X116332000Y-97632740D03*
D63*
X102616000Y-86702000D03*
D64*
X102616000Y-84702000D03*
X102616000Y-82702000D03*
D65*
X102616000Y-80702000D03*
X102616000Y-88702000D03*
D66*
X169672000Y-106066500D03*
X166747000Y-106066500D03*
D67*
X112820000Y-71529500D03*
X113320000Y-71529500D03*
X113820000Y-71529500D03*
X114320000Y-71529500D03*
X114820000Y-71529500D03*
X115320000Y-71529500D03*
X115820000Y-71529500D03*
X116320000Y-71529500D03*
X116820000Y-71529500D03*
X117320000Y-71529500D03*
X117820000Y-71529500D03*
X118320000Y-71529500D03*
D68*
X119732500Y-72942000D03*
X119732500Y-73442000D03*
X119732500Y-73942000D03*
X119732500Y-74442000D03*
X119732500Y-74942000D03*
X119732500Y-75442000D03*
X119732500Y-75942000D03*
X119732500Y-76442000D03*
X119732500Y-76942000D03*
X119732500Y-77442000D03*
X119732500Y-77942000D03*
X119732500Y-78442000D03*
D67*
X118320000Y-79854500D03*
X117820000Y-79854500D03*
X117320000Y-79854500D03*
X116820000Y-79854500D03*
X116320000Y-79854500D03*
X115820000Y-79854500D03*
X115320000Y-79854500D03*
X114820000Y-79854500D03*
X114320000Y-79854500D03*
X113820000Y-79854500D03*
X113320000Y-79854500D03*
X112820000Y-79854500D03*
D68*
X111407500Y-78442000D03*
X111407500Y-77942000D03*
X111407500Y-77442000D03*
X111407500Y-76942000D03*
X111407500Y-76442000D03*
X111407500Y-75942000D03*
X111407500Y-75442000D03*
X111407500Y-74942000D03*
X111407500Y-74442000D03*
X111407500Y-73942000D03*
X111407500Y-73442000D03*
X111407500Y-72942000D03*
D41*
X107950000Y-112268000D03*
D64*
X110490000Y-112268000D03*
X113030000Y-112268000D03*
X115570000Y-112268000D03*
X118110000Y-112268000D03*
X120650000Y-112268000D03*
X140970000Y-112268000D03*
X143510000Y-112268000D03*
X146050000Y-112268000D03*
X148590000Y-112268000D03*
X151130000Y-112268000D03*
X153670000Y-112268000D03*
X156210000Y-112268000D03*
D38*
X118110000Y-83824000D03*
X118110000Y-82804000D03*
M02*
