G04 #@! TF.GenerationSoftware,KiCad,Pcbnew,8.0.3*
G04 #@! TF.CreationDate,2024-08-23T22:21:50+02:00*
G04 #@! TF.ProjectId,temp_power_management,74656d70-5f70-46f7-9765-725f6d616e61,rev?*
G04 #@! TF.SameCoordinates,Original*
G04 #@! TF.FileFunction,Copper,L1,Top*
G04 #@! TF.FilePolarity,Positive*
%FSLAX46Y46*%
G04 Gerber Fmt 4.6, Leading zero omitted, Abs format (unit mm)*
G04 Created by KiCad (PCBNEW 8.0.3) date 2024-08-23 22:21:50*
%MOMM*%
%LPD*%
G01*
G04 APERTURE LIST*
G04 Aperture macros list*
%AMRoundRect*
0 Rectangle with rounded corners*
0 $1 Rounding radius*
0 $2 $3 $4 $5 $6 $7 $8 $9 X,Y pos of 4 corners*
0 Add a 4 corners polygon primitive as box body*
4,1,4,$2,$3,$4,$5,$6,$7,$8,$9,$2,$3,0*
0 Add four circle primitives for the rounded corners*
1,1,$1+$1,$2,$3*
1,1,$1+$1,$4,$5*
1,1,$1+$1,$6,$7*
1,1,$1+$1,$8,$9*
0 Add four rect primitives between the rounded corners*
20,1,$1+$1,$2,$3,$4,$5,0*
20,1,$1+$1,$4,$5,$6,$7,0*
20,1,$1+$1,$6,$7,$8,$9,0*
20,1,$1+$1,$8,$9,$2,$3,0*%
%AMOutline5P*
0 Free polygon, 5 corners , with rotation*
0 The origin of the aperture is its center*
0 number of corners: always 5*
0 $1 to $10 corner X, Y*
0 $11 Rotation angle, in degrees counterclockwise*
0 create outline with 5 corners*
4,1,5,$1,$2,$3,$4,$5,$6,$7,$8,$9,$10,$1,$2,$11*%
%AMOutline6P*
0 Free polygon, 6 corners , with rotation*
0 The origin of the aperture is its center*
0 number of corners: always 6*
0 $1 to $12 corner X, Y*
0 $13 Rotation angle, in degrees counterclockwise*
0 create outline with 6 corners*
4,1,6,$1,$2,$3,$4,$5,$6,$7,$8,$9,$10,$11,$12,$1,$2,$13*%
%AMOutline7P*
0 Free polygon, 7 corners , with rotation*
0 The origin of the aperture is its center*
0 number of corners: always 7*
0 $1 to $14 corner X, Y*
0 $15 Rotation angle, in degrees counterclockwise*
0 create outline with 7 corners*
4,1,7,$1,$2,$3,$4,$5,$6,$7,$8,$9,$10,$11,$12,$13,$14,$1,$2,$15*%
%AMOutline8P*
0 Free polygon, 8 corners , with rotation*
0 The origin of the aperture is its center*
0 number of corners: always 8*
0 $1 to $16 corner X, Y*
0 $17 Rotation angle, in degrees counterclockwise*
0 create outline with 8 corners*
4,1,8,$1,$2,$3,$4,$5,$6,$7,$8,$9,$10,$11,$12,$13,$14,$15,$16,$1,$2,$17*%
%AMFreePoly0*
4,1,19,0.500000,-0.750000,0.000000,-0.750000,0.000000,-0.744911,-0.071157,-0.744911,-0.207708,-0.704816,-0.327430,-0.627875,-0.420627,-0.520320,-0.479746,-0.390866,-0.500000,-0.250000,-0.500000,0.250000,-0.479746,0.390866,-0.420627,0.520320,-0.327430,0.627875,-0.207708,0.704816,-0.071157,0.744911,0.000000,0.744911,0.000000,0.750000,0.500000,0.750000,0.500000,-0.750000,0.500000,-0.750000,
$1*%
%AMFreePoly1*
4,1,19,0.000000,0.744911,0.071157,0.744911,0.207708,0.704816,0.327430,0.627875,0.420627,0.520320,0.479746,0.390866,0.500000,0.250000,0.500000,-0.250000,0.479746,-0.390866,0.420627,-0.520320,0.327430,-0.627875,0.207708,-0.704816,0.071157,-0.744911,0.000000,-0.744911,0.000000,-0.750000,-0.500000,-0.750000,-0.500000,0.750000,0.000000,0.750000,0.000000,0.744911,0.000000,0.744911,
$1*%
%AMFreePoly2*
4,1,18,-0.850000,0.510000,-0.510000,0.850000,0.600000,0.850000,0.695671,0.830970,0.776777,0.776777,0.830970,0.695671,0.850000,0.600000,0.850000,-0.600000,0.830970,-0.695671,0.776777,-0.776777,0.695671,-0.830970,0.600000,-0.850000,-0.600000,-0.850000,-0.695671,-0.830970,-0.776777,-0.776777,-0.830970,-0.695671,-0.850000,-0.600000,-0.850000,0.510000,-0.850000,0.510000,$1*%
G04 Aperture macros list end*
G04 #@! TA.AperFunction,EtchedComponent*
%ADD10C,0.000000*%
G04 #@! TD*
G04 #@! TA.AperFunction,ComponentPad*
%ADD11C,0.800000*%
G04 #@! TD*
G04 #@! TA.AperFunction,ComponentPad*
%ADD12C,6.400000*%
G04 #@! TD*
G04 #@! TA.AperFunction,SMDPad,CuDef*
%ADD13RoundRect,0.250000X-0.450000X0.262500X-0.450000X-0.262500X0.450000X-0.262500X0.450000X0.262500X0*%
G04 #@! TD*
G04 #@! TA.AperFunction,SMDPad,CuDef*
%ADD14RoundRect,0.243750X0.456250X-0.243750X0.456250X0.243750X-0.456250X0.243750X-0.456250X-0.243750X0*%
G04 #@! TD*
G04 #@! TA.AperFunction,SMDPad,CuDef*
%ADD15RoundRect,0.243750X-0.456250X0.243750X-0.456250X-0.243750X0.456250X-0.243750X0.456250X0.243750X0*%
G04 #@! TD*
G04 #@! TA.AperFunction,ComponentPad*
%ADD16R,1.800000X1.800000*%
G04 #@! TD*
G04 #@! TA.AperFunction,ComponentPad*
%ADD17C,1.800000*%
G04 #@! TD*
G04 #@! TA.AperFunction,ComponentPad*
%ADD18C,2.500000*%
G04 #@! TD*
G04 #@! TA.AperFunction,ComponentPad*
%ADD19C,4.000000*%
G04 #@! TD*
G04 #@! TA.AperFunction,ComponentPad*
%ADD20C,3.500000*%
G04 #@! TD*
G04 #@! TA.AperFunction,ComponentPad*
%ADD21R,3.800000X3.800000*%
G04 #@! TD*
G04 #@! TA.AperFunction,ComponentPad*
%ADD22C,3.800000*%
G04 #@! TD*
G04 #@! TA.AperFunction,ComponentPad*
%ADD23C,5.000000*%
G04 #@! TD*
G04 #@! TA.AperFunction,ComponentPad*
%ADD24RoundRect,1.500000X1.500000X-1.500000X1.500000X1.500000X-1.500000X1.500000X-1.500000X-1.500000X0*%
G04 #@! TD*
G04 #@! TA.AperFunction,ComponentPad*
%ADD25C,6.000000*%
G04 #@! TD*
G04 #@! TA.AperFunction,ComponentPad*
%ADD26R,1.500000X1.500000*%
G04 #@! TD*
G04 #@! TA.AperFunction,ComponentPad*
%ADD27C,1.500000*%
G04 #@! TD*
G04 #@! TA.AperFunction,ComponentPad*
%ADD28R,1.700000X1.700000*%
G04 #@! TD*
G04 #@! TA.AperFunction,ComponentPad*
%ADD29O,1.700000X1.700000*%
G04 #@! TD*
G04 #@! TA.AperFunction,SMDPad,CuDef*
%ADD30RoundRect,0.250000X-0.625000X0.312500X-0.625000X-0.312500X0.625000X-0.312500X0.625000X0.312500X0*%
G04 #@! TD*
G04 #@! TA.AperFunction,ComponentPad*
%ADD31RoundRect,2.500000X-0.000010X-1.500000X0.000010X-1.500000X0.000010X1.500000X-0.000010X1.500000X0*%
G04 #@! TD*
G04 #@! TA.AperFunction,ComponentPad*
%ADD32RoundRect,2.500000X0.000010X-1.500000X0.000010X1.500000X-0.000010X1.500000X-0.000010X-1.500000X0*%
G04 #@! TD*
G04 #@! TA.AperFunction,ComponentPad*
%ADD33Outline8P,-2.500000X2.750000X-1.250000X4.000000X1.250000X4.000000X2.500000X2.750000X2.500000X-2.750000X1.250000X-4.000000X-1.250000X-4.000000X-2.500000X-2.750000X0.000000*%
G04 #@! TD*
G04 #@! TA.AperFunction,SMDPad,CuDef*
%ADD34RoundRect,0.250000X0.450000X0.275000X-0.450000X0.275000X-0.450000X-0.275000X0.450000X-0.275000X0*%
G04 #@! TD*
G04 #@! TA.AperFunction,SMDPad,CuDef*
%ADD35RoundRect,0.200000X0.275000X-0.200000X0.275000X0.200000X-0.275000X0.200000X-0.275000X-0.200000X0*%
G04 #@! TD*
G04 #@! TA.AperFunction,ComponentPad*
%ADD36R,1.300000X1.300000*%
G04 #@! TD*
G04 #@! TA.AperFunction,ComponentPad*
%ADD37C,1.300000*%
G04 #@! TD*
G04 #@! TA.AperFunction,SMDPad,CuDef*
%ADD38FreePoly0,270.000000*%
G04 #@! TD*
G04 #@! TA.AperFunction,SMDPad,CuDef*
%ADD39FreePoly1,270.000000*%
G04 #@! TD*
G04 #@! TA.AperFunction,SMDPad,CuDef*
%ADD40RoundRect,0.140000X-0.170000X0.140000X-0.170000X-0.140000X0.170000X-0.140000X0.170000X0.140000X0*%
G04 #@! TD*
G04 #@! TA.AperFunction,ComponentPad*
%ADD41FreePoly2,0.000000*%
G04 #@! TD*
G04 #@! TA.AperFunction,ComponentPad*
%ADD42C,1.700000*%
G04 #@! TD*
G04 #@! TA.AperFunction,ComponentPad*
%ADD43RoundRect,0.250000X-0.900000X-0.600000X0.900000X-0.600000X0.900000X0.600000X-0.900000X0.600000X0*%
G04 #@! TD*
G04 #@! TA.AperFunction,ViaPad*
%ADD44C,0.450000*%
G04 #@! TD*
G04 #@! TA.AperFunction,Conductor*
%ADD45C,0.254000*%
G04 #@! TD*
G04 APERTURE END LIST*
D10*
G04 #@! TA.AperFunction,EtchedComponent*
G36*
X110536000Y-62226000D02*
G01*
X109936000Y-62226000D01*
X109936000Y-61726000D01*
X110536000Y-61726000D01*
X110536000Y-62226000D01*
G37*
G04 #@! TD.AperFunction*
D11*
X192672000Y-73152000D03*
X193374944Y-71454944D03*
X193374944Y-74849056D03*
X195072000Y-70752000D03*
D12*
X195072000Y-73152000D03*
D11*
X195072000Y-75552000D03*
X196769056Y-71454944D03*
X196769056Y-74849056D03*
X197472000Y-73152000D03*
D13*
X119888000Y-90377000D03*
X119888000Y-92202000D03*
X117348000Y-90377000D03*
X117348000Y-92202000D03*
D14*
X119949000Y-95621000D03*
X119949000Y-93746000D03*
X117348000Y-95621000D03*
X117348000Y-93746000D03*
D15*
X119634000Y-63911000D03*
X119634000Y-65786000D03*
D16*
X149240000Y-80833000D03*
D17*
X144240000Y-80833000D03*
X149240000Y-84333000D03*
X144240000Y-84333000D03*
D18*
X172694000Y-105949000D03*
X172694000Y-116149000D03*
D19*
X188094000Y-119949000D03*
D20*
X195794000Y-119949000D03*
D19*
X185554000Y-102169000D03*
D15*
X186436000Y-63324500D03*
X186436000Y-65199500D03*
X190246000Y-63324500D03*
X190246000Y-65199500D03*
D21*
X128858000Y-81280000D03*
D22*
X133858000Y-81280000D03*
D23*
X147754000Y-63754000D03*
X170254000Y-63754000D03*
D24*
X145415000Y-138430000D03*
D25*
X145415000Y-131230000D03*
D16*
X149240000Y-90231000D03*
D17*
X144240000Y-90231000D03*
X149240000Y-93731000D03*
X144240000Y-93731000D03*
D26*
X105736000Y-129540000D03*
D27*
X108236000Y-129540000D03*
X110236000Y-129540000D03*
X112736000Y-129540000D03*
X105736000Y-126920000D03*
X108236000Y-126920000D03*
X110236000Y-126920000D03*
X112736000Y-126920000D03*
D20*
X102666000Y-132250000D03*
X115806000Y-132250000D03*
X102666000Y-126570000D03*
X115806000Y-126570000D03*
D28*
X101849000Y-62240000D03*
D29*
X104389000Y-62240000D03*
X101849000Y-64780000D03*
X104389000Y-64780000D03*
X101849000Y-67320000D03*
X104389000Y-67320000D03*
X101849000Y-69860000D03*
X104389000Y-69860000D03*
D24*
X174498000Y-138474000D03*
D25*
X174498000Y-131274000D03*
D24*
X194056000Y-138518000D03*
D25*
X194056000Y-131318000D03*
D30*
X190246000Y-66863500D03*
X190246000Y-69788500D03*
D24*
X184150000Y-138430000D03*
D25*
X184150000Y-131230000D03*
D31*
X139358000Y-73406000D03*
D32*
X133858000Y-73406000D03*
D33*
X128358000Y-73406000D03*
D26*
X127112000Y-129540000D03*
D27*
X129612000Y-129540000D03*
X131612000Y-129540000D03*
X134112000Y-129540000D03*
X127112000Y-126920000D03*
X129612000Y-126920000D03*
X131612000Y-126920000D03*
X134112000Y-126920000D03*
D20*
X124042000Y-132250000D03*
X137182000Y-132250000D03*
X124042000Y-126570000D03*
X137182000Y-126570000D03*
D33*
X128358000Y-63754000D03*
D32*
X133858000Y-63754000D03*
D31*
X139358000Y-63754000D03*
D34*
X117370000Y-61172000D03*
X113770000Y-61172000D03*
X117370000Y-59732000D03*
X113770000Y-59732000D03*
D35*
X184912000Y-82359000D03*
X184912000Y-80709000D03*
D24*
X164846000Y-138430000D03*
D25*
X164846000Y-131230000D03*
D30*
X186436000Y-66863500D03*
X186436000Y-69788500D03*
D15*
X182626000Y-63324500D03*
X182626000Y-65199500D03*
D36*
X101346000Y-96520000D03*
D37*
X103886000Y-97790000D03*
X101346000Y-99060000D03*
X103886000Y-100330000D03*
D38*
X110236000Y-61326000D03*
D39*
X110236000Y-62626000D03*
D16*
X149240000Y-99629000D03*
D17*
X144240000Y-99629000D03*
X149240000Y-103129000D03*
X144240000Y-103129000D03*
D25*
X155194000Y-131230000D03*
D24*
X155194000Y-138430000D03*
D30*
X182626000Y-66863500D03*
X182626000Y-69788500D03*
D40*
X112268000Y-60226000D03*
X112268000Y-61186000D03*
D41*
X102616000Y-86702000D03*
D42*
X102616000Y-84702000D03*
X102616000Y-82702000D03*
D43*
X102616000Y-80702000D03*
X102616000Y-88702000D03*
D28*
X107950000Y-112268000D03*
D42*
X110490000Y-112268000D03*
X113030000Y-112268000D03*
X115570000Y-112268000D03*
X118110000Y-112268000D03*
X120650000Y-112268000D03*
X140970000Y-112268000D03*
X143510000Y-112268000D03*
X146050000Y-112268000D03*
X148590000Y-112268000D03*
X151130000Y-112268000D03*
X153670000Y-112268000D03*
X156210000Y-112268000D03*
D15*
X121920000Y-63911000D03*
X121920000Y-65786000D03*
D44*
X194310000Y-123190000D03*
X194564000Y-116840000D03*
X117094000Y-67056000D03*
X116332000Y-67310000D03*
X116586000Y-69342000D03*
X118872000Y-68834000D03*
X107442000Y-84836000D03*
X107442000Y-86106000D03*
X102870000Y-71374000D03*
X118364000Y-84582000D03*
X114554000Y-84328000D03*
X113792000Y-84328000D03*
X120904000Y-71628000D03*
X120904000Y-70612000D03*
X111760000Y-71628000D03*
X109474000Y-71374000D03*
X109474000Y-73152000D03*
X109728000Y-75692000D03*
X104648000Y-89916000D03*
X119634000Y-66548000D03*
X121920000Y-66548000D03*
X118618000Y-89154000D03*
X115316000Y-90424000D03*
X109474000Y-64008000D03*
X117602000Y-62484000D03*
X112268000Y-62230000D03*
X104394000Y-95758000D03*
X109220000Y-94234000D03*
X107442000Y-94996000D03*
X111252000Y-100076000D03*
X112014000Y-94996000D03*
X116332000Y-94742000D03*
X122682000Y-84582000D03*
X121412000Y-85090000D03*
X119380000Y-85090000D03*
X117602000Y-87376000D03*
X117602000Y-84582000D03*
X117094000Y-81280000D03*
X115570000Y-66548000D03*
X111506000Y-70612000D03*
X177292000Y-71374000D03*
X177292000Y-72136000D03*
X173228000Y-72136000D03*
X180340000Y-94996000D03*
X181864000Y-96774000D03*
X183896000Y-94996000D03*
X177800000Y-95250000D03*
X177546000Y-92710000D03*
X185674000Y-93472000D03*
X185674000Y-92456000D03*
X181102000Y-92456000D03*
X184658000Y-80010000D03*
X185674000Y-81534000D03*
X185674000Y-80010000D03*
X193548000Y-64770000D03*
X192024000Y-67310000D03*
X192532000Y-66548000D03*
X182118000Y-61976000D03*
X183134000Y-61976000D03*
X186944000Y-61976000D03*
X185928000Y-61976000D03*
X184150000Y-74930000D03*
X177292000Y-117602000D03*
X149098000Y-108712000D03*
X150876000Y-109982000D03*
X155194000Y-97282000D03*
X153162000Y-105156000D03*
X155448000Y-78740000D03*
X147828000Y-82550000D03*
X137668000Y-78994000D03*
X169926000Y-89154000D03*
X165279747Y-87833568D03*
X158295723Y-87851475D03*
X154929065Y-89570620D03*
X154982788Y-91791181D03*
X157328704Y-89534804D03*
X161984720Y-89552712D03*
X166624000Y-89662000D03*
X169164000Y-93472000D03*
X177546000Y-119126000D03*
X175260000Y-121666000D03*
X151130000Y-115316000D03*
X151384000Y-121412000D03*
X103886000Y-129286000D03*
X105918000Y-120904000D03*
X108458000Y-125476000D03*
X126746000Y-131572000D03*
X126238000Y-121158000D03*
X129032000Y-125222000D03*
X119634000Y-120396000D03*
X135128000Y-124714000D03*
X133350000Y-125222000D03*
X101854000Y-92202000D03*
X100838000Y-80518000D03*
X109474000Y-86614000D03*
X109474000Y-84836000D03*
X107696000Y-87376000D03*
X108204000Y-88138000D03*
X107696000Y-81026000D03*
X107696000Y-82042000D03*
X121158000Y-77216000D03*
X120142000Y-80264000D03*
X113030000Y-77470000D03*
X118364000Y-73406000D03*
X117856000Y-78232000D03*
X113284000Y-73152000D03*
X115062000Y-70104000D03*
X115062000Y-68834000D03*
X110998000Y-69850000D03*
X122682000Y-73660000D03*
X123698000Y-85598000D03*
X193040000Y-68326000D03*
X185464000Y-79248000D03*
X187452000Y-78994000D03*
X116332000Y-96012000D03*
X116332000Y-98552000D03*
X115824000Y-72644000D03*
X121666000Y-79502000D03*
X104902000Y-77978000D03*
X111887000Y-93980000D03*
X113538000Y-89154000D03*
X110490000Y-88265000D03*
X111506000Y-87122000D03*
X107950000Y-85488000D03*
X111252000Y-81534000D03*
X112014000Y-81026000D03*
X113284000Y-69850000D03*
X188595000Y-59309000D03*
X194945000Y-59309000D03*
X198120000Y-62484000D03*
X197612000Y-116840000D03*
X197612000Y-123190000D03*
X194945000Y-141859000D03*
X188595000Y-65659000D03*
X198374000Y-141859000D03*
X188595000Y-72009000D03*
X198120000Y-76962000D03*
X198374000Y-135509000D03*
X198120000Y-68834000D03*
X188595000Y-141859000D03*
X188595000Y-135509000D03*
X182245000Y-59309000D03*
X112395000Y-59309000D03*
X106045000Y-59309000D03*
X118745000Y-59309000D03*
X99822000Y-59309000D03*
X125095000Y-59309000D03*
X182245000Y-72009000D03*
X175895000Y-72009000D03*
X99822000Y-65659000D03*
X112395000Y-65659000D03*
X99822000Y-72009000D03*
X125095000Y-72009000D03*
X125095000Y-65659000D03*
X163195000Y-135509000D03*
X144145000Y-141859000D03*
X137795000Y-141859000D03*
X137795000Y-129159000D03*
X169545000Y-135509000D03*
X150495000Y-135509000D03*
X150495000Y-141859000D03*
X156845000Y-141859000D03*
X182245000Y-135509000D03*
X137795000Y-135509000D03*
X169545000Y-141859000D03*
X163195000Y-141859000D03*
X175895000Y-141859000D03*
X182245000Y-141859000D03*
X99822000Y-129159000D03*
X112395000Y-135509000D03*
X106045000Y-135509000D03*
X118745000Y-129159000D03*
X118745000Y-135509000D03*
X99822000Y-135509000D03*
X99822000Y-141859000D03*
X106045000Y-141859000D03*
X131445000Y-135509000D03*
X125095000Y-135509000D03*
X118745000Y-141859000D03*
X125095000Y-129159000D03*
X112395000Y-141859000D03*
X125095000Y-141859000D03*
X131445000Y-141859000D03*
X99822000Y-103759000D03*
X112395000Y-110109000D03*
X106045000Y-103759000D03*
X106045000Y-110109000D03*
X112395000Y-103759000D03*
X118745000Y-103759000D03*
X99822000Y-110109000D03*
X99822000Y-122809000D03*
X99822000Y-116459000D03*
X106045000Y-116459000D03*
X131445000Y-110109000D03*
X125095000Y-110109000D03*
X131445000Y-103759000D03*
X118745000Y-116459000D03*
X125095000Y-103759000D03*
X125095000Y-116459000D03*
X131445000Y-116459000D03*
X131445000Y-122809000D03*
X163195000Y-110109000D03*
X156845000Y-103759000D03*
X156845000Y-110109000D03*
X137795000Y-116459000D03*
X169545000Y-103759000D03*
X137795000Y-122809000D03*
X137795000Y-103759000D03*
X156845000Y-116459000D03*
X175895000Y-110109000D03*
X137795000Y-110109000D03*
X169545000Y-116459000D03*
X175895000Y-103759000D03*
X137795000Y-91059000D03*
X144145000Y-97409000D03*
X137795000Y-97409000D03*
X150495000Y-97409000D03*
X137795000Y-84709000D03*
X175895000Y-97409000D03*
X169545000Y-97409000D03*
X163195000Y-97409000D03*
X125095000Y-91059000D03*
X131445000Y-91059000D03*
X131445000Y-97409000D03*
X125095000Y-97409000D03*
X118745000Y-91059000D03*
X118745000Y-97409000D03*
X125095000Y-78359000D03*
X131445000Y-84709000D03*
X125095000Y-84709000D03*
X99822000Y-91059000D03*
X106045000Y-91059000D03*
X99822000Y-97409000D03*
X99822000Y-78359000D03*
X106045000Y-78359000D03*
X99822000Y-84709000D03*
X190246000Y-62230000D03*
X103632000Y-74930000D03*
X110236000Y-74942000D03*
X194945000Y-135509000D03*
X175895000Y-135509000D03*
D45*
X181610000Y-68326000D02*
X193040000Y-68326000D01*
X180848000Y-69088000D02*
X181610000Y-68326000D01*
X180848000Y-70358000D02*
X180848000Y-69088000D01*
X181610000Y-71120000D02*
X180848000Y-70358000D01*
X183896000Y-71120000D02*
X181610000Y-71120000D01*
X183856000Y-79796000D02*
X184912000Y-78740000D01*
X183856000Y-82590000D02*
X183856000Y-79796000D01*
X181610000Y-84836000D02*
X183856000Y-82590000D01*
X184912000Y-78740000D02*
X184912000Y-72136000D01*
X184912000Y-72136000D02*
X183896000Y-71120000D01*
X149743000Y-84836000D02*
X181610000Y-84836000D01*
X149240000Y-84333000D02*
X149743000Y-84836000D01*
X144240000Y-84333000D02*
X149240000Y-84333000D01*
X184912000Y-82804000D02*
X184912000Y-82359000D01*
X182118000Y-85598000D02*
X184912000Y-82804000D01*
X123698000Y-85598000D02*
X182118000Y-85598000D01*
X105918000Y-75692000D02*
X109728000Y-75692000D01*
X104140000Y-85178000D02*
X104140000Y-77470000D01*
X104140000Y-77470000D02*
X105918000Y-75692000D01*
X102616000Y-86702000D02*
X104140000Y-85178000D01*
X119634000Y-66548000D02*
X119634000Y-65786000D01*
X121920000Y-65786000D02*
X121920000Y-66548000D01*
X119841000Y-90377000D02*
X118618000Y-89154000D01*
X119888000Y-90377000D02*
X119841000Y-90377000D01*
X115316000Y-90424000D02*
X115363000Y-90377000D01*
X115363000Y-90377000D02*
X117348000Y-90377000D01*
X119888000Y-93685000D02*
X119949000Y-93746000D01*
X119888000Y-92202000D02*
X119888000Y-93685000D01*
X117348000Y-92202000D02*
X117348000Y-93746000D01*
X111573507Y-60226000D02*
X112268000Y-60226000D01*
X110236000Y-61326000D02*
X110473507Y-61326000D01*
X110473507Y-61326000D02*
X111573507Y-60226000D01*
X113499393Y-59732000D02*
X113770000Y-59732000D01*
X113005393Y-60226000D02*
X113499393Y-59732000D01*
X112268000Y-60226000D02*
X113005393Y-60226000D01*
X113877928Y-59732000D02*
X113770000Y-59732000D01*
X116564036Y-60430036D02*
X114575964Y-60430036D01*
X117262072Y-59732000D02*
X116564036Y-60430036D01*
X117370000Y-59732000D02*
X117262072Y-59732000D01*
X114575964Y-60430036D02*
X113877928Y-59732000D01*
X154178000Y-105410000D02*
X149352000Y-110236000D01*
X154178000Y-89154000D02*
X154178000Y-105410000D01*
X182626000Y-86360000D02*
X156972000Y-86360000D01*
X186436000Y-82550000D02*
X182626000Y-86360000D01*
X156972000Y-86360000D02*
X154178000Y-89154000D01*
X186436000Y-69788500D02*
X186436000Y-82550000D01*
X183834500Y-69788500D02*
X182626000Y-69788500D01*
X185674000Y-79038000D02*
X185674000Y-71628000D01*
X185674000Y-71628000D02*
X183834500Y-69788500D01*
X185464000Y-79248000D02*
X185674000Y-79038000D01*
X189037500Y-69788500D02*
X190246000Y-69788500D01*
X187198000Y-71628000D02*
X189037500Y-69788500D01*
X187452000Y-78994000D02*
X187198000Y-78740000D01*
X187198000Y-78740000D02*
X187198000Y-71628000D01*
X101849000Y-72131000D02*
X101849000Y-69860000D01*
X103886000Y-74168000D02*
X101849000Y-72131000D01*
X114300000Y-74168000D02*
X103886000Y-74168000D01*
X115824000Y-72644000D02*
X114300000Y-74168000D01*
X110224000Y-74930000D02*
X103632000Y-74930000D01*
X110236000Y-74942000D02*
X110224000Y-74930000D01*
X190246000Y-66863500D02*
X190246000Y-65199500D01*
X186436000Y-66863500D02*
X186436000Y-65199500D01*
X182626000Y-66863500D02*
X182626000Y-65199500D01*
X190246000Y-63324500D02*
X190246000Y-62230000D01*
X115824000Y-67818000D02*
X115824000Y-72644000D01*
X110632000Y-62626000D02*
X115824000Y-67818000D01*
X110236000Y-62626000D02*
X110632000Y-62626000D01*
G04 #@! TA.AperFunction,Conductor*
G36*
X156153039Y-58980185D02*
G01*
X156198794Y-59032989D01*
X156210000Y-59084500D01*
X156210000Y-77854000D01*
X156190315Y-77921039D01*
X156137511Y-77966794D01*
X156086000Y-77978000D01*
X137030000Y-77978000D01*
X136962961Y-77958315D01*
X136917206Y-77905511D01*
X136906000Y-77854000D01*
X136906000Y-59084500D01*
X136925685Y-59017461D01*
X136978489Y-58971706D01*
X137030000Y-58960500D01*
X156086000Y-58960500D01*
X156153039Y-58980185D01*
G37*
G04 #@! TD.AperFunction*
G04 #@! TA.AperFunction,Conductor*
G36*
X149872989Y-109747685D02*
G01*
X149918744Y-109800489D01*
X149929950Y-109852052D01*
X149924706Y-122290482D01*
X150401278Y-122681999D01*
X150401279Y-122682000D01*
X150401280Y-122682000D01*
X176022000Y-122682000D01*
X178816000Y-119888000D01*
X178816000Y-115186000D01*
X178835685Y-115118961D01*
X178888489Y-115073206D01*
X178940000Y-115062000D01*
X193170000Y-115062000D01*
X193237039Y-115081685D01*
X193282794Y-115134489D01*
X193294000Y-115186000D01*
X193294000Y-125222000D01*
X194818000Y-126746000D01*
X197560638Y-126746000D01*
X197627677Y-126765685D01*
X197648319Y-126782319D01*
X198635181Y-127769181D01*
X198668666Y-127830504D01*
X198671500Y-127856862D01*
X198671500Y-134496000D01*
X198651815Y-134563039D01*
X198599011Y-134608794D01*
X198547500Y-134620000D01*
X140586000Y-134620000D01*
X140518961Y-134600315D01*
X140473206Y-134547511D01*
X140462000Y-134496000D01*
X140462000Y-126543608D01*
X140481685Y-126476569D01*
X140498614Y-126455632D01*
X144780000Y-122203189D01*
X144772286Y-109852075D01*
X144791929Y-109785026D01*
X144844704Y-109739238D01*
X144896286Y-109728000D01*
X149805950Y-109728000D01*
X149872989Y-109747685D01*
G37*
G04 #@! TD.AperFunction*
G04 #@! TA.AperFunction,Conductor*
G36*
X136341039Y-58980185D02*
G01*
X136386794Y-59032989D01*
X136398000Y-59084500D01*
X136398000Y-61749886D01*
X136396691Y-61767857D01*
X136363852Y-61992047D01*
X136357500Y-62137533D01*
X136357500Y-65370465D01*
X136363852Y-65515951D01*
X136396691Y-65740140D01*
X136398000Y-65758112D01*
X136398000Y-71401886D01*
X136396691Y-71419857D01*
X136363852Y-71644047D01*
X136357500Y-71789533D01*
X136357500Y-75022465D01*
X136363852Y-75167951D01*
X136396691Y-75392140D01*
X136398000Y-75410112D01*
X136398000Y-83006638D01*
X136378315Y-83073677D01*
X136361681Y-83094319D01*
X135418319Y-84037681D01*
X135356996Y-84071166D01*
X135330638Y-84074000D01*
X132385362Y-84074000D01*
X132318323Y-84054315D01*
X132297681Y-84037681D01*
X131354319Y-83094319D01*
X131320834Y-83032996D01*
X131318000Y-83006638D01*
X131318000Y-76377996D01*
X131327439Y-76330543D01*
X131347940Y-76281050D01*
X131358500Y-76196977D01*
X131358499Y-70615025D01*
X131347940Y-70530950D01*
X131344135Y-70521765D01*
X131327439Y-70481455D01*
X131318000Y-70434003D01*
X131318000Y-66725996D01*
X131327439Y-66678543D01*
X131347940Y-66629050D01*
X131358500Y-66544977D01*
X131358499Y-60963025D01*
X131347940Y-60878950D01*
X131344135Y-60869765D01*
X131327439Y-60829455D01*
X131318000Y-60782003D01*
X131318000Y-59084500D01*
X131337685Y-59017461D01*
X131390489Y-58971706D01*
X131442000Y-58960500D01*
X136274000Y-58960500D01*
X136341039Y-58980185D01*
G37*
G04 #@! TD.AperFunction*
G04 #@! TA.AperFunction,Conductor*
G36*
X116783039Y-111271685D02*
G01*
X116828794Y-111324489D01*
X116840000Y-111376000D01*
X116840000Y-119380000D01*
X118872000Y-121412000D01*
X125424638Y-121412000D01*
X125491677Y-121431685D01*
X125512319Y-121448319D01*
X128233681Y-124169681D01*
X128267166Y-124231004D01*
X128270000Y-124257362D01*
X128270000Y-130432000D01*
X128250315Y-130499039D01*
X128197511Y-130544794D01*
X128146000Y-130556000D01*
X126108000Y-130556000D01*
X126040961Y-130536315D01*
X125995206Y-130483511D01*
X125984000Y-130432000D01*
X125984000Y-127067327D01*
X125986834Y-127040968D01*
X126001353Y-126974228D01*
X126027196Y-126855428D01*
X126047610Y-126570000D01*
X126027196Y-126284572D01*
X125986834Y-126099029D01*
X125984000Y-126072671D01*
X125984000Y-125476000D01*
X124968000Y-124460000D01*
X107950000Y-124460000D01*
X107949999Y-124460000D01*
X106680000Y-125729999D01*
X106680000Y-130432000D01*
X106660315Y-130499039D01*
X106607511Y-130544794D01*
X106556000Y-130556000D01*
X104772000Y-130556000D01*
X104704961Y-130536315D01*
X104659206Y-130483511D01*
X104648000Y-130432000D01*
X104648000Y-126883449D01*
X104650835Y-126857088D01*
X104651195Y-126855431D01*
X104651196Y-126855427D01*
X104671610Y-126570001D01*
X104671610Y-126569998D01*
X104656695Y-126361462D01*
X104651196Y-126284572D01*
X104650833Y-126282907D01*
X104648000Y-126256548D01*
X104648000Y-123749362D01*
X104667685Y-123682323D01*
X104684319Y-123661681D01*
X106934000Y-121412000D01*
X106934000Y-111376000D01*
X106953685Y-111308961D01*
X107006489Y-111263206D01*
X107058000Y-111252000D01*
X116716000Y-111252000D01*
X116783039Y-111271685D01*
G37*
G04 #@! TD.AperFunction*
G04 #@! TA.AperFunction,Conductor*
G36*
X112880795Y-58980185D02*
G01*
X112926550Y-59032989D01*
X112936494Y-59102147D01*
X112913024Y-59158809D01*
X112872660Y-59212729D01*
X112872659Y-59212731D01*
X112872658Y-59212733D01*
X112821960Y-59348658D01*
X112821959Y-59348662D01*
X112815500Y-59408728D01*
X112815500Y-59633239D01*
X112795815Y-59700278D01*
X112743011Y-59746033D01*
X112673853Y-59755977D01*
X112635205Y-59743724D01*
X112561423Y-59706130D01*
X112469045Y-59691500D01*
X112066956Y-59691500D01*
X111987204Y-59704131D01*
X111974573Y-59706132D01*
X111863229Y-59762865D01*
X111863228Y-59762866D01*
X111863224Y-59762868D01*
X111817914Y-59808180D01*
X111756591Y-59841666D01*
X111730232Y-59844500D01*
X111523282Y-59844500D01*
X111426254Y-59870498D01*
X111339257Y-59920726D01*
X110718120Y-60541862D01*
X110656797Y-60575347D01*
X110612792Y-60576919D01*
X110562520Y-60569691D01*
X110522931Y-60563999D01*
X110449070Y-60563999D01*
X110449066Y-60563999D01*
X110440451Y-60565238D01*
X110422806Y-60566500D01*
X110049194Y-60566500D01*
X110031549Y-60565238D01*
X110022933Y-60563999D01*
X110022930Y-60563999D01*
X109949069Y-60563999D01*
X109806758Y-60584459D01*
X109806753Y-60584461D01*
X109735879Y-60605272D01*
X109605105Y-60664995D01*
X109605094Y-60665001D01*
X109542969Y-60704927D01*
X109542953Y-60704938D01*
X109434301Y-60799085D01*
X109434299Y-60799088D01*
X109385938Y-60854898D01*
X109385932Y-60854906D01*
X109308203Y-60975854D01*
X109308198Y-60975864D01*
X109277516Y-61043049D01*
X109277514Y-61043055D01*
X109237013Y-61180993D01*
X109237009Y-61181009D01*
X109226500Y-61254110D01*
X109226500Y-61826004D01*
X109246252Y-61925306D01*
X109247596Y-61928550D01*
X109248416Y-61936187D01*
X109248635Y-61937284D01*
X109248536Y-61937303D01*
X109255063Y-61998020D01*
X109247596Y-62023450D01*
X109246252Y-62026693D01*
X109226500Y-62125995D01*
X109226500Y-62697889D01*
X109237009Y-62770990D01*
X109237013Y-62771006D01*
X109277514Y-62908944D01*
X109277516Y-62908950D01*
X109308198Y-62976135D01*
X109308203Y-62976145D01*
X109385932Y-63097093D01*
X109385938Y-63097101D01*
X109434299Y-63152911D01*
X109434301Y-63152914D01*
X109542953Y-63247061D01*
X109542960Y-63247066D01*
X109542965Y-63247070D01*
X109584066Y-63273484D01*
X109605094Y-63286998D01*
X109605105Y-63287004D01*
X109735879Y-63346727D01*
X109735880Y-63346727D01*
X109735884Y-63346729D01*
X109806754Y-63367539D01*
X109806756Y-63367539D01*
X109806758Y-63367540D01*
X109849193Y-63373640D01*
X109949069Y-63388001D01*
X109949070Y-63388001D01*
X110022927Y-63388001D01*
X110022930Y-63388001D01*
X110029197Y-63387099D01*
X110031549Y-63386762D01*
X110049194Y-63385500D01*
X110422806Y-63385500D01*
X110440451Y-63386762D01*
X110443332Y-63387176D01*
X110449070Y-63388001D01*
X110449073Y-63388001D01*
X110522930Y-63388001D01*
X110522931Y-63388001D01*
X110637165Y-63371576D01*
X110665241Y-63367540D01*
X110665242Y-63367539D01*
X110665246Y-63367539D01*
X110725115Y-63349958D01*
X110794984Y-63349958D01*
X110847732Y-63381255D01*
X115406181Y-67939704D01*
X115439666Y-68001027D01*
X115442500Y-68027385D01*
X115442500Y-72305809D01*
X115422815Y-72372848D01*
X115419990Y-72376620D01*
X115416470Y-72382099D01*
X115359191Y-72507521D01*
X115354693Y-72538808D01*
X115325667Y-72602363D01*
X115319636Y-72608840D01*
X114178296Y-73750181D01*
X114116973Y-73783666D01*
X114090615Y-73786500D01*
X104095385Y-73786500D01*
X104028346Y-73766815D01*
X104007704Y-73750181D01*
X102266819Y-72009296D01*
X102233334Y-71947973D01*
X102230500Y-71921615D01*
X102230500Y-71628000D01*
X111275569Y-71628000D01*
X111295191Y-71764478D01*
X111295192Y-71764480D01*
X111352468Y-71889899D01*
X111352470Y-71889901D01*
X111352471Y-71889903D01*
X111442765Y-71994109D01*
X111558760Y-72068654D01*
X111558762Y-72068654D01*
X111558763Y-72068655D01*
X111691057Y-72107500D01*
X111691058Y-72107500D01*
X111828942Y-72107500D01*
X111961240Y-72068654D01*
X112077235Y-71994109D01*
X112167529Y-71889903D01*
X112224808Y-71764480D01*
X112244431Y-71628000D01*
X112224808Y-71491520D01*
X112180159Y-71393753D01*
X112167531Y-71366100D01*
X112167529Y-71366098D01*
X112167529Y-71366097D01*
X112077235Y-71261891D01*
X111961240Y-71187346D01*
X111961238Y-71187345D01*
X111961236Y-71187344D01*
X111828943Y-71148500D01*
X111828942Y-71148500D01*
X111691058Y-71148500D01*
X111691057Y-71148500D01*
X111558763Y-71187344D01*
X111442764Y-71261891D01*
X111352471Y-71366097D01*
X111352468Y-71366100D01*
X111295192Y-71491519D01*
X111295191Y-71491521D01*
X111275569Y-71628000D01*
X102230500Y-71628000D01*
X102230500Y-70981634D01*
X102250185Y-70914595D01*
X102302989Y-70868840D01*
X102309708Y-70866007D01*
X102343418Y-70852948D01*
X102343422Y-70852945D01*
X102343427Y-70852944D01*
X102517462Y-70745186D01*
X102668732Y-70607285D01*
X102792088Y-70443935D01*
X102883328Y-70260701D01*
X102939345Y-70063821D01*
X102958232Y-69860000D01*
X102957305Y-69850000D01*
X112799569Y-69850000D01*
X112819191Y-69986478D01*
X112819192Y-69986480D01*
X112876468Y-70111899D01*
X112876470Y-70111901D01*
X112876471Y-70111903D01*
X112966765Y-70216109D01*
X113082760Y-70290654D01*
X113082762Y-70290654D01*
X113082763Y-70290655D01*
X113215057Y-70329500D01*
X113215058Y-70329500D01*
X113352942Y-70329500D01*
X113485240Y-70290654D01*
X113601235Y-70216109D01*
X113691529Y-70111903D01*
X113748808Y-69986480D01*
X113768431Y-69850000D01*
X113748808Y-69713520D01*
X113722283Y-69655439D01*
X113691531Y-69588100D01*
X113691529Y-69588098D01*
X113691529Y-69588097D01*
X113601235Y-69483891D01*
X113485240Y-69409346D01*
X113485238Y-69409345D01*
X113485236Y-69409344D01*
X113352943Y-69370500D01*
X113352942Y-69370500D01*
X113215058Y-69370500D01*
X113215057Y-69370500D01*
X113082763Y-69409344D01*
X112966764Y-69483891D01*
X112876471Y-69588097D01*
X112876468Y-69588100D01*
X112819192Y-69713519D01*
X112819191Y-69713521D01*
X112799569Y-69850000D01*
X102957305Y-69850000D01*
X102939345Y-69656179D01*
X102883328Y-69459299D01*
X102792088Y-69276065D01*
X102668732Y-69112715D01*
X102668730Y-69112712D01*
X102517462Y-68974814D01*
X102517460Y-68974812D01*
X102343430Y-68867057D01*
X102343424Y-68867054D01*
X102184533Y-68805500D01*
X102152556Y-68793112D01*
X101951347Y-68755500D01*
X101746653Y-68755500D01*
X101545444Y-68793112D01*
X101545441Y-68793112D01*
X101545441Y-68793113D01*
X101354575Y-68867054D01*
X101354569Y-68867057D01*
X101180539Y-68974812D01*
X101180537Y-68974814D01*
X101029269Y-69112712D01*
X100905912Y-69276064D01*
X100814673Y-69459295D01*
X100758654Y-69656183D01*
X100739768Y-69859999D01*
X100739768Y-69860000D01*
X100758654Y-70063816D01*
X100758654Y-70063818D01*
X100758655Y-70063821D01*
X100807728Y-70236296D01*
X100814673Y-70260704D01*
X100905912Y-70443935D01*
X101029269Y-70607287D01*
X101180537Y-70745185D01*
X101180539Y-70745187D01*
X101354569Y-70852942D01*
X101354581Y-70852948D01*
X101388292Y-70866007D01*
X101443694Y-70908579D01*
X101467286Y-70974345D01*
X101467500Y-70981634D01*
X101467500Y-72181224D01*
X101493498Y-72278252D01*
X101493498Y-72278253D01*
X101497435Y-72285070D01*
X101497438Y-72285082D01*
X101497441Y-72285081D01*
X101543723Y-72365245D01*
X101543725Y-72365248D01*
X103467216Y-74288739D01*
X103500701Y-74350062D01*
X103495717Y-74419754D01*
X103453845Y-74475687D01*
X103431061Y-74489208D01*
X103430767Y-74489342D01*
X103430761Y-74489345D01*
X103430760Y-74489346D01*
X103380086Y-74521911D01*
X103314764Y-74563891D01*
X103224471Y-74668097D01*
X103224468Y-74668100D01*
X103167192Y-74793519D01*
X103167191Y-74793521D01*
X103147569Y-74930000D01*
X103167191Y-75066478D01*
X103167192Y-75066480D01*
X103224468Y-75191899D01*
X103224470Y-75191901D01*
X103224471Y-75191903D01*
X103314765Y-75296109D01*
X103430760Y-75370654D01*
X103430762Y-75370654D01*
X103430763Y-75370655D01*
X103563057Y-75409500D01*
X103563058Y-75409500D01*
X103700942Y-75409500D01*
X103833240Y-75370654D01*
X103894657Y-75331183D01*
X103961695Y-75311500D01*
X105459615Y-75311500D01*
X105526654Y-75331185D01*
X105572409Y-75383989D01*
X105582353Y-75453147D01*
X105553328Y-75516703D01*
X105547296Y-75523181D01*
X103834725Y-77235751D01*
X103834723Y-77235754D01*
X103784499Y-77322745D01*
X103784499Y-77322746D01*
X103758500Y-77419775D01*
X103758500Y-77419777D01*
X103758500Y-82012163D01*
X103738815Y-82079202D01*
X103686011Y-82124957D01*
X103616853Y-82134901D01*
X103553297Y-82105876D01*
X103535546Y-82086890D01*
X103435730Y-81954712D01*
X103284462Y-81816814D01*
X103284460Y-81816812D01*
X103110430Y-81709057D01*
X103110424Y-81709054D01*
X102943719Y-81644473D01*
X102919556Y-81635112D01*
X102718347Y-81597500D01*
X102513653Y-81597500D01*
X102312444Y-81635112D01*
X102312441Y-81635112D01*
X102312441Y-81635113D01*
X102121575Y-81709054D01*
X102121569Y-81709057D01*
X101947539Y-81816812D01*
X101947537Y-81816814D01*
X101796269Y-81954712D01*
X101672912Y-82118064D01*
X101581673Y-82301295D01*
X101581672Y-82301299D01*
X101534158Y-82468296D01*
X101525654Y-82498183D01*
X101506768Y-82701999D01*
X101506768Y-82702000D01*
X101525654Y-82905816D01*
X101525654Y-82905818D01*
X101525655Y-82905821D01*
X101569719Y-83060689D01*
X101581673Y-83102704D01*
X101672912Y-83285935D01*
X101796269Y-83449287D01*
X101947537Y-83587185D01*
X101947538Y-83587186D01*
X101962699Y-83596574D01*
X102009334Y-83648603D01*
X102020437Y-83717585D01*
X101992483Y-83781619D01*
X101962699Y-83807426D01*
X101947538Y-83816813D01*
X101947537Y-83816814D01*
X101796269Y-83954712D01*
X101672912Y-84118064D01*
X101581673Y-84301295D01*
X101525654Y-84498183D01*
X101506768Y-84701999D01*
X101506768Y-84702000D01*
X101525654Y-84905816D01*
X101525654Y-84905818D01*
X101525655Y-84905821D01*
X101554159Y-85006001D01*
X101581673Y-85102704D01*
X101672912Y-85285935D01*
X101796267Y-85449284D01*
X101884710Y-85529911D01*
X101920991Y-85589623D01*
X101919230Y-85659470D01*
X101888852Y-85709229D01*
X101568317Y-86029764D01*
X101526265Y-86092701D01*
X101526264Y-86092701D01*
X101511500Y-86166928D01*
X101511500Y-87350251D01*
X101511501Y-87350257D01*
X101517960Y-87410344D01*
X101568655Y-87546261D01*
X101568656Y-87546264D01*
X101568658Y-87546267D01*
X101580925Y-87562654D01*
X101655595Y-87662404D01*
X101713443Y-87705707D01*
X101771733Y-87749342D01*
X101907658Y-87800040D01*
X101967745Y-87806500D01*
X103264254Y-87806499D01*
X103324342Y-87800040D01*
X103460267Y-87749342D01*
X103576404Y-87662404D01*
X103663342Y-87546267D01*
X103714040Y-87410342D01*
X103716883Y-87383899D01*
X103720499Y-87350271D01*
X103720499Y-87350264D01*
X103720500Y-87350255D01*
X103720500Y-87122000D01*
X111021569Y-87122000D01*
X111041191Y-87258478D01*
X111041192Y-87258480D01*
X111098468Y-87383899D01*
X111098470Y-87383901D01*
X111098471Y-87383903D01*
X111188765Y-87488109D01*
X111304760Y-87562654D01*
X111304762Y-87562654D01*
X111304763Y-87562655D01*
X111437057Y-87601500D01*
X111437058Y-87601500D01*
X111574942Y-87601500D01*
X111707240Y-87562654D01*
X111823235Y-87488109D01*
X111913529Y-87383903D01*
X111970808Y-87258480D01*
X111990431Y-87122000D01*
X111970808Y-86985520D01*
X111944283Y-86927439D01*
X111913531Y-86860100D01*
X111913529Y-86860098D01*
X111913529Y-86860097D01*
X111823235Y-86755891D01*
X111707240Y-86681346D01*
X111707238Y-86681345D01*
X111707236Y-86681344D01*
X111574943Y-86642500D01*
X111574942Y-86642500D01*
X111437058Y-86642500D01*
X111437057Y-86642500D01*
X111304763Y-86681344D01*
X111188764Y-86755891D01*
X111098471Y-86860097D01*
X111098468Y-86860100D01*
X111041192Y-86985519D01*
X111041191Y-86985521D01*
X111021569Y-87122000D01*
X103720500Y-87122000D01*
X103720499Y-86188383D01*
X103740184Y-86121345D01*
X103756814Y-86100707D01*
X104364037Y-85493483D01*
X104364042Y-85493480D01*
X104374245Y-85483276D01*
X104374247Y-85483276D01*
X104445276Y-85412247D01*
X104495501Y-85325254D01*
X104521500Y-85228225D01*
X104521500Y-84836000D01*
X106957569Y-84836000D01*
X106977191Y-84972478D01*
X106977192Y-84972480D01*
X107034468Y-85097899D01*
X107034470Y-85097901D01*
X107034471Y-85097903D01*
X107124765Y-85202109D01*
X107240760Y-85276654D01*
X107240762Y-85276654D01*
X107240763Y-85276655D01*
X107381568Y-85317999D01*
X107380575Y-85321380D01*
X107428781Y-85343376D01*
X107466575Y-85402142D01*
X107470347Y-85454761D01*
X107465569Y-85487997D01*
X107465569Y-85488001D01*
X107465637Y-85488474D01*
X107465569Y-85488946D01*
X107465569Y-85496869D01*
X107464430Y-85496869D01*
X107455693Y-85557633D01*
X107409937Y-85610436D01*
X107377834Y-85625097D01*
X107240763Y-85665344D01*
X107124764Y-85739891D01*
X107034471Y-85844097D01*
X107034468Y-85844100D01*
X106977192Y-85969519D01*
X106977191Y-85969521D01*
X106957569Y-86106000D01*
X106977191Y-86242478D01*
X106977192Y-86242480D01*
X107034468Y-86367899D01*
X107034470Y-86367901D01*
X107034471Y-86367903D01*
X107124765Y-86472109D01*
X107240760Y-86546654D01*
X107240762Y-86546654D01*
X107240763Y-86546655D01*
X107373057Y-86585500D01*
X107373058Y-86585500D01*
X107510942Y-86585500D01*
X107643240Y-86546654D01*
X107759235Y-86472109D01*
X107849529Y-86367903D01*
X107906808Y-86242480D01*
X107926431Y-86106000D01*
X107926364Y-86105535D01*
X107926431Y-86105069D01*
X107926431Y-86097131D01*
X107927572Y-86097131D01*
X107936301Y-86036377D01*
X107982052Y-85983569D01*
X108014166Y-85968902D01*
X108018941Y-85967500D01*
X108018942Y-85967500D01*
X108151240Y-85928654D01*
X108267235Y-85854109D01*
X108357529Y-85749903D01*
X108364573Y-85734480D01*
X108376104Y-85709229D01*
X108414808Y-85624480D01*
X108434431Y-85488000D01*
X108414808Y-85351520D01*
X108380618Y-85276654D01*
X108357531Y-85226100D01*
X108357529Y-85226098D01*
X108357529Y-85226097D01*
X108267235Y-85121891D01*
X108151240Y-85047346D01*
X108151238Y-85047345D01*
X108151236Y-85047344D01*
X108010432Y-85006001D01*
X108011420Y-85002633D01*
X107963138Y-84980553D01*
X107925394Y-84921755D01*
X107921652Y-84869235D01*
X107926431Y-84836000D01*
X107906808Y-84699520D01*
X107880283Y-84641439D01*
X107849531Y-84574100D01*
X107849529Y-84574098D01*
X107849529Y-84574097D01*
X107759235Y-84469891D01*
X107643240Y-84395346D01*
X107643238Y-84395345D01*
X107643236Y-84395344D01*
X107510943Y-84356500D01*
X107510942Y-84356500D01*
X107373058Y-84356500D01*
X107373057Y-84356500D01*
X107240763Y-84395344D01*
X107124764Y-84469891D01*
X107034471Y-84574097D01*
X107034468Y-84574100D01*
X106977192Y-84699519D01*
X106977191Y-84699521D01*
X106957569Y-84836000D01*
X104521500Y-84836000D01*
X104521500Y-81534000D01*
X110767569Y-81534000D01*
X110787191Y-81670478D01*
X110787192Y-81670480D01*
X110844468Y-81795899D01*
X110844470Y-81795901D01*
X110844471Y-81795903D01*
X110934765Y-81900109D01*
X111050760Y-81974654D01*
X111050762Y-81974654D01*
X111050763Y-81974655D01*
X111183057Y-82013500D01*
X111183058Y-82013500D01*
X111320942Y-82013500D01*
X111453240Y-81974654D01*
X111569235Y-81900109D01*
X111659529Y-81795903D01*
X111716808Y-81670480D01*
X111728447Y-81589522D01*
X111757471Y-81525969D01*
X111816249Y-81488194D01*
X111886119Y-81488194D01*
X111945058Y-81505500D01*
X112082942Y-81505500D01*
X112215240Y-81466654D01*
X112331235Y-81392109D01*
X112421529Y-81287903D01*
X112478808Y-81162480D01*
X112498431Y-81026000D01*
X112478808Y-80889520D01*
X112452283Y-80831439D01*
X112421531Y-80764100D01*
X112421529Y-80764098D01*
X112421529Y-80764097D01*
X112331235Y-80659891D01*
X112215240Y-80585346D01*
X112215238Y-80585345D01*
X112215236Y-80585344D01*
X112082943Y-80546500D01*
X112082942Y-80546500D01*
X111945058Y-80546500D01*
X111945057Y-80546500D01*
X111812763Y-80585344D01*
X111696764Y-80659891D01*
X111606471Y-80764097D01*
X111606468Y-80764100D01*
X111549192Y-80889519D01*
X111549191Y-80889522D01*
X111537552Y-80970475D01*
X111508527Y-81034031D01*
X111449749Y-81071805D01*
X111379880Y-81071805D01*
X111320944Y-81054500D01*
X111320942Y-81054500D01*
X111183058Y-81054500D01*
X111183057Y-81054500D01*
X111050763Y-81093344D01*
X110934764Y-81167891D01*
X110844471Y-81272097D01*
X110844468Y-81272100D01*
X110787192Y-81397519D01*
X110787191Y-81397521D01*
X110767569Y-81534000D01*
X104521500Y-81534000D01*
X104521500Y-79502000D01*
X121181569Y-79502000D01*
X121201191Y-79638478D01*
X121201192Y-79638480D01*
X121258468Y-79763899D01*
X121258470Y-79763901D01*
X121258471Y-79763903D01*
X121348765Y-79868109D01*
X121464760Y-79942654D01*
X121464762Y-79942654D01*
X121464763Y-79942655D01*
X121597057Y-79981500D01*
X121597058Y-79981500D01*
X121734942Y-79981500D01*
X121867240Y-79942654D01*
X121983235Y-79868109D01*
X122073529Y-79763903D01*
X122130808Y-79638480D01*
X122150431Y-79502000D01*
X122130808Y-79365520D01*
X122104283Y-79307439D01*
X122073531Y-79240100D01*
X122073529Y-79240098D01*
X122073529Y-79240097D01*
X121983235Y-79135891D01*
X121867240Y-79061346D01*
X121867238Y-79061345D01*
X121867236Y-79061344D01*
X121734943Y-79022500D01*
X121734942Y-79022500D01*
X121597058Y-79022500D01*
X121597057Y-79022500D01*
X121464763Y-79061344D01*
X121348764Y-79135891D01*
X121258471Y-79240097D01*
X121258468Y-79240100D01*
X121201192Y-79365519D01*
X121201191Y-79365521D01*
X121181569Y-79502000D01*
X104521500Y-79502000D01*
X104521500Y-78529736D01*
X104541185Y-78462697D01*
X104593989Y-78416942D01*
X104663147Y-78406998D01*
X104697018Y-78416945D01*
X104700757Y-78418652D01*
X104700760Y-78418654D01*
X104766909Y-78438077D01*
X104833057Y-78457500D01*
X104833058Y-78457500D01*
X104970942Y-78457500D01*
X105103240Y-78418654D01*
X105219235Y-78344109D01*
X105309529Y-78239903D01*
X105310627Y-78237500D01*
X105321809Y-78213013D01*
X105366808Y-78114480D01*
X105386431Y-77978000D01*
X105366808Y-77841520D01*
X105340283Y-77783439D01*
X105309531Y-77716100D01*
X105309529Y-77716098D01*
X105309529Y-77716097D01*
X105219235Y-77611891D01*
X105103240Y-77537346D01*
X105103238Y-77537345D01*
X105103236Y-77537344D01*
X104970943Y-77498500D01*
X104970942Y-77498500D01*
X104950385Y-77498500D01*
X104883346Y-77478815D01*
X104837591Y-77426011D01*
X104827647Y-77356853D01*
X104856672Y-77293297D01*
X104862704Y-77286819D01*
X106039704Y-76109819D01*
X106101027Y-76076334D01*
X106127385Y-76073500D01*
X109398305Y-76073500D01*
X109465342Y-76093183D01*
X109526760Y-76132654D01*
X109526762Y-76132654D01*
X109526763Y-76132655D01*
X109659057Y-76171500D01*
X109659058Y-76171500D01*
X109796942Y-76171500D01*
X109929240Y-76132654D01*
X110045235Y-76058109D01*
X110135529Y-75953903D01*
X110192808Y-75828480D01*
X110212431Y-75692000D01*
X110193847Y-75562747D01*
X110203791Y-75493590D01*
X110249545Y-75440786D01*
X110298941Y-75422363D01*
X110304941Y-75421500D01*
X110304942Y-75421500D01*
X110437240Y-75382654D01*
X110553235Y-75308109D01*
X110643529Y-75203903D01*
X110700808Y-75078480D01*
X110720431Y-74942000D01*
X110700808Y-74805520D01*
X110664039Y-74725009D01*
X110654097Y-74655853D01*
X110683122Y-74592297D01*
X110741901Y-74554523D01*
X110776835Y-74549500D01*
X114350222Y-74549500D01*
X114350225Y-74549500D01*
X114447254Y-74523501D01*
X114534247Y-74473276D01*
X114605276Y-74402247D01*
X114605276Y-74402246D01*
X115347521Y-73660000D01*
X122197569Y-73660000D01*
X122217191Y-73796478D01*
X122217192Y-73796480D01*
X122274468Y-73921899D01*
X122274470Y-73921901D01*
X122274471Y-73921903D01*
X122364765Y-74026109D01*
X122480760Y-74100654D01*
X122480762Y-74100654D01*
X122480763Y-74100655D01*
X122613057Y-74139500D01*
X122613058Y-74139500D01*
X122750942Y-74139500D01*
X122883240Y-74100654D01*
X122999235Y-74026109D01*
X123089529Y-73921903D01*
X123146808Y-73796480D01*
X123166431Y-73660000D01*
X123146808Y-73523520D01*
X123120283Y-73465439D01*
X123089531Y-73398100D01*
X123089529Y-73398098D01*
X123089529Y-73398097D01*
X122999235Y-73293891D01*
X122883240Y-73219346D01*
X122883238Y-73219345D01*
X122883236Y-73219344D01*
X122750943Y-73180500D01*
X122750942Y-73180500D01*
X122613058Y-73180500D01*
X122613057Y-73180500D01*
X122480763Y-73219344D01*
X122364764Y-73293891D01*
X122274471Y-73398097D01*
X122274468Y-73398100D01*
X122217192Y-73523519D01*
X122217191Y-73523521D01*
X122197569Y-73660000D01*
X115347521Y-73660000D01*
X115857936Y-73149585D01*
X115910679Y-73118291D01*
X116025240Y-73084654D01*
X116141235Y-73010109D01*
X116231529Y-72905903D01*
X116288808Y-72780480D01*
X116308431Y-72644000D01*
X116288808Y-72507520D01*
X116231529Y-72382097D01*
X116231524Y-72382091D01*
X116226734Y-72374637D01*
X116229362Y-72372947D01*
X116206761Y-72323449D01*
X116205500Y-72305809D01*
X116205500Y-70612000D01*
X120419569Y-70612000D01*
X120439191Y-70748478D01*
X120439192Y-70748480D01*
X120496468Y-70873899D01*
X120496470Y-70873901D01*
X120496471Y-70873903D01*
X120574709Y-70964196D01*
X120583503Y-70974345D01*
X120586765Y-70978109D01*
X120702760Y-71052654D01*
X120702762Y-71052654D01*
X120702763Y-71052655D01*
X120835057Y-71091500D01*
X120835058Y-71091500D01*
X120972942Y-71091500D01*
X121105240Y-71052654D01*
X121221235Y-70978109D01*
X121311529Y-70873903D01*
X121368808Y-70748480D01*
X121388431Y-70612000D01*
X121368808Y-70475520D01*
X121321577Y-70372098D01*
X121311531Y-70350100D01*
X121311529Y-70350098D01*
X121311529Y-70350097D01*
X121221235Y-70245891D01*
X121105240Y-70171346D01*
X121105238Y-70171345D01*
X121105236Y-70171344D01*
X120972943Y-70132500D01*
X120972942Y-70132500D01*
X120835058Y-70132500D01*
X120835057Y-70132500D01*
X120702763Y-70171344D01*
X120586764Y-70245891D01*
X120496471Y-70350097D01*
X120496468Y-70350100D01*
X120439192Y-70475519D01*
X120439191Y-70475521D01*
X120419569Y-70612000D01*
X116205500Y-70612000D01*
X116205500Y-67913500D01*
X116225185Y-67846461D01*
X116277989Y-67800706D01*
X116329500Y-67789500D01*
X116400942Y-67789500D01*
X116533240Y-67750654D01*
X116649235Y-67676109D01*
X116739529Y-67571903D01*
X116743311Y-67563619D01*
X116789062Y-67510815D01*
X116856100Y-67491127D01*
X116891042Y-67496150D01*
X117025057Y-67535500D01*
X117025058Y-67535500D01*
X117162942Y-67535500D01*
X117295240Y-67496654D01*
X117411235Y-67422109D01*
X117501529Y-67317903D01*
X117558808Y-67192480D01*
X117578431Y-67056000D01*
X117558808Y-66919520D01*
X117518154Y-66830500D01*
X117501531Y-66794100D01*
X117501529Y-66794098D01*
X117501529Y-66794097D01*
X117411235Y-66689891D01*
X117295240Y-66615346D01*
X117295238Y-66615345D01*
X117295236Y-66615344D01*
X117162943Y-66576500D01*
X117162942Y-66576500D01*
X117025058Y-66576500D01*
X117025057Y-66576500D01*
X116892763Y-66615344D01*
X116776764Y-66689891D01*
X116686471Y-66794097D01*
X116686468Y-66794100D01*
X116682682Y-66802391D01*
X116636923Y-66855192D01*
X116569882Y-66874872D01*
X116534957Y-66869849D01*
X116400944Y-66830500D01*
X116400942Y-66830500D01*
X116263058Y-66830500D01*
X116263057Y-66830500D01*
X116130763Y-66869344D01*
X116014764Y-66943891D01*
X115924471Y-67048097D01*
X115924470Y-67048098D01*
X115894936Y-67112769D01*
X115849181Y-67165573D01*
X115782142Y-67185257D01*
X115715102Y-67165572D01*
X115694461Y-67148938D01*
X114040114Y-65494591D01*
X118679500Y-65494591D01*
X118679500Y-65494598D01*
X118679500Y-65494599D01*
X118679500Y-66077406D01*
X118679501Y-66077412D01*
X118685879Y-66136750D01*
X118735947Y-66270988D01*
X118735949Y-66270991D01*
X118821811Y-66385689D01*
X118936508Y-66471550D01*
X118936511Y-66471552D01*
X119078017Y-66524331D01*
X119077110Y-66526761D01*
X119126902Y-66555094D01*
X119159307Y-66616995D01*
X119160435Y-66623577D01*
X119169191Y-66684477D01*
X119169192Y-66684480D01*
X119226468Y-66809899D01*
X119226470Y-66809901D01*
X119226471Y-66809903D01*
X119316765Y-66914109D01*
X119432760Y-66988654D01*
X119432762Y-66988654D01*
X119432763Y-66988655D01*
X119565057Y-67027500D01*
X119565058Y-67027500D01*
X119702942Y-67027500D01*
X119835240Y-66988654D01*
X119951235Y-66914109D01*
X120041529Y-66809903D01*
X120098808Y-66684480D01*
X120107564Y-66623576D01*
X120136588Y-66560022D01*
X120190396Y-66525441D01*
X120189982Y-66524331D01*
X120195084Y-66522427D01*
X120195366Y-66522247D01*
X120196065Y-66522061D01*
X120197246Y-66521620D01*
X120197250Y-66521620D01*
X120331491Y-66471551D01*
X120446189Y-66385689D01*
X120532051Y-66270991D01*
X120582120Y-66136750D01*
X120588500Y-66077409D01*
X120588499Y-65494592D01*
X120588499Y-65494591D01*
X120965500Y-65494591D01*
X120965500Y-65494598D01*
X120965500Y-65494599D01*
X120965500Y-66077406D01*
X120965501Y-66077412D01*
X120971879Y-66136750D01*
X121021947Y-66270988D01*
X121021949Y-66270991D01*
X121107811Y-66385689D01*
X121222508Y-66471550D01*
X121222511Y-66471552D01*
X121364017Y-66524331D01*
X121363110Y-66526761D01*
X121412902Y-66555094D01*
X121445307Y-66616995D01*
X121446435Y-66623577D01*
X121455191Y-66684477D01*
X121455192Y-66684480D01*
X121512468Y-66809899D01*
X121512470Y-66809901D01*
X121512471Y-66809903D01*
X121602765Y-66914109D01*
X121718760Y-66988654D01*
X121718762Y-66988654D01*
X121718763Y-66988655D01*
X121851057Y-67027500D01*
X121851058Y-67027500D01*
X121988942Y-67027500D01*
X122121240Y-66988654D01*
X122237235Y-66914109D01*
X122327529Y-66809903D01*
X122384808Y-66684480D01*
X122393564Y-66623576D01*
X122422588Y-66560022D01*
X122476396Y-66525441D01*
X122475982Y-66524331D01*
X122481084Y-66522427D01*
X122481366Y-66522247D01*
X122482065Y-66522061D01*
X122483246Y-66521620D01*
X122483250Y-66521620D01*
X122617491Y-66471551D01*
X122732189Y-66385689D01*
X122818051Y-66270991D01*
X122868120Y-66136750D01*
X122874500Y-66077409D01*
X122874499Y-65494592D01*
X122868120Y-65435250D01*
X122825728Y-65321593D01*
X122818052Y-65301011D01*
X122818050Y-65301008D01*
X122732189Y-65186311D01*
X122617491Y-65100449D01*
X122617488Y-65100447D01*
X122483254Y-65050381D01*
X122483255Y-65050381D01*
X122483251Y-65050380D01*
X122483250Y-65050380D01*
X122423909Y-65044000D01*
X122423899Y-65044000D01*
X121416093Y-65044000D01*
X121416087Y-65044001D01*
X121356749Y-65050379D01*
X121222511Y-65100447D01*
X121222508Y-65100449D01*
X121107811Y-65186311D01*
X121021949Y-65301008D01*
X121021947Y-65301011D01*
X120971881Y-65435244D01*
X120971880Y-65435248D01*
X120971880Y-65435250D01*
X120965500Y-65494591D01*
X120588499Y-65494591D01*
X120582120Y-65435250D01*
X120539728Y-65321593D01*
X120532052Y-65301011D01*
X120532050Y-65301008D01*
X120446189Y-65186311D01*
X120331491Y-65100449D01*
X120331488Y-65100447D01*
X120197254Y-65050381D01*
X120197255Y-65050381D01*
X120197251Y-65050380D01*
X120197250Y-65050380D01*
X120137909Y-65044000D01*
X120137899Y-65044000D01*
X119130093Y-65044000D01*
X119130087Y-65044001D01*
X119070749Y-65050379D01*
X118936511Y-65100447D01*
X118936508Y-65100449D01*
X118821811Y-65186311D01*
X118735949Y-65301008D01*
X118735947Y-65301011D01*
X118685881Y-65435244D01*
X118685880Y-65435248D01*
X118685880Y-65435250D01*
X118679500Y-65494591D01*
X114040114Y-65494591D01*
X111281819Y-62736296D01*
X111248334Y-62674973D01*
X111245500Y-62648615D01*
X111245500Y-62125999D01*
X111245499Y-62125995D01*
X111225748Y-62026699D01*
X111225747Y-62026698D01*
X111225747Y-62026694D01*
X111225744Y-62026689D01*
X111224405Y-62023456D01*
X111223583Y-62015812D01*
X111223365Y-62014716D01*
X111223463Y-62014696D01*
X111216935Y-61953987D01*
X111224405Y-61928544D01*
X111225743Y-61925311D01*
X111225747Y-61925306D01*
X111245500Y-61826000D01*
X111245500Y-61254111D01*
X111234989Y-61181002D01*
X111234359Y-61176618D01*
X111236174Y-61176357D01*
X111240615Y-61114261D01*
X111269114Y-61069915D01*
X111668881Y-60670147D01*
X111730203Y-60636664D01*
X111799895Y-60641648D01*
X111844242Y-60670149D01*
X111863223Y-60689130D01*
X111863225Y-60689131D01*
X111863229Y-60689135D01*
X111974573Y-60745868D01*
X111974574Y-60745868D01*
X111974576Y-60745869D01*
X112010057Y-60751488D01*
X112066955Y-60760500D01*
X112469044Y-60760499D01*
X112561427Y-60745868D01*
X112672771Y-60689135D01*
X112718086Y-60643820D01*
X112779409Y-60610334D01*
X112805768Y-60607500D01*
X113055615Y-60607500D01*
X113055618Y-60607500D01*
X113152647Y-60581501D01*
X113239640Y-60531276D01*
X113239644Y-60531271D01*
X113245117Y-60528112D01*
X113307114Y-60511499D01*
X114066542Y-60511499D01*
X114133581Y-60531184D01*
X114154223Y-60547818D01*
X114270688Y-60664283D01*
X114341717Y-60735312D01*
X114428710Y-60785537D01*
X114525739Y-60811536D01*
X114626189Y-60811536D01*
X114973864Y-60811536D01*
X115040903Y-60831221D01*
X115086658Y-60884025D01*
X115096602Y-60953183D01*
X115081252Y-60997535D01*
X115010423Y-61120215D01*
X115010423Y-61120216D01*
X114969500Y-61272943D01*
X114969500Y-61431057D01*
X114986021Y-61492712D01*
X115010423Y-61583783D01*
X115010426Y-61583790D01*
X115089475Y-61720709D01*
X115089479Y-61720714D01*
X115089480Y-61720716D01*
X115201284Y-61832520D01*
X115201286Y-61832521D01*
X115201290Y-61832524D01*
X115338209Y-61911573D01*
X115338216Y-61911577D01*
X115490943Y-61952500D01*
X115490945Y-61952500D01*
X115649055Y-61952500D01*
X115649057Y-61952500D01*
X115801784Y-61911577D01*
X115938716Y-61832520D01*
X116050520Y-61720716D01*
X116129577Y-61583784D01*
X116170500Y-61431057D01*
X116170500Y-61272943D01*
X116129577Y-61120216D01*
X116069894Y-61016841D01*
X116058748Y-60997535D01*
X116042276Y-60929635D01*
X116065129Y-60863608D01*
X116120051Y-60820418D01*
X116166136Y-60811536D01*
X116614258Y-60811536D01*
X116614261Y-60811536D01*
X116711290Y-60785537D01*
X116798283Y-60735312D01*
X116869312Y-60664283D01*
X116928324Y-60605271D01*
X116985777Y-60547818D01*
X117047100Y-60514333D01*
X117073458Y-60511499D01*
X117868251Y-60511499D01*
X117868254Y-60511499D01*
X117928342Y-60505040D01*
X118064267Y-60454342D01*
X118180404Y-60367404D01*
X118267342Y-60251267D01*
X118318040Y-60115342D01*
X118320800Y-60089664D01*
X118324499Y-60055271D01*
X118324499Y-60055264D01*
X118324500Y-60055255D01*
X118324499Y-59408746D01*
X118318040Y-59348658D01*
X118267342Y-59212733D01*
X118236986Y-59172181D01*
X118226976Y-59158809D01*
X118202560Y-59093344D01*
X118217413Y-59025072D01*
X118266819Y-58975667D01*
X118326244Y-58960500D01*
X130688500Y-58960500D01*
X130755539Y-58980185D01*
X130801294Y-59032989D01*
X130812500Y-59084500D01*
X130812500Y-60782003D01*
X130814183Y-60799088D01*
X130822212Y-60880619D01*
X130822213Y-60880623D01*
X130831652Y-60928075D01*
X130839268Y-60953183D01*
X130847660Y-60980847D01*
X130852999Y-61016841D01*
X130852999Y-66491156D01*
X130847660Y-66527150D01*
X130831652Y-66579920D01*
X130822211Y-66627387D01*
X130812500Y-66725998D01*
X130812500Y-70434000D01*
X130822212Y-70532619D01*
X130822213Y-70532623D01*
X130831652Y-70580075D01*
X130835345Y-70592248D01*
X130847660Y-70632847D01*
X130852999Y-70668841D01*
X130852999Y-76143156D01*
X130847660Y-76179150D01*
X130831652Y-76231920D01*
X130822211Y-76279387D01*
X130812500Y-76377998D01*
X130812500Y-83006640D01*
X130815397Y-83060688D01*
X130815397Y-83060689D01*
X130818229Y-83087022D01*
X130818232Y-83087049D01*
X130826885Y-83140445D01*
X130826885Y-83140447D01*
X130877166Y-83275252D01*
X130877168Y-83275257D01*
X130910653Y-83336580D01*
X130996877Y-83451761D01*
X130996881Y-83451765D01*
X130996886Y-83451771D01*
X131476931Y-83931815D01*
X131940239Y-84395123D01*
X131940255Y-84395137D01*
X131940262Y-84395144D01*
X131980480Y-84431271D01*
X131980492Y-84431281D01*
X131980500Y-84431288D01*
X132001142Y-84447922D01*
X132045026Y-84479567D01*
X132175903Y-84539338D01*
X132242942Y-84559023D01*
X132242946Y-84559024D01*
X132385362Y-84579500D01*
X132385365Y-84579500D01*
X135330640Y-84579500D01*
X135340786Y-84578955D01*
X135384678Y-84576603D01*
X135384686Y-84576602D01*
X135384688Y-84576602D01*
X135384689Y-84576602D01*
X135391682Y-84575849D01*
X135411036Y-84573769D01*
X135411046Y-84573767D01*
X135411049Y-84573767D01*
X135420648Y-84572211D01*
X135464448Y-84565114D01*
X135599257Y-84514832D01*
X135660580Y-84481347D01*
X135775761Y-84395123D01*
X136719123Y-83451761D01*
X136755288Y-83411500D01*
X136771922Y-83390858D01*
X136803567Y-83346974D01*
X136863338Y-83216097D01*
X136883023Y-83149058D01*
X136883024Y-83149054D01*
X136903500Y-83006638D01*
X136903500Y-80832999D01*
X143080554Y-80832999D01*
X143080554Y-80833000D01*
X143100295Y-81046047D01*
X143100296Y-81046050D01*
X143158846Y-81251835D01*
X143158849Y-81251841D01*
X143254219Y-81443370D01*
X143383159Y-81614114D01*
X143541278Y-81758258D01*
X143541283Y-81758261D01*
X143541286Y-81758263D01*
X143723186Y-81870891D01*
X143723187Y-81870891D01*
X143723190Y-81870893D01*
X143922703Y-81948185D01*
X144133020Y-81987500D01*
X144133022Y-81987500D01*
X144346978Y-81987500D01*
X144346980Y-81987500D01*
X144557297Y-81948185D01*
X144756810Y-81870893D01*
X144938722Y-81758258D01*
X145096841Y-81614114D01*
X145225781Y-81443370D01*
X145321151Y-81251840D01*
X145321151Y-81251837D01*
X145321153Y-81251835D01*
X145354679Y-81134000D01*
X145379704Y-81046048D01*
X145399446Y-80833000D01*
X145379704Y-80619952D01*
X145358805Y-80546500D01*
X145321153Y-80414164D01*
X145321150Y-80414158D01*
X145225781Y-80222630D01*
X145096841Y-80051886D01*
X144938926Y-79907928D01*
X148085500Y-79907928D01*
X148085500Y-81758063D01*
X148100266Y-81832301D01*
X148156515Y-81916484D01*
X148190234Y-81939014D01*
X148240699Y-81972734D01*
X148240702Y-81972734D01*
X148240703Y-81972735D01*
X148265666Y-81977700D01*
X148314933Y-81987500D01*
X150165066Y-81987499D01*
X150239301Y-81972734D01*
X150323484Y-81916484D01*
X150379734Y-81832301D01*
X150394500Y-81758067D01*
X150394499Y-79907934D01*
X150379734Y-79833699D01*
X150353947Y-79795106D01*
X150323484Y-79749515D01*
X150273019Y-79715796D01*
X150239301Y-79693266D01*
X150239299Y-79693265D01*
X150239296Y-79693264D01*
X150165069Y-79678500D01*
X148314936Y-79678500D01*
X148240698Y-79693266D01*
X148156515Y-79749515D01*
X148100266Y-79833699D01*
X148100264Y-79833703D01*
X148085500Y-79907928D01*
X144938926Y-79907928D01*
X144938722Y-79907742D01*
X144938716Y-79907738D01*
X144938713Y-79907736D01*
X144756813Y-79795108D01*
X144756807Y-79795106D01*
X144557297Y-79717815D01*
X144346980Y-79678500D01*
X144133020Y-79678500D01*
X143922703Y-79717815D01*
X143850525Y-79745777D01*
X143723192Y-79795106D01*
X143723186Y-79795108D01*
X143541286Y-79907736D01*
X143541283Y-79907738D01*
X143541279Y-79907740D01*
X143541278Y-79907742D01*
X143383159Y-80051886D01*
X143383158Y-80051887D01*
X143254219Y-80222629D01*
X143158849Y-80414158D01*
X143158846Y-80414164D01*
X143100296Y-80619949D01*
X143100295Y-80619952D01*
X143080554Y-80832999D01*
X136903500Y-80832999D01*
X136903500Y-78361500D01*
X136923185Y-78294461D01*
X136975989Y-78248706D01*
X137027500Y-78237500D01*
X156085991Y-78237500D01*
X156086000Y-78237500D01*
X156141163Y-78231569D01*
X156192674Y-78220363D01*
X156219461Y-78213014D01*
X156307448Y-78162911D01*
X156360252Y-78117156D01*
X156392371Y-78083869D01*
X156439303Y-77994151D01*
X156458988Y-77927112D01*
X156469500Y-77854000D01*
X156469500Y-63754000D01*
X167494465Y-63754000D01*
X167514584Y-64086619D01*
X167514584Y-64086624D01*
X167514585Y-64086625D01*
X167574652Y-64414400D01*
X167574653Y-64414404D01*
X167574654Y-64414408D01*
X167673783Y-64732526D01*
X167673787Y-64732537D01*
X167673788Y-64732540D01*
X167673790Y-64732545D01*
X167810553Y-65036420D01*
X167970504Y-65301011D01*
X167982946Y-65321593D01*
X167982952Y-65321602D01*
X168188460Y-65583913D01*
X168424086Y-65819539D01*
X168603650Y-65960219D01*
X168686405Y-66025053D01*
X168971580Y-66197447D01*
X169275455Y-66334210D01*
X169275465Y-66334213D01*
X169275473Y-66334216D01*
X169440657Y-66385689D01*
X169593600Y-66433348D01*
X169921375Y-66493415D01*
X170254000Y-66513535D01*
X170432662Y-66502728D01*
X181496500Y-66502728D01*
X181496500Y-67224251D01*
X181496501Y-67224257D01*
X181502960Y-67284344D01*
X181553655Y-67420261D01*
X181553656Y-67420264D01*
X181553658Y-67420267D01*
X181573281Y-67446480D01*
X181640595Y-67536404D01*
X181676955Y-67563622D01*
X181756733Y-67623342D01*
X181892658Y-67674040D01*
X181952745Y-67680500D01*
X183299254Y-67680499D01*
X183359342Y-67674040D01*
X183495267Y-67623342D01*
X183611404Y-67536404D01*
X183698342Y-67420267D01*
X183749040Y-67284342D01*
X183751800Y-67258664D01*
X183755499Y-67224271D01*
X183755499Y-67224264D01*
X183755500Y-67224255D01*
X183755499Y-66502746D01*
X183755497Y-66502728D01*
X185306500Y-66502728D01*
X185306500Y-67224251D01*
X185306501Y-67224257D01*
X185312960Y-67284344D01*
X185363655Y-67420261D01*
X185363656Y-67420264D01*
X185363658Y-67420267D01*
X185383281Y-67446480D01*
X185450595Y-67536404D01*
X185486955Y-67563622D01*
X185566733Y-67623342D01*
X185702658Y-67674040D01*
X185762745Y-67680500D01*
X187109254Y-67680499D01*
X187169342Y-67674040D01*
X187305267Y-67623342D01*
X187421404Y-67536404D01*
X187508342Y-67420267D01*
X187559040Y-67284342D01*
X187561800Y-67258664D01*
X187565499Y-67224271D01*
X187565499Y-67224264D01*
X187565500Y-67224255D01*
X187565499Y-66502746D01*
X187565497Y-66502728D01*
X189116500Y-66502728D01*
X189116500Y-67224251D01*
X189116501Y-67224257D01*
X189122960Y-67284344D01*
X189173655Y-67420261D01*
X189173656Y-67420264D01*
X189173658Y-67420267D01*
X189193281Y-67446480D01*
X189260595Y-67536404D01*
X189296955Y-67563622D01*
X189376733Y-67623342D01*
X189512658Y-67674040D01*
X189572745Y-67680500D01*
X190919254Y-67680499D01*
X190979342Y-67674040D01*
X191115267Y-67623342D01*
X191231404Y-67536404D01*
X191318342Y-67420267D01*
X191369040Y-67284342D01*
X191371800Y-67258664D01*
X191375499Y-67224271D01*
X191375499Y-67224264D01*
X191375500Y-67224255D01*
X191375499Y-66502746D01*
X191369040Y-66442658D01*
X191365568Y-66433348D01*
X191318344Y-66306738D01*
X191318343Y-66306737D01*
X191318342Y-66306733D01*
X191250047Y-66215500D01*
X191231404Y-66190595D01*
X191154126Y-66132747D01*
X191115267Y-66103658D01*
X191044889Y-66077408D01*
X191018473Y-66067555D01*
X190962540Y-66025684D01*
X190938124Y-65960219D01*
X190952976Y-65891946D01*
X190987496Y-65852109D01*
X191058189Y-65799189D01*
X191144051Y-65684491D01*
X191194120Y-65550250D01*
X191200500Y-65490909D01*
X191200499Y-64908092D01*
X191194120Y-64848750D01*
X191168477Y-64779999D01*
X191144052Y-64714511D01*
X191144050Y-64714508D01*
X191058189Y-64599811D01*
X190943491Y-64513949D01*
X190943488Y-64513947D01*
X190809254Y-64463881D01*
X190809255Y-64463881D01*
X190809251Y-64463880D01*
X190809250Y-64463880D01*
X190749909Y-64457500D01*
X190749899Y-64457500D01*
X189742093Y-64457500D01*
X189742087Y-64457501D01*
X189682749Y-64463879D01*
X189548511Y-64513947D01*
X189548508Y-64513949D01*
X189433811Y-64599811D01*
X189347949Y-64714508D01*
X189347947Y-64714511D01*
X189297881Y-64848744D01*
X189297880Y-64848748D01*
X189297880Y-64848750D01*
X189291500Y-64908091D01*
X189291500Y-64908098D01*
X189291500Y-64908099D01*
X189291500Y-65490906D01*
X189291501Y-65490912D01*
X189297879Y-65550250D01*
X189347947Y-65684488D01*
X189347949Y-65684491D01*
X189433811Y-65799189D01*
X189504503Y-65852108D01*
X189546373Y-65908041D01*
X189551357Y-65977732D01*
X189517872Y-66039055D01*
X189473526Y-66067555D01*
X189376736Y-66103656D01*
X189376730Y-66103660D01*
X189260595Y-66190595D01*
X189173660Y-66306730D01*
X189173658Y-66306733D01*
X189122960Y-66442658D01*
X189122959Y-66442662D01*
X189116500Y-66502728D01*
X187565497Y-66502728D01*
X187559040Y-66442658D01*
X187555568Y-66433348D01*
X187508344Y-66306738D01*
X187508343Y-66306737D01*
X187508342Y-66306733D01*
X187440047Y-66215500D01*
X187421404Y-66190595D01*
X187344126Y-66132747D01*
X187305267Y-66103658D01*
X187234889Y-66077408D01*
X187208473Y-66067555D01*
X187152540Y-66025684D01*
X187128124Y-65960219D01*
X187142976Y-65891946D01*
X187177496Y-65852109D01*
X187248189Y-65799189D01*
X187334051Y-65684491D01*
X187384120Y-65550250D01*
X187390500Y-65490909D01*
X187390499Y-64908092D01*
X187384120Y-64848750D01*
X187358477Y-64779999D01*
X187334052Y-64714511D01*
X187334050Y-64714508D01*
X187248189Y-64599811D01*
X187133491Y-64513949D01*
X187133488Y-64513947D01*
X186999254Y-64463881D01*
X186999255Y-64463881D01*
X186999251Y-64463880D01*
X186999250Y-64463880D01*
X186939909Y-64457500D01*
X186939899Y-64457500D01*
X185932093Y-64457500D01*
X185932087Y-64457501D01*
X185872749Y-64463879D01*
X185738511Y-64513947D01*
X185738508Y-64513949D01*
X185623811Y-64599811D01*
X185537949Y-64714508D01*
X185537947Y-64714511D01*
X185487881Y-64848744D01*
X185487880Y-64848748D01*
X185487880Y-64848750D01*
X185481500Y-64908091D01*
X185481500Y-64908098D01*
X185481500Y-64908099D01*
X185481500Y-65490906D01*
X185481501Y-65490912D01*
X185487879Y-65550250D01*
X185537947Y-65684488D01*
X185537949Y-65684491D01*
X185623811Y-65799189D01*
X185694503Y-65852108D01*
X185736373Y-65908041D01*
X185741357Y-65977732D01*
X185707872Y-66039055D01*
X185663526Y-66067555D01*
X185566736Y-66103656D01*
X185566730Y-66103660D01*
X185450595Y-66190595D01*
X185363660Y-66306730D01*
X185363658Y-66306733D01*
X185312960Y-66442658D01*
X185312959Y-66442662D01*
X185306500Y-66502728D01*
X183755497Y-66502728D01*
X183749040Y-66442658D01*
X183745568Y-66433348D01*
X183698344Y-66306738D01*
X183698343Y-66306737D01*
X183698342Y-66306733D01*
X183630047Y-66215500D01*
X183611404Y-66190595D01*
X183534126Y-66132747D01*
X183495267Y-66103658D01*
X183424889Y-66077408D01*
X183398473Y-66067555D01*
X183342540Y-66025684D01*
X183318124Y-65960219D01*
X183332976Y-65891946D01*
X183367496Y-65852109D01*
X183438189Y-65799189D01*
X183524051Y-65684491D01*
X183574120Y-65550250D01*
X183580500Y-65490909D01*
X183580499Y-64908092D01*
X183574120Y-64848750D01*
X183548477Y-64779999D01*
X183524052Y-64714511D01*
X183524050Y-64714508D01*
X183438189Y-64599811D01*
X183323491Y-64513949D01*
X183323488Y-64513947D01*
X183189254Y-64463881D01*
X183189255Y-64463881D01*
X183189251Y-64463880D01*
X183189250Y-64463880D01*
X183129909Y-64457500D01*
X183129899Y-64457500D01*
X182122093Y-64457500D01*
X182122087Y-64457501D01*
X182062749Y-64463879D01*
X181928511Y-64513947D01*
X181928508Y-64513949D01*
X181813811Y-64599811D01*
X181727949Y-64714508D01*
X181727947Y-64714511D01*
X181677881Y-64848744D01*
X181677880Y-64848748D01*
X181677880Y-64848750D01*
X181671500Y-64908091D01*
X181671500Y-64908098D01*
X181671500Y-64908099D01*
X181671500Y-65490906D01*
X181671501Y-65490912D01*
X181677879Y-65550250D01*
X181727947Y-65684488D01*
X181727949Y-65684491D01*
X181813811Y-65799189D01*
X181884503Y-65852108D01*
X181926373Y-65908041D01*
X181931357Y-65977732D01*
X181897872Y-66039055D01*
X181853526Y-66067555D01*
X181756736Y-66103656D01*
X181756730Y-66103660D01*
X181640595Y-66190595D01*
X181553660Y-66306730D01*
X181553658Y-66306733D01*
X181502960Y-66442658D01*
X181502959Y-66442662D01*
X181496500Y-66502728D01*
X170432662Y-66502728D01*
X170586625Y-66493415D01*
X170914400Y-66433348D01*
X171232545Y-66334210D01*
X171536420Y-66197447D01*
X171821595Y-66025053D01*
X172083910Y-65819542D01*
X172319542Y-65583910D01*
X172525053Y-65321595D01*
X172697447Y-65036420D01*
X172834210Y-64732545D01*
X172933348Y-64414400D01*
X172993415Y-64086625D01*
X173013535Y-63754000D01*
X172993415Y-63421375D01*
X172933348Y-63093600D01*
X172914493Y-63033091D01*
X189291500Y-63033091D01*
X189291500Y-63033098D01*
X189291500Y-63033099D01*
X189291500Y-63615906D01*
X189291501Y-63615912D01*
X189297879Y-63675250D01*
X189347947Y-63809488D01*
X189347949Y-63809491D01*
X189433811Y-63924189D01*
X189548508Y-64010050D01*
X189548511Y-64010052D01*
X189682745Y-64060118D01*
X189682744Y-64060118D01*
X189682750Y-64060120D01*
X189742091Y-64066500D01*
X190749908Y-64066499D01*
X190809250Y-64060120D01*
X190943491Y-64010051D01*
X191058189Y-63924189D01*
X191144051Y-63809491D01*
X191194120Y-63675250D01*
X191200500Y-63615909D01*
X191200499Y-63033092D01*
X191195322Y-62984939D01*
X191194120Y-62973749D01*
X191144052Y-62839511D01*
X191144050Y-62839508D01*
X191132392Y-62823935D01*
X191058189Y-62724811D01*
X190943491Y-62638949D01*
X190943488Y-62638947D01*
X190809254Y-62588881D01*
X190809248Y-62588879D01*
X190789572Y-62586764D01*
X190725022Y-62560025D01*
X190685174Y-62502633D01*
X190682681Y-62432807D01*
X190690028Y-62411981D01*
X190710808Y-62366480D01*
X190730431Y-62230000D01*
X190710808Y-62093520D01*
X190680292Y-62026699D01*
X190653531Y-61968100D01*
X190653529Y-61968098D01*
X190653529Y-61968097D01*
X190563235Y-61863891D01*
X190447240Y-61789346D01*
X190447238Y-61789345D01*
X190447236Y-61789344D01*
X190314943Y-61750500D01*
X190314942Y-61750500D01*
X190177058Y-61750500D01*
X190177057Y-61750500D01*
X190044763Y-61789344D01*
X189928764Y-61863891D01*
X189838471Y-61968097D01*
X189838468Y-61968100D01*
X189781192Y-62093519D01*
X189781191Y-62093521D01*
X189761569Y-62230000D01*
X189781191Y-62366477D01*
X189801964Y-62411965D01*
X189811907Y-62481124D01*
X189782881Y-62544679D01*
X189724102Y-62582453D01*
X189702423Y-62586765D01*
X189682749Y-62588879D01*
X189548511Y-62638947D01*
X189548508Y-62638949D01*
X189433811Y-62724811D01*
X189347949Y-62839508D01*
X189347947Y-62839511D01*
X189297881Y-62973744D01*
X189297880Y-62973748D01*
X189297880Y-62973750D01*
X189291500Y-63033091D01*
X172914493Y-63033091D01*
X172834210Y-62775455D01*
X172697447Y-62471580D01*
X172525053Y-62186405D01*
X172452281Y-62093519D01*
X172319539Y-61924086D01*
X172083913Y-61688460D01*
X171821602Y-61482952D01*
X171821597Y-61482949D01*
X171821595Y-61482947D01*
X171536420Y-61310553D01*
X171232545Y-61173790D01*
X171232540Y-61173788D01*
X171232537Y-61173787D01*
X171232526Y-61173783D01*
X170914408Y-61074654D01*
X170914404Y-61074653D01*
X170914400Y-61074652D01*
X170586625Y-61014585D01*
X170586624Y-61014584D01*
X170586619Y-61014584D01*
X170254000Y-60994465D01*
X169921380Y-61014584D01*
X169921375Y-61014585D01*
X169593600Y-61074652D01*
X169593597Y-61074652D01*
X169593591Y-61074654D01*
X169275473Y-61173783D01*
X169275462Y-61173787D01*
X169275456Y-61173789D01*
X169275455Y-61173790D01*
X169259451Y-61180993D01*
X168971584Y-61310551D01*
X168971582Y-61310552D01*
X168686406Y-61482946D01*
X168686397Y-61482952D01*
X168424086Y-61688460D01*
X168188460Y-61924086D01*
X167982952Y-62186397D01*
X167982946Y-62186406D01*
X167874091Y-62366475D01*
X167846592Y-62411965D01*
X167810552Y-62471582D01*
X167810551Y-62471584D01*
X167673787Y-62775462D01*
X167673783Y-62775473D01*
X167574654Y-63093591D01*
X167574652Y-63093597D01*
X167574652Y-63093600D01*
X167539210Y-63287001D01*
X167514584Y-63421380D01*
X167494465Y-63754000D01*
X156469500Y-63754000D01*
X156469500Y-59084500D01*
X156489185Y-59017461D01*
X156541989Y-58971706D01*
X156593500Y-58960500D01*
X198547500Y-58960500D01*
X198614539Y-58980185D01*
X198660294Y-59032989D01*
X198671500Y-59084500D01*
X198671500Y-127139150D01*
X198651815Y-127206189D01*
X198599011Y-127251944D01*
X198529853Y-127261888D01*
X198466297Y-127232863D01*
X198459819Y-127226831D01*
X197831818Y-126598830D01*
X197831813Y-126598825D01*
X197811145Y-126580260D01*
X197790503Y-126563626D01*
X197790498Y-126563623D01*
X197790493Y-126563620D01*
X197700792Y-126516698D01*
X197700787Y-126516695D01*
X197633755Y-126497013D01*
X197633743Y-126497010D01*
X197560639Y-126486500D01*
X197560638Y-126486500D01*
X194976850Y-126486500D01*
X194909811Y-126466815D01*
X194889169Y-126450181D01*
X193589819Y-125150831D01*
X193556334Y-125089508D01*
X193553500Y-125063150D01*
X193553500Y-120192796D01*
X193573185Y-120125757D01*
X193625989Y-120080002D01*
X193695147Y-120070058D01*
X193758703Y-120099083D01*
X193796477Y-120157861D01*
X193801184Y-120183950D01*
X193804835Y-120235004D01*
X193865782Y-120515168D01*
X193865784Y-120515175D01*
X193927997Y-120681975D01*
X193965985Y-120783827D01*
X193965987Y-120783831D01*
X194103396Y-121035477D01*
X194103397Y-121035478D01*
X194103400Y-121035483D01*
X194275231Y-121265021D01*
X194275235Y-121265025D01*
X194275240Y-121265031D01*
X194477968Y-121467759D01*
X194477974Y-121467764D01*
X194477979Y-121467769D01*
X194707517Y-121639600D01*
X194707521Y-121639602D01*
X194707522Y-121639603D01*
X194959168Y-121777012D01*
X194959172Y-121777014D01*
X194959174Y-121777015D01*
X195227825Y-121877216D01*
X195367913Y-121907690D01*
X195507995Y-121938164D01*
X195507997Y-121938164D01*
X195508001Y-121938165D01*
X195762156Y-121956342D01*
X195793999Y-121958620D01*
X195794000Y-121958620D01*
X195794001Y-121958620D01*
X195822653Y-121956570D01*
X196079999Y-121938165D01*
X196360175Y-121877216D01*
X196628826Y-121777015D01*
X196880483Y-121639600D01*
X197110021Y-121467769D01*
X197312769Y-121265021D01*
X197484600Y-121035483D01*
X197622015Y-120783826D01*
X197722216Y-120515175D01*
X197783165Y-120234999D01*
X197803620Y-119949000D01*
X197783165Y-119663001D01*
X197722216Y-119382825D01*
X197622015Y-119114174D01*
X197484600Y-118862517D01*
X197312769Y-118632979D01*
X197312764Y-118632974D01*
X197312759Y-118632968D01*
X197110031Y-118430240D01*
X197110025Y-118430235D01*
X197110021Y-118430231D01*
X196880483Y-118258400D01*
X196880478Y-118258397D01*
X196880477Y-118258396D01*
X196628831Y-118120987D01*
X196628827Y-118120985D01*
X196526975Y-118082997D01*
X196360175Y-118020784D01*
X196360171Y-118020783D01*
X196360168Y-118020782D01*
X196080004Y-117959835D01*
X195794001Y-117939380D01*
X195793999Y-117939380D01*
X195507995Y-117959835D01*
X195227831Y-118020782D01*
X195227826Y-118020783D01*
X195227825Y-118020784D01*
X195162874Y-118045009D01*
X194959172Y-118120985D01*
X194959168Y-118120987D01*
X194707522Y-118258396D01*
X194707521Y-118258397D01*
X194477980Y-118430230D01*
X194477968Y-118430240D01*
X194275240Y-118632968D01*
X194275230Y-118632980D01*
X194103397Y-118862521D01*
X194103396Y-118862522D01*
X193965987Y-119114168D01*
X193965985Y-119114172D01*
X193865782Y-119382831D01*
X193804835Y-119662995D01*
X193801184Y-119714049D01*
X193776767Y-119779514D01*
X193720833Y-119821385D01*
X193651142Y-119826369D01*
X193589819Y-119792884D01*
X193556334Y-119731561D01*
X193553500Y-119705203D01*
X193553500Y-115186008D01*
X193553499Y-115185998D01*
X193547569Y-115130837D01*
X193536363Y-115079326D01*
X193529014Y-115052539D01*
X193529013Y-115052538D01*
X193529013Y-115052536D01*
X193501239Y-115003763D01*
X193478911Y-114964552D01*
X193433156Y-114911748D01*
X193399869Y-114879629D01*
X193310151Y-114832697D01*
X193310150Y-114832696D01*
X193310147Y-114832695D01*
X193243117Y-114813013D01*
X193243105Y-114813010D01*
X193170001Y-114802500D01*
X193170000Y-114802500D01*
X178940000Y-114802500D01*
X178939991Y-114802500D01*
X178884838Y-114808430D01*
X178833316Y-114819639D01*
X178806536Y-114826986D01*
X178718553Y-114877088D01*
X178665751Y-114922840D01*
X178633630Y-114956129D01*
X178586695Y-115045852D01*
X178567013Y-115112882D01*
X178567010Y-115112894D01*
X178556500Y-115185998D01*
X178556500Y-119729150D01*
X178536815Y-119796189D01*
X178520181Y-119816831D01*
X175950831Y-122386181D01*
X175889508Y-122419666D01*
X175863150Y-122422500D01*
X150538609Y-122422500D01*
X150471570Y-122402815D01*
X150459896Y-122394314D01*
X150229568Y-122205094D01*
X150190263Y-122147328D01*
X150184281Y-122109232D01*
X150188044Y-113184642D01*
X150207757Y-113117613D01*
X150260580Y-113071880D01*
X150329743Y-113061966D01*
X150393286Y-113091017D01*
X150395538Y-113093019D01*
X150461538Y-113153186D01*
X150461540Y-113153187D01*
X150461541Y-113153188D01*
X150635569Y-113260942D01*
X150635575Y-113260945D01*
X150676010Y-113276609D01*
X150826444Y-113334888D01*
X151027653Y-113372500D01*
X151027656Y-113372500D01*
X151232344Y-113372500D01*
X151232347Y-113372500D01*
X151433556Y-113334888D01*
X151624427Y-113260944D01*
X151798462Y-113153186D01*
X151949732Y-113015285D01*
X152073088Y-112851935D01*
X152164328Y-112668701D01*
X152220345Y-112471821D01*
X152239232Y-112268000D01*
X152239232Y-112267999D01*
X152560768Y-112267999D01*
X152560768Y-112268000D01*
X152579654Y-112471816D01*
X152635673Y-112668704D01*
X152726912Y-112851935D01*
X152850269Y-113015287D01*
X153001537Y-113153185D01*
X153001539Y-113153187D01*
X153175569Y-113260942D01*
X153175575Y-113260945D01*
X153216010Y-113276609D01*
X153366444Y-113334888D01*
X153567653Y-113372500D01*
X153567656Y-113372500D01*
X153772344Y-113372500D01*
X153772347Y-113372500D01*
X153973556Y-113334888D01*
X154164427Y-113260944D01*
X154338462Y-113153186D01*
X154489732Y-113015285D01*
X154613088Y-112851935D01*
X154704328Y-112668701D01*
X154760345Y-112471821D01*
X154779232Y-112268000D01*
X154779232Y-112267999D01*
X155100768Y-112267999D01*
X155100768Y-112268000D01*
X155119654Y-112471816D01*
X155175673Y-112668704D01*
X155266912Y-112851935D01*
X155390269Y-113015287D01*
X155541537Y-113153185D01*
X155541539Y-113153187D01*
X155715569Y-113260942D01*
X155715575Y-113260945D01*
X155756010Y-113276609D01*
X155906444Y-113334888D01*
X156107653Y-113372500D01*
X156107656Y-113372500D01*
X156312344Y-113372500D01*
X156312347Y-113372500D01*
X156513556Y-113334888D01*
X156704427Y-113260944D01*
X156878462Y-113153186D01*
X157029732Y-113015285D01*
X157153088Y-112851935D01*
X157244328Y-112668701D01*
X157300345Y-112471821D01*
X157319232Y-112268000D01*
X157300345Y-112064179D01*
X157244328Y-111867299D01*
X157153088Y-111684065D01*
X157029732Y-111520715D01*
X157029730Y-111520712D01*
X156878462Y-111382814D01*
X156878460Y-111382812D01*
X156704430Y-111275057D01*
X156704424Y-111275054D01*
X156553993Y-111216777D01*
X156513556Y-111201112D01*
X156312347Y-111163500D01*
X156107653Y-111163500D01*
X155906444Y-111201112D01*
X155906441Y-111201112D01*
X155906441Y-111201113D01*
X155715575Y-111275054D01*
X155715569Y-111275057D01*
X155541539Y-111382812D01*
X155541537Y-111382814D01*
X155390269Y-111520712D01*
X155266912Y-111684064D01*
X155175673Y-111867295D01*
X155119654Y-112064183D01*
X155100768Y-112267999D01*
X154779232Y-112267999D01*
X154760345Y-112064179D01*
X154704328Y-111867299D01*
X154613088Y-111684065D01*
X154489732Y-111520715D01*
X154489730Y-111520712D01*
X154338462Y-111382814D01*
X154338460Y-111382812D01*
X154164430Y-111275057D01*
X154164424Y-111275054D01*
X154013993Y-111216777D01*
X153973556Y-111201112D01*
X153772347Y-111163500D01*
X153567653Y-111163500D01*
X153366444Y-111201112D01*
X153366441Y-111201112D01*
X153366441Y-111201113D01*
X153175575Y-111275054D01*
X153175569Y-111275057D01*
X153001539Y-111382812D01*
X153001537Y-111382814D01*
X152850269Y-111520712D01*
X152726912Y-111684064D01*
X152635673Y-111867295D01*
X152579654Y-112064183D01*
X152560768Y-112267999D01*
X152239232Y-112267999D01*
X152220345Y-112064179D01*
X152164328Y-111867299D01*
X152073088Y-111684065D01*
X151949732Y-111520715D01*
X151949730Y-111520712D01*
X151798462Y-111382814D01*
X151798460Y-111382812D01*
X151624430Y-111275057D01*
X151624424Y-111275054D01*
X151473993Y-111216777D01*
X151433556Y-111201112D01*
X151232347Y-111163500D01*
X151027653Y-111163500D01*
X150826444Y-111201112D01*
X150826441Y-111201112D01*
X150826441Y-111201113D01*
X150635575Y-111275054D01*
X150635569Y-111275057D01*
X150461541Y-111382811D01*
X150396355Y-111442236D01*
X150333550Y-111472852D01*
X150264163Y-111464654D01*
X150210223Y-111420244D01*
X150188856Y-111353722D01*
X150188817Y-111350593D01*
X150189391Y-109989438D01*
X150209104Y-109922409D01*
X150225705Y-109901816D01*
X154178523Y-105949000D01*
X171184848Y-105949000D01*
X171203427Y-106185080D01*
X171258709Y-106415349D01*
X171349335Y-106634141D01*
X171473068Y-106836054D01*
X171473071Y-106836059D01*
X171542786Y-106917685D01*
X171626868Y-107016132D01*
X171742133Y-107114577D01*
X171806940Y-107169928D01*
X171806945Y-107169931D01*
X172008858Y-107293664D01*
X172093470Y-107328711D01*
X172227646Y-107384289D01*
X172457917Y-107439572D01*
X172694000Y-107458152D01*
X172930083Y-107439572D01*
X173160354Y-107384289D01*
X173379141Y-107293664D01*
X173581057Y-107169930D01*
X173761132Y-107016132D01*
X173914930Y-106836057D01*
X174038664Y-106634141D01*
X174129289Y-106415354D01*
X174184572Y-106185083D01*
X174203152Y-105949000D01*
X174184572Y-105712917D01*
X174129289Y-105482646D01*
X174038664Y-105263859D01*
X174038664Y-105263858D01*
X173914931Y-105061945D01*
X173914928Y-105061940D01*
X173859577Y-104997133D01*
X173761132Y-104881868D01*
X173662685Y-104797786D01*
X173581059Y-104728071D01*
X173581054Y-104728068D01*
X173379141Y-104604335D01*
X173160349Y-104513709D01*
X172930079Y-104458427D01*
X172930080Y-104458427D01*
X172694000Y-104439848D01*
X172457919Y-104458427D01*
X172227650Y-104513709D01*
X172008858Y-104604335D01*
X171806945Y-104728068D01*
X171806940Y-104728071D01*
X171626868Y-104881868D01*
X171473071Y-105061940D01*
X171473068Y-105061945D01*
X171349335Y-105263858D01*
X171258709Y-105482650D01*
X171203427Y-105712919D01*
X171184848Y-105949000D01*
X154178523Y-105949000D01*
X154483276Y-105644247D01*
X154533502Y-105557253D01*
X154559501Y-105460225D01*
X154559501Y-105359775D01*
X154559501Y-105352180D01*
X154559500Y-105352162D01*
X154559500Y-102169000D01*
X183294663Y-102169000D01*
X183313992Y-102463901D01*
X183313994Y-102463913D01*
X183371646Y-102753751D01*
X183371651Y-102753771D01*
X183466641Y-103033603D01*
X183466645Y-103033613D01*
X183597357Y-103298670D01*
X183626343Y-103342050D01*
X183761547Y-103544397D01*
X183764567Y-103547841D01*
X183956406Y-103766593D01*
X184120060Y-103910112D01*
X184178603Y-103961453D01*
X184317496Y-104054258D01*
X184424329Y-104125642D01*
X184689386Y-104256354D01*
X184689396Y-104256358D01*
X184969228Y-104351348D01*
X184969232Y-104351349D01*
X184969241Y-104351352D01*
X185259097Y-104409008D01*
X185554000Y-104428337D01*
X185848903Y-104409008D01*
X186138759Y-104351352D01*
X186138771Y-104351348D01*
X186418603Y-104256358D01*
X186418613Y-104256354D01*
X186443291Y-104244184D01*
X186683669Y-104125643D01*
X186929397Y-103961453D01*
X187151593Y-103766593D01*
X187346453Y-103544397D01*
X187510643Y-103298669D01*
X187641355Y-103033611D01*
X187736352Y-102753759D01*
X187794008Y-102463903D01*
X187813337Y-102169000D01*
X187794008Y-101874097D01*
X187736352Y-101584241D01*
X187641355Y-101304389D01*
X187641347Y-101304372D01*
X187510648Y-101039341D01*
X187510635Y-101039319D01*
X187346454Y-100793604D01*
X187151593Y-100571406D01*
X186929398Y-100376548D01*
X186683670Y-100212357D01*
X186418613Y-100081645D01*
X186418603Y-100081641D01*
X186138771Y-99986651D01*
X186138751Y-99986646D01*
X185848913Y-99928994D01*
X185848903Y-99928992D01*
X185554000Y-99909663D01*
X185259097Y-99928992D01*
X185259091Y-99928993D01*
X185259086Y-99928994D01*
X184969248Y-99986646D01*
X184969233Y-99986650D01*
X184689393Y-100081643D01*
X184689372Y-100081652D01*
X184424341Y-100212351D01*
X184424319Y-100212364D01*
X184178604Y-100376545D01*
X183956406Y-100571406D01*
X183761545Y-100793604D01*
X183597364Y-101039319D01*
X183597351Y-101039341D01*
X183466652Y-101304372D01*
X183466643Y-101304393D01*
X183371650Y-101584233D01*
X183371646Y-101584248D01*
X183313994Y-101874086D01*
X183313992Y-101874098D01*
X183294663Y-102169000D01*
X154559500Y-102169000D01*
X154559500Y-89363385D01*
X154579185Y-89296346D01*
X154595819Y-89275704D01*
X157093704Y-86777819D01*
X157155027Y-86744334D01*
X157181385Y-86741500D01*
X182676222Y-86741500D01*
X182676225Y-86741500D01*
X182773254Y-86715501D01*
X182860247Y-86665276D01*
X182931276Y-86594247D01*
X186741276Y-82784247D01*
X186791502Y-82697253D01*
X186817501Y-82600225D01*
X186817501Y-82499775D01*
X186817501Y-82492180D01*
X186817500Y-82492162D01*
X186817500Y-79325034D01*
X186837185Y-79257995D01*
X186889989Y-79212240D01*
X186959147Y-79202296D01*
X187022703Y-79231321D01*
X187038395Y-79249433D01*
X187038664Y-79249201D01*
X187044470Y-79255902D01*
X187044471Y-79255903D01*
X187134765Y-79360109D01*
X187250760Y-79434654D01*
X187250762Y-79434654D01*
X187250763Y-79434655D01*
X187383057Y-79473500D01*
X187383058Y-79473500D01*
X187520942Y-79473500D01*
X187653240Y-79434654D01*
X187769235Y-79360109D01*
X187859529Y-79255903D01*
X187916808Y-79130480D01*
X187936431Y-78994000D01*
X187916808Y-78857520D01*
X187887780Y-78793957D01*
X187859531Y-78732100D01*
X187859529Y-78732098D01*
X187859529Y-78732097D01*
X187769235Y-78627891D01*
X187653240Y-78553346D01*
X187653234Y-78553344D01*
X187651982Y-78552772D01*
X187650938Y-78551867D01*
X187645779Y-78548552D01*
X187646255Y-78547809D01*
X187599181Y-78507014D01*
X187579500Y-78439980D01*
X187579500Y-71837384D01*
X187599185Y-71770345D01*
X187615814Y-71749708D01*
X189006796Y-70358725D01*
X189068117Y-70325242D01*
X189137809Y-70330226D01*
X189193742Y-70372098D01*
X189260594Y-70461403D01*
X189279453Y-70475520D01*
X189376733Y-70548342D01*
X189512658Y-70599040D01*
X189572745Y-70605500D01*
X190919254Y-70605499D01*
X190979342Y-70599040D01*
X191115267Y-70548342D01*
X191231404Y-70461404D01*
X191318342Y-70345267D01*
X191369040Y-70209342D01*
X191373125Y-70171344D01*
X191375499Y-70149271D01*
X191375499Y-70149261D01*
X191375500Y-70149255D01*
X191375499Y-69427746D01*
X191369040Y-69367658D01*
X191318342Y-69231733D01*
X191250125Y-69140604D01*
X191231404Y-69115595D01*
X191154126Y-69057747D01*
X191115267Y-69028658D01*
X190979342Y-68977960D01*
X190979338Y-68977959D01*
X190919262Y-68971500D01*
X189572748Y-68971500D01*
X189572742Y-68971501D01*
X189512655Y-68977960D01*
X189376738Y-69028655D01*
X189376730Y-69028660D01*
X189260595Y-69115595D01*
X189174696Y-69230346D01*
X189173658Y-69231733D01*
X189138372Y-69326336D01*
X189096502Y-69382267D01*
X189031037Y-69406684D01*
X189022192Y-69407000D01*
X188987275Y-69407000D01*
X188890247Y-69432998D01*
X188890244Y-69432999D01*
X188803256Y-69483222D01*
X188803250Y-69483226D01*
X187029181Y-71257296D01*
X186967858Y-71290781D01*
X186898166Y-71285797D01*
X186842233Y-71243925D01*
X186817816Y-71178461D01*
X186817500Y-71169615D01*
X186817500Y-70729499D01*
X186837185Y-70662460D01*
X186889989Y-70616705D01*
X186941500Y-70605499D01*
X187109251Y-70605499D01*
X187109254Y-70605499D01*
X187169342Y-70599040D01*
X187305267Y-70548342D01*
X187421404Y-70461404D01*
X187508342Y-70345267D01*
X187559040Y-70209342D01*
X187563125Y-70171344D01*
X187565499Y-70149271D01*
X187565499Y-70149261D01*
X187565500Y-70149255D01*
X187565499Y-69427746D01*
X187559040Y-69367658D01*
X187508342Y-69231733D01*
X187440125Y-69140604D01*
X187421404Y-69115595D01*
X187344126Y-69057747D01*
X187305267Y-69028658D01*
X187169342Y-68977960D01*
X187169338Y-68977959D01*
X187109262Y-68971500D01*
X185762748Y-68971500D01*
X185762742Y-68971501D01*
X185702655Y-68977960D01*
X185566738Y-69028655D01*
X185566730Y-69028660D01*
X185450595Y-69115595D01*
X185364696Y-69230346D01*
X185363658Y-69231733D01*
X185312960Y-69367658D01*
X185312959Y-69367662D01*
X185306500Y-69427728D01*
X185306500Y-70149251D01*
X185306501Y-70149257D01*
X185312960Y-70209344D01*
X185363655Y-70345261D01*
X185363656Y-70345264D01*
X185363658Y-70345267D01*
X185373734Y-70358727D01*
X185450595Y-70461404D01*
X185469454Y-70475521D01*
X185566733Y-70548342D01*
X185702658Y-70599040D01*
X185762745Y-70605500D01*
X185930500Y-70605499D01*
X185997539Y-70625183D01*
X186043294Y-70677987D01*
X186054500Y-70729499D01*
X186054500Y-71169615D01*
X186034815Y-71236654D01*
X185982011Y-71282409D01*
X185912853Y-71292353D01*
X185849297Y-71263328D01*
X185842819Y-71257296D01*
X184068748Y-69483225D01*
X184068740Y-69483219D01*
X184027308Y-69459299D01*
X184027305Y-69459298D01*
X183981756Y-69433000D01*
X183981755Y-69432999D01*
X183957496Y-69426499D01*
X183884725Y-69407000D01*
X183884722Y-69407000D01*
X183849808Y-69407000D01*
X183782769Y-69387315D01*
X183737014Y-69334511D01*
X183733633Y-69326352D01*
X183698342Y-69231733D01*
X183630125Y-69140604D01*
X183611404Y-69115595D01*
X183534126Y-69057747D01*
X183495267Y-69028658D01*
X183359342Y-68977960D01*
X183359338Y-68977959D01*
X183299262Y-68971500D01*
X181952748Y-68971500D01*
X181952742Y-68971501D01*
X181892659Y-68977959D01*
X181796619Y-69013781D01*
X181726927Y-69018765D01*
X181665604Y-68985280D01*
X181632119Y-68923957D01*
X181637103Y-68854266D01*
X181665600Y-68809922D01*
X181731706Y-68743816D01*
X181793028Y-68710334D01*
X181819385Y-68707500D01*
X192710305Y-68707500D01*
X192777342Y-68727183D01*
X192838760Y-68766654D01*
X192838762Y-68766654D01*
X192838763Y-68766655D01*
X192971057Y-68805500D01*
X192971058Y-68805500D01*
X193108942Y-68805500D01*
X193241240Y-68766654D01*
X193357235Y-68692109D01*
X193447529Y-68587903D01*
X193504808Y-68462480D01*
X193524431Y-68326000D01*
X193504808Y-68189520D01*
X193448986Y-68067287D01*
X193447531Y-68064100D01*
X193447529Y-68064098D01*
X193447529Y-68064097D01*
X193357235Y-67959891D01*
X193241240Y-67885346D01*
X193241238Y-67885345D01*
X193241236Y-67885344D01*
X193108943Y-67846500D01*
X193108942Y-67846500D01*
X192971058Y-67846500D01*
X192971057Y-67846500D01*
X192838763Y-67885344D01*
X192838760Y-67885346D01*
X192777342Y-67924816D01*
X192710305Y-67944500D01*
X181667837Y-67944500D01*
X181667821Y-67944499D01*
X181660225Y-67944499D01*
X181559775Y-67944499D01*
X181462747Y-67970498D01*
X181462745Y-67970498D01*
X181462745Y-67970499D01*
X181375753Y-68020724D01*
X181375750Y-68020726D01*
X180542725Y-68853751D01*
X180542723Y-68853754D01*
X180492499Y-68940745D01*
X180492499Y-68940746D01*
X180466500Y-69037775D01*
X180466500Y-70408225D01*
X180484532Y-70475520D01*
X180492500Y-70505258D01*
X180492501Y-70505259D01*
X180517374Y-70548339D01*
X180517374Y-70548342D01*
X180517376Y-70548342D01*
X180542724Y-70592247D01*
X181375753Y-71425276D01*
X181462747Y-71475502D01*
X181559775Y-71501501D01*
X181559778Y-71501501D01*
X181667821Y-71501501D01*
X181667837Y-71501500D01*
X183686615Y-71501500D01*
X183753654Y-71521185D01*
X183774296Y-71537819D01*
X184494181Y-72257704D01*
X184527666Y-72319027D01*
X184530500Y-72345385D01*
X184530500Y-78530614D01*
X184510815Y-78597653D01*
X184494181Y-78618295D01*
X183604311Y-79508164D01*
X183604312Y-79508165D01*
X183550722Y-79561754D01*
X183500499Y-79648745D01*
X183500499Y-79648746D01*
X183474500Y-79745775D01*
X183474500Y-79745777D01*
X183474500Y-82380615D01*
X183454815Y-82447654D01*
X183438181Y-82468296D01*
X181488296Y-84418181D01*
X181426973Y-84451666D01*
X181400615Y-84454500D01*
X150523446Y-84454500D01*
X150456407Y-84434815D01*
X150410652Y-84382011D01*
X150401206Y-84338593D01*
X150399975Y-84338708D01*
X150379704Y-84119952D01*
X150379703Y-84119949D01*
X150321153Y-83914164D01*
X150321150Y-83914158D01*
X150272678Y-83816812D01*
X150225781Y-83722630D01*
X150096841Y-83551886D01*
X149938722Y-83407742D01*
X149938716Y-83407738D01*
X149938713Y-83407736D01*
X149756813Y-83295108D01*
X149756807Y-83295106D01*
X149733134Y-83285935D01*
X149557297Y-83217815D01*
X149346980Y-83178500D01*
X149133020Y-83178500D01*
X148922703Y-83217815D01*
X148796533Y-83266693D01*
X148723192Y-83295106D01*
X148723186Y-83295108D01*
X148541286Y-83407736D01*
X148541283Y-83407738D01*
X148541279Y-83407740D01*
X148541278Y-83407742D01*
X148492975Y-83451776D01*
X148383158Y-83551887D01*
X148254217Y-83722631D01*
X148174478Y-83882771D01*
X148126975Y-83934009D01*
X148063478Y-83951500D01*
X145416522Y-83951500D01*
X145349483Y-83931815D01*
X145305522Y-83882771D01*
X145225782Y-83722631D01*
X145169878Y-83648603D01*
X145096841Y-83551886D01*
X144938722Y-83407742D01*
X144938716Y-83407738D01*
X144938713Y-83407736D01*
X144756813Y-83295108D01*
X144756807Y-83295106D01*
X144733134Y-83285935D01*
X144557297Y-83217815D01*
X144346980Y-83178500D01*
X144133020Y-83178500D01*
X143922703Y-83217815D01*
X143796533Y-83266693D01*
X143723192Y-83295106D01*
X143723186Y-83295108D01*
X143541286Y-83407736D01*
X143541283Y-83407738D01*
X143541279Y-83407740D01*
X143541278Y-83407742D01*
X143492975Y-83451776D01*
X143383158Y-83551887D01*
X143254219Y-83722629D01*
X143158849Y-83914158D01*
X143158846Y-83914164D01*
X143100296Y-84119949D01*
X143100295Y-84119952D01*
X143080554Y-84332999D01*
X143080554Y-84333000D01*
X143100295Y-84546047D01*
X143100296Y-84546050D01*
X143158846Y-84751835D01*
X143158849Y-84751841D01*
X143200755Y-84835999D01*
X143254219Y-84943370D01*
X143298972Y-85002633D01*
X143310406Y-85017773D01*
X143335098Y-85083134D01*
X143320533Y-85151469D01*
X143271336Y-85201081D01*
X143211452Y-85216500D01*
X124027695Y-85216500D01*
X123960657Y-85196816D01*
X123899240Y-85157346D01*
X123899238Y-85157345D01*
X123899236Y-85157344D01*
X123766943Y-85118500D01*
X123766942Y-85118500D01*
X123629058Y-85118500D01*
X123629057Y-85118500D01*
X123496763Y-85157344D01*
X123380764Y-85231891D01*
X123290471Y-85336097D01*
X123290468Y-85336100D01*
X123233192Y-85461519D01*
X123233191Y-85461521D01*
X123213569Y-85598000D01*
X123233191Y-85734478D01*
X123233192Y-85734480D01*
X123290468Y-85859899D01*
X123290470Y-85859901D01*
X123290471Y-85859903D01*
X123380765Y-85964109D01*
X123496760Y-86038654D01*
X123496762Y-86038654D01*
X123496763Y-86038655D01*
X123629057Y-86077500D01*
X123629058Y-86077500D01*
X123766942Y-86077500D01*
X123899240Y-86038654D01*
X123960657Y-85999183D01*
X124027695Y-85979500D01*
X156513615Y-85979500D01*
X156580654Y-85999185D01*
X156626409Y-86051989D01*
X156636353Y-86121147D01*
X156607328Y-86184703D01*
X156601296Y-86191181D01*
X153872725Y-88919751D01*
X153872723Y-88919754D01*
X153822499Y-89006745D01*
X153822499Y-89006746D01*
X153796500Y-89103775D01*
X153796500Y-89103777D01*
X153796500Y-105200615D01*
X153776815Y-105267654D01*
X153760181Y-105288296D01*
X149616296Y-109432181D01*
X149554973Y-109465666D01*
X149528615Y-109468500D01*
X144896286Y-109468500D01*
X144877872Y-109470482D01*
X144841043Y-109474448D01*
X144789472Y-109485683D01*
X144762600Y-109493068D01*
X144674646Y-109543226D01*
X144621871Y-109589013D01*
X144589772Y-109622320D01*
X144542894Y-109712071D01*
X144523254Y-109779110D01*
X144512785Y-109852242D01*
X144520399Y-122043598D01*
X144500756Y-122110649D01*
X144483782Y-122131653D01*
X140315750Y-126271508D01*
X140296825Y-126292471D01*
X140296810Y-126292489D01*
X140279922Y-126313377D01*
X140279887Y-126313420D01*
X140279629Y-126313738D01*
X140232696Y-126403458D01*
X140232695Y-126403458D01*
X140213013Y-126470490D01*
X140213010Y-126470502D01*
X140202500Y-126543606D01*
X140202500Y-134496008D01*
X140208430Y-134551161D01*
X140219639Y-134602683D01*
X140226986Y-134629463D01*
X140271642Y-134707883D01*
X140277089Y-134717448D01*
X140303557Y-134747994D01*
X140322840Y-134770248D01*
X140322843Y-134770251D01*
X140322844Y-134770252D01*
X140356131Y-134802371D01*
X140445849Y-134849303D01*
X140512888Y-134868988D01*
X140512892Y-134868988D01*
X140512894Y-134868989D01*
X140524707Y-134870687D01*
X140586000Y-134879500D01*
X140586001Y-134879500D01*
X198547500Y-134879500D01*
X198614539Y-134899185D01*
X198660294Y-134951989D01*
X198671500Y-135003500D01*
X198671500Y-142935500D01*
X198651815Y-143002539D01*
X198599011Y-143048294D01*
X198547500Y-143059500D01*
X99696500Y-143059500D01*
X99629461Y-143039815D01*
X99583706Y-142987011D01*
X99572500Y-142935500D01*
X99572500Y-123749360D01*
X104388500Y-123749360D01*
X104388500Y-126256554D01*
X104389984Y-126284258D01*
X104389985Y-126284274D01*
X104389986Y-126284279D01*
X104392307Y-126305878D01*
X104392814Y-126310592D01*
X104393208Y-126314997D01*
X104397696Y-126377762D01*
X104397698Y-126377767D01*
X104410814Y-126561151D01*
X104410814Y-126578843D01*
X104393204Y-126825055D01*
X104392809Y-126829469D01*
X104389990Y-126855674D01*
X104389987Y-126855710D01*
X104388500Y-126883448D01*
X104388500Y-130432008D01*
X104394430Y-130487161D01*
X104405639Y-130538683D01*
X104412986Y-130565463D01*
X104457642Y-130643883D01*
X104463089Y-130653448D01*
X104470386Y-130661869D01*
X104508840Y-130706248D01*
X104508843Y-130706251D01*
X104508844Y-130706252D01*
X104542131Y-130738371D01*
X104631849Y-130785303D01*
X104698888Y-130804988D01*
X104698892Y-130804988D01*
X104698894Y-130804989D01*
X104710707Y-130806687D01*
X104772000Y-130815500D01*
X104772001Y-130815500D01*
X106555991Y-130815500D01*
X106556000Y-130815500D01*
X106611163Y-130809569D01*
X106662674Y-130798363D01*
X106689461Y-130791014D01*
X106777448Y-130740911D01*
X106830252Y-130695156D01*
X106862371Y-130661869D01*
X106909303Y-130572151D01*
X106928988Y-130505112D01*
X106939500Y-130432000D01*
X106939500Y-129540000D01*
X107226640Y-129540000D01*
X107246034Y-129736914D01*
X107303474Y-129926269D01*
X107396744Y-130100764D01*
X107396748Y-130100771D01*
X107522274Y-130253725D01*
X107675228Y-130379251D01*
X107675235Y-130379255D01*
X107849730Y-130472525D01*
X107849732Y-130472525D01*
X107849735Y-130472527D01*
X108039084Y-130529965D01*
X108039083Y-130529965D01*
X108056739Y-130531703D01*
X108236000Y-130549360D01*
X108432916Y-130529965D01*
X108622265Y-130472527D01*
X108796770Y-130379252D01*
X108949725Y-130253725D01*
X109075252Y-130100770D01*
X109092172Y-130069113D01*
X109126642Y-130004627D01*
X109175604Y-129954783D01*
X109243741Y-129939322D01*
X109309421Y-129963153D01*
X109345358Y-130004627D01*
X109396744Y-130100764D01*
X109396748Y-130100771D01*
X109522274Y-130253725D01*
X109675228Y-130379251D01*
X109675235Y-130379255D01*
X109849730Y-130472525D01*
X109849732Y-130472525D01*
X109849735Y-130472527D01*
X110039084Y-130529965D01*
X110039083Y-130529965D01*
X110056739Y-130531703D01*
X110236000Y-130549360D01*
X110432916Y-130529965D01*
X110622265Y-130472527D01*
X110796770Y-130379252D01*
X110949725Y-130253725D01*
X111075252Y-130100770D01*
X111168527Y-129926265D01*
X111225965Y-129736916D01*
X111245360Y-129540000D01*
X111225965Y-129343084D01*
X111168527Y-129153735D01*
X111168525Y-129153732D01*
X111168525Y-129153730D01*
X111075255Y-128979235D01*
X111075251Y-128979228D01*
X110949725Y-128826274D01*
X110796771Y-128700748D01*
X110796764Y-128700744D01*
X110622269Y-128607474D01*
X110527590Y-128578754D01*
X110432916Y-128550035D01*
X110432914Y-128550034D01*
X110432916Y-128550034D01*
X110236000Y-128530640D01*
X110039085Y-128550034D01*
X109849730Y-128607474D01*
X109675235Y-128700744D01*
X109675228Y-128700748D01*
X109522274Y-128826274D01*
X109396748Y-128979228D01*
X109396743Y-128979235D01*
X109345358Y-129075372D01*
X109296396Y-129125217D01*
X109228258Y-129140677D01*
X109162578Y-129116845D01*
X109126642Y-129075372D01*
X109075256Y-128979235D01*
X109075251Y-128979228D01*
X108949725Y-128826274D01*
X108796771Y-128700748D01*
X108796764Y-128700744D01*
X108622269Y-128607474D01*
X108527590Y-128578754D01*
X108432916Y-128550035D01*
X108432914Y-128550034D01*
X108432916Y-128550034D01*
X108236000Y-128530640D01*
X108039085Y-128550034D01*
X107849730Y-128607474D01*
X107675235Y-128700744D01*
X107675228Y-128700748D01*
X107522274Y-128826274D01*
X107396748Y-128979228D01*
X107396744Y-128979235D01*
X107303474Y-129153730D01*
X107246034Y-129343085D01*
X107226640Y-129540000D01*
X106939500Y-129540000D01*
X106939500Y-126920000D01*
X107226640Y-126920000D01*
X107246034Y-127116914D01*
X107303474Y-127306269D01*
X107396744Y-127480764D01*
X107396748Y-127480771D01*
X107522274Y-127633725D01*
X107675228Y-127759251D01*
X107675235Y-127759255D01*
X107849730Y-127852525D01*
X107849732Y-127852525D01*
X107849735Y-127852527D01*
X108039084Y-127909965D01*
X108039083Y-127909965D01*
X108056739Y-127911703D01*
X108236000Y-127929360D01*
X108432916Y-127909965D01*
X108622265Y-127852527D01*
X108796770Y-127759252D01*
X108949725Y-127633725D01*
X109075252Y-127480770D01*
X109097839Y-127438512D01*
X109126642Y-127384627D01*
X109175604Y-127334783D01*
X109243741Y-127319322D01*
X109309421Y-127343153D01*
X109345358Y-127384627D01*
X109396744Y-127480764D01*
X109396748Y-127480771D01*
X109522274Y-127633725D01*
X109675228Y-127759251D01*
X109675235Y-127759255D01*
X109849730Y-127852525D01*
X109849732Y-127852525D01*
X109849735Y-127852527D01*
X110039084Y-127909965D01*
X110039083Y-127909965D01*
X110056739Y-127911703D01*
X110236000Y-127929360D01*
X110432916Y-127909965D01*
X110622265Y-127852527D01*
X110796770Y-127759252D01*
X110949725Y-127633725D01*
X111075252Y-127480770D01*
X111168527Y-127306265D01*
X111225965Y-127116916D01*
X111245360Y-126920000D01*
X111225965Y-126723084D01*
X111168527Y-126533735D01*
X111168525Y-126533732D01*
X111168525Y-126533730D01*
X111075255Y-126359235D01*
X111075251Y-126359228D01*
X110949725Y-126206274D01*
X110796771Y-126080748D01*
X110796764Y-126080744D01*
X110622269Y-125987474D01*
X110527590Y-125958754D01*
X110432916Y-125930035D01*
X110432914Y-125930034D01*
X110432916Y-125930034D01*
X110236000Y-125910640D01*
X110039085Y-125930034D01*
X109849730Y-125987474D01*
X109675235Y-126080744D01*
X109675228Y-126080748D01*
X109522274Y-126206274D01*
X109396748Y-126359228D01*
X109396743Y-126359235D01*
X109345358Y-126455372D01*
X109296396Y-126505217D01*
X109228258Y-126520677D01*
X109162578Y-126496845D01*
X109126642Y-126455372D01*
X109075256Y-126359235D01*
X109075251Y-126359228D01*
X108949725Y-126206274D01*
X108796771Y-126080748D01*
X108796764Y-126080744D01*
X108622269Y-125987474D01*
X108527590Y-125958754D01*
X108432916Y-125930035D01*
X108432914Y-125930034D01*
X108432916Y-125930034D01*
X108236000Y-125910640D01*
X108039085Y-125930034D01*
X107849730Y-125987474D01*
X107675235Y-126080744D01*
X107675228Y-126080748D01*
X107522274Y-126206274D01*
X107396748Y-126359228D01*
X107396744Y-126359235D01*
X107303474Y-126533730D01*
X107246034Y-126723085D01*
X107226640Y-126920000D01*
X106939500Y-126920000D01*
X106939500Y-125888849D01*
X106959185Y-125821810D01*
X106975819Y-125801168D01*
X108021168Y-124755819D01*
X108082491Y-124722334D01*
X108108849Y-124719500D01*
X124809150Y-124719500D01*
X124876189Y-124739185D01*
X124896831Y-124755819D01*
X125688181Y-125547169D01*
X125721666Y-125608492D01*
X125724500Y-125634850D01*
X125724500Y-126072672D01*
X125725986Y-126100394D01*
X125725990Y-126100453D01*
X125728819Y-126126756D01*
X125728823Y-126126789D01*
X125733261Y-126154177D01*
X125733263Y-126154185D01*
X125767795Y-126312929D01*
X125770313Y-126330441D01*
X125786814Y-126561152D01*
X125786814Y-126578844D01*
X125770313Y-126809559D01*
X125767795Y-126827070D01*
X125747784Y-126919063D01*
X125747784Y-126919065D01*
X125733264Y-126985808D01*
X125733261Y-126985824D01*
X125728825Y-127013199D01*
X125728818Y-127013251D01*
X125725990Y-127039545D01*
X125725986Y-127039602D01*
X125724500Y-127067326D01*
X125724500Y-130432008D01*
X125730430Y-130487161D01*
X125741639Y-130538683D01*
X125748986Y-130565463D01*
X125793642Y-130643883D01*
X125799089Y-130653448D01*
X125806386Y-130661869D01*
X125844840Y-130706248D01*
X125844843Y-130706251D01*
X125844844Y-130706252D01*
X125878131Y-130738371D01*
X125967849Y-130785303D01*
X126034888Y-130804988D01*
X126034892Y-130804988D01*
X126034894Y-130804989D01*
X126046707Y-130806687D01*
X126108000Y-130815500D01*
X126108001Y-130815500D01*
X128145991Y-130815500D01*
X128146000Y-130815500D01*
X128201163Y-130809569D01*
X128252674Y-130798363D01*
X128279461Y-130791014D01*
X128367448Y-130740911D01*
X128420252Y-130695156D01*
X128452371Y-130661869D01*
X128499303Y-130572151D01*
X128518988Y-130505112D01*
X128529500Y-130432000D01*
X128529500Y-130140721D01*
X128549185Y-130073682D01*
X128601989Y-130027927D01*
X128671147Y-130017983D01*
X128734703Y-130047008D01*
X128762859Y-130082269D01*
X128772746Y-130100768D01*
X128772748Y-130100771D01*
X128898274Y-130253725D01*
X129051228Y-130379251D01*
X129051235Y-130379255D01*
X129225730Y-130472525D01*
X129225732Y-130472525D01*
X129225735Y-130472527D01*
X129415084Y-130529965D01*
X129415083Y-130529965D01*
X129432739Y-130531703D01*
X129612000Y-130549360D01*
X129808916Y-130529965D01*
X129998265Y-130472527D01*
X130172770Y-130379252D01*
X130325725Y-130253725D01*
X130451252Y-130100770D01*
X130468172Y-130069113D01*
X130502642Y-130004627D01*
X130551604Y-129954783D01*
X130619741Y-129939322D01*
X130685421Y-129963153D01*
X130721358Y-130004627D01*
X130772744Y-130100764D01*
X130772748Y-130100771D01*
X130898274Y-130253725D01*
X131051228Y-130379251D01*
X131051235Y-130379255D01*
X131225730Y-130472525D01*
X131225732Y-130472525D01*
X131225735Y-130472527D01*
X131415084Y-130529965D01*
X131415083Y-130529965D01*
X131432739Y-130531703D01*
X131612000Y-130549360D01*
X131808916Y-130529965D01*
X131998265Y-130472527D01*
X132172770Y-130379252D01*
X132325725Y-130253725D01*
X132451252Y-130100770D01*
X132544527Y-129926265D01*
X132601965Y-129736916D01*
X132621360Y-129540000D01*
X132601965Y-129343084D01*
X132544527Y-129153735D01*
X132544525Y-129153732D01*
X132544525Y-129153730D01*
X132451255Y-128979235D01*
X132451251Y-128979228D01*
X132325725Y-128826274D01*
X132172771Y-128700748D01*
X132172764Y-128700744D01*
X131998269Y-128607474D01*
X131903590Y-128578754D01*
X131808916Y-128550035D01*
X131808914Y-128550034D01*
X131808916Y-128550034D01*
X131612000Y-128530640D01*
X131415085Y-128550034D01*
X131225730Y-128607474D01*
X131051235Y-128700744D01*
X131051228Y-128700748D01*
X130898274Y-128826274D01*
X130772748Y-128979228D01*
X130772743Y-128979235D01*
X130721358Y-129075372D01*
X130672396Y-129125217D01*
X130604258Y-129140677D01*
X130538578Y-129116845D01*
X130502642Y-129075372D01*
X130451256Y-128979235D01*
X130451251Y-128979228D01*
X130325725Y-128826274D01*
X130172771Y-128700748D01*
X130172764Y-128700744D01*
X129998269Y-128607474D01*
X129903590Y-128578754D01*
X129808916Y-128550035D01*
X129808914Y-128550034D01*
X129808916Y-128550034D01*
X129612000Y-128530640D01*
X129415085Y-128550034D01*
X129225730Y-128607474D01*
X129051235Y-128700744D01*
X129051228Y-128700748D01*
X128898274Y-128826274D01*
X128772748Y-128979228D01*
X128772743Y-128979235D01*
X128762858Y-128997731D01*
X128713896Y-129047576D01*
X128645758Y-129063036D01*
X128580078Y-129039204D01*
X128537709Y-128983646D01*
X128529500Y-128939278D01*
X128529500Y-127520721D01*
X128549185Y-127453682D01*
X128601989Y-127407927D01*
X128671147Y-127397983D01*
X128734703Y-127427008D01*
X128762859Y-127462269D01*
X128772746Y-127480768D01*
X128772748Y-127480771D01*
X128898274Y-127633725D01*
X129051228Y-127759251D01*
X129051235Y-127759255D01*
X129225730Y-127852525D01*
X129225732Y-127852525D01*
X129225735Y-127852527D01*
X129415084Y-127909965D01*
X129415083Y-127909965D01*
X129432739Y-127911703D01*
X129612000Y-127929360D01*
X129808916Y-127909965D01*
X129998265Y-127852527D01*
X130172770Y-127759252D01*
X130325725Y-127633725D01*
X130451252Y-127480770D01*
X130473839Y-127438512D01*
X130502642Y-127384627D01*
X130551604Y-127334783D01*
X130619741Y-127319322D01*
X130685421Y-127343153D01*
X130721358Y-127384627D01*
X130772744Y-127480764D01*
X130772748Y-127480771D01*
X130898274Y-127633725D01*
X131051228Y-127759251D01*
X131051235Y-127759255D01*
X131225730Y-127852525D01*
X131225732Y-127852525D01*
X131225735Y-127852527D01*
X131415084Y-127909965D01*
X131415083Y-127909965D01*
X131432739Y-127911703D01*
X131612000Y-127929360D01*
X131808916Y-127909965D01*
X131998265Y-127852527D01*
X132172770Y-127759252D01*
X132325725Y-127633725D01*
X132451252Y-127480770D01*
X132544527Y-127306265D01*
X132601965Y-127116916D01*
X132621360Y-126920000D01*
X132601965Y-126723084D01*
X132544527Y-126533735D01*
X132544525Y-126533732D01*
X132544525Y-126533730D01*
X132451255Y-126359235D01*
X132451251Y-126359228D01*
X132325725Y-126206274D01*
X132172771Y-126080748D01*
X132172764Y-126080744D01*
X131998269Y-125987474D01*
X131903590Y-125958754D01*
X131808916Y-125930035D01*
X131808914Y-125930034D01*
X131808916Y-125930034D01*
X131612000Y-125910640D01*
X131415085Y-125930034D01*
X131225730Y-125987474D01*
X131051235Y-126080744D01*
X131051228Y-126080748D01*
X130898274Y-126206274D01*
X130772748Y-126359228D01*
X130772743Y-126359235D01*
X130721358Y-126455372D01*
X130672396Y-126505217D01*
X130604258Y-126520677D01*
X130538578Y-126496845D01*
X130502642Y-126455372D01*
X130451256Y-126359235D01*
X130451251Y-126359228D01*
X130325725Y-126206274D01*
X130172771Y-126080748D01*
X130172764Y-126080744D01*
X129998269Y-125987474D01*
X129903590Y-125958754D01*
X129808916Y-125930035D01*
X129808914Y-125930034D01*
X129808916Y-125930034D01*
X129612000Y-125910640D01*
X129415085Y-125930034D01*
X129225730Y-125987474D01*
X129051235Y-126080744D01*
X129051228Y-126080748D01*
X128898274Y-126206274D01*
X128772748Y-126359228D01*
X128772743Y-126359235D01*
X128762858Y-126377731D01*
X128713896Y-126427576D01*
X128645758Y-126443036D01*
X128580078Y-126419204D01*
X128537709Y-126363646D01*
X128529500Y-126319278D01*
X128529500Y-124257360D01*
X128529343Y-124254441D01*
X128528013Y-124229621D01*
X128525179Y-124203263D01*
X128494924Y-124106639D01*
X128461439Y-124045316D01*
X128461437Y-124045312D01*
X128417183Y-123986197D01*
X128417178Y-123986192D01*
X128417175Y-123986187D01*
X128417171Y-123986183D01*
X128417165Y-123986176D01*
X125695818Y-121264830D01*
X125695813Y-121264825D01*
X125675145Y-121246260D01*
X125654503Y-121229626D01*
X125654498Y-121229623D01*
X125654493Y-121229620D01*
X125564792Y-121182698D01*
X125564787Y-121182695D01*
X125497755Y-121163013D01*
X125497743Y-121163010D01*
X125424639Y-121152500D01*
X125424638Y-121152500D01*
X119030850Y-121152500D01*
X118963811Y-121132815D01*
X118943169Y-121116181D01*
X117135819Y-119308831D01*
X117102334Y-119247508D01*
X117099500Y-119221150D01*
X117099500Y-111376008D01*
X117099499Y-111375998D01*
X117093569Y-111320837D01*
X117082363Y-111269326D01*
X117075014Y-111242539D01*
X117075013Y-111242538D01*
X117075013Y-111242536D01*
X117030006Y-111163500D01*
X117024911Y-111154552D01*
X116979156Y-111101748D01*
X116945869Y-111069629D01*
X116856151Y-111022697D01*
X116856150Y-111022696D01*
X116856147Y-111022695D01*
X116789117Y-111003013D01*
X116789105Y-111003010D01*
X116716001Y-110992500D01*
X116716000Y-110992500D01*
X107058000Y-110992500D01*
X107057991Y-110992500D01*
X107002838Y-110998430D01*
X106951316Y-111009639D01*
X106924536Y-111016986D01*
X106836553Y-111067088D01*
X106783751Y-111112840D01*
X106751630Y-111146129D01*
X106704695Y-111235852D01*
X106685013Y-111302882D01*
X106685010Y-111302894D01*
X106674500Y-111375998D01*
X106674500Y-121253150D01*
X106654815Y-121320189D01*
X106638181Y-121340831D01*
X104500830Y-123478181D01*
X104482260Y-123498855D01*
X104482246Y-123498871D01*
X104465628Y-123519494D01*
X104465620Y-123519506D01*
X104418698Y-123609207D01*
X104418695Y-123609212D01*
X104399013Y-123676244D01*
X104399010Y-123676256D01*
X104388500Y-123749360D01*
X99572500Y-123749360D01*
X99572500Y-103128999D01*
X143080554Y-103128999D01*
X143080554Y-103129000D01*
X143100295Y-103342047D01*
X143100296Y-103342050D01*
X143158846Y-103547835D01*
X143158849Y-103547840D01*
X143254219Y-103739370D01*
X143383159Y-103910114D01*
X143541278Y-104054258D01*
X143541283Y-104054261D01*
X143541286Y-104054263D01*
X143723186Y-104166891D01*
X143723187Y-104166891D01*
X143723190Y-104166893D01*
X143922703Y-104244185D01*
X144133020Y-104283500D01*
X144133022Y-104283500D01*
X144346978Y-104283500D01*
X144346980Y-104283500D01*
X144557297Y-104244185D01*
X144756810Y-104166893D01*
X144938722Y-104054258D01*
X145096841Y-103910114D01*
X145225781Y-103739370D01*
X145321151Y-103547840D01*
X145321151Y-103547837D01*
X145321153Y-103547835D01*
X145379703Y-103342050D01*
X145379704Y-103342047D01*
X145399446Y-103129000D01*
X145399446Y-103128999D01*
X148080554Y-103128999D01*
X148080554Y-103129000D01*
X148100295Y-103342047D01*
X148100296Y-103342050D01*
X148158846Y-103547835D01*
X148158849Y-103547840D01*
X148254219Y-103739370D01*
X148383159Y-103910114D01*
X148541278Y-104054258D01*
X148541283Y-104054261D01*
X148541286Y-104054263D01*
X148723186Y-104166891D01*
X148723187Y-104166891D01*
X148723190Y-104166893D01*
X148922703Y-104244185D01*
X149133020Y-104283500D01*
X149133022Y-104283500D01*
X149346978Y-104283500D01*
X149346980Y-104283500D01*
X149557297Y-104244185D01*
X149756810Y-104166893D01*
X149938722Y-104054258D01*
X150096841Y-103910114D01*
X150225781Y-103739370D01*
X150321151Y-103547840D01*
X150321151Y-103547837D01*
X150321153Y-103547835D01*
X150379703Y-103342050D01*
X150379704Y-103342047D01*
X150399446Y-103129000D01*
X150399446Y-103128999D01*
X150379704Y-102915952D01*
X150379703Y-102915949D01*
X150321153Y-102710164D01*
X150321150Y-102710158D01*
X150225781Y-102518630D01*
X150096841Y-102347886D01*
X149938722Y-102203742D01*
X149938716Y-102203738D01*
X149938713Y-102203736D01*
X149756813Y-102091108D01*
X149756807Y-102091106D01*
X149557297Y-102013815D01*
X149346980Y-101974500D01*
X149133020Y-101974500D01*
X148922703Y-102013815D01*
X148796533Y-102062693D01*
X148723192Y-102091106D01*
X148723186Y-102091108D01*
X148541286Y-102203736D01*
X148541283Y-102203738D01*
X148541279Y-102203740D01*
X148541278Y-102203742D01*
X148383159Y-102347886D01*
X148383158Y-102347887D01*
X148254219Y-102518629D01*
X148158849Y-102710158D01*
X148158846Y-102710164D01*
X148100296Y-102915949D01*
X148100295Y-102915952D01*
X148080554Y-103128999D01*
X145399446Y-103128999D01*
X145379704Y-102915952D01*
X145379703Y-102915949D01*
X145321153Y-102710164D01*
X145321150Y-102710158D01*
X145225781Y-102518630D01*
X145096841Y-102347886D01*
X144938722Y-102203742D01*
X144938716Y-102203738D01*
X144938713Y-102203736D01*
X144756813Y-102091108D01*
X144756807Y-102091106D01*
X144557297Y-102013815D01*
X144346980Y-101974500D01*
X144133020Y-101974500D01*
X143922703Y-102013815D01*
X143796533Y-102062693D01*
X143723192Y-102091106D01*
X143723186Y-102091108D01*
X143541286Y-102203736D01*
X143541283Y-102203738D01*
X143541279Y-102203740D01*
X143541278Y-102203742D01*
X143383159Y-102347886D01*
X143383158Y-102347887D01*
X143254219Y-102518629D01*
X143158849Y-102710158D01*
X143158846Y-102710164D01*
X143100296Y-102915949D01*
X143100295Y-102915952D01*
X143080554Y-103128999D01*
X99572500Y-103128999D01*
X99572500Y-100330000D01*
X102976518Y-100330000D01*
X102996392Y-100519092D01*
X102996393Y-100519095D01*
X103055144Y-100699913D01*
X103055147Y-100699920D01*
X103150214Y-100864580D01*
X103277438Y-101005877D01*
X103431259Y-101117635D01*
X103604955Y-101194969D01*
X103790933Y-101234500D01*
X103981067Y-101234500D01*
X104167045Y-101194969D01*
X104340741Y-101117635D01*
X104494562Y-101005877D01*
X104621786Y-100864580D01*
X104716853Y-100699920D01*
X104775608Y-100519092D01*
X104795482Y-100330000D01*
X104775608Y-100140908D01*
X104716853Y-99960080D01*
X104621786Y-99795420D01*
X104494562Y-99654123D01*
X104340741Y-99542365D01*
X104167045Y-99465031D01*
X104167043Y-99465030D01*
X103981067Y-99425500D01*
X103790933Y-99425500D01*
X103604957Y-99465030D01*
X103431257Y-99542366D01*
X103277436Y-99654124D01*
X103150213Y-99795421D01*
X103055147Y-99960079D01*
X103055144Y-99960086D01*
X102996393Y-100140904D01*
X102996392Y-100140908D01*
X102976518Y-100330000D01*
X99572500Y-100330000D01*
X99572500Y-99060000D01*
X100436518Y-99060000D01*
X100456392Y-99249092D01*
X100456393Y-99249095D01*
X100515144Y-99429913D01*
X100515147Y-99429920D01*
X100610214Y-99594580D01*
X100737438Y-99735877D01*
X100891259Y-99847635D01*
X101064955Y-99924969D01*
X101250933Y-99964500D01*
X101441067Y-99964500D01*
X101627045Y-99924969D01*
X101800741Y-99847635D01*
X101954562Y-99735877D01*
X102081786Y-99594580D01*
X102176853Y-99429920D01*
X102235608Y-99249092D01*
X102255482Y-99060000D01*
X102235608Y-98870908D01*
X102176853Y-98690080D01*
X102081786Y-98525420D01*
X101954562Y-98384123D01*
X101800741Y-98272365D01*
X101627045Y-98195031D01*
X101627043Y-98195030D01*
X101441067Y-98155500D01*
X101250933Y-98155500D01*
X101064957Y-98195030D01*
X100891257Y-98272366D01*
X100737436Y-98384124D01*
X100610213Y-98525421D01*
X100515147Y-98690079D01*
X100515144Y-98690086D01*
X100474914Y-98813903D01*
X100456392Y-98870908D01*
X100436518Y-99060000D01*
X99572500Y-99060000D01*
X99572500Y-97790000D01*
X102976518Y-97790000D01*
X102996392Y-97979092D01*
X102996393Y-97979095D01*
X103055144Y-98159913D01*
X103055147Y-98159920D01*
X103150214Y-98324580D01*
X103277438Y-98465877D01*
X103431259Y-98577635D01*
X103604955Y-98654969D01*
X103790933Y-98694500D01*
X103981067Y-98694500D01*
X104167045Y-98654969D01*
X104340741Y-98577635D01*
X104376024Y-98552000D01*
X115847569Y-98552000D01*
X115867191Y-98688478D01*
X115867192Y-98688480D01*
X115924468Y-98813899D01*
X115924470Y-98813901D01*
X115924471Y-98813903D01*
X116014765Y-98918109D01*
X116130760Y-98992654D01*
X116130762Y-98992654D01*
X116130763Y-98992655D01*
X116263057Y-99031500D01*
X116263058Y-99031500D01*
X116400942Y-99031500D01*
X116533240Y-98992654D01*
X116649235Y-98918109D01*
X116739529Y-98813903D01*
X116796808Y-98688480D01*
X116816431Y-98552000D01*
X116796808Y-98415520D01*
X116755276Y-98324578D01*
X116739531Y-98290100D01*
X116739529Y-98290098D01*
X116739529Y-98290097D01*
X116649235Y-98185891D01*
X116533240Y-98111346D01*
X116533238Y-98111345D01*
X116533236Y-98111344D01*
X116400943Y-98072500D01*
X116400942Y-98072500D01*
X116263058Y-98072500D01*
X116263057Y-98072500D01*
X116130763Y-98111344D01*
X116014764Y-98185891D01*
X115924471Y-98290097D01*
X115924468Y-98290100D01*
X115867192Y-98415519D01*
X115867191Y-98415521D01*
X115847569Y-98552000D01*
X104376024Y-98552000D01*
X104494562Y-98465877D01*
X104621786Y-98324580D01*
X104716853Y-98159920D01*
X104775608Y-97979092D01*
X104795482Y-97790000D01*
X104775608Y-97600908D01*
X104716853Y-97420080D01*
X104621786Y-97255420D01*
X104494562Y-97114123D01*
X104340741Y-97002365D01*
X104167045Y-96925031D01*
X104167043Y-96925030D01*
X103981067Y-96885500D01*
X103790933Y-96885500D01*
X103604957Y-96925030D01*
X103431257Y-97002366D01*
X103277436Y-97114124D01*
X103150213Y-97255421D01*
X103055147Y-97420079D01*
X103055144Y-97420086D01*
X102996393Y-97600904D01*
X102996392Y-97600908D01*
X102976518Y-97790000D01*
X99572500Y-97790000D01*
X99572500Y-95844928D01*
X100441500Y-95844928D01*
X100441500Y-97195063D01*
X100456266Y-97269301D01*
X100512515Y-97353484D01*
X100546234Y-97376014D01*
X100596699Y-97409734D01*
X100596702Y-97409734D01*
X100596703Y-97409735D01*
X100621666Y-97414700D01*
X100670933Y-97424500D01*
X102021066Y-97424499D01*
X102095301Y-97409734D01*
X102179484Y-97353484D01*
X102235734Y-97269301D01*
X102250500Y-97195067D01*
X102250499Y-95938782D01*
X102270184Y-95871744D01*
X102322987Y-95825989D01*
X102392146Y-95816045D01*
X102455702Y-95845070D01*
X102462180Y-95851102D01*
X102508214Y-95897136D01*
X102508218Y-95897139D01*
X102672079Y-96006628D01*
X102672092Y-96006635D01*
X102854160Y-96082049D01*
X102854165Y-96082051D01*
X102854169Y-96082051D01*
X102854170Y-96082052D01*
X103047456Y-96120500D01*
X103047459Y-96120500D01*
X103244543Y-96120500D01*
X103374582Y-96094632D01*
X103437835Y-96082051D01*
X103619914Y-96006632D01*
X103783782Y-95897139D01*
X103923139Y-95757782D01*
X104032632Y-95593914D01*
X104035614Y-95586716D01*
X104061493Y-95524237D01*
X104108051Y-95411835D01*
X104146500Y-95218541D01*
X104146500Y-95021459D01*
X104146500Y-95021456D01*
X104108052Y-94828170D01*
X104108051Y-94828169D01*
X104108051Y-94828165D01*
X104083499Y-94768891D01*
X104032635Y-94646092D01*
X104032628Y-94646079D01*
X103923139Y-94482218D01*
X103923136Y-94482214D01*
X103783785Y-94342863D01*
X103783781Y-94342860D01*
X103619920Y-94233371D01*
X103619907Y-94233364D01*
X103437839Y-94157950D01*
X103437829Y-94157947D01*
X103244543Y-94119500D01*
X103244541Y-94119500D01*
X103047459Y-94119500D01*
X103047457Y-94119500D01*
X102854170Y-94157947D01*
X102854160Y-94157950D01*
X102672092Y-94233364D01*
X102672079Y-94233371D01*
X102508218Y-94342860D01*
X102508214Y-94342863D01*
X102368863Y-94482214D01*
X102368860Y-94482218D01*
X102259371Y-94646079D01*
X102259364Y-94646092D01*
X102183950Y-94828160D01*
X102183947Y-94828170D01*
X102145500Y-95021456D01*
X102145500Y-95021459D01*
X102145500Y-95218541D01*
X102145500Y-95218543D01*
X102145499Y-95218543D01*
X102183947Y-95411829D01*
X102183949Y-95411834D01*
X102201732Y-95454768D01*
X102209199Y-95524237D01*
X102177924Y-95586716D01*
X102117834Y-95622368D01*
X102062980Y-95623837D01*
X102021067Y-95615500D01*
X102021065Y-95615500D01*
X100670936Y-95615500D01*
X100596698Y-95630266D01*
X100512515Y-95686515D01*
X100456266Y-95770699D01*
X100456264Y-95770703D01*
X100441500Y-95844928D01*
X99572500Y-95844928D01*
X99572500Y-93980000D01*
X111402569Y-93980000D01*
X111422191Y-94116478D01*
X111422192Y-94116480D01*
X111479468Y-94241899D01*
X111479470Y-94241901D01*
X111479471Y-94241903D01*
X111569765Y-94346109D01*
X111685760Y-94420654D01*
X111685762Y-94420654D01*
X111685763Y-94420655D01*
X111818057Y-94459500D01*
X111818058Y-94459500D01*
X111955942Y-94459500D01*
X112088240Y-94420654D01*
X112204235Y-94346109D01*
X112294529Y-94241903D01*
X112298426Y-94233371D01*
X112332869Y-94157950D01*
X112351808Y-94116480D01*
X112371431Y-93980000D01*
X112351808Y-93843520D01*
X112300422Y-93731000D01*
X112294531Y-93718100D01*
X112294529Y-93718098D01*
X112294529Y-93718097D01*
X112204235Y-93613891D01*
X112088240Y-93539346D01*
X112088238Y-93539345D01*
X112088236Y-93539344D01*
X111955943Y-93500500D01*
X111955942Y-93500500D01*
X111818058Y-93500500D01*
X111818057Y-93500500D01*
X111685763Y-93539344D01*
X111569764Y-93613891D01*
X111479471Y-93718097D01*
X111479468Y-93718100D01*
X111422192Y-93843519D01*
X111422191Y-93843521D01*
X111402569Y-93980000D01*
X99572500Y-93980000D01*
X99572500Y-91891228D01*
X116393500Y-91891228D01*
X116393500Y-92512751D01*
X116393501Y-92512757D01*
X116399960Y-92572844D01*
X116450655Y-92708761D01*
X116450656Y-92708764D01*
X116450658Y-92708767D01*
X116479747Y-92747626D01*
X116537595Y-92824904D01*
X116618771Y-92885670D01*
X116660643Y-92941603D01*
X116665629Y-93011295D01*
X116632144Y-93072618D01*
X116618774Y-93084204D01*
X116535812Y-93146310D01*
X116449949Y-93261008D01*
X116449947Y-93261011D01*
X116399881Y-93395244D01*
X116399880Y-93395248D01*
X116399880Y-93395250D01*
X116393500Y-93454591D01*
X116393500Y-93454598D01*
X116393500Y-93454599D01*
X116393500Y-94037406D01*
X116393501Y-94037412D01*
X116399879Y-94096750D01*
X116449947Y-94230988D01*
X116449949Y-94230991D01*
X116535811Y-94345689D01*
X116635954Y-94420655D01*
X116650508Y-94431550D01*
X116650511Y-94431552D01*
X116784745Y-94481618D01*
X116784744Y-94481618D01*
X116784750Y-94481620D01*
X116844091Y-94488000D01*
X117851908Y-94487999D01*
X117911250Y-94481620D01*
X118045491Y-94431551D01*
X118160189Y-94345689D01*
X118246051Y-94230991D01*
X118296120Y-94096750D01*
X118302500Y-94037409D01*
X118302499Y-93454592D01*
X118296120Y-93395250D01*
X118265129Y-93312160D01*
X118246052Y-93261011D01*
X118246050Y-93261008D01*
X118160189Y-93146311D01*
X118160187Y-93146309D01*
X118160186Y-93146308D01*
X118077226Y-93084204D01*
X118035355Y-93028270D01*
X118030371Y-92958579D01*
X118063857Y-92897256D01*
X118077220Y-92885676D01*
X118158404Y-92824904D01*
X118245342Y-92708767D01*
X118296040Y-92572842D01*
X118298800Y-92547164D01*
X118302499Y-92512771D01*
X118302499Y-92512764D01*
X118302500Y-92512755D01*
X118302499Y-91891246D01*
X118302497Y-91891228D01*
X118933500Y-91891228D01*
X118933500Y-92512751D01*
X118933501Y-92512757D01*
X118939960Y-92572844D01*
X118990655Y-92708761D01*
X118990656Y-92708764D01*
X118990658Y-92708767D01*
X119019747Y-92747626D01*
X119077595Y-92824904D01*
X119128269Y-92862837D01*
X119189272Y-92908503D01*
X119231144Y-92964435D01*
X119236130Y-93034127D01*
X119202645Y-93095450D01*
X119189275Y-93107036D01*
X119136812Y-93146310D01*
X119050949Y-93261008D01*
X119050947Y-93261011D01*
X119000881Y-93395244D01*
X119000880Y-93395248D01*
X119000880Y-93395250D01*
X118994500Y-93454591D01*
X118994500Y-93454598D01*
X118994500Y-93454599D01*
X118994500Y-94037406D01*
X118994501Y-94037412D01*
X119000879Y-94096750D01*
X119050947Y-94230988D01*
X119050949Y-94230991D01*
X119136811Y-94345689D01*
X119236954Y-94420655D01*
X119251508Y-94431550D01*
X119251511Y-94431552D01*
X119385745Y-94481618D01*
X119385744Y-94481618D01*
X119385750Y-94481620D01*
X119445091Y-94488000D01*
X120452908Y-94487999D01*
X120512250Y-94481620D01*
X120646491Y-94431551D01*
X120761189Y-94345689D01*
X120847051Y-94230991D01*
X120897120Y-94096750D01*
X120903500Y-94037409D01*
X120903499Y-93730999D01*
X143080554Y-93730999D01*
X143080554Y-93731000D01*
X143100295Y-93944047D01*
X143100296Y-93944050D01*
X143158846Y-94149835D01*
X143158849Y-94149841D01*
X143254219Y-94341370D01*
X143383159Y-94512114D01*
X143541278Y-94656258D01*
X143541283Y-94656261D01*
X143541286Y-94656263D01*
X143723186Y-94768891D01*
X143723187Y-94768891D01*
X143723190Y-94768893D01*
X143922703Y-94846185D01*
X144133020Y-94885500D01*
X144133022Y-94885500D01*
X144346978Y-94885500D01*
X144346980Y-94885500D01*
X144557297Y-94846185D01*
X144756810Y-94768893D01*
X144938722Y-94656258D01*
X145096841Y-94512114D01*
X145225781Y-94341370D01*
X145321151Y-94149840D01*
X145321151Y-94149837D01*
X145321153Y-94149835D01*
X145354679Y-94032000D01*
X145379704Y-93944048D01*
X145399446Y-93731000D01*
X145399446Y-93730999D01*
X148080554Y-93730999D01*
X148080554Y-93731000D01*
X148100295Y-93944047D01*
X148100296Y-93944050D01*
X148158846Y-94149835D01*
X148158849Y-94149841D01*
X148254219Y-94341370D01*
X148383159Y-94512114D01*
X148541278Y-94656258D01*
X148541283Y-94656261D01*
X148541286Y-94656263D01*
X148723186Y-94768891D01*
X148723187Y-94768891D01*
X148723190Y-94768893D01*
X148922703Y-94846185D01*
X149133020Y-94885500D01*
X149133022Y-94885500D01*
X149346978Y-94885500D01*
X149346980Y-94885500D01*
X149557297Y-94846185D01*
X149756810Y-94768893D01*
X149938722Y-94656258D01*
X150096841Y-94512114D01*
X150225781Y-94341370D01*
X150321151Y-94149840D01*
X150321151Y-94149837D01*
X150321153Y-94149835D01*
X150354679Y-94032000D01*
X150379704Y-93944048D01*
X150399446Y-93731000D01*
X150379704Y-93517952D01*
X150371200Y-93488065D01*
X150321153Y-93312164D01*
X150321150Y-93312158D01*
X150295680Y-93261008D01*
X150225781Y-93120630D01*
X150096841Y-92949886D01*
X149938722Y-92805742D01*
X149938716Y-92805738D01*
X149938713Y-92805736D01*
X149756813Y-92693108D01*
X149756807Y-92693106D01*
X149557297Y-92615815D01*
X149346980Y-92576500D01*
X149133020Y-92576500D01*
X148922703Y-92615815D01*
X148796533Y-92664693D01*
X148723192Y-92693106D01*
X148723186Y-92693108D01*
X148541286Y-92805736D01*
X148541283Y-92805738D01*
X148541279Y-92805740D01*
X148541278Y-92805742D01*
X148398669Y-92935747D01*
X148383158Y-92949887D01*
X148254219Y-93120629D01*
X148158849Y-93312158D01*
X148158846Y-93312164D01*
X148100296Y-93517949D01*
X148100295Y-93517952D01*
X148080554Y-93730999D01*
X145399446Y-93730999D01*
X145379704Y-93517952D01*
X145371200Y-93488065D01*
X145321153Y-93312164D01*
X145321150Y-93312158D01*
X145295680Y-93261008D01*
X145225781Y-93120630D01*
X145096841Y-92949886D01*
X144938722Y-92805742D01*
X144938716Y-92805738D01*
X144938713Y-92805736D01*
X144756813Y-92693108D01*
X144756807Y-92693106D01*
X144557297Y-92615815D01*
X144346980Y-92576500D01*
X144133020Y-92576500D01*
X143922703Y-92615815D01*
X143796533Y-92664693D01*
X143723192Y-92693106D01*
X143723186Y-92693108D01*
X143541286Y-92805736D01*
X143541283Y-92805738D01*
X143541279Y-92805740D01*
X143541278Y-92805742D01*
X143398669Y-92935747D01*
X143383158Y-92949887D01*
X143254219Y-93120629D01*
X143158849Y-93312158D01*
X143158846Y-93312164D01*
X143100296Y-93517949D01*
X143100295Y-93517952D01*
X143080554Y-93730999D01*
X120903499Y-93730999D01*
X120903499Y-93454592D01*
X120897120Y-93395250D01*
X120866129Y-93312160D01*
X120847052Y-93261011D01*
X120847050Y-93261008D01*
X120761189Y-93146311D01*
X120662747Y-93072618D01*
X120647726Y-93061373D01*
X120605855Y-93005439D01*
X120600871Y-92935747D01*
X120634356Y-92874424D01*
X120647717Y-92862847D01*
X120698404Y-92824904D01*
X120785342Y-92708767D01*
X120836040Y-92572842D01*
X120838800Y-92547164D01*
X120842499Y-92512771D01*
X120842499Y-92512764D01*
X120842500Y-92512755D01*
X120842499Y-91891246D01*
X120836040Y-91831158D01*
X120785342Y-91695233D01*
X120741707Y-91636943D01*
X120698404Y-91579095D01*
X120621126Y-91521247D01*
X120582267Y-91492158D01*
X120446342Y-91441460D01*
X120446338Y-91441459D01*
X120386262Y-91435000D01*
X119389748Y-91435000D01*
X119389742Y-91435001D01*
X119329655Y-91441460D01*
X119193738Y-91492155D01*
X119193730Y-91492160D01*
X119077595Y-91579095D01*
X118990660Y-91695230D01*
X118990658Y-91695233D01*
X118939960Y-91831158D01*
X118939959Y-91831162D01*
X118933500Y-91891228D01*
X118302497Y-91891228D01*
X118296040Y-91831158D01*
X118245342Y-91695233D01*
X118201707Y-91636943D01*
X118158404Y-91579095D01*
X118081126Y-91521247D01*
X118042267Y-91492158D01*
X117906342Y-91441460D01*
X117906338Y-91441459D01*
X117846262Y-91435000D01*
X116849748Y-91435000D01*
X116849742Y-91435001D01*
X116789655Y-91441460D01*
X116653738Y-91492155D01*
X116653730Y-91492160D01*
X116537595Y-91579095D01*
X116450660Y-91695230D01*
X116450658Y-91695233D01*
X116399960Y-91831158D01*
X116399959Y-91831162D01*
X116393500Y-91891228D01*
X99572500Y-91891228D01*
X99572500Y-90424000D01*
X114831569Y-90424000D01*
X114851191Y-90560478D01*
X114851192Y-90560480D01*
X114908468Y-90685899D01*
X114908470Y-90685901D01*
X114908471Y-90685903D01*
X114998765Y-90790109D01*
X115114760Y-90864654D01*
X115114762Y-90864654D01*
X115114763Y-90864655D01*
X115247057Y-90903500D01*
X115247058Y-90903500D01*
X115384942Y-90903500D01*
X115517240Y-90864654D01*
X115633235Y-90790109D01*
X115633241Y-90790101D01*
X115634764Y-90788784D01*
X115636603Y-90787943D01*
X115640696Y-90785314D01*
X115641074Y-90785902D01*
X115698321Y-90759762D01*
X115715964Y-90758500D01*
X116317841Y-90758500D01*
X116384880Y-90778185D01*
X116430635Y-90830989D01*
X116434022Y-90839165D01*
X116450658Y-90883767D01*
X116465430Y-90903500D01*
X116537595Y-90999904D01*
X116595443Y-91043207D01*
X116653733Y-91086842D01*
X116789658Y-91137540D01*
X116849745Y-91144000D01*
X117846254Y-91143999D01*
X117906342Y-91137540D01*
X118042267Y-91086842D01*
X118158404Y-90999904D01*
X118245342Y-90883767D01*
X118296040Y-90747842D01*
X118298800Y-90722164D01*
X118302499Y-90687771D01*
X118302499Y-90687764D01*
X118302500Y-90687755D01*
X118302499Y-90066246D01*
X118296040Y-90006158D01*
X118287885Y-89984293D01*
X118245344Y-89870238D01*
X118245343Y-89870236D01*
X118245342Y-89870233D01*
X118177436Y-89779520D01*
X118158404Y-89754095D01*
X118081126Y-89696247D01*
X118042267Y-89667158D01*
X117906342Y-89616460D01*
X117906338Y-89616459D01*
X117846262Y-89610000D01*
X116849748Y-89610000D01*
X116849742Y-89610001D01*
X116789655Y-89616460D01*
X116653738Y-89667155D01*
X116653730Y-89667160D01*
X116537595Y-89754095D01*
X116450660Y-89870230D01*
X116450658Y-89870233D01*
X116450657Y-89870236D01*
X116434022Y-89914835D01*
X116392150Y-89970768D01*
X116326686Y-89995184D01*
X116317841Y-89995500D01*
X115570828Y-89995500D01*
X115525790Y-89985702D01*
X115525749Y-89985844D01*
X115523765Y-89985261D01*
X115519313Y-89984293D01*
X115517241Y-89983346D01*
X115517240Y-89983346D01*
X115517238Y-89983345D01*
X115517235Y-89983344D01*
X115384943Y-89944500D01*
X115384942Y-89944500D01*
X115247058Y-89944500D01*
X115247057Y-89944500D01*
X115114763Y-89983344D01*
X114998764Y-90057891D01*
X114908471Y-90162097D01*
X114908468Y-90162100D01*
X114851192Y-90287519D01*
X114851191Y-90287521D01*
X114831569Y-90424000D01*
X99572500Y-90424000D01*
X99572500Y-89916000D01*
X104163569Y-89916000D01*
X104183191Y-90052478D01*
X104183192Y-90052480D01*
X104240468Y-90177899D01*
X104240470Y-90177901D01*
X104240471Y-90177903D01*
X104330765Y-90282109D01*
X104446760Y-90356654D01*
X104446762Y-90356654D01*
X104446763Y-90356655D01*
X104579057Y-90395500D01*
X104579058Y-90395500D01*
X104716942Y-90395500D01*
X104849240Y-90356654D01*
X104965235Y-90282109D01*
X105055529Y-90177903D01*
X105112808Y-90052480D01*
X105132431Y-89916000D01*
X105112808Y-89779520D01*
X105061495Y-89667160D01*
X105055531Y-89654100D01*
X105055529Y-89654098D01*
X105055529Y-89654097D01*
X104965235Y-89549891D01*
X104849240Y-89475346D01*
X104849238Y-89475345D01*
X104849236Y-89475344D01*
X104716943Y-89436500D01*
X104716942Y-89436500D01*
X104579058Y-89436500D01*
X104579057Y-89436500D01*
X104446763Y-89475344D01*
X104330764Y-89549891D01*
X104240471Y-89654097D01*
X104240468Y-89654100D01*
X104183192Y-89779519D01*
X104183191Y-89779521D01*
X104163569Y-89916000D01*
X99572500Y-89916000D01*
X99572500Y-89154000D01*
X113053569Y-89154000D01*
X113073191Y-89290478D01*
X113073192Y-89290480D01*
X113130468Y-89415899D01*
X113130470Y-89415901D01*
X113130471Y-89415903D01*
X113220765Y-89520109D01*
X113336760Y-89594654D01*
X113336762Y-89594654D01*
X113336763Y-89594655D01*
X113469057Y-89633500D01*
X113469058Y-89633500D01*
X113606942Y-89633500D01*
X113739240Y-89594654D01*
X113855235Y-89520109D01*
X113945529Y-89415903D01*
X114002808Y-89290480D01*
X114022431Y-89154000D01*
X118133569Y-89154000D01*
X118153191Y-89290478D01*
X118153192Y-89290480D01*
X118210468Y-89415899D01*
X118210470Y-89415901D01*
X118210471Y-89415903D01*
X118300765Y-89520109D01*
X118416760Y-89594654D01*
X118416761Y-89594654D01*
X118416764Y-89594656D01*
X118531317Y-89628291D01*
X118584064Y-89659587D01*
X118897310Y-89972833D01*
X118930795Y-90034156D01*
X118933113Y-90062925D01*
X118933500Y-90062925D01*
X118933500Y-90687751D01*
X118933501Y-90687757D01*
X118939960Y-90747844D01*
X118990655Y-90883761D01*
X118990656Y-90883764D01*
X118990658Y-90883767D01*
X119005430Y-90903500D01*
X119077595Y-90999904D01*
X119135443Y-91043207D01*
X119193733Y-91086842D01*
X119329658Y-91137540D01*
X119389745Y-91144000D01*
X120386254Y-91143999D01*
X120446342Y-91137540D01*
X120582267Y-91086842D01*
X120698404Y-90999904D01*
X120785342Y-90883767D01*
X120836040Y-90747842D01*
X120838800Y-90722164D01*
X120842499Y-90687771D01*
X120842499Y-90687764D01*
X120842500Y-90687755D01*
X120842499Y-90230999D01*
X143080554Y-90230999D01*
X143080554Y-90231000D01*
X143100295Y-90444047D01*
X143100296Y-90444050D01*
X143158846Y-90649835D01*
X143158849Y-90649841D01*
X143226599Y-90785902D01*
X143254219Y-90841370D01*
X143383159Y-91012114D01*
X143541278Y-91156258D01*
X143541283Y-91156261D01*
X143541286Y-91156263D01*
X143723186Y-91268891D01*
X143723187Y-91268891D01*
X143723190Y-91268893D01*
X143922703Y-91346185D01*
X144133020Y-91385500D01*
X144133022Y-91385500D01*
X144346978Y-91385500D01*
X144346980Y-91385500D01*
X144557297Y-91346185D01*
X144756810Y-91268893D01*
X144938722Y-91156258D01*
X145096841Y-91012114D01*
X145225781Y-90841370D01*
X145321151Y-90649840D01*
X145321151Y-90649837D01*
X145321153Y-90649835D01*
X145379703Y-90444050D01*
X145379704Y-90444047D01*
X145394209Y-90287521D01*
X145399446Y-90231000D01*
X145379704Y-90017952D01*
X145337676Y-89870238D01*
X145321153Y-89812164D01*
X145321150Y-89812158D01*
X145248950Y-89667160D01*
X145225781Y-89620630D01*
X145096841Y-89449886D01*
X144938926Y-89305928D01*
X148085500Y-89305928D01*
X148085500Y-91156063D01*
X148100266Y-91230301D01*
X148156515Y-91314484D01*
X148190234Y-91337014D01*
X148240699Y-91370734D01*
X148240702Y-91370734D01*
X148240703Y-91370735D01*
X148265666Y-91375700D01*
X148314933Y-91385500D01*
X150165066Y-91385499D01*
X150239301Y-91370734D01*
X150323484Y-91314484D01*
X150379734Y-91230301D01*
X150394500Y-91156067D01*
X150394499Y-89305934D01*
X150379734Y-89231699D01*
X150327817Y-89154000D01*
X150323484Y-89147515D01*
X150273019Y-89113796D01*
X150239301Y-89091266D01*
X150239299Y-89091265D01*
X150239296Y-89091264D01*
X150165069Y-89076500D01*
X148314936Y-89076500D01*
X148240698Y-89091266D01*
X148156515Y-89147515D01*
X148100266Y-89231699D01*
X148100264Y-89231703D01*
X148085500Y-89305928D01*
X144938926Y-89305928D01*
X144938722Y-89305742D01*
X144938716Y-89305738D01*
X144938713Y-89305736D01*
X144756813Y-89193108D01*
X144756807Y-89193106D01*
X144557297Y-89115815D01*
X144346980Y-89076500D01*
X144133020Y-89076500D01*
X143922703Y-89115815D01*
X143796533Y-89164693D01*
X143723192Y-89193106D01*
X143723186Y-89193108D01*
X143541286Y-89305736D01*
X143541283Y-89305738D01*
X143541279Y-89305740D01*
X143541278Y-89305742D01*
X143420441Y-89415899D01*
X143383158Y-89449887D01*
X143254219Y-89620629D01*
X143158849Y-89812158D01*
X143158846Y-89812164D01*
X143100296Y-90017949D01*
X143100295Y-90017952D01*
X143080554Y-90230999D01*
X120842499Y-90230999D01*
X120842499Y-90066246D01*
X120836040Y-90006158D01*
X120827885Y-89984293D01*
X120785344Y-89870238D01*
X120785343Y-89870236D01*
X120785342Y-89870233D01*
X120717436Y-89779520D01*
X120698404Y-89754095D01*
X120621126Y-89696247D01*
X120582267Y-89667158D01*
X120446342Y-89616460D01*
X120446338Y-89616459D01*
X120386271Y-89610000D01*
X120386255Y-89610000D01*
X119664885Y-89610000D01*
X119597846Y-89590315D01*
X119577204Y-89573681D01*
X119122362Y-89118839D01*
X119088877Y-89057516D01*
X119087305Y-89048801D01*
X119082808Y-89017523D01*
X119082807Y-89017519D01*
X119082807Y-89017518D01*
X119082807Y-89017516D01*
X119045910Y-88936725D01*
X119025529Y-88892097D01*
X118935235Y-88787891D01*
X118819240Y-88713346D01*
X118819238Y-88713345D01*
X118819236Y-88713344D01*
X118686943Y-88674500D01*
X118686942Y-88674500D01*
X118549058Y-88674500D01*
X118549057Y-88674500D01*
X118416763Y-88713344D01*
X118300764Y-88787891D01*
X118210471Y-88892097D01*
X118210468Y-88892100D01*
X118153192Y-89017519D01*
X118153191Y-89017521D01*
X118133569Y-89154000D01*
X114022431Y-89154000D01*
X114002808Y-89017520D01*
X113958159Y-88919753D01*
X113945531Y-88892100D01*
X113945529Y-88892098D01*
X113945529Y-88892097D01*
X113855235Y-88787891D01*
X113739240Y-88713346D01*
X113739238Y-88713345D01*
X113739236Y-88713344D01*
X113606943Y-88674500D01*
X113606942Y-88674500D01*
X113469058Y-88674500D01*
X113469057Y-88674500D01*
X113336763Y-88713344D01*
X113220764Y-88787891D01*
X113130471Y-88892097D01*
X113130468Y-88892100D01*
X113073192Y-89017519D01*
X113073191Y-89017521D01*
X113053569Y-89154000D01*
X99572500Y-89154000D01*
X99572500Y-88265000D01*
X110005569Y-88265000D01*
X110025191Y-88401478D01*
X110025192Y-88401480D01*
X110082468Y-88526899D01*
X110082470Y-88526901D01*
X110082471Y-88526903D01*
X110172765Y-88631109D01*
X110288760Y-88705654D01*
X110288762Y-88705654D01*
X110288763Y-88705655D01*
X110421057Y-88744500D01*
X110421058Y-88744500D01*
X110558942Y-88744500D01*
X110691240Y-88705654D01*
X110807235Y-88631109D01*
X110897529Y-88526903D01*
X110954808Y-88401480D01*
X110974431Y-88265000D01*
X110954808Y-88128520D01*
X110928283Y-88070439D01*
X110897531Y-88003100D01*
X110897529Y-88003098D01*
X110897529Y-88003097D01*
X110807235Y-87898891D01*
X110691240Y-87824346D01*
X110691238Y-87824345D01*
X110691236Y-87824344D01*
X110558943Y-87785500D01*
X110558942Y-87785500D01*
X110421058Y-87785500D01*
X110421057Y-87785500D01*
X110288763Y-87824344D01*
X110172764Y-87898891D01*
X110082471Y-88003097D01*
X110082468Y-88003100D01*
X110025192Y-88128519D01*
X110025191Y-88128521D01*
X110005569Y-88265000D01*
X99572500Y-88265000D01*
X99572500Y-67319999D01*
X100739768Y-67319999D01*
X100739768Y-67320000D01*
X100758654Y-67523816D01*
X100758654Y-67523818D01*
X100758655Y-67523821D01*
X100803234Y-67680499D01*
X100814673Y-67720704D01*
X100905912Y-67903935D01*
X101029269Y-68067287D01*
X101180537Y-68205185D01*
X101180539Y-68205187D01*
X101354569Y-68312942D01*
X101354575Y-68312945D01*
X101388274Y-68326000D01*
X101545444Y-68386888D01*
X101746653Y-68424500D01*
X101746656Y-68424500D01*
X101951344Y-68424500D01*
X101951347Y-68424500D01*
X102152556Y-68386888D01*
X102343427Y-68312944D01*
X102517462Y-68205186D01*
X102668732Y-68067285D01*
X102792088Y-67903935D01*
X102883328Y-67720701D01*
X102939345Y-67523821D01*
X102958232Y-67320000D01*
X102958232Y-67319999D01*
X103279768Y-67319999D01*
X103279768Y-67320000D01*
X103298654Y-67523816D01*
X103298654Y-67523818D01*
X103298655Y-67523821D01*
X103343234Y-67680499D01*
X103354673Y-67720704D01*
X103445912Y-67903935D01*
X103569269Y-68067287D01*
X103720537Y-68205185D01*
X103720539Y-68205187D01*
X103894569Y-68312942D01*
X103894575Y-68312945D01*
X103928274Y-68326000D01*
X104085444Y-68386888D01*
X104286653Y-68424500D01*
X104286656Y-68424500D01*
X104491344Y-68424500D01*
X104491347Y-68424500D01*
X104692556Y-68386888D01*
X104883427Y-68312944D01*
X105057462Y-68205186D01*
X105208732Y-68067285D01*
X105332088Y-67903935D01*
X105423328Y-67720701D01*
X105479345Y-67523821D01*
X105498232Y-67320000D01*
X105479345Y-67116179D01*
X105423328Y-66919299D01*
X105332088Y-66736065D01*
X105242171Y-66616995D01*
X105208730Y-66572712D01*
X105057462Y-66434814D01*
X105057460Y-66434812D01*
X104883430Y-66327057D01*
X104883424Y-66327054D01*
X104732993Y-66268777D01*
X104692556Y-66253112D01*
X104491347Y-66215500D01*
X104286653Y-66215500D01*
X104085444Y-66253112D01*
X104085441Y-66253112D01*
X104085441Y-66253113D01*
X103894575Y-66327054D01*
X103894569Y-66327057D01*
X103720539Y-66434812D01*
X103720537Y-66434814D01*
X103569269Y-66572712D01*
X103445912Y-66736064D01*
X103354673Y-66919295D01*
X103298654Y-67116183D01*
X103279768Y-67319999D01*
X102958232Y-67319999D01*
X102939345Y-67116179D01*
X102883328Y-66919299D01*
X102792088Y-66736065D01*
X102702171Y-66616995D01*
X102668730Y-66572712D01*
X102517462Y-66434814D01*
X102517460Y-66434812D01*
X102343430Y-66327057D01*
X102343424Y-66327054D01*
X102192993Y-66268777D01*
X102152556Y-66253112D01*
X101951347Y-66215500D01*
X101746653Y-66215500D01*
X101545444Y-66253112D01*
X101545441Y-66253112D01*
X101545441Y-66253113D01*
X101354575Y-66327054D01*
X101354569Y-66327057D01*
X101180539Y-66434812D01*
X101180537Y-66434814D01*
X101029269Y-66572712D01*
X100905912Y-66736064D01*
X100814673Y-66919295D01*
X100758654Y-67116183D01*
X100739768Y-67319999D01*
X99572500Y-67319999D01*
X99572500Y-64779999D01*
X100739768Y-64779999D01*
X100739768Y-64780000D01*
X100758654Y-64983816D01*
X100758654Y-64983818D01*
X100758655Y-64983821D01*
X100814672Y-65180701D01*
X100814673Y-65180704D01*
X100905912Y-65363935D01*
X101029269Y-65527287D01*
X101180537Y-65665185D01*
X101180539Y-65665187D01*
X101354569Y-65772942D01*
X101354575Y-65772945D01*
X101395010Y-65788609D01*
X101545444Y-65846888D01*
X101746653Y-65884500D01*
X101746656Y-65884500D01*
X101951344Y-65884500D01*
X101951347Y-65884500D01*
X102152556Y-65846888D01*
X102343427Y-65772944D01*
X102517462Y-65665186D01*
X102668732Y-65527285D01*
X102792088Y-65363935D01*
X102883328Y-65180701D01*
X102939345Y-64983821D01*
X102958232Y-64780000D01*
X102958232Y-64779999D01*
X103279768Y-64779999D01*
X103279768Y-64780000D01*
X103298654Y-64983816D01*
X103298654Y-64983818D01*
X103298655Y-64983821D01*
X103354672Y-65180701D01*
X103354673Y-65180704D01*
X103445912Y-65363935D01*
X103569269Y-65527287D01*
X103720537Y-65665185D01*
X103720539Y-65665187D01*
X103894569Y-65772942D01*
X103894575Y-65772945D01*
X103935010Y-65788609D01*
X104085444Y-65846888D01*
X104286653Y-65884500D01*
X104286656Y-65884500D01*
X104491344Y-65884500D01*
X104491347Y-65884500D01*
X104692556Y-65846888D01*
X104883427Y-65772944D01*
X105057462Y-65665186D01*
X105208732Y-65527285D01*
X105332088Y-65363935D01*
X105423328Y-65180701D01*
X105479345Y-64983821D01*
X105498232Y-64780000D01*
X105479345Y-64576179D01*
X105423328Y-64379299D01*
X105332088Y-64196065D01*
X105234245Y-64066500D01*
X105208730Y-64032712D01*
X105057462Y-63894814D01*
X105057460Y-63894812D01*
X104883430Y-63787057D01*
X104883424Y-63787054D01*
X104732993Y-63728777D01*
X104692556Y-63713112D01*
X104491347Y-63675500D01*
X104286653Y-63675500D01*
X104085444Y-63713112D01*
X104085441Y-63713112D01*
X104085441Y-63713113D01*
X103894575Y-63787054D01*
X103894569Y-63787057D01*
X103720539Y-63894812D01*
X103720537Y-63894814D01*
X103569269Y-64032712D01*
X103445912Y-64196064D01*
X103354673Y-64379295D01*
X103354672Y-64379299D01*
X103316362Y-64513947D01*
X103298654Y-64576183D01*
X103279768Y-64779999D01*
X102958232Y-64779999D01*
X102939345Y-64576179D01*
X102883328Y-64379299D01*
X102792088Y-64196065D01*
X102694245Y-64066500D01*
X102668730Y-64032712D01*
X102517462Y-63894814D01*
X102517460Y-63894812D01*
X102343430Y-63787057D01*
X102343424Y-63787054D01*
X102192993Y-63728777D01*
X102152556Y-63713112D01*
X101951347Y-63675500D01*
X101746653Y-63675500D01*
X101545444Y-63713112D01*
X101545441Y-63713112D01*
X101545441Y-63713113D01*
X101354575Y-63787054D01*
X101354569Y-63787057D01*
X101180539Y-63894812D01*
X101180537Y-63894814D01*
X101029269Y-64032712D01*
X100905912Y-64196064D01*
X100814673Y-64379295D01*
X100814672Y-64379299D01*
X100776362Y-64513947D01*
X100758654Y-64576183D01*
X100739768Y-64779999D01*
X99572500Y-64779999D01*
X99572500Y-61364928D01*
X100744500Y-61364928D01*
X100744500Y-63115063D01*
X100759266Y-63189301D01*
X100815515Y-63273484D01*
X100849234Y-63296014D01*
X100899699Y-63329734D01*
X100899702Y-63329734D01*
X100899703Y-63329735D01*
X100924666Y-63334700D01*
X100973933Y-63344500D01*
X102724066Y-63344499D01*
X102798301Y-63329734D01*
X102882484Y-63273484D01*
X102938734Y-63189301D01*
X102953500Y-63115067D01*
X102953499Y-62239999D01*
X103279768Y-62239999D01*
X103279768Y-62240000D01*
X103298654Y-62443816D01*
X103298654Y-62443818D01*
X103298655Y-62443821D01*
X103339928Y-62588880D01*
X103354673Y-62640704D01*
X103445912Y-62823935D01*
X103569269Y-62987287D01*
X103720537Y-63125185D01*
X103720539Y-63125187D01*
X103894569Y-63232942D01*
X103894575Y-63232945D01*
X103931013Y-63247061D01*
X104085444Y-63306888D01*
X104286653Y-63344500D01*
X104286656Y-63344500D01*
X104491344Y-63344500D01*
X104491347Y-63344500D01*
X104692556Y-63306888D01*
X104883427Y-63232944D01*
X105057462Y-63125186D01*
X105208732Y-62987285D01*
X105332088Y-62823935D01*
X105423328Y-62640701D01*
X105479345Y-62443821D01*
X105498232Y-62240000D01*
X105479345Y-62036179D01*
X105423328Y-61839299D01*
X105332088Y-61656065D01*
X105208732Y-61492715D01*
X105208730Y-61492712D01*
X105057462Y-61354814D01*
X105057460Y-61354812D01*
X104883430Y-61247057D01*
X104883424Y-61247054D01*
X104694298Y-61173787D01*
X104692556Y-61173112D01*
X104491347Y-61135500D01*
X104286653Y-61135500D01*
X104085444Y-61173112D01*
X104085441Y-61173112D01*
X104085441Y-61173113D01*
X103894575Y-61247054D01*
X103894569Y-61247057D01*
X103720539Y-61354812D01*
X103720537Y-61354814D01*
X103569269Y-61492712D01*
X103445912Y-61656064D01*
X103354673Y-61839295D01*
X103354672Y-61839299D01*
X103304768Y-62014696D01*
X103298654Y-62036183D01*
X103279768Y-62239999D01*
X102953499Y-62239999D01*
X102953499Y-61364934D01*
X102938734Y-61290699D01*
X102909571Y-61247054D01*
X102882484Y-61206515D01*
X102832019Y-61172796D01*
X102798301Y-61150266D01*
X102798299Y-61150265D01*
X102798296Y-61150264D01*
X102724069Y-61135500D01*
X100973936Y-61135500D01*
X100899698Y-61150266D01*
X100815515Y-61206515D01*
X100759266Y-61290699D01*
X100759264Y-61290703D01*
X100744500Y-61364928D01*
X99572500Y-61364928D01*
X99572500Y-59084500D01*
X99592185Y-59017461D01*
X99644989Y-58971706D01*
X99696500Y-58960500D01*
X112813756Y-58960500D01*
X112880795Y-58980185D01*
G37*
G04 #@! TD.AperFunction*
G04 #@! TA.AperFunction,Conductor*
G36*
X184943680Y-79350354D02*
G01*
X184999614Y-79392225D01*
X185013141Y-79415024D01*
X185056471Y-79509903D01*
X185146765Y-79614109D01*
X185262760Y-79688654D01*
X185262762Y-79688654D01*
X185262763Y-79688655D01*
X185395057Y-79727500D01*
X185395058Y-79727500D01*
X185532942Y-79727500D01*
X185665240Y-79688654D01*
X185781235Y-79614109D01*
X185836786Y-79549998D01*
X185895564Y-79512223D01*
X185965433Y-79512222D01*
X186024212Y-79549996D01*
X186053238Y-79613551D01*
X186054500Y-79631200D01*
X186054500Y-82340615D01*
X186034815Y-82407654D01*
X186018185Y-82428291D01*
X185932016Y-82514461D01*
X185853180Y-82593297D01*
X185791857Y-82626781D01*
X185722165Y-82621797D01*
X185666232Y-82579925D01*
X185641815Y-82514461D01*
X185641499Y-82505637D01*
X185641499Y-82104252D01*
X185638621Y-82073549D01*
X185593369Y-81944227D01*
X185539246Y-81870893D01*
X185512010Y-81833989D01*
X185409397Y-81758258D01*
X185401773Y-81752631D01*
X185401771Y-81752630D01*
X185272458Y-81707380D01*
X185272446Y-81707378D01*
X185241753Y-81704500D01*
X184582257Y-81704500D01*
X184566900Y-81705940D01*
X184551549Y-81707379D01*
X184551546Y-81707379D01*
X184551544Y-81707380D01*
X184422228Y-81752630D01*
X184419440Y-81754104D01*
X184416043Y-81754794D01*
X184413456Y-81755700D01*
X184413332Y-81755345D01*
X184350971Y-81768025D01*
X184285845Y-81742719D01*
X184244739Y-81686221D01*
X184237500Y-81644473D01*
X184237500Y-80005384D01*
X184257185Y-79938345D01*
X184273819Y-79917703D01*
X184542777Y-79648745D01*
X184812668Y-79378853D01*
X184873989Y-79345370D01*
X184943680Y-79350354D01*
G37*
G04 #@! TD.AperFunction*
M02*
