G04 #@! TF.GenerationSoftware,KiCad,Pcbnew,8.0.3*
G04 #@! TF.CreationDate,2024-08-23T22:21:50+02:00*
G04 #@! TF.ProjectId,temp_power_management,74656d70-5f70-46f7-9765-725f6d616e61,rev?*
G04 #@! TF.SameCoordinates,Original*
G04 #@! TF.FileFunction,Soldermask,Top*
G04 #@! TF.FilePolarity,Negative*
%FSLAX46Y46*%
G04 Gerber Fmt 4.6, Leading zero omitted, Abs format (unit mm)*
G04 Created by KiCad (PCBNEW 8.0.3) date 2024-08-23 22:21:50*
%MOMM*%
%LPD*%
G01*
G04 APERTURE LIST*
G04 Aperture macros list*
%AMRoundRect*
0 Rectangle with rounded corners*
0 $1 Rounding radius*
0 $2 $3 $4 $5 $6 $7 $8 $9 X,Y pos of 4 corners*
0 Add a 4 corners polygon primitive as box body*
4,1,4,$2,$3,$4,$5,$6,$7,$8,$9,$2,$3,0*
0 Add four circle primitives for the rounded corners*
1,1,$1+$1,$2,$3*
1,1,$1+$1,$4,$5*
1,1,$1+$1,$6,$7*
1,1,$1+$1,$8,$9*
0 Add four rect primitives between the rounded corners*
20,1,$1+$1,$2,$3,$4,$5,0*
20,1,$1+$1,$4,$5,$6,$7,0*
20,1,$1+$1,$6,$7,$8,$9,0*
20,1,$1+$1,$8,$9,$2,$3,0*%
%AMOutline5P*
0 Free polygon, 5 corners , with rotation*
0 The origin of the aperture is its center*
0 number of corners: always 5*
0 $1 to $10 corner X, Y*
0 $11 Rotation angle, in degrees counterclockwise*
0 create outline with 5 corners*
4,1,5,$1,$2,$3,$4,$5,$6,$7,$8,$9,$10,$1,$2,$11*%
%AMOutline6P*
0 Free polygon, 6 corners , with rotation*
0 The origin of the aperture is its center*
0 number of corners: always 6*
0 $1 to $12 corner X, Y*
0 $13 Rotation angle, in degrees counterclockwise*
0 create outline with 6 corners*
4,1,6,$1,$2,$3,$4,$5,$6,$7,$8,$9,$10,$11,$12,$1,$2,$13*%
%AMOutline7P*
0 Free polygon, 7 corners , with rotation*
0 The origin of the aperture is its center*
0 number of corners: always 7*
0 $1 to $14 corner X, Y*
0 $15 Rotation angle, in degrees counterclockwise*
0 create outline with 7 corners*
4,1,7,$1,$2,$3,$4,$5,$6,$7,$8,$9,$10,$11,$12,$13,$14,$1,$2,$15*%
%AMOutline8P*
0 Free polygon, 8 corners , with rotation*
0 The origin of the aperture is its center*
0 number of corners: always 8*
0 $1 to $16 corner X, Y*
0 $17 Rotation angle, in degrees counterclockwise*
0 create outline with 8 corners*
4,1,8,$1,$2,$3,$4,$5,$6,$7,$8,$9,$10,$11,$12,$13,$14,$15,$16,$1,$2,$17*%
%AMFreePoly0*
4,1,19,0.500000,-0.750000,0.000000,-0.750000,0.000000,-0.744911,-0.071157,-0.744911,-0.207708,-0.704816,-0.327430,-0.627875,-0.420627,-0.520320,-0.479746,-0.390866,-0.500000,-0.250000,-0.500000,0.250000,-0.479746,0.390866,-0.420627,0.520320,-0.327430,0.627875,-0.207708,0.704816,-0.071157,0.744911,0.000000,0.744911,0.000000,0.750000,0.500000,0.750000,0.500000,-0.750000,0.500000,-0.750000,
$1*%
%AMFreePoly1*
4,1,19,0.000000,0.744911,0.071157,0.744911,0.207708,0.704816,0.327430,0.627875,0.420627,0.520320,0.479746,0.390866,0.500000,0.250000,0.500000,-0.250000,0.479746,-0.390866,0.420627,-0.520320,0.327430,-0.627875,0.207708,-0.704816,0.071157,-0.744911,0.000000,-0.744911,0.000000,-0.750000,-0.500000,-0.750000,-0.500000,0.750000,0.000000,0.750000,0.000000,0.744911,0.000000,0.744911,
$1*%
%AMFreePoly2*
4,1,18,-0.850000,0.510000,-0.510000,0.850000,0.600000,0.850000,0.695671,0.830970,0.776777,0.776777,0.830970,0.695671,0.850000,0.600000,0.850000,-0.600000,0.830970,-0.695671,0.776777,-0.776777,0.695671,-0.830970,0.600000,-0.850000,-0.600000,-0.850000,-0.695671,-0.830970,-0.776777,-0.776777,-0.830970,-0.695671,-0.850000,-0.600000,-0.850000,0.510000,-0.850000,0.510000,$1*%
G04 Aperture macros list end*
%ADD10C,0.150000*%
%ADD11C,0.800000*%
%ADD12C,6.400000*%
%ADD13RoundRect,0.250000X-0.450000X0.262500X-0.450000X-0.262500X0.450000X-0.262500X0.450000X0.262500X0*%
%ADD14RoundRect,0.243750X0.456250X-0.243750X0.456250X0.243750X-0.456250X0.243750X-0.456250X-0.243750X0*%
%ADD15RoundRect,0.243750X-0.456250X0.243750X-0.456250X-0.243750X0.456250X-0.243750X0.456250X0.243750X0*%
%ADD16R,1.800000X1.800000*%
%ADD17C,1.800000*%
%ADD18C,2.500000*%
%ADD19C,4.000000*%
%ADD20C,3.500000*%
%ADD21R,3.800000X3.800000*%
%ADD22C,3.800000*%
%ADD23C,5.000000*%
%ADD24RoundRect,1.500000X1.500000X-1.500000X1.500000X1.500000X-1.500000X1.500000X-1.500000X-1.500000X0*%
%ADD25C,6.000000*%
%ADD26R,1.500000X1.500000*%
%ADD27C,1.500000*%
%ADD28R,1.700000X1.700000*%
%ADD29O,1.700000X1.700000*%
%ADD30RoundRect,0.250000X-0.625000X0.312500X-0.625000X-0.312500X0.625000X-0.312500X0.625000X0.312500X0*%
%ADD31RoundRect,2.500000X-0.000010X-1.500000X0.000010X-1.500000X0.000010X1.500000X-0.000010X1.500000X0*%
%ADD32RoundRect,2.500000X0.000010X-1.500000X0.000010X1.500000X-0.000010X1.500000X-0.000010X-1.500000X0*%
%ADD33Outline8P,-2.500000X2.750000X-1.250000X4.000000X1.250000X4.000000X2.500000X2.750000X2.500000X-2.750000X1.250000X-4.000000X-1.250000X-4.000000X-2.500000X-2.750000X0.000000*%
%ADD34C,0.700000*%
%ADD35RoundRect,0.250000X0.450000X0.275000X-0.450000X0.275000X-0.450000X-0.275000X0.450000X-0.275000X0*%
%ADD36RoundRect,0.200000X0.275000X-0.200000X0.275000X0.200000X-0.275000X0.200000X-0.275000X-0.200000X0*%
%ADD37R,1.300000X1.300000*%
%ADD38C,1.300000*%
%ADD39FreePoly0,270.000000*%
%ADD40FreePoly1,270.000000*%
%ADD41RoundRect,0.140000X-0.170000X0.140000X-0.170000X-0.140000X0.170000X-0.140000X0.170000X0.140000X0*%
%ADD42FreePoly2,0.000000*%
%ADD43C,1.700000*%
%ADD44RoundRect,0.250000X-0.900000X-0.600000X0.900000X-0.600000X0.900000X0.600000X-0.900000X0.600000X0*%
G04 APERTURE END LIST*
D10*
X123051335Y-95648311D02*
X123051335Y-94648311D01*
X123051335Y-94648311D02*
X123451335Y-94648311D01*
X123451335Y-94648311D02*
X123551335Y-94695930D01*
X123551335Y-94695930D02*
X123601335Y-94743549D01*
X123601335Y-94743549D02*
X123651335Y-94838787D01*
X123651335Y-94838787D02*
X123651335Y-94981644D01*
X123651335Y-94981644D02*
X123601335Y-95076882D01*
X123601335Y-95076882D02*
X123551335Y-95124501D01*
X123551335Y-95124501D02*
X123451335Y-95172120D01*
X123451335Y-95172120D02*
X123051335Y-95172120D01*
X124301335Y-94648311D02*
X124501335Y-94648311D01*
X124501335Y-94648311D02*
X124601335Y-94695930D01*
X124601335Y-94695930D02*
X124701335Y-94791168D01*
X124701335Y-94791168D02*
X124751335Y-94981644D01*
X124751335Y-94981644D02*
X124751335Y-95314977D01*
X124751335Y-95314977D02*
X124701335Y-95505453D01*
X124701335Y-95505453D02*
X124601335Y-95600692D01*
X124601335Y-95600692D02*
X124501335Y-95648311D01*
X124501335Y-95648311D02*
X124301335Y-95648311D01*
X124301335Y-95648311D02*
X124201335Y-95600692D01*
X124201335Y-95600692D02*
X124101335Y-95505453D01*
X124101335Y-95505453D02*
X124051335Y-95314977D01*
X124051335Y-95314977D02*
X124051335Y-94981644D01*
X124051335Y-94981644D02*
X124101335Y-94791168D01*
X124101335Y-94791168D02*
X124201335Y-94695930D01*
X124201335Y-94695930D02*
X124301335Y-94648311D01*
X125101335Y-94648311D02*
X125351335Y-95648311D01*
X125351335Y-95648311D02*
X125551335Y-94934025D01*
X125551335Y-94934025D02*
X125751335Y-95648311D01*
X125751335Y-95648311D02*
X126001335Y-94648311D01*
X126401335Y-95124501D02*
X126751335Y-95124501D01*
X126901335Y-95648311D02*
X126401335Y-95648311D01*
X126401335Y-95648311D02*
X126401335Y-94648311D01*
X126401335Y-94648311D02*
X126901335Y-94648311D01*
X127951335Y-95648311D02*
X127601335Y-95172120D01*
X127351335Y-95648311D02*
X127351335Y-94648311D01*
X127351335Y-94648311D02*
X127751335Y-94648311D01*
X127751335Y-94648311D02*
X127851335Y-94695930D01*
X127851335Y-94695930D02*
X127901335Y-94743549D01*
X127901335Y-94743549D02*
X127951335Y-94838787D01*
X127951335Y-94838787D02*
X127951335Y-94981644D01*
X127951335Y-94981644D02*
X127901335Y-95076882D01*
X127901335Y-95076882D02*
X127851335Y-95124501D01*
X127851335Y-95124501D02*
X127751335Y-95172120D01*
X127751335Y-95172120D02*
X127351335Y-95172120D01*
X129201335Y-95648311D02*
X129201335Y-94648311D01*
X129201335Y-94648311D02*
X129551335Y-95362596D01*
X129551335Y-95362596D02*
X129901335Y-94648311D01*
X129901335Y-94648311D02*
X129901335Y-95648311D01*
X130951335Y-94695930D02*
X130851335Y-94648311D01*
X130851335Y-94648311D02*
X130701335Y-94648311D01*
X130701335Y-94648311D02*
X130551335Y-94695930D01*
X130551335Y-94695930D02*
X130451335Y-94791168D01*
X130451335Y-94791168D02*
X130401335Y-94886406D01*
X130401335Y-94886406D02*
X130351335Y-95076882D01*
X130351335Y-95076882D02*
X130351335Y-95219739D01*
X130351335Y-95219739D02*
X130401335Y-95410215D01*
X130401335Y-95410215D02*
X130451335Y-95505453D01*
X130451335Y-95505453D02*
X130551335Y-95600692D01*
X130551335Y-95600692D02*
X130701335Y-95648311D01*
X130701335Y-95648311D02*
X130801335Y-95648311D01*
X130801335Y-95648311D02*
X130951335Y-95600692D01*
X130951335Y-95600692D02*
X131001335Y-95553072D01*
X131001335Y-95553072D02*
X131001335Y-95219739D01*
X131001335Y-95219739D02*
X130801335Y-95219739D01*
X131451335Y-95648311D02*
X131451335Y-94648311D01*
X131451335Y-94648311D02*
X131801335Y-95362596D01*
X131801335Y-95362596D02*
X132151335Y-94648311D01*
X132151335Y-94648311D02*
X132151335Y-95648311D01*
X132501335Y-94648311D02*
X133101335Y-94648311D01*
X132801335Y-95648311D02*
X132801335Y-94648311D01*
X134601335Y-95124501D02*
X134751335Y-95172120D01*
X134751335Y-95172120D02*
X134801335Y-95219739D01*
X134801335Y-95219739D02*
X134851335Y-95314977D01*
X134851335Y-95314977D02*
X134851335Y-95457834D01*
X134851335Y-95457834D02*
X134801335Y-95553072D01*
X134801335Y-95553072D02*
X134751335Y-95600692D01*
X134751335Y-95600692D02*
X134651335Y-95648311D01*
X134651335Y-95648311D02*
X134251335Y-95648311D01*
X134251335Y-95648311D02*
X134251335Y-94648311D01*
X134251335Y-94648311D02*
X134601335Y-94648311D01*
X134601335Y-94648311D02*
X134701335Y-94695930D01*
X134701335Y-94695930D02*
X134751335Y-94743549D01*
X134751335Y-94743549D02*
X134801335Y-94838787D01*
X134801335Y-94838787D02*
X134801335Y-94934025D01*
X134801335Y-94934025D02*
X134751335Y-95029263D01*
X134751335Y-95029263D02*
X134701335Y-95076882D01*
X134701335Y-95076882D02*
X134601335Y-95124501D01*
X134601335Y-95124501D02*
X134251335Y-95124501D01*
X135501335Y-94648311D02*
X135701335Y-94648311D01*
X135701335Y-94648311D02*
X135801335Y-94695930D01*
X135801335Y-94695930D02*
X135901335Y-94791168D01*
X135901335Y-94791168D02*
X135951335Y-94981644D01*
X135951335Y-94981644D02*
X135951335Y-95314977D01*
X135951335Y-95314977D02*
X135901335Y-95505453D01*
X135901335Y-95505453D02*
X135801335Y-95600692D01*
X135801335Y-95600692D02*
X135701335Y-95648311D01*
X135701335Y-95648311D02*
X135501335Y-95648311D01*
X135501335Y-95648311D02*
X135401335Y-95600692D01*
X135401335Y-95600692D02*
X135301335Y-95505453D01*
X135301335Y-95505453D02*
X135251335Y-95314977D01*
X135251335Y-95314977D02*
X135251335Y-94981644D01*
X135251335Y-94981644D02*
X135301335Y-94791168D01*
X135301335Y-94791168D02*
X135401335Y-94695930D01*
X135401335Y-94695930D02*
X135501335Y-94648311D01*
X136351335Y-95362596D02*
X136851335Y-95362596D01*
X136251335Y-95648311D02*
X136601335Y-94648311D01*
X136601335Y-94648311D02*
X136951335Y-95648311D01*
X137901335Y-95648311D02*
X137551335Y-95172120D01*
X137301335Y-95648311D02*
X137301335Y-94648311D01*
X137301335Y-94648311D02*
X137701335Y-94648311D01*
X137701335Y-94648311D02*
X137801335Y-94695930D01*
X137801335Y-94695930D02*
X137851335Y-94743549D01*
X137851335Y-94743549D02*
X137901335Y-94838787D01*
X137901335Y-94838787D02*
X137901335Y-94981644D01*
X137901335Y-94981644D02*
X137851335Y-95076882D01*
X137851335Y-95076882D02*
X137801335Y-95124501D01*
X137801335Y-95124501D02*
X137701335Y-95172120D01*
X137701335Y-95172120D02*
X137301335Y-95172120D01*
X138351335Y-95648311D02*
X138351335Y-94648311D01*
X138351335Y-94648311D02*
X138601335Y-94648311D01*
X138601335Y-94648311D02*
X138751335Y-94695930D01*
X138751335Y-94695930D02*
X138851335Y-94791168D01*
X138851335Y-94791168D02*
X138901335Y-94886406D01*
X138901335Y-94886406D02*
X138951335Y-95076882D01*
X138951335Y-95076882D02*
X138951335Y-95219739D01*
X138951335Y-95219739D02*
X138901335Y-95410215D01*
X138901335Y-95410215D02*
X138851335Y-95505453D01*
X138851335Y-95505453D02*
X138751335Y-95600692D01*
X138751335Y-95600692D02*
X138601335Y-95648311D01*
X138601335Y-95648311D02*
X138351335Y-95648311D01*
D11*
X192672000Y-73152000D03*
X193374944Y-71454944D03*
X193374944Y-74849056D03*
X195072000Y-70752000D03*
D12*
X195072000Y-73152000D03*
D11*
X195072000Y-75552000D03*
X196769056Y-71454944D03*
X196769056Y-74849056D03*
X197472000Y-73152000D03*
D13*
X119888000Y-90377000D03*
X119888000Y-92202000D03*
X117348000Y-90377000D03*
X117348000Y-92202000D03*
D14*
X119949000Y-95621000D03*
X119949000Y-93746000D03*
X117348000Y-95621000D03*
X117348000Y-93746000D03*
D15*
X119634000Y-63911000D03*
X119634000Y-65786000D03*
D16*
X149240000Y-80833000D03*
D17*
X144240000Y-80833000D03*
X149240000Y-84333000D03*
X144240000Y-84333000D03*
D18*
X172694000Y-105949000D03*
X172694000Y-116149000D03*
D19*
X188094000Y-119949000D03*
D20*
X195794000Y-119949000D03*
D19*
X185554000Y-102169000D03*
D15*
X186436000Y-63324500D03*
X186436000Y-65199500D03*
X190246000Y-63324500D03*
X190246000Y-65199500D03*
D21*
X128858000Y-81280000D03*
D22*
X133858000Y-81280000D03*
D23*
X147754000Y-63754000D03*
X170254000Y-63754000D03*
D24*
X145415000Y-138430000D03*
D25*
X145415000Y-131230000D03*
D16*
X149240000Y-90231000D03*
D17*
X144240000Y-90231000D03*
X149240000Y-93731000D03*
X144240000Y-93731000D03*
D26*
X105736000Y-129540000D03*
D27*
X108236000Y-129540000D03*
X110236000Y-129540000D03*
X112736000Y-129540000D03*
X105736000Y-126920000D03*
X108236000Y-126920000D03*
X110236000Y-126920000D03*
X112736000Y-126920000D03*
D20*
X102666000Y-132250000D03*
X115806000Y-132250000D03*
X102666000Y-126570000D03*
X115806000Y-126570000D03*
D28*
X101849000Y-62240000D03*
D29*
X104389000Y-62240000D03*
X101849000Y-64780000D03*
X104389000Y-64780000D03*
X101849000Y-67320000D03*
X104389000Y-67320000D03*
X101849000Y-69860000D03*
X104389000Y-69860000D03*
D24*
X174498000Y-138474000D03*
D25*
X174498000Y-131274000D03*
D24*
X194056000Y-138518000D03*
D25*
X194056000Y-131318000D03*
D30*
X190246000Y-66863500D03*
X190246000Y-69788500D03*
D24*
X184150000Y-138430000D03*
D25*
X184150000Y-131230000D03*
D31*
X139358000Y-73406000D03*
D32*
X133858000Y-73406000D03*
D33*
X128358000Y-73406000D03*
D26*
X127112000Y-129540000D03*
D27*
X129612000Y-129540000D03*
X131612000Y-129540000D03*
X134112000Y-129540000D03*
X127112000Y-126920000D03*
X129612000Y-126920000D03*
X131612000Y-126920000D03*
X134112000Y-126920000D03*
D20*
X124042000Y-132250000D03*
X137182000Y-132250000D03*
X124042000Y-126570000D03*
X137182000Y-126570000D03*
D33*
X128358000Y-63754000D03*
D32*
X133858000Y-63754000D03*
D31*
X139358000Y-63754000D03*
D34*
X115570000Y-61352000D03*
X115570000Y-59552000D03*
D35*
X117370000Y-61172000D03*
X113770000Y-61172000D03*
X117370000Y-59732000D03*
X113770000Y-59732000D03*
D36*
X184912000Y-82359000D03*
X184912000Y-80709000D03*
D24*
X164846000Y-138430000D03*
D25*
X164846000Y-131230000D03*
D30*
X186436000Y-66863500D03*
X186436000Y-69788500D03*
D15*
X182626000Y-63324500D03*
X182626000Y-65199500D03*
D27*
X103146000Y-95120000D03*
D37*
X101346000Y-96520000D03*
D38*
X103886000Y-97790000D03*
X101346000Y-99060000D03*
X103886000Y-100330000D03*
D39*
X110236000Y-61326000D03*
D40*
X110236000Y-62626000D03*
D16*
X149240000Y-99629000D03*
D17*
X144240000Y-99629000D03*
X149240000Y-103129000D03*
X144240000Y-103129000D03*
D25*
X155194000Y-131230000D03*
D24*
X155194000Y-138430000D03*
D30*
X182626000Y-66863500D03*
X182626000Y-69788500D03*
D41*
X112268000Y-60226000D03*
X112268000Y-61186000D03*
D42*
X102616000Y-86702000D03*
D43*
X102616000Y-84702000D03*
X102616000Y-82702000D03*
D44*
X102616000Y-80702000D03*
X102616000Y-88702000D03*
D28*
X107950000Y-112268000D03*
D43*
X110490000Y-112268000D03*
X113030000Y-112268000D03*
X115570000Y-112268000D03*
X118110000Y-112268000D03*
X120650000Y-112268000D03*
X140970000Y-112268000D03*
X143510000Y-112268000D03*
X146050000Y-112268000D03*
X148590000Y-112268000D03*
X151130000Y-112268000D03*
X153670000Y-112268000D03*
X156210000Y-112268000D03*
D15*
X121920000Y-63911000D03*
X121920000Y-65786000D03*
M02*
