G04 #@! TF.GenerationSoftware,KiCad,Pcbnew,8.0.3*
G04 #@! TF.CreationDate,2024-08-23T22:21:50+02:00*
G04 #@! TF.ProjectId,temp_power_management,74656d70-5f70-46f7-9765-725f6d616e61,rev?*
G04 #@! TF.SameCoordinates,Original*
G04 #@! TF.FileFunction,Paste,Bot*
G04 #@! TF.FilePolarity,Positive*
%FSLAX46Y46*%
G04 Gerber Fmt 4.6, Leading zero omitted, Abs format (unit mm)*
G04 Created by KiCad (PCBNEW 8.0.3) date 2024-08-23 22:21:50*
%MOMM*%
%LPD*%
G01*
G04 APERTURE LIST*
G04 Aperture macros list*
%AMRoundRect*
0 Rectangle with rounded corners*
0 $1 Rounding radius*
0 $2 $3 $4 $5 $6 $7 $8 $9 X,Y pos of 4 corners*
0 Add a 4 corners polygon primitive as box body*
4,1,4,$2,$3,$4,$5,$6,$7,$8,$9,$2,$3,0*
0 Add four circle primitives for the rounded corners*
1,1,$1+$1,$2,$3*
1,1,$1+$1,$4,$5*
1,1,$1+$1,$6,$7*
1,1,$1+$1,$8,$9*
0 Add four rect primitives between the rounded corners*
20,1,$1+$1,$2,$3,$4,$5,0*
20,1,$1+$1,$4,$5,$6,$7,0*
20,1,$1+$1,$6,$7,$8,$9,0*
20,1,$1+$1,$8,$9,$2,$3,0*%
G04 Aperture macros list end*
%ADD10RoundRect,0.160000X-0.197500X-0.160000X0.197500X-0.160000X0.197500X0.160000X-0.197500X0.160000X0*%
%ADD11RoundRect,0.135000X-0.185000X0.135000X-0.185000X-0.135000X0.185000X-0.135000X0.185000X0.135000X0*%
%ADD12RoundRect,0.135000X-0.135000X-0.185000X0.135000X-0.185000X0.135000X0.185000X-0.135000X0.185000X0*%
%ADD13RoundRect,0.135000X0.135000X0.185000X-0.135000X0.185000X-0.135000X-0.185000X0.135000X-0.185000X0*%
%ADD14RoundRect,0.250000X0.450000X-0.262500X0.450000X0.262500X-0.450000X0.262500X-0.450000X-0.262500X0*%
%ADD15RoundRect,0.150000X0.150000X-0.587500X0.150000X0.587500X-0.150000X0.587500X-0.150000X-0.587500X0*%
%ADD16RoundRect,0.150000X0.200000X-0.150000X0.200000X0.150000X-0.200000X0.150000X-0.200000X-0.150000X0*%
%ADD17RoundRect,0.250000X0.250000X0.475000X-0.250000X0.475000X-0.250000X-0.475000X0.250000X-0.475000X0*%
%ADD18RoundRect,0.250000X-0.450000X0.262500X-0.450000X-0.262500X0.450000X-0.262500X0.450000X0.262500X0*%
%ADD19RoundRect,0.250000X-2.050000X-0.300000X2.050000X-0.300000X2.050000X0.300000X-2.050000X0.300000X0*%
%ADD20RoundRect,0.250000X-2.025000X-2.375000X2.025000X-2.375000X2.025000X2.375000X-2.025000X2.375000X0*%
%ADD21RoundRect,0.135000X0.185000X-0.135000X0.185000X0.135000X-0.185000X0.135000X-0.185000X-0.135000X0*%
%ADD22RoundRect,0.140000X-0.140000X-0.170000X0.140000X-0.170000X0.140000X0.170000X-0.140000X0.170000X0*%
%ADD23RoundRect,0.250000X1.450000X-0.312500X1.450000X0.312500X-1.450000X0.312500X-1.450000X-0.312500X0*%
%ADD24RoundRect,0.140000X0.170000X-0.140000X0.170000X0.140000X-0.170000X0.140000X-0.170000X-0.140000X0*%
%ADD25RoundRect,0.140000X-0.170000X0.140000X-0.170000X-0.140000X0.170000X-0.140000X0.170000X0.140000X0*%
%ADD26RoundRect,0.140000X0.140000X0.170000X-0.140000X0.170000X-0.140000X-0.170000X0.140000X-0.170000X0*%
%ADD27R,0.510000X0.700000*%
%ADD28RoundRect,0.250000X-0.250000X-0.475000X0.250000X-0.475000X0.250000X0.475000X-0.250000X0.475000X0*%
%ADD29RoundRect,0.250000X0.800000X-0.450000X0.800000X0.450000X-0.800000X0.450000X-0.800000X-0.450000X0*%
%ADD30RoundRect,0.150000X0.825000X0.150000X-0.825000X0.150000X-0.825000X-0.150000X0.825000X-0.150000X0*%
%ADD31RoundRect,0.250000X0.450000X0.800000X-0.450000X0.800000X-0.450000X-0.800000X0.450000X-0.800000X0*%
%ADD32RoundRect,0.250000X2.050000X0.300000X-2.050000X0.300000X-2.050000X-0.300000X2.050000X-0.300000X0*%
%ADD33RoundRect,0.250000X2.025000X2.375000X-2.025000X2.375000X-2.025000X-2.375000X2.025000X-2.375000X0*%
%ADD34RoundRect,0.250000X-0.312500X-0.625000X0.312500X-0.625000X0.312500X0.625000X-0.312500X0.625000X0*%
%ADD35RoundRect,0.075000X-0.075000X0.662500X-0.075000X-0.662500X0.075000X-0.662500X0.075000X0.662500X0*%
%ADD36RoundRect,0.075000X-0.662500X0.075000X-0.662500X-0.075000X0.662500X-0.075000X0.662500X0.075000X0*%
G04 APERTURE END LIST*
D10*
X116586000Y-67818000D03*
X117781000Y-67818000D03*
D11*
X181102000Y-73910000D03*
X181102000Y-74930000D03*
D12*
X121408000Y-71628000D03*
X122428000Y-71628000D03*
D13*
X122426000Y-70612000D03*
X121406000Y-70612000D03*
X105920000Y-88138000D03*
X104900000Y-88138000D03*
D12*
X104900000Y-89154000D03*
X105920000Y-89154000D03*
D14*
X119634000Y-67611000D03*
X119634000Y-65786000D03*
X121920000Y-67564000D03*
X121920000Y-65739000D03*
D15*
X194498000Y-65199500D03*
X192598000Y-65199500D03*
X193548000Y-63324500D03*
D12*
X103122000Y-78008000D03*
X104142000Y-78008000D03*
D14*
X104902000Y-84478500D03*
X104902000Y-82653500D03*
D16*
X119380000Y-82804000D03*
X119380000Y-84204000D03*
D17*
X117602000Y-69342000D03*
X115702000Y-69342000D03*
D12*
X103120000Y-71912000D03*
X104140000Y-71912000D03*
D18*
X178925000Y-90678000D03*
X178925000Y-92503000D03*
D19*
X182735000Y-93726000D03*
D20*
X189460000Y-93961000D03*
X189460000Y-88411000D03*
X194310000Y-93961000D03*
X194310000Y-88411000D03*
D19*
X182735000Y-88646000D03*
D21*
X122682000Y-83822000D03*
X122682000Y-82802000D03*
D22*
X112550000Y-81534000D03*
X113510000Y-81534000D03*
D23*
X170434000Y-108860500D03*
X170434000Y-113135500D03*
D17*
X110424000Y-81534000D03*
X108524000Y-81534000D03*
D24*
X121666000Y-78712000D03*
X121666000Y-77752000D03*
D16*
X121412000Y-82804000D03*
X121412000Y-84204000D03*
D25*
X114046000Y-90706000D03*
X114046000Y-91666000D03*
D11*
X122682000Y-74420000D03*
X122682000Y-75440000D03*
X115570000Y-108966000D03*
X115570000Y-109986000D03*
D18*
X107188000Y-96266000D03*
X107188000Y-98091000D03*
D26*
X110970000Y-71882000D03*
X110010000Y-71882000D03*
D27*
X110424000Y-85488000D03*
X109474000Y-85488000D03*
X108524000Y-85488000D03*
X108524000Y-83168000D03*
X110424000Y-83168000D03*
D13*
X194564000Y-67818000D03*
X193544000Y-67818000D03*
D12*
X193544000Y-66802000D03*
X194564000Y-66802000D03*
D17*
X110490000Y-87122000D03*
X108590000Y-87122000D03*
D28*
X112268000Y-83058000D03*
X114168000Y-83058000D03*
D29*
X179070000Y-78060000D03*
X179070000Y-73660000D03*
D30*
X114489000Y-95250000D03*
X114489000Y-96520000D03*
X114489000Y-97790000D03*
X114489000Y-99060000D03*
X109539000Y-99060000D03*
X109539000Y-97790000D03*
X109539000Y-96520000D03*
X109539000Y-95250000D03*
D26*
X112776000Y-69850000D03*
X111816000Y-69850000D03*
D31*
X144862000Y-123952000D03*
X140462000Y-123952000D03*
D18*
X178925000Y-94234000D03*
X178925000Y-96059000D03*
D12*
X144080000Y-110420000D03*
X145100000Y-110420000D03*
D32*
X174758000Y-73406000D03*
D33*
X168033000Y-73171000D03*
X168033000Y-78721000D03*
X163183000Y-73171000D03*
X163183000Y-78721000D03*
D32*
X174758000Y-78486000D03*
D12*
X178050000Y-71882000D03*
X179070000Y-71882000D03*
D25*
X116332000Y-96672740D03*
X116332000Y-97632740D03*
D34*
X169672000Y-106066500D03*
X166747000Y-106066500D03*
D35*
X112820000Y-71529500D03*
X113320000Y-71529500D03*
X113820000Y-71529500D03*
X114320000Y-71529500D03*
X114820000Y-71529500D03*
X115320000Y-71529500D03*
X115820000Y-71529500D03*
X116320000Y-71529500D03*
X116820000Y-71529500D03*
X117320000Y-71529500D03*
X117820000Y-71529500D03*
X118320000Y-71529500D03*
D36*
X119732500Y-72942000D03*
X119732500Y-73442000D03*
X119732500Y-73942000D03*
X119732500Y-74442000D03*
X119732500Y-74942000D03*
X119732500Y-75442000D03*
X119732500Y-75942000D03*
X119732500Y-76442000D03*
X119732500Y-76942000D03*
X119732500Y-77442000D03*
X119732500Y-77942000D03*
X119732500Y-78442000D03*
D35*
X118320000Y-79854500D03*
X117820000Y-79854500D03*
X117320000Y-79854500D03*
X116820000Y-79854500D03*
X116320000Y-79854500D03*
X115820000Y-79854500D03*
X115320000Y-79854500D03*
X114820000Y-79854500D03*
X114320000Y-79854500D03*
X113820000Y-79854500D03*
X113320000Y-79854500D03*
X112820000Y-79854500D03*
D36*
X111407500Y-78442000D03*
X111407500Y-77942000D03*
X111407500Y-77442000D03*
X111407500Y-76942000D03*
X111407500Y-76442000D03*
X111407500Y-75942000D03*
X111407500Y-75442000D03*
X111407500Y-74942000D03*
X111407500Y-74442000D03*
X111407500Y-73942000D03*
X111407500Y-73442000D03*
X111407500Y-72942000D03*
D21*
X118110000Y-83824000D03*
X118110000Y-82804000D03*
M02*
