G04 #@! TF.GenerationSoftware,KiCad,Pcbnew,8.0.3*
G04 #@! TF.CreationDate,2024-08-23T22:21:50+02:00*
G04 #@! TF.ProjectId,temp_power_management,74656d70-5f70-46f7-9765-725f6d616e61,rev?*
G04 #@! TF.SameCoordinates,Original*
G04 #@! TF.FileFunction,Legend,Bot*
G04 #@! TF.FilePolarity,Positive*
%FSLAX46Y46*%
G04 Gerber Fmt 4.6, Leading zero omitted, Abs format (unit mm)*
G04 Created by KiCad (PCBNEW 8.0.3) date 2024-08-23 22:21:50*
%MOMM*%
%LPD*%
G01*
G04 APERTURE LIST*
G04 Aperture macros list*
%AMRoundRect*
0 Rectangle with rounded corners*
0 $1 Rounding radius*
0 $2 $3 $4 $5 $6 $7 $8 $9 X,Y pos of 4 corners*
0 Add a 4 corners polygon primitive as box body*
4,1,4,$2,$3,$4,$5,$6,$7,$8,$9,$2,$3,0*
0 Add four circle primitives for the rounded corners*
1,1,$1+$1,$2,$3*
1,1,$1+$1,$4,$5*
1,1,$1+$1,$6,$7*
1,1,$1+$1,$8,$9*
0 Add four rect primitives between the rounded corners*
20,1,$1+$1,$2,$3,$4,$5,0*
20,1,$1+$1,$4,$5,$6,$7,0*
20,1,$1+$1,$6,$7,$8,$9,0*
20,1,$1+$1,$8,$9,$2,$3,0*%
%AMOutline5P*
0 Free polygon, 5 corners , with rotation*
0 The origin of the aperture is its center*
0 number of corners: always 5*
0 $1 to $10 corner X, Y*
0 $11 Rotation angle, in degrees counterclockwise*
0 create outline with 5 corners*
4,1,5,$1,$2,$3,$4,$5,$6,$7,$8,$9,$10,$1,$2,$11*%
%AMOutline6P*
0 Free polygon, 6 corners , with rotation*
0 The origin of the aperture is its center*
0 number of corners: always 6*
0 $1 to $12 corner X, Y*
0 $13 Rotation angle, in degrees counterclockwise*
0 create outline with 6 corners*
4,1,6,$1,$2,$3,$4,$5,$6,$7,$8,$9,$10,$11,$12,$1,$2,$13*%
%AMOutline7P*
0 Free polygon, 7 corners , with rotation*
0 The origin of the aperture is its center*
0 number of corners: always 7*
0 $1 to $14 corner X, Y*
0 $15 Rotation angle, in degrees counterclockwise*
0 create outline with 7 corners*
4,1,7,$1,$2,$3,$4,$5,$6,$7,$8,$9,$10,$11,$12,$13,$14,$1,$2,$15*%
%AMOutline8P*
0 Free polygon, 8 corners , with rotation*
0 The origin of the aperture is its center*
0 number of corners: always 8*
0 $1 to $16 corner X, Y*
0 $17 Rotation angle, in degrees counterclockwise*
0 create outline with 8 corners*
4,1,8,$1,$2,$3,$4,$5,$6,$7,$8,$9,$10,$11,$12,$13,$14,$15,$16,$1,$2,$17*%
%AMFreePoly0*
4,1,19,0.550000,-0.750000,0.000000,-0.750000,0.000000,-0.744911,-0.071157,-0.744911,-0.207708,-0.704816,-0.327430,-0.627875,-0.420627,-0.520320,-0.479746,-0.390866,-0.500000,-0.250000,-0.500000,0.250000,-0.479746,0.390866,-0.420627,0.520320,-0.327430,0.627875,-0.207708,0.704816,-0.071157,0.744911,0.000000,0.744911,0.000000,0.750000,0.550000,0.750000,0.550000,-0.750000,0.550000,-0.750000,
$1*%
%AMFreePoly1*
4,1,19,0.000000,0.744911,0.071157,0.744911,0.207708,0.704816,0.327430,0.627875,0.420627,0.520320,0.479746,0.390866,0.500000,0.250000,0.500000,-0.250000,0.479746,-0.390866,0.420627,-0.520320,0.327430,-0.627875,0.207708,-0.704816,0.071157,-0.744911,0.000000,-0.744911,0.000000,-0.750000,-0.550000,-0.750000,-0.550000,0.750000,0.000000,0.750000,0.000000,0.744911,0.000000,0.744911,
$1*%
%AMFreePoly2*
4,1,19,0.500000,-0.750000,0.000000,-0.750000,0.000000,-0.744911,-0.071157,-0.744911,-0.207708,-0.704816,-0.327430,-0.627875,-0.420627,-0.520320,-0.479746,-0.390866,-0.500000,-0.250000,-0.500000,0.250000,-0.479746,0.390866,-0.420627,0.520320,-0.327430,0.627875,-0.207708,0.704816,-0.071157,0.744911,0.000000,0.744911,0.000000,0.750000,0.500000,0.750000,0.500000,-0.750000,0.500000,-0.750000,
$1*%
%AMFreePoly3*
4,1,19,0.000000,0.744911,0.071157,0.744911,0.207708,0.704816,0.327430,0.627875,0.420627,0.520320,0.479746,0.390866,0.500000,0.250000,0.500000,-0.250000,0.479746,-0.390866,0.420627,-0.520320,0.327430,-0.627875,0.207708,-0.704816,0.071157,-0.744911,0.000000,-0.744911,0.000000,-0.750000,-0.500000,-0.750000,-0.500000,0.750000,0.000000,0.750000,0.000000,0.744911,0.000000,0.744911,
$1*%
%AMFreePoly4*
4,1,18,-0.850000,0.510000,-0.510000,0.850000,0.600000,0.850000,0.695671,0.830970,0.776777,0.776777,0.830970,0.695671,0.850000,0.600000,0.850000,-0.600000,0.830970,-0.695671,0.776777,-0.776777,0.695671,-0.830970,0.600000,-0.850000,-0.600000,-0.850000,-0.695671,-0.830970,-0.776777,-0.776777,-0.830970,-0.695671,-0.850000,-0.600000,-0.850000,0.510000,-0.850000,0.510000,$1*%
G04 Aperture macros list end*
%ADD10C,0.240000*%
%ADD11C,0.150000*%
%ADD12C,0.120000*%
%ADD13C,0.000000*%
%ADD14RoundRect,0.160000X-0.197500X-0.160000X0.197500X-0.160000X0.197500X0.160000X-0.197500X0.160000X0*%
%ADD15RoundRect,0.135000X-0.185000X0.135000X-0.185000X-0.135000X0.185000X-0.135000X0.185000X0.135000X0*%
%ADD16RoundRect,0.135000X-0.135000X-0.185000X0.135000X-0.185000X0.135000X0.185000X-0.135000X0.185000X0*%
%ADD17RoundRect,0.135000X0.135000X0.185000X-0.135000X0.185000X-0.135000X-0.185000X0.135000X-0.185000X0*%
%ADD18C,0.800000*%
%ADD19C,6.400000*%
%ADD20RoundRect,0.250000X0.450000X-0.262500X0.450000X0.262500X-0.450000X0.262500X-0.450000X-0.262500X0*%
%ADD21R,1.800000X1.800000*%
%ADD22C,1.800000*%
%ADD23C,2.500000*%
%ADD24C,4.000000*%
%ADD25C,3.500000*%
%ADD26R,3.800000X3.800000*%
%ADD27C,3.800000*%
%ADD28RoundRect,0.150000X0.150000X-0.587500X0.150000X0.587500X-0.150000X0.587500X-0.150000X-0.587500X0*%
%ADD29FreePoly0,270.000000*%
%ADD30R,1.500000X1.000000*%
%ADD31FreePoly1,270.000000*%
%ADD32C,5.000000*%
%ADD33RoundRect,0.150000X0.200000X-0.150000X0.200000X0.150000X-0.200000X0.150000X-0.200000X-0.150000X0*%
%ADD34RoundRect,0.250000X0.250000X0.475000X-0.250000X0.475000X-0.250000X-0.475000X0.250000X-0.475000X0*%
%ADD35RoundRect,1.500000X1.500000X-1.500000X1.500000X1.500000X-1.500000X1.500000X-1.500000X-1.500000X0*%
%ADD36C,6.000000*%
%ADD37RoundRect,0.250000X-0.450000X0.262500X-0.450000X-0.262500X0.450000X-0.262500X0.450000X0.262500X0*%
%ADD38RoundRect,0.250000X-2.050000X-0.300000X2.050000X-0.300000X2.050000X0.300000X-2.050000X0.300000X0*%
%ADD39RoundRect,0.250002X-4.449998X-5.149998X4.449998X-5.149998X4.449998X5.149998X-4.449998X5.149998X0*%
%ADD40R,1.500000X1.500000*%
%ADD41C,1.500000*%
%ADD42RoundRect,0.135000X0.185000X-0.135000X0.185000X0.135000X-0.185000X0.135000X-0.185000X-0.135000X0*%
%ADD43RoundRect,0.140000X-0.140000X-0.170000X0.140000X-0.170000X0.140000X0.170000X-0.140000X0.170000X0*%
%ADD44RoundRect,0.250000X1.450000X-0.312500X1.450000X0.312500X-1.450000X0.312500X-1.450000X-0.312500X0*%
%ADD45R,1.700000X1.700000*%
%ADD46O,1.700000X1.700000*%
%ADD47RoundRect,0.140000X0.170000X-0.140000X0.170000X0.140000X-0.170000X0.140000X-0.170000X-0.140000X0*%
%ADD48RoundRect,0.140000X-0.170000X0.140000X-0.170000X-0.140000X0.170000X-0.140000X0.170000X0.140000X0*%
%ADD49FreePoly2,90.000000*%
%ADD50FreePoly3,90.000000*%
%ADD51RoundRect,2.500000X-0.000010X-1.500000X0.000010X-1.500000X0.000010X1.500000X-0.000010X1.500000X0*%
%ADD52RoundRect,2.500000X0.000010X-1.500000X0.000010X1.500000X-0.000010X1.500000X-0.000010X-1.500000X0*%
%ADD53Outline8P,-2.500000X2.750000X-1.250000X4.000000X1.250000X4.000000X2.500000X2.750000X2.500000X-2.750000X1.250000X-4.000000X-1.250000X-4.000000X-2.500000X-2.750000X0.000000*%
%ADD54RoundRect,0.140000X0.140000X0.170000X-0.140000X0.170000X-0.140000X-0.170000X0.140000X-0.170000X0*%
%ADD55R,0.510000X0.700000*%
%ADD56C,0.700000*%
%ADD57RoundRect,0.250000X-0.250000X-0.475000X0.250000X-0.475000X0.250000X0.475000X-0.250000X0.475000X0*%
%ADD58RoundRect,0.250000X0.800000X-0.450000X0.800000X0.450000X-0.800000X0.450000X-0.800000X-0.450000X0*%
%ADD59RoundRect,0.150000X0.825000X0.150000X-0.825000X0.150000X-0.825000X-0.150000X0.825000X-0.150000X0*%
%ADD60RoundRect,0.250000X0.450000X0.800000X-0.450000X0.800000X-0.450000X-0.800000X0.450000X-0.800000X0*%
%ADD61R,1.300000X1.300000*%
%ADD62C,1.300000*%
%ADD63FreePoly0,90.000000*%
%ADD64FreePoly1,90.000000*%
%ADD65RoundRect,0.250000X2.050000X0.300000X-2.050000X0.300000X-2.050000X-0.300000X2.050000X-0.300000X0*%
%ADD66RoundRect,0.250002X4.449998X5.149998X-4.449998X5.149998X-4.449998X-5.149998X4.449998X-5.149998X0*%
%ADD67FreePoly4,0.000000*%
%ADD68C,1.700000*%
%ADD69RoundRect,0.250000X-0.900000X-0.600000X0.900000X-0.600000X0.900000X0.600000X-0.900000X0.600000X0*%
%ADD70RoundRect,0.250000X-0.312500X-0.625000X0.312500X-0.625000X0.312500X0.625000X-0.312500X0.625000X0*%
%ADD71RoundRect,0.075000X-0.075000X0.662500X-0.075000X-0.662500X0.075000X-0.662500X0.075000X0.662500X0*%
%ADD72RoundRect,0.075000X-0.662500X0.075000X-0.662500X-0.075000X0.662500X-0.075000X0.662500X0.075000X0*%
G04 APERTURE END LIST*
D10*
X167712285Y-121078225D02*
X168112285Y-121078225D01*
X168112285Y-121706796D02*
X168112285Y-120506796D01*
X168112285Y-120506796D02*
X167540857Y-120506796D01*
X167083714Y-121706796D02*
X167083714Y-120506796D01*
X165826571Y-121706796D02*
X166226571Y-121135368D01*
X166512285Y-121706796D02*
X166512285Y-120506796D01*
X166512285Y-120506796D02*
X166055142Y-120506796D01*
X166055142Y-120506796D02*
X165940857Y-120563939D01*
X165940857Y-120563939D02*
X165883714Y-120621082D01*
X165883714Y-120621082D02*
X165826571Y-120735368D01*
X165826571Y-120735368D02*
X165826571Y-120906796D01*
X165826571Y-120906796D02*
X165883714Y-121021082D01*
X165883714Y-121021082D02*
X165940857Y-121078225D01*
X165940857Y-121078225D02*
X166055142Y-121135368D01*
X166055142Y-121135368D02*
X166512285Y-121135368D01*
X165083714Y-120506796D02*
X164855142Y-120506796D01*
X164855142Y-120506796D02*
X164740857Y-120563939D01*
X164740857Y-120563939D02*
X164626571Y-120678225D01*
X164626571Y-120678225D02*
X164569428Y-120906796D01*
X164569428Y-120906796D02*
X164569428Y-121306796D01*
X164569428Y-121306796D02*
X164626571Y-121535368D01*
X164626571Y-121535368D02*
X164740857Y-121649654D01*
X164740857Y-121649654D02*
X164855142Y-121706796D01*
X164855142Y-121706796D02*
X165083714Y-121706796D01*
X165083714Y-121706796D02*
X165198000Y-121649654D01*
X165198000Y-121649654D02*
X165312285Y-121535368D01*
X165312285Y-121535368D02*
X165369428Y-121306796D01*
X165369428Y-121306796D02*
X165369428Y-120906796D01*
X165369428Y-120906796D02*
X165312285Y-120678225D01*
X165312285Y-120678225D02*
X165198000Y-120563939D01*
X165198000Y-120563939D02*
X165083714Y-120506796D01*
X163197999Y-120621082D02*
X163140856Y-120563939D01*
X163140856Y-120563939D02*
X163026571Y-120506796D01*
X163026571Y-120506796D02*
X162740856Y-120506796D01*
X162740856Y-120506796D02*
X162626571Y-120563939D01*
X162626571Y-120563939D02*
X162569428Y-120621082D01*
X162569428Y-120621082D02*
X162512285Y-120735368D01*
X162512285Y-120735368D02*
X162512285Y-120849654D01*
X162512285Y-120849654D02*
X162569428Y-121021082D01*
X162569428Y-121021082D02*
X163255142Y-121706796D01*
X163255142Y-121706796D02*
X162512285Y-121706796D01*
X161997999Y-121592511D02*
X161940856Y-121649654D01*
X161940856Y-121649654D02*
X161997999Y-121706796D01*
X161997999Y-121706796D02*
X162055142Y-121649654D01*
X162055142Y-121649654D02*
X161997999Y-121592511D01*
X161997999Y-121592511D02*
X161997999Y-121706796D01*
X160797999Y-121706796D02*
X161483713Y-121706796D01*
X161140856Y-121706796D02*
X161140856Y-120506796D01*
X161140856Y-120506796D02*
X161255142Y-120678225D01*
X161255142Y-120678225D02*
X161369427Y-120792511D01*
X161369427Y-120792511D02*
X161483713Y-120849654D01*
X159026570Y-122163939D02*
X159083713Y-122106796D01*
X159083713Y-122106796D02*
X159197999Y-121935368D01*
X159197999Y-121935368D02*
X159255142Y-121821082D01*
X159255142Y-121821082D02*
X159312284Y-121649654D01*
X159312284Y-121649654D02*
X159369427Y-121363939D01*
X159369427Y-121363939D02*
X159369427Y-121135368D01*
X159369427Y-121135368D02*
X159312284Y-120849654D01*
X159312284Y-120849654D02*
X159255142Y-120678225D01*
X159255142Y-120678225D02*
X159197999Y-120563939D01*
X159197999Y-120563939D02*
X159083713Y-120392511D01*
X159083713Y-120392511D02*
X159026570Y-120335368D01*
X158512284Y-120506796D02*
X158626570Y-120735368D01*
X158055141Y-120621082D02*
X157997998Y-120563939D01*
X157997998Y-120563939D02*
X157883713Y-120506796D01*
X157883713Y-120506796D02*
X157597998Y-120506796D01*
X157597998Y-120506796D02*
X157483713Y-120563939D01*
X157483713Y-120563939D02*
X157426570Y-120621082D01*
X157426570Y-120621082D02*
X157369427Y-120735368D01*
X157369427Y-120735368D02*
X157369427Y-120849654D01*
X157369427Y-120849654D02*
X157426570Y-121021082D01*
X157426570Y-121021082D02*
X158112284Y-121706796D01*
X158112284Y-121706796D02*
X157369427Y-121706796D01*
X156340856Y-120906796D02*
X156340856Y-121706796D01*
X156626570Y-120449654D02*
X156912284Y-121306796D01*
X156912284Y-121306796D02*
X156169427Y-121306796D01*
X155826570Y-122163939D02*
X155769427Y-122106796D01*
X155769427Y-122106796D02*
X155655141Y-121935368D01*
X155655141Y-121935368D02*
X155597999Y-121821082D01*
X155597999Y-121821082D02*
X155540856Y-121649654D01*
X155540856Y-121649654D02*
X155483713Y-121363939D01*
X155483713Y-121363939D02*
X155483713Y-121135368D01*
X155483713Y-121135368D02*
X155540856Y-120849654D01*
X155540856Y-120849654D02*
X155597999Y-120678225D01*
X155597999Y-120678225D02*
X155655141Y-120563939D01*
X155655141Y-120563939D02*
X155769427Y-120392511D01*
X155769427Y-120392511D02*
X155826570Y-120335368D01*
X174226571Y-123638729D02*
X174226571Y-122438729D01*
X174226571Y-122438729D02*
X173769428Y-122438729D01*
X173769428Y-122438729D02*
X173655143Y-122495872D01*
X173655143Y-122495872D02*
X173598000Y-122553015D01*
X173598000Y-122553015D02*
X173540857Y-122667301D01*
X173540857Y-122667301D02*
X173540857Y-122838729D01*
X173540857Y-122838729D02*
X173598000Y-122953015D01*
X173598000Y-122953015D02*
X173655143Y-123010158D01*
X173655143Y-123010158D02*
X173769428Y-123067301D01*
X173769428Y-123067301D02*
X174226571Y-123067301D01*
X172798000Y-122438729D02*
X172569428Y-122438729D01*
X172569428Y-122438729D02*
X172455143Y-122495872D01*
X172455143Y-122495872D02*
X172340857Y-122610158D01*
X172340857Y-122610158D02*
X172283714Y-122838729D01*
X172283714Y-122838729D02*
X172283714Y-123238729D01*
X172283714Y-123238729D02*
X172340857Y-123467301D01*
X172340857Y-123467301D02*
X172455143Y-123581587D01*
X172455143Y-123581587D02*
X172569428Y-123638729D01*
X172569428Y-123638729D02*
X172798000Y-123638729D01*
X172798000Y-123638729D02*
X172912286Y-123581587D01*
X172912286Y-123581587D02*
X173026571Y-123467301D01*
X173026571Y-123467301D02*
X173083714Y-123238729D01*
X173083714Y-123238729D02*
X173083714Y-122838729D01*
X173083714Y-122838729D02*
X173026571Y-122610158D01*
X173026571Y-122610158D02*
X172912286Y-122495872D01*
X172912286Y-122495872D02*
X172798000Y-122438729D01*
X171883714Y-122438729D02*
X171598000Y-123638729D01*
X171598000Y-123638729D02*
X171369428Y-122781587D01*
X171369428Y-122781587D02*
X171140857Y-123638729D01*
X171140857Y-123638729D02*
X170855143Y-122438729D01*
X170397999Y-123010158D02*
X169997999Y-123010158D01*
X169826571Y-123638729D02*
X170397999Y-123638729D01*
X170397999Y-123638729D02*
X170397999Y-122438729D01*
X170397999Y-122438729D02*
X169826571Y-122438729D01*
X168626571Y-123638729D02*
X169026571Y-123067301D01*
X169312285Y-123638729D02*
X169312285Y-122438729D01*
X169312285Y-122438729D02*
X168855142Y-122438729D01*
X168855142Y-122438729D02*
X168740857Y-122495872D01*
X168740857Y-122495872D02*
X168683714Y-122553015D01*
X168683714Y-122553015D02*
X168626571Y-122667301D01*
X168626571Y-122667301D02*
X168626571Y-122838729D01*
X168626571Y-122838729D02*
X168683714Y-122953015D01*
X168683714Y-122953015D02*
X168740857Y-123010158D01*
X168740857Y-123010158D02*
X168855142Y-123067301D01*
X168855142Y-123067301D02*
X169312285Y-123067301D01*
X167197999Y-123638729D02*
X167197999Y-122438729D01*
X167197999Y-122438729D02*
X166797999Y-123295872D01*
X166797999Y-123295872D02*
X166397999Y-122438729D01*
X166397999Y-122438729D02*
X166397999Y-123638729D01*
X165883713Y-123295872D02*
X165312285Y-123295872D01*
X165997999Y-123638729D02*
X165597999Y-122438729D01*
X165597999Y-122438729D02*
X165197999Y-123638729D01*
X164797999Y-123638729D02*
X164797999Y-122438729D01*
X164797999Y-122438729D02*
X164112285Y-123638729D01*
X164112285Y-123638729D02*
X164112285Y-122438729D01*
X163597999Y-123295872D02*
X163026571Y-123295872D01*
X163712285Y-123638729D02*
X163312285Y-122438729D01*
X163312285Y-122438729D02*
X162912285Y-123638729D01*
X161883714Y-122495872D02*
X161998000Y-122438729D01*
X161998000Y-122438729D02*
X162169428Y-122438729D01*
X162169428Y-122438729D02*
X162340857Y-122495872D01*
X162340857Y-122495872D02*
X162455142Y-122610158D01*
X162455142Y-122610158D02*
X162512285Y-122724444D01*
X162512285Y-122724444D02*
X162569428Y-122953015D01*
X162569428Y-122953015D02*
X162569428Y-123124444D01*
X162569428Y-123124444D02*
X162512285Y-123353015D01*
X162512285Y-123353015D02*
X162455142Y-123467301D01*
X162455142Y-123467301D02*
X162340857Y-123581587D01*
X162340857Y-123581587D02*
X162169428Y-123638729D01*
X162169428Y-123638729D02*
X162055142Y-123638729D01*
X162055142Y-123638729D02*
X161883714Y-123581587D01*
X161883714Y-123581587D02*
X161826571Y-123524444D01*
X161826571Y-123524444D02*
X161826571Y-123124444D01*
X161826571Y-123124444D02*
X162055142Y-123124444D01*
X161312285Y-123010158D02*
X160912285Y-123010158D01*
X160740857Y-123638729D02*
X161312285Y-123638729D01*
X161312285Y-123638729D02*
X161312285Y-122438729D01*
X161312285Y-122438729D02*
X160740857Y-122438729D01*
X160226571Y-123638729D02*
X160226571Y-122438729D01*
X160226571Y-122438729D02*
X159826571Y-123295872D01*
X159826571Y-123295872D02*
X159426571Y-122438729D01*
X159426571Y-122438729D02*
X159426571Y-123638729D01*
X158855142Y-123010158D02*
X158455142Y-123010158D01*
X158283714Y-123638729D02*
X158855142Y-123638729D01*
X158855142Y-123638729D02*
X158855142Y-122438729D01*
X158855142Y-122438729D02*
X158283714Y-122438729D01*
X157769428Y-123638729D02*
X157769428Y-122438729D01*
X157769428Y-122438729D02*
X157083714Y-123638729D01*
X157083714Y-123638729D02*
X157083714Y-122438729D01*
X156683714Y-122438729D02*
X155998000Y-122438729D01*
X156340857Y-123638729D02*
X156340857Y-122438729D01*
X154283713Y-123010158D02*
X154112285Y-123067301D01*
X154112285Y-123067301D02*
X154055142Y-123124444D01*
X154055142Y-123124444D02*
X153997999Y-123238729D01*
X153997999Y-123238729D02*
X153997999Y-123410158D01*
X153997999Y-123410158D02*
X154055142Y-123524444D01*
X154055142Y-123524444D02*
X154112285Y-123581587D01*
X154112285Y-123581587D02*
X154226570Y-123638729D01*
X154226570Y-123638729D02*
X154683713Y-123638729D01*
X154683713Y-123638729D02*
X154683713Y-122438729D01*
X154683713Y-122438729D02*
X154283713Y-122438729D01*
X154283713Y-122438729D02*
X154169428Y-122495872D01*
X154169428Y-122495872D02*
X154112285Y-122553015D01*
X154112285Y-122553015D02*
X154055142Y-122667301D01*
X154055142Y-122667301D02*
X154055142Y-122781587D01*
X154055142Y-122781587D02*
X154112285Y-122895872D01*
X154112285Y-122895872D02*
X154169428Y-122953015D01*
X154169428Y-122953015D02*
X154283713Y-123010158D01*
X154283713Y-123010158D02*
X154683713Y-123010158D01*
X153255142Y-122438729D02*
X153026570Y-122438729D01*
X153026570Y-122438729D02*
X152912285Y-122495872D01*
X152912285Y-122495872D02*
X152797999Y-122610158D01*
X152797999Y-122610158D02*
X152740856Y-122838729D01*
X152740856Y-122838729D02*
X152740856Y-123238729D01*
X152740856Y-123238729D02*
X152797999Y-123467301D01*
X152797999Y-123467301D02*
X152912285Y-123581587D01*
X152912285Y-123581587D02*
X153026570Y-123638729D01*
X153026570Y-123638729D02*
X153255142Y-123638729D01*
X153255142Y-123638729D02*
X153369428Y-123581587D01*
X153369428Y-123581587D02*
X153483713Y-123467301D01*
X153483713Y-123467301D02*
X153540856Y-123238729D01*
X153540856Y-123238729D02*
X153540856Y-122838729D01*
X153540856Y-122838729D02*
X153483713Y-122610158D01*
X153483713Y-122610158D02*
X153369428Y-122495872D01*
X153369428Y-122495872D02*
X153255142Y-122438729D01*
X152283713Y-123295872D02*
X151712285Y-123295872D01*
X152397999Y-123638729D02*
X151997999Y-122438729D01*
X151997999Y-122438729D02*
X151597999Y-123638729D01*
X150512285Y-123638729D02*
X150912285Y-123067301D01*
X151197999Y-123638729D02*
X151197999Y-122438729D01*
X151197999Y-122438729D02*
X150740856Y-122438729D01*
X150740856Y-122438729D02*
X150626571Y-122495872D01*
X150626571Y-122495872D02*
X150569428Y-122553015D01*
X150569428Y-122553015D02*
X150512285Y-122667301D01*
X150512285Y-122667301D02*
X150512285Y-122838729D01*
X150512285Y-122838729D02*
X150569428Y-122953015D01*
X150569428Y-122953015D02*
X150626571Y-123010158D01*
X150626571Y-123010158D02*
X150740856Y-123067301D01*
X150740856Y-123067301D02*
X151197999Y-123067301D01*
X149997999Y-123638729D02*
X149997999Y-122438729D01*
X149997999Y-122438729D02*
X149712285Y-122438729D01*
X149712285Y-122438729D02*
X149540856Y-122495872D01*
X149540856Y-122495872D02*
X149426571Y-122610158D01*
X149426571Y-122610158D02*
X149369428Y-122724444D01*
X149369428Y-122724444D02*
X149312285Y-122953015D01*
X149312285Y-122953015D02*
X149312285Y-123124444D01*
X149312285Y-123124444D02*
X149369428Y-123353015D01*
X149369428Y-123353015D02*
X149426571Y-123467301D01*
X149426571Y-123467301D02*
X149540856Y-123581587D01*
X149540856Y-123581587D02*
X149712285Y-123638729D01*
X149712285Y-123638729D02*
X149997999Y-123638729D01*
X173883714Y-124370662D02*
X173198000Y-124370662D01*
X173540857Y-125570662D02*
X173540857Y-124370662D01*
X172797999Y-124942091D02*
X172397999Y-124942091D01*
X172226571Y-125570662D02*
X172797999Y-125570662D01*
X172797999Y-125570662D02*
X172797999Y-124370662D01*
X172797999Y-124370662D02*
X172226571Y-124370662D01*
X171712285Y-125570662D02*
X171712285Y-124370662D01*
X171712285Y-124370662D02*
X171312285Y-125227805D01*
X171312285Y-125227805D02*
X170912285Y-124370662D01*
X170912285Y-124370662D02*
X170912285Y-125570662D01*
X170340856Y-125570662D02*
X170340856Y-124370662D01*
X170340856Y-124370662D02*
X169883713Y-124370662D01*
X169883713Y-124370662D02*
X169769428Y-124427805D01*
X169769428Y-124427805D02*
X169712285Y-124484948D01*
X169712285Y-124484948D02*
X169655142Y-124599234D01*
X169655142Y-124599234D02*
X169655142Y-124770662D01*
X169655142Y-124770662D02*
X169712285Y-124884948D01*
X169712285Y-124884948D02*
X169769428Y-124942091D01*
X169769428Y-124942091D02*
X169883713Y-124999234D01*
X169883713Y-124999234D02*
X170340856Y-124999234D01*
X168912285Y-124370662D02*
X168683713Y-124370662D01*
X168683713Y-124370662D02*
X168569428Y-124427805D01*
X168569428Y-124427805D02*
X168455142Y-124542091D01*
X168455142Y-124542091D02*
X168397999Y-124770662D01*
X168397999Y-124770662D02*
X168397999Y-125170662D01*
X168397999Y-125170662D02*
X168455142Y-125399234D01*
X168455142Y-125399234D02*
X168569428Y-125513520D01*
X168569428Y-125513520D02*
X168683713Y-125570662D01*
X168683713Y-125570662D02*
X168912285Y-125570662D01*
X168912285Y-125570662D02*
X169026571Y-125513520D01*
X169026571Y-125513520D02*
X169140856Y-125399234D01*
X169140856Y-125399234D02*
X169197999Y-125170662D01*
X169197999Y-125170662D02*
X169197999Y-124770662D01*
X169197999Y-124770662D02*
X169140856Y-124542091D01*
X169140856Y-124542091D02*
X169026571Y-124427805D01*
X169026571Y-124427805D02*
X168912285Y-124370662D01*
X167197999Y-125570662D02*
X167597999Y-124999234D01*
X167883713Y-125570662D02*
X167883713Y-124370662D01*
X167883713Y-124370662D02*
X167426570Y-124370662D01*
X167426570Y-124370662D02*
X167312285Y-124427805D01*
X167312285Y-124427805D02*
X167255142Y-124484948D01*
X167255142Y-124484948D02*
X167197999Y-124599234D01*
X167197999Y-124599234D02*
X167197999Y-124770662D01*
X167197999Y-124770662D02*
X167255142Y-124884948D01*
X167255142Y-124884948D02*
X167312285Y-124942091D01*
X167312285Y-124942091D02*
X167426570Y-124999234D01*
X167426570Y-124999234D02*
X167883713Y-124999234D01*
X166740856Y-125227805D02*
X166169428Y-125227805D01*
X166855142Y-125570662D02*
X166455142Y-124370662D01*
X166455142Y-124370662D02*
X166055142Y-125570662D01*
X164969428Y-125570662D02*
X165369428Y-124999234D01*
X165655142Y-125570662D02*
X165655142Y-124370662D01*
X165655142Y-124370662D02*
X165197999Y-124370662D01*
X165197999Y-124370662D02*
X165083714Y-124427805D01*
X165083714Y-124427805D02*
X165026571Y-124484948D01*
X165026571Y-124484948D02*
X164969428Y-124599234D01*
X164969428Y-124599234D02*
X164969428Y-124770662D01*
X164969428Y-124770662D02*
X165026571Y-124884948D01*
X165026571Y-124884948D02*
X165083714Y-124942091D01*
X165083714Y-124942091D02*
X165197999Y-124999234D01*
X165197999Y-124999234D02*
X165655142Y-124999234D01*
X164226571Y-124999234D02*
X164226571Y-125570662D01*
X164626571Y-124370662D02*
X164226571Y-124999234D01*
X164226571Y-124999234D02*
X163826571Y-124370662D01*
X162626571Y-124770662D02*
X162340857Y-125570662D01*
X162340857Y-125570662D02*
X162055142Y-124770662D01*
X160969428Y-125570662D02*
X161655142Y-125570662D01*
X161312285Y-125570662D02*
X161312285Y-124370662D01*
X161312285Y-124370662D02*
X161426571Y-124542091D01*
X161426571Y-124542091D02*
X161540856Y-124656377D01*
X161540856Y-124656377D02*
X161655142Y-124713520D01*
X160397999Y-125513520D02*
X160397999Y-125570662D01*
X160397999Y-125570662D02*
X160455142Y-125684948D01*
X160455142Y-125684948D02*
X160512285Y-125742091D01*
X158740856Y-124370662D02*
X158626570Y-124370662D01*
X158626570Y-124370662D02*
X158512284Y-124427805D01*
X158512284Y-124427805D02*
X158455142Y-124484948D01*
X158455142Y-124484948D02*
X158397999Y-124599234D01*
X158397999Y-124599234D02*
X158340856Y-124827805D01*
X158340856Y-124827805D02*
X158340856Y-125113520D01*
X158340856Y-125113520D02*
X158397999Y-125342091D01*
X158397999Y-125342091D02*
X158455142Y-125456377D01*
X158455142Y-125456377D02*
X158512284Y-125513520D01*
X158512284Y-125513520D02*
X158626570Y-125570662D01*
X158626570Y-125570662D02*
X158740856Y-125570662D01*
X158740856Y-125570662D02*
X158855142Y-125513520D01*
X158855142Y-125513520D02*
X158912284Y-125456377D01*
X158912284Y-125456377D02*
X158969427Y-125342091D01*
X158969427Y-125342091D02*
X159026570Y-125113520D01*
X159026570Y-125113520D02*
X159026570Y-124827805D01*
X159026570Y-124827805D02*
X158969427Y-124599234D01*
X158969427Y-124599234D02*
X158912284Y-124484948D01*
X158912284Y-124484948D02*
X158855142Y-124427805D01*
X158855142Y-124427805D02*
X158740856Y-124370662D01*
X157883713Y-124484948D02*
X157826570Y-124427805D01*
X157826570Y-124427805D02*
X157712285Y-124370662D01*
X157712285Y-124370662D02*
X157426570Y-124370662D01*
X157426570Y-124370662D02*
X157312285Y-124427805D01*
X157312285Y-124427805D02*
X157255142Y-124484948D01*
X157255142Y-124484948D02*
X157197999Y-124599234D01*
X157197999Y-124599234D02*
X157197999Y-124713520D01*
X157197999Y-124713520D02*
X157255142Y-124884948D01*
X157255142Y-124884948D02*
X157940856Y-125570662D01*
X157940856Y-125570662D02*
X157197999Y-125570662D01*
X156797999Y-124370662D02*
X156055142Y-124370662D01*
X156055142Y-124370662D02*
X156455142Y-124827805D01*
X156455142Y-124827805D02*
X156283713Y-124827805D01*
X156283713Y-124827805D02*
X156169428Y-124884948D01*
X156169428Y-124884948D02*
X156112285Y-124942091D01*
X156112285Y-124942091D02*
X156055142Y-125056377D01*
X156055142Y-125056377D02*
X156055142Y-125342091D01*
X156055142Y-125342091D02*
X156112285Y-125456377D01*
X156112285Y-125456377D02*
X156169428Y-125513520D01*
X156169428Y-125513520D02*
X156283713Y-125570662D01*
X156283713Y-125570662D02*
X156626570Y-125570662D01*
X156626570Y-125570662D02*
X156740856Y-125513520D01*
X156740856Y-125513520D02*
X156797999Y-125456377D01*
X155540856Y-125456377D02*
X155483713Y-125513520D01*
X155483713Y-125513520D02*
X155540856Y-125570662D01*
X155540856Y-125570662D02*
X155597999Y-125513520D01*
X155597999Y-125513520D02*
X155540856Y-125456377D01*
X155540856Y-125456377D02*
X155540856Y-125570662D01*
X154740856Y-124370662D02*
X154626570Y-124370662D01*
X154626570Y-124370662D02*
X154512284Y-124427805D01*
X154512284Y-124427805D02*
X154455142Y-124484948D01*
X154455142Y-124484948D02*
X154397999Y-124599234D01*
X154397999Y-124599234D02*
X154340856Y-124827805D01*
X154340856Y-124827805D02*
X154340856Y-125113520D01*
X154340856Y-125113520D02*
X154397999Y-125342091D01*
X154397999Y-125342091D02*
X154455142Y-125456377D01*
X154455142Y-125456377D02*
X154512284Y-125513520D01*
X154512284Y-125513520D02*
X154626570Y-125570662D01*
X154626570Y-125570662D02*
X154740856Y-125570662D01*
X154740856Y-125570662D02*
X154855142Y-125513520D01*
X154855142Y-125513520D02*
X154912284Y-125456377D01*
X154912284Y-125456377D02*
X154969427Y-125342091D01*
X154969427Y-125342091D02*
X155026570Y-125113520D01*
X155026570Y-125113520D02*
X155026570Y-124827805D01*
X155026570Y-124827805D02*
X154969427Y-124599234D01*
X154969427Y-124599234D02*
X154912284Y-124484948D01*
X154912284Y-124484948D02*
X154855142Y-124427805D01*
X154855142Y-124427805D02*
X154740856Y-124370662D01*
X153655142Y-124884948D02*
X153769427Y-124827805D01*
X153769427Y-124827805D02*
X153826570Y-124770662D01*
X153826570Y-124770662D02*
X153883713Y-124656377D01*
X153883713Y-124656377D02*
X153883713Y-124599234D01*
X153883713Y-124599234D02*
X153826570Y-124484948D01*
X153826570Y-124484948D02*
X153769427Y-124427805D01*
X153769427Y-124427805D02*
X153655142Y-124370662D01*
X153655142Y-124370662D02*
X153426570Y-124370662D01*
X153426570Y-124370662D02*
X153312285Y-124427805D01*
X153312285Y-124427805D02*
X153255142Y-124484948D01*
X153255142Y-124484948D02*
X153197999Y-124599234D01*
X153197999Y-124599234D02*
X153197999Y-124656377D01*
X153197999Y-124656377D02*
X153255142Y-124770662D01*
X153255142Y-124770662D02*
X153312285Y-124827805D01*
X153312285Y-124827805D02*
X153426570Y-124884948D01*
X153426570Y-124884948D02*
X153655142Y-124884948D01*
X153655142Y-124884948D02*
X153769427Y-124942091D01*
X153769427Y-124942091D02*
X153826570Y-124999234D01*
X153826570Y-124999234D02*
X153883713Y-125113520D01*
X153883713Y-125113520D02*
X153883713Y-125342091D01*
X153883713Y-125342091D02*
X153826570Y-125456377D01*
X153826570Y-125456377D02*
X153769427Y-125513520D01*
X153769427Y-125513520D02*
X153655142Y-125570662D01*
X153655142Y-125570662D02*
X153426570Y-125570662D01*
X153426570Y-125570662D02*
X153312285Y-125513520D01*
X153312285Y-125513520D02*
X153255142Y-125456377D01*
X153255142Y-125456377D02*
X153197999Y-125342091D01*
X153197999Y-125342091D02*
X153197999Y-125113520D01*
X153197999Y-125113520D02*
X153255142Y-124999234D01*
X153255142Y-124999234D02*
X153312285Y-124942091D01*
X153312285Y-124942091D02*
X153426570Y-124884948D01*
X151769427Y-125570662D02*
X151769427Y-124370662D01*
X151769427Y-124370662D02*
X151312284Y-124370662D01*
X151312284Y-124370662D02*
X151197999Y-124427805D01*
X151197999Y-124427805D02*
X151140856Y-124484948D01*
X151140856Y-124484948D02*
X151083713Y-124599234D01*
X151083713Y-124599234D02*
X151083713Y-124770662D01*
X151083713Y-124770662D02*
X151140856Y-124884948D01*
X151140856Y-124884948D02*
X151197999Y-124942091D01*
X151197999Y-124942091D02*
X151312284Y-124999234D01*
X151312284Y-124999234D02*
X151769427Y-124999234D01*
X150569427Y-124370662D02*
X150569427Y-125342091D01*
X150569427Y-125342091D02*
X150512284Y-125456377D01*
X150512284Y-125456377D02*
X150455142Y-125513520D01*
X150455142Y-125513520D02*
X150340856Y-125570662D01*
X150340856Y-125570662D02*
X150112284Y-125570662D01*
X150112284Y-125570662D02*
X149997999Y-125513520D01*
X149997999Y-125513520D02*
X149940856Y-125456377D01*
X149940856Y-125456377D02*
X149883713Y-125342091D01*
X149883713Y-125342091D02*
X149883713Y-124370662D01*
D11*
X115133333Y-67749009D02*
X115466666Y-67749009D01*
X115466666Y-68272819D02*
X115466666Y-67272819D01*
X115466666Y-67272819D02*
X114990476Y-67272819D01*
X114276190Y-67749009D02*
X114133333Y-67796628D01*
X114133333Y-67796628D02*
X114085714Y-67844247D01*
X114085714Y-67844247D02*
X114038095Y-67939485D01*
X114038095Y-67939485D02*
X114038095Y-68082342D01*
X114038095Y-68082342D02*
X114085714Y-68177580D01*
X114085714Y-68177580D02*
X114133333Y-68225200D01*
X114133333Y-68225200D02*
X114228571Y-68272819D01*
X114228571Y-68272819D02*
X114609523Y-68272819D01*
X114609523Y-68272819D02*
X114609523Y-67272819D01*
X114609523Y-67272819D02*
X114276190Y-67272819D01*
X114276190Y-67272819D02*
X114180952Y-67320438D01*
X114180952Y-67320438D02*
X114133333Y-67368057D01*
X114133333Y-67368057D02*
X114085714Y-67463295D01*
X114085714Y-67463295D02*
X114085714Y-67558533D01*
X114085714Y-67558533D02*
X114133333Y-67653771D01*
X114133333Y-67653771D02*
X114180952Y-67701390D01*
X114180952Y-67701390D02*
X114276190Y-67749009D01*
X114276190Y-67749009D02*
X114609523Y-67749009D01*
X113085714Y-68272819D02*
X113657142Y-68272819D01*
X113371428Y-68272819D02*
X113371428Y-67272819D01*
X113371428Y-67272819D02*
X113466666Y-67415676D01*
X113466666Y-67415676D02*
X113561904Y-67510914D01*
X113561904Y-67510914D02*
X113657142Y-67558533D01*
X182760857Y-73098819D02*
X183094190Y-72622628D01*
X183332285Y-73098819D02*
X183332285Y-72098819D01*
X183332285Y-72098819D02*
X182951333Y-72098819D01*
X182951333Y-72098819D02*
X182856095Y-72146438D01*
X182856095Y-72146438D02*
X182808476Y-72194057D01*
X182808476Y-72194057D02*
X182760857Y-72289295D01*
X182760857Y-72289295D02*
X182760857Y-72432152D01*
X182760857Y-72432152D02*
X182808476Y-72527390D01*
X182808476Y-72527390D02*
X182856095Y-72575009D01*
X182856095Y-72575009D02*
X182951333Y-72622628D01*
X182951333Y-72622628D02*
X183332285Y-72622628D01*
X182379904Y-72194057D02*
X182332285Y-72146438D01*
X182332285Y-72146438D02*
X182237047Y-72098819D01*
X182237047Y-72098819D02*
X181998952Y-72098819D01*
X181998952Y-72098819D02*
X181903714Y-72146438D01*
X181903714Y-72146438D02*
X181856095Y-72194057D01*
X181856095Y-72194057D02*
X181808476Y-72289295D01*
X181808476Y-72289295D02*
X181808476Y-72384533D01*
X181808476Y-72384533D02*
X181856095Y-72527390D01*
X181856095Y-72527390D02*
X182427523Y-73098819D01*
X182427523Y-73098819D02*
X181808476Y-73098819D01*
X181475142Y-72098819D02*
X180808476Y-72098819D01*
X180808476Y-72098819D02*
X181237047Y-73098819D01*
X122560857Y-73252819D02*
X122894190Y-72776628D01*
X123132285Y-73252819D02*
X123132285Y-72252819D01*
X123132285Y-72252819D02*
X122751333Y-72252819D01*
X122751333Y-72252819D02*
X122656095Y-72300438D01*
X122656095Y-72300438D02*
X122608476Y-72348057D01*
X122608476Y-72348057D02*
X122560857Y-72443295D01*
X122560857Y-72443295D02*
X122560857Y-72586152D01*
X122560857Y-72586152D02*
X122608476Y-72681390D01*
X122608476Y-72681390D02*
X122656095Y-72729009D01*
X122656095Y-72729009D02*
X122751333Y-72776628D01*
X122751333Y-72776628D02*
X123132285Y-72776628D01*
X122179904Y-72348057D02*
X122132285Y-72300438D01*
X122132285Y-72300438D02*
X122037047Y-72252819D01*
X122037047Y-72252819D02*
X121798952Y-72252819D01*
X121798952Y-72252819D02*
X121703714Y-72300438D01*
X121703714Y-72300438D02*
X121656095Y-72348057D01*
X121656095Y-72348057D02*
X121608476Y-72443295D01*
X121608476Y-72443295D02*
X121608476Y-72538533D01*
X121608476Y-72538533D02*
X121656095Y-72681390D01*
X121656095Y-72681390D02*
X122227523Y-73252819D01*
X122227523Y-73252819D02*
X121608476Y-73252819D01*
X120751333Y-72252819D02*
X120941809Y-72252819D01*
X120941809Y-72252819D02*
X121037047Y-72300438D01*
X121037047Y-72300438D02*
X121084666Y-72348057D01*
X121084666Y-72348057D02*
X121179904Y-72490914D01*
X121179904Y-72490914D02*
X121227523Y-72681390D01*
X121227523Y-72681390D02*
X121227523Y-73062342D01*
X121227523Y-73062342D02*
X121179904Y-73157580D01*
X121179904Y-73157580D02*
X121132285Y-73205200D01*
X121132285Y-73205200D02*
X121037047Y-73252819D01*
X121037047Y-73252819D02*
X120846571Y-73252819D01*
X120846571Y-73252819D02*
X120751333Y-73205200D01*
X120751333Y-73205200D02*
X120703714Y-73157580D01*
X120703714Y-73157580D02*
X120656095Y-73062342D01*
X120656095Y-73062342D02*
X120656095Y-72824247D01*
X120656095Y-72824247D02*
X120703714Y-72729009D01*
X120703714Y-72729009D02*
X120751333Y-72681390D01*
X120751333Y-72681390D02*
X120846571Y-72633771D01*
X120846571Y-72633771D02*
X121037047Y-72633771D01*
X121037047Y-72633771D02*
X121132285Y-72681390D01*
X121132285Y-72681390D02*
X121179904Y-72729009D01*
X121179904Y-72729009D02*
X121227523Y-72824247D01*
X122558857Y-69896819D02*
X122892190Y-69420628D01*
X123130285Y-69896819D02*
X123130285Y-68896819D01*
X123130285Y-68896819D02*
X122749333Y-68896819D01*
X122749333Y-68896819D02*
X122654095Y-68944438D01*
X122654095Y-68944438D02*
X122606476Y-68992057D01*
X122606476Y-68992057D02*
X122558857Y-69087295D01*
X122558857Y-69087295D02*
X122558857Y-69230152D01*
X122558857Y-69230152D02*
X122606476Y-69325390D01*
X122606476Y-69325390D02*
X122654095Y-69373009D01*
X122654095Y-69373009D02*
X122749333Y-69420628D01*
X122749333Y-69420628D02*
X123130285Y-69420628D01*
X122177904Y-68992057D02*
X122130285Y-68944438D01*
X122130285Y-68944438D02*
X122035047Y-68896819D01*
X122035047Y-68896819D02*
X121796952Y-68896819D01*
X121796952Y-68896819D02*
X121701714Y-68944438D01*
X121701714Y-68944438D02*
X121654095Y-68992057D01*
X121654095Y-68992057D02*
X121606476Y-69087295D01*
X121606476Y-69087295D02*
X121606476Y-69182533D01*
X121606476Y-69182533D02*
X121654095Y-69325390D01*
X121654095Y-69325390D02*
X122225523Y-69896819D01*
X122225523Y-69896819D02*
X121606476Y-69896819D01*
X120701714Y-68896819D02*
X121177904Y-68896819D01*
X121177904Y-68896819D02*
X121225523Y-69373009D01*
X121225523Y-69373009D02*
X121177904Y-69325390D01*
X121177904Y-69325390D02*
X121082666Y-69277771D01*
X121082666Y-69277771D02*
X120844571Y-69277771D01*
X120844571Y-69277771D02*
X120749333Y-69325390D01*
X120749333Y-69325390D02*
X120701714Y-69373009D01*
X120701714Y-69373009D02*
X120654095Y-69468247D01*
X120654095Y-69468247D02*
X120654095Y-69706342D01*
X120654095Y-69706342D02*
X120701714Y-69801580D01*
X120701714Y-69801580D02*
X120749333Y-69849200D01*
X120749333Y-69849200D02*
X120844571Y-69896819D01*
X120844571Y-69896819D02*
X121082666Y-69896819D01*
X121082666Y-69896819D02*
X121177904Y-69849200D01*
X121177904Y-69849200D02*
X121225523Y-69801580D01*
X106052857Y-87422819D02*
X106386190Y-86946628D01*
X106624285Y-87422819D02*
X106624285Y-86422819D01*
X106624285Y-86422819D02*
X106243333Y-86422819D01*
X106243333Y-86422819D02*
X106148095Y-86470438D01*
X106148095Y-86470438D02*
X106100476Y-86518057D01*
X106100476Y-86518057D02*
X106052857Y-86613295D01*
X106052857Y-86613295D02*
X106052857Y-86756152D01*
X106052857Y-86756152D02*
X106100476Y-86851390D01*
X106100476Y-86851390D02*
X106148095Y-86899009D01*
X106148095Y-86899009D02*
X106243333Y-86946628D01*
X106243333Y-86946628D02*
X106624285Y-86946628D01*
X105671904Y-86518057D02*
X105624285Y-86470438D01*
X105624285Y-86470438D02*
X105529047Y-86422819D01*
X105529047Y-86422819D02*
X105290952Y-86422819D01*
X105290952Y-86422819D02*
X105195714Y-86470438D01*
X105195714Y-86470438D02*
X105148095Y-86518057D01*
X105148095Y-86518057D02*
X105100476Y-86613295D01*
X105100476Y-86613295D02*
X105100476Y-86708533D01*
X105100476Y-86708533D02*
X105148095Y-86851390D01*
X105148095Y-86851390D02*
X105719523Y-87422819D01*
X105719523Y-87422819D02*
X105100476Y-87422819D01*
X104243333Y-86756152D02*
X104243333Y-87422819D01*
X104481428Y-86375200D02*
X104719523Y-87089485D01*
X104719523Y-87089485D02*
X104100476Y-87089485D01*
X106052857Y-90778819D02*
X106386190Y-90302628D01*
X106624285Y-90778819D02*
X106624285Y-89778819D01*
X106624285Y-89778819D02*
X106243333Y-89778819D01*
X106243333Y-89778819D02*
X106148095Y-89826438D01*
X106148095Y-89826438D02*
X106100476Y-89874057D01*
X106100476Y-89874057D02*
X106052857Y-89969295D01*
X106052857Y-89969295D02*
X106052857Y-90112152D01*
X106052857Y-90112152D02*
X106100476Y-90207390D01*
X106100476Y-90207390D02*
X106148095Y-90255009D01*
X106148095Y-90255009D02*
X106243333Y-90302628D01*
X106243333Y-90302628D02*
X106624285Y-90302628D01*
X105671904Y-89874057D02*
X105624285Y-89826438D01*
X105624285Y-89826438D02*
X105529047Y-89778819D01*
X105529047Y-89778819D02*
X105290952Y-89778819D01*
X105290952Y-89778819D02*
X105195714Y-89826438D01*
X105195714Y-89826438D02*
X105148095Y-89874057D01*
X105148095Y-89874057D02*
X105100476Y-89969295D01*
X105100476Y-89969295D02*
X105100476Y-90064533D01*
X105100476Y-90064533D02*
X105148095Y-90207390D01*
X105148095Y-90207390D02*
X105719523Y-90778819D01*
X105719523Y-90778819D02*
X105100476Y-90778819D01*
X104767142Y-89778819D02*
X104148095Y-89778819D01*
X104148095Y-89778819D02*
X104481428Y-90159771D01*
X104481428Y-90159771D02*
X104338571Y-90159771D01*
X104338571Y-90159771D02*
X104243333Y-90207390D01*
X104243333Y-90207390D02*
X104195714Y-90255009D01*
X104195714Y-90255009D02*
X104148095Y-90350247D01*
X104148095Y-90350247D02*
X104148095Y-90588342D01*
X104148095Y-90588342D02*
X104195714Y-90683580D01*
X104195714Y-90683580D02*
X104243333Y-90731200D01*
X104243333Y-90731200D02*
X104338571Y-90778819D01*
X104338571Y-90778819D02*
X104624285Y-90778819D01*
X104624285Y-90778819D02*
X104719523Y-90731200D01*
X104719523Y-90731200D02*
X104767142Y-90683580D01*
X120088819Y-62857142D02*
X119612628Y-62523809D01*
X120088819Y-62285714D02*
X119088819Y-62285714D01*
X119088819Y-62285714D02*
X119088819Y-62666666D01*
X119088819Y-62666666D02*
X119136438Y-62761904D01*
X119136438Y-62761904D02*
X119184057Y-62809523D01*
X119184057Y-62809523D02*
X119279295Y-62857142D01*
X119279295Y-62857142D02*
X119422152Y-62857142D01*
X119422152Y-62857142D02*
X119517390Y-62809523D01*
X119517390Y-62809523D02*
X119565009Y-62761904D01*
X119565009Y-62761904D02*
X119612628Y-62666666D01*
X119612628Y-62666666D02*
X119612628Y-62285714D01*
X119184057Y-63238095D02*
X119136438Y-63285714D01*
X119136438Y-63285714D02*
X119088819Y-63380952D01*
X119088819Y-63380952D02*
X119088819Y-63619047D01*
X119088819Y-63619047D02*
X119136438Y-63714285D01*
X119136438Y-63714285D02*
X119184057Y-63761904D01*
X119184057Y-63761904D02*
X119279295Y-63809523D01*
X119279295Y-63809523D02*
X119374533Y-63809523D01*
X119374533Y-63809523D02*
X119517390Y-63761904D01*
X119517390Y-63761904D02*
X120088819Y-63190476D01*
X120088819Y-63190476D02*
X120088819Y-63809523D01*
X119088819Y-64428571D02*
X119088819Y-64523809D01*
X119088819Y-64523809D02*
X119136438Y-64619047D01*
X119136438Y-64619047D02*
X119184057Y-64666666D01*
X119184057Y-64666666D02*
X119279295Y-64714285D01*
X119279295Y-64714285D02*
X119469771Y-64761904D01*
X119469771Y-64761904D02*
X119707866Y-64761904D01*
X119707866Y-64761904D02*
X119898342Y-64714285D01*
X119898342Y-64714285D02*
X119993580Y-64666666D01*
X119993580Y-64666666D02*
X120041200Y-64619047D01*
X120041200Y-64619047D02*
X120088819Y-64523809D01*
X120088819Y-64523809D02*
X120088819Y-64428571D01*
X120088819Y-64428571D02*
X120041200Y-64333333D01*
X120041200Y-64333333D02*
X119993580Y-64285714D01*
X119993580Y-64285714D02*
X119898342Y-64238095D01*
X119898342Y-64238095D02*
X119707866Y-64190476D01*
X119707866Y-64190476D02*
X119469771Y-64190476D01*
X119469771Y-64190476D02*
X119279295Y-64238095D01*
X119279295Y-64238095D02*
X119184057Y-64285714D01*
X119184057Y-64285714D02*
X119136438Y-64333333D01*
X119136438Y-64333333D02*
X119088819Y-64428571D01*
X122374819Y-62857142D02*
X121898628Y-62523809D01*
X122374819Y-62285714D02*
X121374819Y-62285714D01*
X121374819Y-62285714D02*
X121374819Y-62666666D01*
X121374819Y-62666666D02*
X121422438Y-62761904D01*
X121422438Y-62761904D02*
X121470057Y-62809523D01*
X121470057Y-62809523D02*
X121565295Y-62857142D01*
X121565295Y-62857142D02*
X121708152Y-62857142D01*
X121708152Y-62857142D02*
X121803390Y-62809523D01*
X121803390Y-62809523D02*
X121851009Y-62761904D01*
X121851009Y-62761904D02*
X121898628Y-62666666D01*
X121898628Y-62666666D02*
X121898628Y-62285714D01*
X122374819Y-63809523D02*
X122374819Y-63238095D01*
X122374819Y-63523809D02*
X121374819Y-63523809D01*
X121374819Y-63523809D02*
X121517676Y-63428571D01*
X121517676Y-63428571D02*
X121612914Y-63333333D01*
X121612914Y-63333333D02*
X121660533Y-63238095D01*
X122374819Y-64285714D02*
X122374819Y-64476190D01*
X122374819Y-64476190D02*
X122327200Y-64571428D01*
X122327200Y-64571428D02*
X122279580Y-64619047D01*
X122279580Y-64619047D02*
X122136723Y-64714285D01*
X122136723Y-64714285D02*
X121946247Y-64761904D01*
X121946247Y-64761904D02*
X121565295Y-64761904D01*
X121565295Y-64761904D02*
X121470057Y-64714285D01*
X121470057Y-64714285D02*
X121422438Y-64666666D01*
X121422438Y-64666666D02*
X121374819Y-64571428D01*
X121374819Y-64571428D02*
X121374819Y-64380952D01*
X121374819Y-64380952D02*
X121422438Y-64285714D01*
X121422438Y-64285714D02*
X121470057Y-64238095D01*
X121470057Y-64238095D02*
X121565295Y-64190476D01*
X121565295Y-64190476D02*
X121803390Y-64190476D01*
X121803390Y-64190476D02*
X121898628Y-64238095D01*
X121898628Y-64238095D02*
X121946247Y-64285714D01*
X121946247Y-64285714D02*
X121993866Y-64380952D01*
X121993866Y-64380952D02*
X121993866Y-64571428D01*
X121993866Y-64571428D02*
X121946247Y-64666666D01*
X121946247Y-64666666D02*
X121898628Y-64714285D01*
X121898628Y-64714285D02*
X121803390Y-64761904D01*
X196691238Y-65828057D02*
X196786476Y-65780438D01*
X196786476Y-65780438D02*
X196881714Y-65685200D01*
X196881714Y-65685200D02*
X197024571Y-65542342D01*
X197024571Y-65542342D02*
X197119809Y-65494723D01*
X197119809Y-65494723D02*
X197215047Y-65494723D01*
X197167428Y-65732819D02*
X197262666Y-65685200D01*
X197262666Y-65685200D02*
X197357904Y-65589961D01*
X197357904Y-65589961D02*
X197405523Y-65399485D01*
X197405523Y-65399485D02*
X197405523Y-65066152D01*
X197405523Y-65066152D02*
X197357904Y-64875676D01*
X197357904Y-64875676D02*
X197262666Y-64780438D01*
X197262666Y-64780438D02*
X197167428Y-64732819D01*
X197167428Y-64732819D02*
X196976952Y-64732819D01*
X196976952Y-64732819D02*
X196881714Y-64780438D01*
X196881714Y-64780438D02*
X196786476Y-64875676D01*
X196786476Y-64875676D02*
X196738857Y-65066152D01*
X196738857Y-65066152D02*
X196738857Y-65399485D01*
X196738857Y-65399485D02*
X196786476Y-65589961D01*
X196786476Y-65589961D02*
X196881714Y-65685200D01*
X196881714Y-65685200D02*
X196976952Y-65732819D01*
X196976952Y-65732819D02*
X197167428Y-65732819D01*
X196405523Y-64732819D02*
X195786476Y-64732819D01*
X195786476Y-64732819D02*
X196119809Y-65113771D01*
X196119809Y-65113771D02*
X195976952Y-65113771D01*
X195976952Y-65113771D02*
X195881714Y-65161390D01*
X195881714Y-65161390D02*
X195834095Y-65209009D01*
X195834095Y-65209009D02*
X195786476Y-65304247D01*
X195786476Y-65304247D02*
X195786476Y-65542342D01*
X195786476Y-65542342D02*
X195834095Y-65637580D01*
X195834095Y-65637580D02*
X195881714Y-65685200D01*
X195881714Y-65685200D02*
X195976952Y-65732819D01*
X195976952Y-65732819D02*
X196262666Y-65732819D01*
X196262666Y-65732819D02*
X196357904Y-65685200D01*
X196357904Y-65685200D02*
X196405523Y-65637580D01*
X101766666Y-78432819D02*
X102099999Y-77956628D01*
X102338094Y-78432819D02*
X102338094Y-77432819D01*
X102338094Y-77432819D02*
X101957142Y-77432819D01*
X101957142Y-77432819D02*
X101861904Y-77480438D01*
X101861904Y-77480438D02*
X101814285Y-77528057D01*
X101814285Y-77528057D02*
X101766666Y-77623295D01*
X101766666Y-77623295D02*
X101766666Y-77766152D01*
X101766666Y-77766152D02*
X101814285Y-77861390D01*
X101814285Y-77861390D02*
X101861904Y-77909009D01*
X101861904Y-77909009D02*
X101957142Y-77956628D01*
X101957142Y-77956628D02*
X102338094Y-77956628D01*
X101195237Y-77861390D02*
X101290475Y-77813771D01*
X101290475Y-77813771D02*
X101338094Y-77766152D01*
X101338094Y-77766152D02*
X101385713Y-77670914D01*
X101385713Y-77670914D02*
X101385713Y-77623295D01*
X101385713Y-77623295D02*
X101338094Y-77528057D01*
X101338094Y-77528057D02*
X101290475Y-77480438D01*
X101290475Y-77480438D02*
X101195237Y-77432819D01*
X101195237Y-77432819D02*
X101004761Y-77432819D01*
X101004761Y-77432819D02*
X100909523Y-77480438D01*
X100909523Y-77480438D02*
X100861904Y-77528057D01*
X100861904Y-77528057D02*
X100814285Y-77623295D01*
X100814285Y-77623295D02*
X100814285Y-77670914D01*
X100814285Y-77670914D02*
X100861904Y-77766152D01*
X100861904Y-77766152D02*
X100909523Y-77813771D01*
X100909523Y-77813771D02*
X101004761Y-77861390D01*
X101004761Y-77861390D02*
X101195237Y-77861390D01*
X101195237Y-77861390D02*
X101290475Y-77909009D01*
X101290475Y-77909009D02*
X101338094Y-77956628D01*
X101338094Y-77956628D02*
X101385713Y-78051866D01*
X101385713Y-78051866D02*
X101385713Y-78242342D01*
X101385713Y-78242342D02*
X101338094Y-78337580D01*
X101338094Y-78337580D02*
X101290475Y-78385200D01*
X101290475Y-78385200D02*
X101195237Y-78432819D01*
X101195237Y-78432819D02*
X101004761Y-78432819D01*
X101004761Y-78432819D02*
X100909523Y-78385200D01*
X100909523Y-78385200D02*
X100861904Y-78337580D01*
X100861904Y-78337580D02*
X100814285Y-78242342D01*
X100814285Y-78242342D02*
X100814285Y-78051866D01*
X100814285Y-78051866D02*
X100861904Y-77956628D01*
X100861904Y-77956628D02*
X100909523Y-77909009D01*
X100909523Y-77909009D02*
X101004761Y-77861390D01*
X107006819Y-82923142D02*
X106530628Y-82589809D01*
X107006819Y-82351714D02*
X106006819Y-82351714D01*
X106006819Y-82351714D02*
X106006819Y-82732666D01*
X106006819Y-82732666D02*
X106054438Y-82827904D01*
X106054438Y-82827904D02*
X106102057Y-82875523D01*
X106102057Y-82875523D02*
X106197295Y-82923142D01*
X106197295Y-82923142D02*
X106340152Y-82923142D01*
X106340152Y-82923142D02*
X106435390Y-82875523D01*
X106435390Y-82875523D02*
X106483009Y-82827904D01*
X106483009Y-82827904D02*
X106530628Y-82732666D01*
X106530628Y-82732666D02*
X106530628Y-82351714D01*
X107006819Y-83875523D02*
X107006819Y-83304095D01*
X107006819Y-83589809D02*
X106006819Y-83589809D01*
X106006819Y-83589809D02*
X106149676Y-83494571D01*
X106149676Y-83494571D02*
X106244914Y-83399333D01*
X106244914Y-83399333D02*
X106292533Y-83304095D01*
X107006819Y-84827904D02*
X107006819Y-84256476D01*
X107006819Y-84542190D02*
X106006819Y-84542190D01*
X106006819Y-84542190D02*
X106149676Y-84446952D01*
X106149676Y-84446952D02*
X106244914Y-84351714D01*
X106244914Y-84351714D02*
X106292533Y-84256476D01*
X101054819Y-74096666D02*
X101769104Y-74096666D01*
X101769104Y-74096666D02*
X101911961Y-74049047D01*
X101911961Y-74049047D02*
X102007200Y-73953809D01*
X102007200Y-73953809D02*
X102054819Y-73810952D01*
X102054819Y-73810952D02*
X102054819Y-73715714D01*
X102054819Y-74572857D02*
X101054819Y-74572857D01*
X101054819Y-74572857D02*
X101054819Y-74953809D01*
X101054819Y-74953809D02*
X101102438Y-75049047D01*
X101102438Y-75049047D02*
X101150057Y-75096666D01*
X101150057Y-75096666D02*
X101245295Y-75144285D01*
X101245295Y-75144285D02*
X101388152Y-75144285D01*
X101388152Y-75144285D02*
X101483390Y-75096666D01*
X101483390Y-75096666D02*
X101531009Y-75049047D01*
X101531009Y-75049047D02*
X101578628Y-74953809D01*
X101578628Y-74953809D02*
X101578628Y-74572857D01*
X102054819Y-76096666D02*
X102054819Y-75525238D01*
X102054819Y-75810952D02*
X101054819Y-75810952D01*
X101054819Y-75810952D02*
X101197676Y-75715714D01*
X101197676Y-75715714D02*
X101292914Y-75620476D01*
X101292914Y-75620476D02*
X101340533Y-75525238D01*
X119834819Y-85113905D02*
X118834819Y-85113905D01*
X118834819Y-85113905D02*
X118834819Y-85352000D01*
X118834819Y-85352000D02*
X118882438Y-85494857D01*
X118882438Y-85494857D02*
X118977676Y-85590095D01*
X118977676Y-85590095D02*
X119072914Y-85637714D01*
X119072914Y-85637714D02*
X119263390Y-85685333D01*
X119263390Y-85685333D02*
X119406247Y-85685333D01*
X119406247Y-85685333D02*
X119596723Y-85637714D01*
X119596723Y-85637714D02*
X119691961Y-85590095D01*
X119691961Y-85590095D02*
X119787200Y-85494857D01*
X119787200Y-85494857D02*
X119834819Y-85352000D01*
X119834819Y-85352000D02*
X119834819Y-85113905D01*
X118834819Y-86542476D02*
X118834819Y-86352000D01*
X118834819Y-86352000D02*
X118882438Y-86256762D01*
X118882438Y-86256762D02*
X118930057Y-86209143D01*
X118930057Y-86209143D02*
X119072914Y-86113905D01*
X119072914Y-86113905D02*
X119263390Y-86066286D01*
X119263390Y-86066286D02*
X119644342Y-86066286D01*
X119644342Y-86066286D02*
X119739580Y-86113905D01*
X119739580Y-86113905D02*
X119787200Y-86161524D01*
X119787200Y-86161524D02*
X119834819Y-86256762D01*
X119834819Y-86256762D02*
X119834819Y-86447238D01*
X119834819Y-86447238D02*
X119787200Y-86542476D01*
X119787200Y-86542476D02*
X119739580Y-86590095D01*
X119739580Y-86590095D02*
X119644342Y-86637714D01*
X119644342Y-86637714D02*
X119406247Y-86637714D01*
X119406247Y-86637714D02*
X119311009Y-86590095D01*
X119311009Y-86590095D02*
X119263390Y-86542476D01*
X119263390Y-86542476D02*
X119215771Y-86447238D01*
X119215771Y-86447238D02*
X119215771Y-86256762D01*
X119215771Y-86256762D02*
X119263390Y-86161524D01*
X119263390Y-86161524D02*
X119311009Y-86113905D01*
X119311009Y-86113905D02*
X119406247Y-86066286D01*
X114024666Y-69193580D02*
X114072285Y-69241200D01*
X114072285Y-69241200D02*
X114215142Y-69288819D01*
X114215142Y-69288819D02*
X114310380Y-69288819D01*
X114310380Y-69288819D02*
X114453237Y-69241200D01*
X114453237Y-69241200D02*
X114548475Y-69145961D01*
X114548475Y-69145961D02*
X114596094Y-69050723D01*
X114596094Y-69050723D02*
X114643713Y-68860247D01*
X114643713Y-68860247D02*
X114643713Y-68717390D01*
X114643713Y-68717390D02*
X114596094Y-68526914D01*
X114596094Y-68526914D02*
X114548475Y-68431676D01*
X114548475Y-68431676D02*
X114453237Y-68336438D01*
X114453237Y-68336438D02*
X114310380Y-68288819D01*
X114310380Y-68288819D02*
X114215142Y-68288819D01*
X114215142Y-68288819D02*
X114072285Y-68336438D01*
X114072285Y-68336438D02*
X114024666Y-68384057D01*
X113548475Y-69288819D02*
X113357999Y-69288819D01*
X113357999Y-69288819D02*
X113262761Y-69241200D01*
X113262761Y-69241200D02*
X113215142Y-69193580D01*
X113215142Y-69193580D02*
X113119904Y-69050723D01*
X113119904Y-69050723D02*
X113072285Y-68860247D01*
X113072285Y-68860247D02*
X113072285Y-68479295D01*
X113072285Y-68479295D02*
X113119904Y-68384057D01*
X113119904Y-68384057D02*
X113167523Y-68336438D01*
X113167523Y-68336438D02*
X113262761Y-68288819D01*
X113262761Y-68288819D02*
X113453237Y-68288819D01*
X113453237Y-68288819D02*
X113548475Y-68336438D01*
X113548475Y-68336438D02*
X113596094Y-68384057D01*
X113596094Y-68384057D02*
X113643713Y-68479295D01*
X113643713Y-68479295D02*
X113643713Y-68717390D01*
X113643713Y-68717390D02*
X113596094Y-68812628D01*
X113596094Y-68812628D02*
X113548475Y-68860247D01*
X113548475Y-68860247D02*
X113453237Y-68907866D01*
X113453237Y-68907866D02*
X113262761Y-68907866D01*
X113262761Y-68907866D02*
X113167523Y-68860247D01*
X113167523Y-68860247D02*
X113119904Y-68812628D01*
X113119904Y-68812628D02*
X113072285Y-68717390D01*
X101766666Y-72336819D02*
X102099999Y-71860628D01*
X102338094Y-72336819D02*
X102338094Y-71336819D01*
X102338094Y-71336819D02*
X101957142Y-71336819D01*
X101957142Y-71336819D02*
X101861904Y-71384438D01*
X101861904Y-71384438D02*
X101814285Y-71432057D01*
X101814285Y-71432057D02*
X101766666Y-71527295D01*
X101766666Y-71527295D02*
X101766666Y-71670152D01*
X101766666Y-71670152D02*
X101814285Y-71765390D01*
X101814285Y-71765390D02*
X101861904Y-71813009D01*
X101861904Y-71813009D02*
X101957142Y-71860628D01*
X101957142Y-71860628D02*
X102338094Y-71860628D01*
X101290475Y-72336819D02*
X101099999Y-72336819D01*
X101099999Y-72336819D02*
X101004761Y-72289200D01*
X101004761Y-72289200D02*
X100957142Y-72241580D01*
X100957142Y-72241580D02*
X100861904Y-72098723D01*
X100861904Y-72098723D02*
X100814285Y-71908247D01*
X100814285Y-71908247D02*
X100814285Y-71527295D01*
X100814285Y-71527295D02*
X100861904Y-71432057D01*
X100861904Y-71432057D02*
X100909523Y-71384438D01*
X100909523Y-71384438D02*
X101004761Y-71336819D01*
X101004761Y-71336819D02*
X101195237Y-71336819D01*
X101195237Y-71336819D02*
X101290475Y-71384438D01*
X101290475Y-71384438D02*
X101338094Y-71432057D01*
X101338094Y-71432057D02*
X101385713Y-71527295D01*
X101385713Y-71527295D02*
X101385713Y-71765390D01*
X101385713Y-71765390D02*
X101338094Y-71860628D01*
X101338094Y-71860628D02*
X101290475Y-71908247D01*
X101290475Y-71908247D02*
X101195237Y-71955866D01*
X101195237Y-71955866D02*
X101004761Y-71955866D01*
X101004761Y-71955866D02*
X100909523Y-71908247D01*
X100909523Y-71908247D02*
X100861904Y-71860628D01*
X100861904Y-71860628D02*
X100814285Y-71765390D01*
X177601819Y-91479833D02*
X177125628Y-91146500D01*
X177601819Y-90908405D02*
X176601819Y-90908405D01*
X176601819Y-90908405D02*
X176601819Y-91289357D01*
X176601819Y-91289357D02*
X176649438Y-91384595D01*
X176649438Y-91384595D02*
X176697057Y-91432214D01*
X176697057Y-91432214D02*
X176792295Y-91479833D01*
X176792295Y-91479833D02*
X176935152Y-91479833D01*
X176935152Y-91479833D02*
X177030390Y-91432214D01*
X177030390Y-91432214D02*
X177078009Y-91384595D01*
X177078009Y-91384595D02*
X177125628Y-91289357D01*
X177125628Y-91289357D02*
X177125628Y-90908405D01*
X176697057Y-91860786D02*
X176649438Y-91908405D01*
X176649438Y-91908405D02*
X176601819Y-92003643D01*
X176601819Y-92003643D02*
X176601819Y-92241738D01*
X176601819Y-92241738D02*
X176649438Y-92336976D01*
X176649438Y-92336976D02*
X176697057Y-92384595D01*
X176697057Y-92384595D02*
X176792295Y-92432214D01*
X176792295Y-92432214D02*
X176887533Y-92432214D01*
X176887533Y-92432214D02*
X177030390Y-92384595D01*
X177030390Y-92384595D02*
X177601819Y-91813167D01*
X177601819Y-91813167D02*
X177601819Y-92432214D01*
X195929238Y-85132057D02*
X196024476Y-85084438D01*
X196024476Y-85084438D02*
X196119714Y-84989200D01*
X196119714Y-84989200D02*
X196262571Y-84846342D01*
X196262571Y-84846342D02*
X196357809Y-84798723D01*
X196357809Y-84798723D02*
X196453047Y-84798723D01*
X196405428Y-85036819D02*
X196500666Y-84989200D01*
X196500666Y-84989200D02*
X196595904Y-84893961D01*
X196595904Y-84893961D02*
X196643523Y-84703485D01*
X196643523Y-84703485D02*
X196643523Y-84370152D01*
X196643523Y-84370152D02*
X196595904Y-84179676D01*
X196595904Y-84179676D02*
X196500666Y-84084438D01*
X196500666Y-84084438D02*
X196405428Y-84036819D01*
X196405428Y-84036819D02*
X196214952Y-84036819D01*
X196214952Y-84036819D02*
X196119714Y-84084438D01*
X196119714Y-84084438D02*
X196024476Y-84179676D01*
X196024476Y-84179676D02*
X195976857Y-84370152D01*
X195976857Y-84370152D02*
X195976857Y-84703485D01*
X195976857Y-84703485D02*
X196024476Y-84893961D01*
X196024476Y-84893961D02*
X196119714Y-84989200D01*
X196119714Y-84989200D02*
X196214952Y-85036819D01*
X196214952Y-85036819D02*
X196405428Y-85036819D01*
X195595904Y-84132057D02*
X195548285Y-84084438D01*
X195548285Y-84084438D02*
X195453047Y-84036819D01*
X195453047Y-84036819D02*
X195214952Y-84036819D01*
X195214952Y-84036819D02*
X195119714Y-84084438D01*
X195119714Y-84084438D02*
X195072095Y-84132057D01*
X195072095Y-84132057D02*
X195024476Y-84227295D01*
X195024476Y-84227295D02*
X195024476Y-84322533D01*
X195024476Y-84322533D02*
X195072095Y-84465390D01*
X195072095Y-84465390D02*
X195643523Y-85036819D01*
X195643523Y-85036819D02*
X195024476Y-85036819D01*
X123136819Y-85209142D02*
X122660628Y-84875809D01*
X123136819Y-84637714D02*
X122136819Y-84637714D01*
X122136819Y-84637714D02*
X122136819Y-85018666D01*
X122136819Y-85018666D02*
X122184438Y-85113904D01*
X122184438Y-85113904D02*
X122232057Y-85161523D01*
X122232057Y-85161523D02*
X122327295Y-85209142D01*
X122327295Y-85209142D02*
X122470152Y-85209142D01*
X122470152Y-85209142D02*
X122565390Y-85161523D01*
X122565390Y-85161523D02*
X122613009Y-85113904D01*
X122613009Y-85113904D02*
X122660628Y-85018666D01*
X122660628Y-85018666D02*
X122660628Y-84637714D01*
X123136819Y-86161523D02*
X123136819Y-85590095D01*
X123136819Y-85875809D02*
X122136819Y-85875809D01*
X122136819Y-85875809D02*
X122279676Y-85780571D01*
X122279676Y-85780571D02*
X122374914Y-85685333D01*
X122374914Y-85685333D02*
X122422533Y-85590095D01*
X122565390Y-86732952D02*
X122517771Y-86637714D01*
X122517771Y-86637714D02*
X122470152Y-86590095D01*
X122470152Y-86590095D02*
X122374914Y-86542476D01*
X122374914Y-86542476D02*
X122327295Y-86542476D01*
X122327295Y-86542476D02*
X122232057Y-86590095D01*
X122232057Y-86590095D02*
X122184438Y-86637714D01*
X122184438Y-86637714D02*
X122136819Y-86732952D01*
X122136819Y-86732952D02*
X122136819Y-86923428D01*
X122136819Y-86923428D02*
X122184438Y-87018666D01*
X122184438Y-87018666D02*
X122232057Y-87066285D01*
X122232057Y-87066285D02*
X122327295Y-87113904D01*
X122327295Y-87113904D02*
X122374914Y-87113904D01*
X122374914Y-87113904D02*
X122470152Y-87066285D01*
X122470152Y-87066285D02*
X122517771Y-87018666D01*
X122517771Y-87018666D02*
X122565390Y-86923428D01*
X122565390Y-86923428D02*
X122565390Y-86732952D01*
X122565390Y-86732952D02*
X122613009Y-86637714D01*
X122613009Y-86637714D02*
X122660628Y-86590095D01*
X122660628Y-86590095D02*
X122755866Y-86542476D01*
X122755866Y-86542476D02*
X122946342Y-86542476D01*
X122946342Y-86542476D02*
X123041580Y-86590095D01*
X123041580Y-86590095D02*
X123089200Y-86637714D01*
X123089200Y-86637714D02*
X123136819Y-86732952D01*
X123136819Y-86732952D02*
X123136819Y-86923428D01*
X123136819Y-86923428D02*
X123089200Y-87018666D01*
X123089200Y-87018666D02*
X123041580Y-87066285D01*
X123041580Y-87066285D02*
X122946342Y-87113904D01*
X122946342Y-87113904D02*
X122755866Y-87113904D01*
X122755866Y-87113904D02*
X122660628Y-87066285D01*
X122660628Y-87066285D02*
X122613009Y-87018666D01*
X122613009Y-87018666D02*
X122565390Y-86923428D01*
X115990666Y-82147580D02*
X116038285Y-82195200D01*
X116038285Y-82195200D02*
X116181142Y-82242819D01*
X116181142Y-82242819D02*
X116276380Y-82242819D01*
X116276380Y-82242819D02*
X116419237Y-82195200D01*
X116419237Y-82195200D02*
X116514475Y-82099961D01*
X116514475Y-82099961D02*
X116562094Y-82004723D01*
X116562094Y-82004723D02*
X116609713Y-81814247D01*
X116609713Y-81814247D02*
X116609713Y-81671390D01*
X116609713Y-81671390D02*
X116562094Y-81480914D01*
X116562094Y-81480914D02*
X116514475Y-81385676D01*
X116514475Y-81385676D02*
X116419237Y-81290438D01*
X116419237Y-81290438D02*
X116276380Y-81242819D01*
X116276380Y-81242819D02*
X116181142Y-81242819D01*
X116181142Y-81242819D02*
X116038285Y-81290438D01*
X116038285Y-81290438D02*
X115990666Y-81338057D01*
X115085904Y-81242819D02*
X115562094Y-81242819D01*
X115562094Y-81242819D02*
X115609713Y-81719009D01*
X115609713Y-81719009D02*
X115562094Y-81671390D01*
X115562094Y-81671390D02*
X115466856Y-81623771D01*
X115466856Y-81623771D02*
X115228761Y-81623771D01*
X115228761Y-81623771D02*
X115133523Y-81671390D01*
X115133523Y-81671390D02*
X115085904Y-81719009D01*
X115085904Y-81719009D02*
X115038285Y-81814247D01*
X115038285Y-81814247D02*
X115038285Y-82052342D01*
X115038285Y-82052342D02*
X115085904Y-82147580D01*
X115085904Y-82147580D02*
X115133523Y-82195200D01*
X115133523Y-82195200D02*
X115228761Y-82242819D01*
X115228761Y-82242819D02*
X115466856Y-82242819D01*
X115466856Y-82242819D02*
X115562094Y-82195200D01*
X115562094Y-82195200D02*
X115609713Y-82147580D01*
X167554603Y-109914202D02*
X167887936Y-109438011D01*
X168126031Y-109914202D02*
X168126031Y-108914202D01*
X168126031Y-108914202D02*
X167745079Y-108914202D01*
X167745079Y-108914202D02*
X167649841Y-108961821D01*
X167649841Y-108961821D02*
X167602222Y-109009440D01*
X167602222Y-109009440D02*
X167554603Y-109104678D01*
X167554603Y-109104678D02*
X167554603Y-109247535D01*
X167554603Y-109247535D02*
X167602222Y-109342773D01*
X167602222Y-109342773D02*
X167649841Y-109390392D01*
X167649841Y-109390392D02*
X167745079Y-109438011D01*
X167745079Y-109438011D02*
X168126031Y-109438011D01*
X167268888Y-108914202D02*
X166935555Y-109914202D01*
X166935555Y-109914202D02*
X166602222Y-108914202D01*
X165745079Y-109914202D02*
X166316507Y-109914202D01*
X166030793Y-109914202D02*
X166030793Y-108914202D01*
X166030793Y-108914202D02*
X166126031Y-109057059D01*
X166126031Y-109057059D02*
X166221269Y-109152297D01*
X166221269Y-109152297D02*
X166316507Y-109199916D01*
X109640666Y-80213580D02*
X109688285Y-80261200D01*
X109688285Y-80261200D02*
X109831142Y-80308819D01*
X109831142Y-80308819D02*
X109926380Y-80308819D01*
X109926380Y-80308819D02*
X110069237Y-80261200D01*
X110069237Y-80261200D02*
X110164475Y-80165961D01*
X110164475Y-80165961D02*
X110212094Y-80070723D01*
X110212094Y-80070723D02*
X110259713Y-79880247D01*
X110259713Y-79880247D02*
X110259713Y-79737390D01*
X110259713Y-79737390D02*
X110212094Y-79546914D01*
X110212094Y-79546914D02*
X110164475Y-79451676D01*
X110164475Y-79451676D02*
X110069237Y-79356438D01*
X110069237Y-79356438D02*
X109926380Y-79308819D01*
X109926380Y-79308819D02*
X109831142Y-79308819D01*
X109831142Y-79308819D02*
X109688285Y-79356438D01*
X109688285Y-79356438D02*
X109640666Y-79404057D01*
X109259713Y-79404057D02*
X109212094Y-79356438D01*
X109212094Y-79356438D02*
X109116856Y-79308819D01*
X109116856Y-79308819D02*
X108878761Y-79308819D01*
X108878761Y-79308819D02*
X108783523Y-79356438D01*
X108783523Y-79356438D02*
X108735904Y-79404057D01*
X108735904Y-79404057D02*
X108688285Y-79499295D01*
X108688285Y-79499295D02*
X108688285Y-79594533D01*
X108688285Y-79594533D02*
X108735904Y-79737390D01*
X108735904Y-79737390D02*
X109307332Y-80308819D01*
X109307332Y-80308819D02*
X108688285Y-80308819D01*
X123356666Y-78591580D02*
X123404285Y-78639200D01*
X123404285Y-78639200D02*
X123547142Y-78686819D01*
X123547142Y-78686819D02*
X123642380Y-78686819D01*
X123642380Y-78686819D02*
X123785237Y-78639200D01*
X123785237Y-78639200D02*
X123880475Y-78543961D01*
X123880475Y-78543961D02*
X123928094Y-78448723D01*
X123928094Y-78448723D02*
X123975713Y-78258247D01*
X123975713Y-78258247D02*
X123975713Y-78115390D01*
X123975713Y-78115390D02*
X123928094Y-77924914D01*
X123928094Y-77924914D02*
X123880475Y-77829676D01*
X123880475Y-77829676D02*
X123785237Y-77734438D01*
X123785237Y-77734438D02*
X123642380Y-77686819D01*
X123642380Y-77686819D02*
X123547142Y-77686819D01*
X123547142Y-77686819D02*
X123404285Y-77734438D01*
X123404285Y-77734438D02*
X123356666Y-77782057D01*
X122499523Y-78020152D02*
X122499523Y-78686819D01*
X122737618Y-77639200D02*
X122975713Y-78353485D01*
X122975713Y-78353485D02*
X122356666Y-78353485D01*
X121866819Y-85113905D02*
X120866819Y-85113905D01*
X120866819Y-85113905D02*
X120866819Y-85352000D01*
X120866819Y-85352000D02*
X120914438Y-85494857D01*
X120914438Y-85494857D02*
X121009676Y-85590095D01*
X121009676Y-85590095D02*
X121104914Y-85637714D01*
X121104914Y-85637714D02*
X121295390Y-85685333D01*
X121295390Y-85685333D02*
X121438247Y-85685333D01*
X121438247Y-85685333D02*
X121628723Y-85637714D01*
X121628723Y-85637714D02*
X121723961Y-85590095D01*
X121723961Y-85590095D02*
X121819200Y-85494857D01*
X121819200Y-85494857D02*
X121866819Y-85352000D01*
X121866819Y-85352000D02*
X121866819Y-85113905D01*
X120866819Y-86018667D02*
X120866819Y-86685333D01*
X120866819Y-86685333D02*
X121866819Y-86256762D01*
X115675580Y-90543142D02*
X115723200Y-90495523D01*
X115723200Y-90495523D02*
X115770819Y-90352666D01*
X115770819Y-90352666D02*
X115770819Y-90257428D01*
X115770819Y-90257428D02*
X115723200Y-90114571D01*
X115723200Y-90114571D02*
X115627961Y-90019333D01*
X115627961Y-90019333D02*
X115532723Y-89971714D01*
X115532723Y-89971714D02*
X115342247Y-89924095D01*
X115342247Y-89924095D02*
X115199390Y-89924095D01*
X115199390Y-89924095D02*
X115008914Y-89971714D01*
X115008914Y-89971714D02*
X114913676Y-90019333D01*
X114913676Y-90019333D02*
X114818438Y-90114571D01*
X114818438Y-90114571D02*
X114770819Y-90257428D01*
X114770819Y-90257428D02*
X114770819Y-90352666D01*
X114770819Y-90352666D02*
X114818438Y-90495523D01*
X114818438Y-90495523D02*
X114866057Y-90543142D01*
X115770819Y-91495523D02*
X115770819Y-90924095D01*
X115770819Y-91209809D02*
X114770819Y-91209809D01*
X114770819Y-91209809D02*
X114913676Y-91114571D01*
X114913676Y-91114571D02*
X115008914Y-91019333D01*
X115008914Y-91019333D02*
X115056533Y-90924095D01*
X115770819Y-92447904D02*
X115770819Y-91876476D01*
X115770819Y-92162190D02*
X114770819Y-92162190D01*
X114770819Y-92162190D02*
X114913676Y-92066952D01*
X114913676Y-92066952D02*
X115008914Y-91971714D01*
X115008914Y-91971714D02*
X115056533Y-91876476D01*
X104465333Y-92672819D02*
X104465333Y-93387104D01*
X104465333Y-93387104D02*
X104512952Y-93529961D01*
X104512952Y-93529961D02*
X104608190Y-93625200D01*
X104608190Y-93625200D02*
X104751047Y-93672819D01*
X104751047Y-93672819D02*
X104846285Y-93672819D01*
X103989142Y-93672819D02*
X103989142Y-92672819D01*
X103989142Y-92672819D02*
X103608190Y-92672819D01*
X103608190Y-92672819D02*
X103512952Y-92720438D01*
X103512952Y-92720438D02*
X103465333Y-92768057D01*
X103465333Y-92768057D02*
X103417714Y-92863295D01*
X103417714Y-92863295D02*
X103417714Y-93006152D01*
X103417714Y-93006152D02*
X103465333Y-93101390D01*
X103465333Y-93101390D02*
X103512952Y-93149009D01*
X103512952Y-93149009D02*
X103608190Y-93196628D01*
X103608190Y-93196628D02*
X103989142Y-93196628D01*
X102512952Y-92672819D02*
X102989142Y-92672819D01*
X102989142Y-92672819D02*
X103036761Y-93149009D01*
X103036761Y-93149009D02*
X102989142Y-93101390D01*
X102989142Y-93101390D02*
X102893904Y-93053771D01*
X102893904Y-93053771D02*
X102655809Y-93053771D01*
X102655809Y-93053771D02*
X102560571Y-93101390D01*
X102560571Y-93101390D02*
X102512952Y-93149009D01*
X102512952Y-93149009D02*
X102465333Y-93244247D01*
X102465333Y-93244247D02*
X102465333Y-93482342D01*
X102465333Y-93482342D02*
X102512952Y-93577580D01*
X102512952Y-93577580D02*
X102560571Y-93625200D01*
X102560571Y-93625200D02*
X102655809Y-93672819D01*
X102655809Y-93672819D02*
X102893904Y-93672819D01*
X102893904Y-93672819D02*
X102989142Y-93625200D01*
X102989142Y-93625200D02*
X103036761Y-93577580D01*
X123357759Y-77086404D02*
X123691092Y-76610213D01*
X123929187Y-77086404D02*
X123929187Y-76086404D01*
X123929187Y-76086404D02*
X123548235Y-76086404D01*
X123548235Y-76086404D02*
X123452997Y-76134023D01*
X123452997Y-76134023D02*
X123405378Y-76181642D01*
X123405378Y-76181642D02*
X123357759Y-76276880D01*
X123357759Y-76276880D02*
X123357759Y-76419737D01*
X123357759Y-76419737D02*
X123405378Y-76514975D01*
X123405378Y-76514975D02*
X123452997Y-76562594D01*
X123452997Y-76562594D02*
X123548235Y-76610213D01*
X123548235Y-76610213D02*
X123929187Y-76610213D01*
X122405378Y-77086404D02*
X122976806Y-77086404D01*
X122691092Y-77086404D02*
X122691092Y-76086404D01*
X122691092Y-76086404D02*
X122786330Y-76229261D01*
X122786330Y-76229261D02*
X122881568Y-76324499D01*
X122881568Y-76324499D02*
X122976806Y-76372118D01*
X121548235Y-76419737D02*
X121548235Y-77086404D01*
X121786330Y-76038785D02*
X122024425Y-76753070D01*
X122024425Y-76753070D02*
X121405378Y-76753070D01*
X113926857Y-109930819D02*
X114260190Y-109454628D01*
X114498285Y-109930819D02*
X114498285Y-108930819D01*
X114498285Y-108930819D02*
X114117333Y-108930819D01*
X114117333Y-108930819D02*
X114022095Y-108978438D01*
X114022095Y-108978438D02*
X113974476Y-109026057D01*
X113974476Y-109026057D02*
X113926857Y-109121295D01*
X113926857Y-109121295D02*
X113926857Y-109264152D01*
X113926857Y-109264152D02*
X113974476Y-109359390D01*
X113974476Y-109359390D02*
X114022095Y-109407009D01*
X114022095Y-109407009D02*
X114117333Y-109454628D01*
X114117333Y-109454628D02*
X114498285Y-109454628D01*
X112974476Y-109930819D02*
X113545904Y-109930819D01*
X113260190Y-109930819D02*
X113260190Y-108930819D01*
X113260190Y-108930819D02*
X113355428Y-109073676D01*
X113355428Y-109073676D02*
X113450666Y-109168914D01*
X113450666Y-109168914D02*
X113545904Y-109216533D01*
X112069714Y-108930819D02*
X112545904Y-108930819D01*
X112545904Y-108930819D02*
X112593523Y-109407009D01*
X112593523Y-109407009D02*
X112545904Y-109359390D01*
X112545904Y-109359390D02*
X112450666Y-109311771D01*
X112450666Y-109311771D02*
X112212571Y-109311771D01*
X112212571Y-109311771D02*
X112117333Y-109359390D01*
X112117333Y-109359390D02*
X112069714Y-109407009D01*
X112069714Y-109407009D02*
X112022095Y-109502247D01*
X112022095Y-109502247D02*
X112022095Y-109740342D01*
X112022095Y-109740342D02*
X112069714Y-109835580D01*
X112069714Y-109835580D02*
X112117333Y-109883200D01*
X112117333Y-109883200D02*
X112212571Y-109930819D01*
X112212571Y-109930819D02*
X112450666Y-109930819D01*
X112450666Y-109930819D02*
X112545904Y-109883200D01*
X112545904Y-109883200D02*
X112593523Y-109835580D01*
X107322857Y-95196819D02*
X107656190Y-94720628D01*
X107894285Y-95196819D02*
X107894285Y-94196819D01*
X107894285Y-94196819D02*
X107513333Y-94196819D01*
X107513333Y-94196819D02*
X107418095Y-94244438D01*
X107418095Y-94244438D02*
X107370476Y-94292057D01*
X107370476Y-94292057D02*
X107322857Y-94387295D01*
X107322857Y-94387295D02*
X107322857Y-94530152D01*
X107322857Y-94530152D02*
X107370476Y-94625390D01*
X107370476Y-94625390D02*
X107418095Y-94673009D01*
X107418095Y-94673009D02*
X107513333Y-94720628D01*
X107513333Y-94720628D02*
X107894285Y-94720628D01*
X106370476Y-95196819D02*
X106941904Y-95196819D01*
X106656190Y-95196819D02*
X106656190Y-94196819D01*
X106656190Y-94196819D02*
X106751428Y-94339676D01*
X106751428Y-94339676D02*
X106846666Y-94434914D01*
X106846666Y-94434914D02*
X106941904Y-94482533D01*
X105751428Y-94196819D02*
X105656190Y-94196819D01*
X105656190Y-94196819D02*
X105560952Y-94244438D01*
X105560952Y-94244438D02*
X105513333Y-94292057D01*
X105513333Y-94292057D02*
X105465714Y-94387295D01*
X105465714Y-94387295D02*
X105418095Y-94577771D01*
X105418095Y-94577771D02*
X105418095Y-94815866D01*
X105418095Y-94815866D02*
X105465714Y-95006342D01*
X105465714Y-95006342D02*
X105513333Y-95101580D01*
X105513333Y-95101580D02*
X105560952Y-95149200D01*
X105560952Y-95149200D02*
X105656190Y-95196819D01*
X105656190Y-95196819D02*
X105751428Y-95196819D01*
X105751428Y-95196819D02*
X105846666Y-95149200D01*
X105846666Y-95149200D02*
X105894285Y-95101580D01*
X105894285Y-95101580D02*
X105941904Y-95006342D01*
X105941904Y-95006342D02*
X105989523Y-94815866D01*
X105989523Y-94815866D02*
X105989523Y-94577771D01*
X105989523Y-94577771D02*
X105941904Y-94387295D01*
X105941904Y-94387295D02*
X105894285Y-94292057D01*
X105894285Y-94292057D02*
X105846666Y-94244438D01*
X105846666Y-94244438D02*
X105751428Y-94196819D01*
X110402666Y-71225580D02*
X110450285Y-71273200D01*
X110450285Y-71273200D02*
X110593142Y-71320819D01*
X110593142Y-71320819D02*
X110688380Y-71320819D01*
X110688380Y-71320819D02*
X110831237Y-71273200D01*
X110831237Y-71273200D02*
X110926475Y-71177961D01*
X110926475Y-71177961D02*
X110974094Y-71082723D01*
X110974094Y-71082723D02*
X111021713Y-70892247D01*
X111021713Y-70892247D02*
X111021713Y-70749390D01*
X111021713Y-70749390D02*
X110974094Y-70558914D01*
X110974094Y-70558914D02*
X110926475Y-70463676D01*
X110926475Y-70463676D02*
X110831237Y-70368438D01*
X110831237Y-70368438D02*
X110688380Y-70320819D01*
X110688380Y-70320819D02*
X110593142Y-70320819D01*
X110593142Y-70320819D02*
X110450285Y-70368438D01*
X110450285Y-70368438D02*
X110402666Y-70416057D01*
X110069332Y-70320819D02*
X109402666Y-70320819D01*
X109402666Y-70320819D02*
X109831237Y-71320819D01*
X109799333Y-88354819D02*
X109799333Y-89069104D01*
X109799333Y-89069104D02*
X109846952Y-89211961D01*
X109846952Y-89211961D02*
X109942190Y-89307200D01*
X109942190Y-89307200D02*
X110085047Y-89354819D01*
X110085047Y-89354819D02*
X110180285Y-89354819D01*
X109323142Y-89354819D02*
X109323142Y-88354819D01*
X109323142Y-88354819D02*
X108942190Y-88354819D01*
X108942190Y-88354819D02*
X108846952Y-88402438D01*
X108846952Y-88402438D02*
X108799333Y-88450057D01*
X108799333Y-88450057D02*
X108751714Y-88545295D01*
X108751714Y-88545295D02*
X108751714Y-88688152D01*
X108751714Y-88688152D02*
X108799333Y-88783390D01*
X108799333Y-88783390D02*
X108846952Y-88831009D01*
X108846952Y-88831009D02*
X108942190Y-88878628D01*
X108942190Y-88878628D02*
X109323142Y-88878628D01*
X108418380Y-88354819D02*
X107799333Y-88354819D01*
X107799333Y-88354819D02*
X108132666Y-88735771D01*
X108132666Y-88735771D02*
X107989809Y-88735771D01*
X107989809Y-88735771D02*
X107894571Y-88783390D01*
X107894571Y-88783390D02*
X107846952Y-88831009D01*
X107846952Y-88831009D02*
X107799333Y-88926247D01*
X107799333Y-88926247D02*
X107799333Y-89164342D01*
X107799333Y-89164342D02*
X107846952Y-89259580D01*
X107846952Y-89259580D02*
X107894571Y-89307200D01*
X107894571Y-89307200D02*
X107989809Y-89354819D01*
X107989809Y-89354819D02*
X108275523Y-89354819D01*
X108275523Y-89354819D02*
X108370761Y-89307200D01*
X108370761Y-89307200D02*
X108418380Y-89259580D01*
X113029904Y-85306819D02*
X113029904Y-86116342D01*
X113029904Y-86116342D02*
X112982285Y-86211580D01*
X112982285Y-86211580D02*
X112934666Y-86259200D01*
X112934666Y-86259200D02*
X112839428Y-86306819D01*
X112839428Y-86306819D02*
X112648952Y-86306819D01*
X112648952Y-86306819D02*
X112553714Y-86259200D01*
X112553714Y-86259200D02*
X112506095Y-86211580D01*
X112506095Y-86211580D02*
X112458476Y-86116342D01*
X112458476Y-86116342D02*
X112458476Y-85306819D01*
X111458476Y-86306819D02*
X112029904Y-86306819D01*
X111744190Y-86306819D02*
X111744190Y-85306819D01*
X111744190Y-85306819D02*
X111839428Y-85449676D01*
X111839428Y-85449676D02*
X111934666Y-85544914D01*
X111934666Y-85544914D02*
X112029904Y-85592533D01*
X196254666Y-67256819D02*
X196587999Y-66780628D01*
X196826094Y-67256819D02*
X196826094Y-66256819D01*
X196826094Y-66256819D02*
X196445142Y-66256819D01*
X196445142Y-66256819D02*
X196349904Y-66304438D01*
X196349904Y-66304438D02*
X196302285Y-66352057D01*
X196302285Y-66352057D02*
X196254666Y-66447295D01*
X196254666Y-66447295D02*
X196254666Y-66590152D01*
X196254666Y-66590152D02*
X196302285Y-66685390D01*
X196302285Y-66685390D02*
X196349904Y-66733009D01*
X196349904Y-66733009D02*
X196445142Y-66780628D01*
X196445142Y-66780628D02*
X196826094Y-66780628D01*
X195397523Y-66590152D02*
X195397523Y-67256819D01*
X195635618Y-66209200D02*
X195873713Y-66923485D01*
X195873713Y-66923485D02*
X195254666Y-66923485D01*
X196254666Y-68526819D02*
X196587999Y-68050628D01*
X196826094Y-68526819D02*
X196826094Y-67526819D01*
X196826094Y-67526819D02*
X196445142Y-67526819D01*
X196445142Y-67526819D02*
X196349904Y-67574438D01*
X196349904Y-67574438D02*
X196302285Y-67622057D01*
X196302285Y-67622057D02*
X196254666Y-67717295D01*
X196254666Y-67717295D02*
X196254666Y-67860152D01*
X196254666Y-67860152D02*
X196302285Y-67955390D01*
X196302285Y-67955390D02*
X196349904Y-68003009D01*
X196349904Y-68003009D02*
X196445142Y-68050628D01*
X196445142Y-68050628D02*
X196826094Y-68050628D01*
X195349904Y-67526819D02*
X195826094Y-67526819D01*
X195826094Y-67526819D02*
X195873713Y-68003009D01*
X195873713Y-68003009D02*
X195826094Y-67955390D01*
X195826094Y-67955390D02*
X195730856Y-67907771D01*
X195730856Y-67907771D02*
X195492761Y-67907771D01*
X195492761Y-67907771D02*
X195397523Y-67955390D01*
X195397523Y-67955390D02*
X195349904Y-68003009D01*
X195349904Y-68003009D02*
X195302285Y-68098247D01*
X195302285Y-68098247D02*
X195302285Y-68336342D01*
X195302285Y-68336342D02*
X195349904Y-68431580D01*
X195349904Y-68431580D02*
X195397523Y-68479200D01*
X195397523Y-68479200D02*
X195492761Y-68526819D01*
X195492761Y-68526819D02*
X195730856Y-68526819D01*
X195730856Y-68526819D02*
X195826094Y-68479200D01*
X195826094Y-68479200D02*
X195873713Y-68431580D01*
X112434666Y-87735580D02*
X112482285Y-87783200D01*
X112482285Y-87783200D02*
X112625142Y-87830819D01*
X112625142Y-87830819D02*
X112720380Y-87830819D01*
X112720380Y-87830819D02*
X112863237Y-87783200D01*
X112863237Y-87783200D02*
X112958475Y-87687961D01*
X112958475Y-87687961D02*
X113006094Y-87592723D01*
X113006094Y-87592723D02*
X113053713Y-87402247D01*
X113053713Y-87402247D02*
X113053713Y-87259390D01*
X113053713Y-87259390D02*
X113006094Y-87068914D01*
X113006094Y-87068914D02*
X112958475Y-86973676D01*
X112958475Y-86973676D02*
X112863237Y-86878438D01*
X112863237Y-86878438D02*
X112720380Y-86830819D01*
X112720380Y-86830819D02*
X112625142Y-86830819D01*
X112625142Y-86830819D02*
X112482285Y-86878438D01*
X112482285Y-86878438D02*
X112434666Y-86926057D01*
X111482285Y-87830819D02*
X112053713Y-87830819D01*
X111767999Y-87830819D02*
X111767999Y-86830819D01*
X111767999Y-86830819D02*
X111863237Y-86973676D01*
X111863237Y-86973676D02*
X111958475Y-87068914D01*
X111958475Y-87068914D02*
X112053713Y-87116533D01*
X115990666Y-83417580D02*
X116038285Y-83465200D01*
X116038285Y-83465200D02*
X116181142Y-83512819D01*
X116181142Y-83512819D02*
X116276380Y-83512819D01*
X116276380Y-83512819D02*
X116419237Y-83465200D01*
X116419237Y-83465200D02*
X116514475Y-83369961D01*
X116514475Y-83369961D02*
X116562094Y-83274723D01*
X116562094Y-83274723D02*
X116609713Y-83084247D01*
X116609713Y-83084247D02*
X116609713Y-82941390D01*
X116609713Y-82941390D02*
X116562094Y-82750914D01*
X116562094Y-82750914D02*
X116514475Y-82655676D01*
X116514475Y-82655676D02*
X116419237Y-82560438D01*
X116419237Y-82560438D02*
X116276380Y-82512819D01*
X116276380Y-82512819D02*
X116181142Y-82512819D01*
X116181142Y-82512819D02*
X116038285Y-82560438D01*
X116038285Y-82560438D02*
X115990666Y-82608057D01*
X115419237Y-82941390D02*
X115514475Y-82893771D01*
X115514475Y-82893771D02*
X115562094Y-82846152D01*
X115562094Y-82846152D02*
X115609713Y-82750914D01*
X115609713Y-82750914D02*
X115609713Y-82703295D01*
X115609713Y-82703295D02*
X115562094Y-82608057D01*
X115562094Y-82608057D02*
X115514475Y-82560438D01*
X115514475Y-82560438D02*
X115419237Y-82512819D01*
X115419237Y-82512819D02*
X115228761Y-82512819D01*
X115228761Y-82512819D02*
X115133523Y-82560438D01*
X115133523Y-82560438D02*
X115085904Y-82608057D01*
X115085904Y-82608057D02*
X115038285Y-82703295D01*
X115038285Y-82703295D02*
X115038285Y-82750914D01*
X115038285Y-82750914D02*
X115085904Y-82846152D01*
X115085904Y-82846152D02*
X115133523Y-82893771D01*
X115133523Y-82893771D02*
X115228761Y-82941390D01*
X115228761Y-82941390D02*
X115419237Y-82941390D01*
X115419237Y-82941390D02*
X115514475Y-82989009D01*
X115514475Y-82989009D02*
X115562094Y-83036628D01*
X115562094Y-83036628D02*
X115609713Y-83131866D01*
X115609713Y-83131866D02*
X115609713Y-83322342D01*
X115609713Y-83322342D02*
X115562094Y-83417580D01*
X115562094Y-83417580D02*
X115514475Y-83465200D01*
X115514475Y-83465200D02*
X115419237Y-83512819D01*
X115419237Y-83512819D02*
X115228761Y-83512819D01*
X115228761Y-83512819D02*
X115133523Y-83465200D01*
X115133523Y-83465200D02*
X115085904Y-83417580D01*
X115085904Y-83417580D02*
X115038285Y-83322342D01*
X115038285Y-83322342D02*
X115038285Y-83131866D01*
X115038285Y-83131866D02*
X115085904Y-83036628D01*
X115085904Y-83036628D02*
X115133523Y-82989009D01*
X115133523Y-82989009D02*
X115228761Y-82941390D01*
X179808094Y-80210819D02*
X179808094Y-79210819D01*
X179808094Y-79210819D02*
X179569999Y-79210819D01*
X179569999Y-79210819D02*
X179427142Y-79258438D01*
X179427142Y-79258438D02*
X179331904Y-79353676D01*
X179331904Y-79353676D02*
X179284285Y-79448914D01*
X179284285Y-79448914D02*
X179236666Y-79639390D01*
X179236666Y-79639390D02*
X179236666Y-79782247D01*
X179236666Y-79782247D02*
X179284285Y-79972723D01*
X179284285Y-79972723D02*
X179331904Y-80067961D01*
X179331904Y-80067961D02*
X179427142Y-80163200D01*
X179427142Y-80163200D02*
X179569999Y-80210819D01*
X179569999Y-80210819D02*
X179808094Y-80210819D01*
X178284285Y-80210819D02*
X178855713Y-80210819D01*
X178569999Y-80210819D02*
X178569999Y-79210819D01*
X178569999Y-79210819D02*
X178665237Y-79353676D01*
X178665237Y-79353676D02*
X178760475Y-79448914D01*
X178760475Y-79448914D02*
X178855713Y-79496533D01*
X115315904Y-93209819D02*
X115315904Y-94019342D01*
X115315904Y-94019342D02*
X115268285Y-94114580D01*
X115268285Y-94114580D02*
X115220666Y-94162200D01*
X115220666Y-94162200D02*
X115125428Y-94209819D01*
X115125428Y-94209819D02*
X114934952Y-94209819D01*
X114934952Y-94209819D02*
X114839714Y-94162200D01*
X114839714Y-94162200D02*
X114792095Y-94114580D01*
X114792095Y-94114580D02*
X114744476Y-94019342D01*
X114744476Y-94019342D02*
X114744476Y-93209819D01*
X114363523Y-93209819D02*
X113744476Y-93209819D01*
X113744476Y-93209819D02*
X114077809Y-93590771D01*
X114077809Y-93590771D02*
X113934952Y-93590771D01*
X113934952Y-93590771D02*
X113839714Y-93638390D01*
X113839714Y-93638390D02*
X113792095Y-93686009D01*
X113792095Y-93686009D02*
X113744476Y-93781247D01*
X113744476Y-93781247D02*
X113744476Y-94019342D01*
X113744476Y-94019342D02*
X113792095Y-94114580D01*
X113792095Y-94114580D02*
X113839714Y-94162200D01*
X113839714Y-94162200D02*
X113934952Y-94209819D01*
X113934952Y-94209819D02*
X114220666Y-94209819D01*
X114220666Y-94209819D02*
X114315904Y-94162200D01*
X114315904Y-94162200D02*
X114363523Y-94114580D01*
X110402666Y-69955580D02*
X110450285Y-70003200D01*
X110450285Y-70003200D02*
X110593142Y-70050819D01*
X110593142Y-70050819D02*
X110688380Y-70050819D01*
X110688380Y-70050819D02*
X110831237Y-70003200D01*
X110831237Y-70003200D02*
X110926475Y-69907961D01*
X110926475Y-69907961D02*
X110974094Y-69812723D01*
X110974094Y-69812723D02*
X111021713Y-69622247D01*
X111021713Y-69622247D02*
X111021713Y-69479390D01*
X111021713Y-69479390D02*
X110974094Y-69288914D01*
X110974094Y-69288914D02*
X110926475Y-69193676D01*
X110926475Y-69193676D02*
X110831237Y-69098438D01*
X110831237Y-69098438D02*
X110688380Y-69050819D01*
X110688380Y-69050819D02*
X110593142Y-69050819D01*
X110593142Y-69050819D02*
X110450285Y-69098438D01*
X110450285Y-69098438D02*
X110402666Y-69146057D01*
X110069332Y-69050819D02*
X109450285Y-69050819D01*
X109450285Y-69050819D02*
X109783618Y-69431771D01*
X109783618Y-69431771D02*
X109640761Y-69431771D01*
X109640761Y-69431771D02*
X109545523Y-69479390D01*
X109545523Y-69479390D02*
X109497904Y-69527009D01*
X109497904Y-69527009D02*
X109450285Y-69622247D01*
X109450285Y-69622247D02*
X109450285Y-69860342D01*
X109450285Y-69860342D02*
X109497904Y-69955580D01*
X109497904Y-69955580D02*
X109545523Y-70003200D01*
X109545523Y-70003200D02*
X109640761Y-70050819D01*
X109640761Y-70050819D02*
X109926475Y-70050819D01*
X109926475Y-70050819D02*
X110021713Y-70003200D01*
X110021713Y-70003200D02*
X110069332Y-69955580D01*
X143400094Y-122156819D02*
X143400094Y-121156819D01*
X143400094Y-121156819D02*
X143161999Y-121156819D01*
X143161999Y-121156819D02*
X143019142Y-121204438D01*
X143019142Y-121204438D02*
X142923904Y-121299676D01*
X142923904Y-121299676D02*
X142876285Y-121394914D01*
X142876285Y-121394914D02*
X142828666Y-121585390D01*
X142828666Y-121585390D02*
X142828666Y-121728247D01*
X142828666Y-121728247D02*
X142876285Y-121918723D01*
X142876285Y-121918723D02*
X142923904Y-122013961D01*
X142923904Y-122013961D02*
X143019142Y-122109200D01*
X143019142Y-122109200D02*
X143161999Y-122156819D01*
X143161999Y-122156819D02*
X143400094Y-122156819D01*
X142495332Y-121156819D02*
X141876285Y-121156819D01*
X141876285Y-121156819D02*
X142209618Y-121537771D01*
X142209618Y-121537771D02*
X142066761Y-121537771D01*
X142066761Y-121537771D02*
X141971523Y-121585390D01*
X141971523Y-121585390D02*
X141923904Y-121633009D01*
X141923904Y-121633009D02*
X141876285Y-121728247D01*
X141876285Y-121728247D02*
X141876285Y-121966342D01*
X141876285Y-121966342D02*
X141923904Y-122061580D01*
X141923904Y-122061580D02*
X141971523Y-122109200D01*
X141971523Y-122109200D02*
X142066761Y-122156819D01*
X142066761Y-122156819D02*
X142352475Y-122156819D01*
X142352475Y-122156819D02*
X142447713Y-122109200D01*
X142447713Y-122109200D02*
X142495332Y-122061580D01*
X177601819Y-95035833D02*
X177125628Y-94702500D01*
X177601819Y-94464405D02*
X176601819Y-94464405D01*
X176601819Y-94464405D02*
X176601819Y-94845357D01*
X176601819Y-94845357D02*
X176649438Y-94940595D01*
X176649438Y-94940595D02*
X176697057Y-94988214D01*
X176697057Y-94988214D02*
X176792295Y-95035833D01*
X176792295Y-95035833D02*
X176935152Y-95035833D01*
X176935152Y-95035833D02*
X177030390Y-94988214D01*
X177030390Y-94988214D02*
X177078009Y-94940595D01*
X177078009Y-94940595D02*
X177125628Y-94845357D01*
X177125628Y-94845357D02*
X177125628Y-94464405D01*
X176601819Y-95369167D02*
X176601819Y-95988214D01*
X176601819Y-95988214D02*
X176982771Y-95654881D01*
X176982771Y-95654881D02*
X176982771Y-95797738D01*
X176982771Y-95797738D02*
X177030390Y-95892976D01*
X177030390Y-95892976D02*
X177078009Y-95940595D01*
X177078009Y-95940595D02*
X177173247Y-95988214D01*
X177173247Y-95988214D02*
X177411342Y-95988214D01*
X177411342Y-95988214D02*
X177506580Y-95940595D01*
X177506580Y-95940595D02*
X177554200Y-95892976D01*
X177554200Y-95892976D02*
X177601819Y-95797738D01*
X177601819Y-95797738D02*
X177601819Y-95512024D01*
X177601819Y-95512024D02*
X177554200Y-95416786D01*
X177554200Y-95416786D02*
X177506580Y-95369167D01*
X145232857Y-109420819D02*
X145566190Y-108944628D01*
X145804285Y-109420819D02*
X145804285Y-108420819D01*
X145804285Y-108420819D02*
X145423333Y-108420819D01*
X145423333Y-108420819D02*
X145328095Y-108468438D01*
X145328095Y-108468438D02*
X145280476Y-108516057D01*
X145280476Y-108516057D02*
X145232857Y-108611295D01*
X145232857Y-108611295D02*
X145232857Y-108754152D01*
X145232857Y-108754152D02*
X145280476Y-108849390D01*
X145280476Y-108849390D02*
X145328095Y-108897009D01*
X145328095Y-108897009D02*
X145423333Y-108944628D01*
X145423333Y-108944628D02*
X145804285Y-108944628D01*
X144280476Y-109420819D02*
X144851904Y-109420819D01*
X144566190Y-109420819D02*
X144566190Y-108420819D01*
X144566190Y-108420819D02*
X144661428Y-108563676D01*
X144661428Y-108563676D02*
X144756666Y-108658914D01*
X144756666Y-108658914D02*
X144851904Y-108706533D01*
X143947142Y-108420819D02*
X143280476Y-108420819D01*
X143280476Y-108420819D02*
X143709047Y-109420819D01*
X113101333Y-88354819D02*
X113101333Y-89069104D01*
X113101333Y-89069104D02*
X113148952Y-89211961D01*
X113148952Y-89211961D02*
X113244190Y-89307200D01*
X113244190Y-89307200D02*
X113387047Y-89354819D01*
X113387047Y-89354819D02*
X113482285Y-89354819D01*
X112625142Y-89354819D02*
X112625142Y-88354819D01*
X112625142Y-88354819D02*
X112244190Y-88354819D01*
X112244190Y-88354819D02*
X112148952Y-88402438D01*
X112148952Y-88402438D02*
X112101333Y-88450057D01*
X112101333Y-88450057D02*
X112053714Y-88545295D01*
X112053714Y-88545295D02*
X112053714Y-88688152D01*
X112053714Y-88688152D02*
X112101333Y-88783390D01*
X112101333Y-88783390D02*
X112148952Y-88831009D01*
X112148952Y-88831009D02*
X112244190Y-88878628D01*
X112244190Y-88878628D02*
X112625142Y-88878628D01*
X111196571Y-88688152D02*
X111196571Y-89354819D01*
X111434666Y-88307200D02*
X111672761Y-89021485D01*
X111672761Y-89021485D02*
X111053714Y-89021485D01*
X161893238Y-70146057D02*
X161988476Y-70098438D01*
X161988476Y-70098438D02*
X162083714Y-70003200D01*
X162083714Y-70003200D02*
X162226571Y-69860342D01*
X162226571Y-69860342D02*
X162321809Y-69812723D01*
X162321809Y-69812723D02*
X162417047Y-69812723D01*
X162369428Y-70050819D02*
X162464666Y-70003200D01*
X162464666Y-70003200D02*
X162559904Y-69907961D01*
X162559904Y-69907961D02*
X162607523Y-69717485D01*
X162607523Y-69717485D02*
X162607523Y-69384152D01*
X162607523Y-69384152D02*
X162559904Y-69193676D01*
X162559904Y-69193676D02*
X162464666Y-69098438D01*
X162464666Y-69098438D02*
X162369428Y-69050819D01*
X162369428Y-69050819D02*
X162178952Y-69050819D01*
X162178952Y-69050819D02*
X162083714Y-69098438D01*
X162083714Y-69098438D02*
X161988476Y-69193676D01*
X161988476Y-69193676D02*
X161940857Y-69384152D01*
X161940857Y-69384152D02*
X161940857Y-69717485D01*
X161940857Y-69717485D02*
X161988476Y-69907961D01*
X161988476Y-69907961D02*
X162083714Y-70003200D01*
X162083714Y-70003200D02*
X162178952Y-70050819D01*
X162178952Y-70050819D02*
X162369428Y-70050819D01*
X160988476Y-70050819D02*
X161559904Y-70050819D01*
X161274190Y-70050819D02*
X161274190Y-69050819D01*
X161274190Y-69050819D02*
X161369428Y-69193676D01*
X161369428Y-69193676D02*
X161464666Y-69288914D01*
X161464666Y-69288914D02*
X161559904Y-69336533D01*
X178726666Y-71066819D02*
X179059999Y-70590628D01*
X179298094Y-71066819D02*
X179298094Y-70066819D01*
X179298094Y-70066819D02*
X178917142Y-70066819D01*
X178917142Y-70066819D02*
X178821904Y-70114438D01*
X178821904Y-70114438D02*
X178774285Y-70162057D01*
X178774285Y-70162057D02*
X178726666Y-70257295D01*
X178726666Y-70257295D02*
X178726666Y-70400152D01*
X178726666Y-70400152D02*
X178774285Y-70495390D01*
X178774285Y-70495390D02*
X178821904Y-70543009D01*
X178821904Y-70543009D02*
X178917142Y-70590628D01*
X178917142Y-70590628D02*
X179298094Y-70590628D01*
X177774285Y-71066819D02*
X178345713Y-71066819D01*
X178059999Y-71066819D02*
X178059999Y-70066819D01*
X178059999Y-70066819D02*
X178155237Y-70209676D01*
X178155237Y-70209676D02*
X178250475Y-70304914D01*
X178250475Y-70304914D02*
X178345713Y-70352533D01*
X119006857Y-97512320D02*
X119054476Y-97559940D01*
X119054476Y-97559940D02*
X119197333Y-97607559D01*
X119197333Y-97607559D02*
X119292571Y-97607559D01*
X119292571Y-97607559D02*
X119435428Y-97559940D01*
X119435428Y-97559940D02*
X119530666Y-97464701D01*
X119530666Y-97464701D02*
X119578285Y-97369463D01*
X119578285Y-97369463D02*
X119625904Y-97178987D01*
X119625904Y-97178987D02*
X119625904Y-97036130D01*
X119625904Y-97036130D02*
X119578285Y-96845654D01*
X119578285Y-96845654D02*
X119530666Y-96750416D01*
X119530666Y-96750416D02*
X119435428Y-96655178D01*
X119435428Y-96655178D02*
X119292571Y-96607559D01*
X119292571Y-96607559D02*
X119197333Y-96607559D01*
X119197333Y-96607559D02*
X119054476Y-96655178D01*
X119054476Y-96655178D02*
X119006857Y-96702797D01*
X118054476Y-97607559D02*
X118625904Y-97607559D01*
X118340190Y-97607559D02*
X118340190Y-96607559D01*
X118340190Y-96607559D02*
X118435428Y-96750416D01*
X118435428Y-96750416D02*
X118530666Y-96845654D01*
X118530666Y-96845654D02*
X118625904Y-96893273D01*
X117673523Y-96702797D02*
X117625904Y-96655178D01*
X117625904Y-96655178D02*
X117530666Y-96607559D01*
X117530666Y-96607559D02*
X117292571Y-96607559D01*
X117292571Y-96607559D02*
X117197333Y-96655178D01*
X117197333Y-96655178D02*
X117149714Y-96702797D01*
X117149714Y-96702797D02*
X117102095Y-96798035D01*
X117102095Y-96798035D02*
X117102095Y-96893273D01*
X117102095Y-96893273D02*
X117149714Y-97036130D01*
X117149714Y-97036130D02*
X117721142Y-97607559D01*
X117721142Y-97607559D02*
X117102095Y-97607559D01*
X167552666Y-108404819D02*
X167885999Y-107928628D01*
X168124094Y-108404819D02*
X168124094Y-107404819D01*
X168124094Y-107404819D02*
X167743142Y-107404819D01*
X167743142Y-107404819D02*
X167647904Y-107452438D01*
X167647904Y-107452438D02*
X167600285Y-107500057D01*
X167600285Y-107500057D02*
X167552666Y-107595295D01*
X167552666Y-107595295D02*
X167552666Y-107738152D01*
X167552666Y-107738152D02*
X167600285Y-107833390D01*
X167600285Y-107833390D02*
X167647904Y-107881009D01*
X167647904Y-107881009D02*
X167743142Y-107928628D01*
X167743142Y-107928628D02*
X168124094Y-107928628D01*
X166695523Y-107404819D02*
X166885999Y-107404819D01*
X166885999Y-107404819D02*
X166981237Y-107452438D01*
X166981237Y-107452438D02*
X167028856Y-107500057D01*
X167028856Y-107500057D02*
X167124094Y-107642914D01*
X167124094Y-107642914D02*
X167171713Y-107833390D01*
X167171713Y-107833390D02*
X167171713Y-108214342D01*
X167171713Y-108214342D02*
X167124094Y-108309580D01*
X167124094Y-108309580D02*
X167076475Y-108357200D01*
X167076475Y-108357200D02*
X166981237Y-108404819D01*
X166981237Y-108404819D02*
X166790761Y-108404819D01*
X166790761Y-108404819D02*
X166695523Y-108357200D01*
X166695523Y-108357200D02*
X166647904Y-108309580D01*
X166647904Y-108309580D02*
X166600285Y-108214342D01*
X166600285Y-108214342D02*
X166600285Y-107976247D01*
X166600285Y-107976247D02*
X166647904Y-107881009D01*
X166647904Y-107881009D02*
X166695523Y-107833390D01*
X166695523Y-107833390D02*
X166790761Y-107785771D01*
X166790761Y-107785771D02*
X166981237Y-107785771D01*
X166981237Y-107785771D02*
X167076475Y-107833390D01*
X167076475Y-107833390D02*
X167124094Y-107881009D01*
X167124094Y-107881009D02*
X167171713Y-107976247D01*
X114299904Y-72860819D02*
X114299904Y-73670342D01*
X114299904Y-73670342D02*
X114252285Y-73765580D01*
X114252285Y-73765580D02*
X114204666Y-73813200D01*
X114204666Y-73813200D02*
X114109428Y-73860819D01*
X114109428Y-73860819D02*
X113918952Y-73860819D01*
X113918952Y-73860819D02*
X113823714Y-73813200D01*
X113823714Y-73813200D02*
X113776095Y-73765580D01*
X113776095Y-73765580D02*
X113728476Y-73670342D01*
X113728476Y-73670342D02*
X113728476Y-72860819D01*
X113299904Y-72956057D02*
X113252285Y-72908438D01*
X113252285Y-72908438D02*
X113157047Y-72860819D01*
X113157047Y-72860819D02*
X112918952Y-72860819D01*
X112918952Y-72860819D02*
X112823714Y-72908438D01*
X112823714Y-72908438D02*
X112776095Y-72956057D01*
X112776095Y-72956057D02*
X112728476Y-73051295D01*
X112728476Y-73051295D02*
X112728476Y-73146533D01*
X112728476Y-73146533D02*
X112776095Y-73289390D01*
X112776095Y-73289390D02*
X113347523Y-73860819D01*
X113347523Y-73860819D02*
X112728476Y-73860819D01*
X118564819Y-85209142D02*
X118088628Y-84875809D01*
X118564819Y-84637714D02*
X117564819Y-84637714D01*
X117564819Y-84637714D02*
X117564819Y-85018666D01*
X117564819Y-85018666D02*
X117612438Y-85113904D01*
X117612438Y-85113904D02*
X117660057Y-85161523D01*
X117660057Y-85161523D02*
X117755295Y-85209142D01*
X117755295Y-85209142D02*
X117898152Y-85209142D01*
X117898152Y-85209142D02*
X117993390Y-85161523D01*
X117993390Y-85161523D02*
X118041009Y-85113904D01*
X118041009Y-85113904D02*
X118088628Y-85018666D01*
X118088628Y-85018666D02*
X118088628Y-84637714D01*
X118564819Y-86161523D02*
X118564819Y-85590095D01*
X118564819Y-85875809D02*
X117564819Y-85875809D01*
X117564819Y-85875809D02*
X117707676Y-85780571D01*
X117707676Y-85780571D02*
X117802914Y-85685333D01*
X117802914Y-85685333D02*
X117850533Y-85590095D01*
X117564819Y-87018666D02*
X117564819Y-86828190D01*
X117564819Y-86828190D02*
X117612438Y-86732952D01*
X117612438Y-86732952D02*
X117660057Y-86685333D01*
X117660057Y-86685333D02*
X117802914Y-86590095D01*
X117802914Y-86590095D02*
X117993390Y-86542476D01*
X117993390Y-86542476D02*
X118374342Y-86542476D01*
X118374342Y-86542476D02*
X118469580Y-86590095D01*
X118469580Y-86590095D02*
X118517200Y-86637714D01*
X118517200Y-86637714D02*
X118564819Y-86732952D01*
X118564819Y-86732952D02*
X118564819Y-86923428D01*
X118564819Y-86923428D02*
X118517200Y-87018666D01*
X118517200Y-87018666D02*
X118469580Y-87066285D01*
X118469580Y-87066285D02*
X118374342Y-87113904D01*
X118374342Y-87113904D02*
X118136247Y-87113904D01*
X118136247Y-87113904D02*
X118041009Y-87066285D01*
X118041009Y-87066285D02*
X117993390Y-87018666D01*
X117993390Y-87018666D02*
X117945771Y-86923428D01*
X117945771Y-86923428D02*
X117945771Y-86732952D01*
X117945771Y-86732952D02*
X117993390Y-86637714D01*
X117993390Y-86637714D02*
X118041009Y-86590095D01*
X118041009Y-86590095D02*
X118136247Y-86542476D01*
D12*
X117351121Y-68198000D02*
X117015879Y-68198000D01*
X117351121Y-67438000D02*
X117015879Y-67438000D01*
X180722000Y-74573641D02*
X180722000Y-74266359D01*
X181482000Y-74573641D02*
X181482000Y-74266359D01*
X122071641Y-72008000D02*
X121764359Y-72008000D01*
X122071641Y-71248000D02*
X121764359Y-71248000D01*
X121762359Y-70232000D02*
X122069641Y-70232000D01*
X121762359Y-70992000D02*
X122069641Y-70992000D01*
X105256359Y-87758000D02*
X105563641Y-87758000D01*
X105256359Y-88518000D02*
X105563641Y-88518000D01*
X105563641Y-89534000D02*
X105256359Y-89534000D01*
X105563641Y-88774000D02*
X105256359Y-88774000D01*
D13*
G36*
X182719401Y-117515767D02*
G01*
X182035644Y-124773819D01*
X181738782Y-124830409D01*
X182437139Y-117485666D01*
X182719401Y-117515767D01*
G37*
G36*
X184039523Y-120555129D02*
G01*
X183613309Y-120910080D01*
X184005228Y-121162640D01*
X183885941Y-121237554D01*
X183396682Y-120919438D01*
X183798274Y-120605622D01*
X183365242Y-120451078D01*
X183365372Y-120331979D01*
X184039523Y-120555129D01*
G37*
G36*
X183394131Y-120461083D02*
G01*
X183207993Y-120584693D01*
X183206731Y-120583629D01*
X183205461Y-120582574D01*
X183201907Y-120580083D01*
X183198305Y-120577663D01*
X183194656Y-120575312D01*
X183190961Y-120573033D01*
X183187222Y-120570826D01*
X183183439Y-120568691D01*
X183179613Y-120566630D01*
X183175746Y-120564642D01*
X183171841Y-120562731D01*
X183167899Y-120560896D01*
X183163922Y-120559138D01*
X183159911Y-120557457D01*
X183155867Y-120555854D01*
X183151792Y-120554329D01*
X183147687Y-120552883D01*
X183143552Y-120551517D01*
X183139382Y-120550229D01*
X183135188Y-120549022D01*
X183130972Y-120547897D01*
X183126735Y-120546854D01*
X183122478Y-120545893D01*
X183118202Y-120545015D01*
X183113909Y-120544219D01*
X183109599Y-120543506D01*
X183105288Y-120542871D01*
X183100965Y-120542319D01*
X183096633Y-120541850D01*
X183092292Y-120541466D01*
X183087945Y-120541165D01*
X183083592Y-120540948D01*
X183079235Y-120540816D01*
X183074874Y-120540767D01*
X183073065Y-120540798D01*
X183071256Y-120540844D01*
X183069448Y-120540903D01*
X183067640Y-120540978D01*
X183362557Y-120329205D01*
X183394131Y-120461083D01*
G37*
G36*
X181313923Y-119800197D02*
G01*
X181769129Y-119816905D01*
X181940489Y-119829295D01*
X181618000Y-123564491D01*
X181611564Y-123551909D01*
X181421239Y-123533136D01*
X180922911Y-123467687D01*
X180592299Y-123413181D01*
X180225552Y-123341870D01*
X179836290Y-123252044D01*
X179438135Y-123141991D01*
X179044708Y-123009998D01*
X178669631Y-122854355D01*
X178493231Y-122767130D01*
X178326526Y-122673350D01*
X178171219Y-122572802D01*
X178029013Y-122465271D01*
X177901611Y-122350544D01*
X177790715Y-122228406D01*
X177698028Y-122098644D01*
X177625253Y-121961044D01*
X177574092Y-121815392D01*
X177546248Y-121661473D01*
X177543424Y-121499074D01*
X177567323Y-121327981D01*
X177615368Y-121158968D01*
X177682928Y-121002634D01*
X177768625Y-120858498D01*
X177871078Y-120726080D01*
X177988907Y-120604903D01*
X178120732Y-120494485D01*
X178265174Y-120394347D01*
X178420852Y-120304010D01*
X178586387Y-120222994D01*
X178760399Y-120150819D01*
X178941509Y-120087007D01*
X179128335Y-120031077D01*
X179513619Y-119940947D01*
X179905215Y-119876592D01*
X180292081Y-119834176D01*
X180663181Y-119809862D01*
X181007474Y-119799815D01*
X181313923Y-119800197D01*
G37*
G36*
X181693965Y-117460216D02*
G01*
X182044764Y-117474109D01*
X182176820Y-117484411D01*
X181860491Y-120657099D01*
X181836158Y-120629406D01*
X181693233Y-120611667D01*
X181319079Y-120551633D01*
X181070897Y-120502560D01*
X180795632Y-120439078D01*
X180503528Y-120359911D01*
X180204826Y-120263778D01*
X179909768Y-120149403D01*
X179628596Y-120015506D01*
X179496417Y-119940838D01*
X179371551Y-119860811D01*
X179255277Y-119775264D01*
X179148875Y-119684038D01*
X179053627Y-119586973D01*
X178970811Y-119483910D01*
X178901708Y-119374688D01*
X178847599Y-119259148D01*
X178809764Y-119137130D01*
X178789482Y-119008474D01*
X178788035Y-118873020D01*
X178806702Y-118730610D01*
X178843727Y-118590071D01*
X178895792Y-118460075D01*
X178961833Y-118340222D01*
X179040786Y-118230113D01*
X179131589Y-118129350D01*
X179233179Y-118037535D01*
X179344490Y-117954268D01*
X179464462Y-117879150D01*
X179592029Y-117811783D01*
X179726129Y-117751768D01*
X179865698Y-117698706D01*
X180009673Y-117652199D01*
X180156991Y-117611848D01*
X180306587Y-117577253D01*
X180608364Y-117523740D01*
X180906498Y-117488470D01*
X181192480Y-117468253D01*
X181457805Y-117459898D01*
X181693965Y-117460216D01*
G37*
G36*
X186143052Y-124929342D02*
G01*
X186143053Y-124929343D01*
X185961385Y-125062538D01*
X185766382Y-125201915D01*
X185530451Y-125365704D01*
X185274980Y-125535829D01*
X185021357Y-125694210D01*
X184901923Y-125763346D01*
X184790971Y-125822768D01*
X184691175Y-125870213D01*
X184605209Y-125903423D01*
X184314033Y-125990428D01*
X184043040Y-126056780D01*
X183790806Y-126103960D01*
X183555908Y-126133449D01*
X183336923Y-126146726D01*
X183132425Y-126145273D01*
X182940993Y-126130569D01*
X182761202Y-126104095D01*
X182591629Y-126067331D01*
X182430849Y-126021758D01*
X182277441Y-125968856D01*
X182129979Y-125910105D01*
X181847202Y-125780979D01*
X181571130Y-125646222D01*
X181290374Y-125517679D01*
X181144680Y-125459437D01*
X180993544Y-125407190D01*
X180835543Y-125362418D01*
X180669253Y-125326601D01*
X180493251Y-125301219D01*
X180306112Y-125287752D01*
X180106413Y-125287682D01*
X179892731Y-125302488D01*
X179663642Y-125333651D01*
X179417722Y-125382651D01*
X179153549Y-125450968D01*
X178869697Y-125540084D01*
X178564744Y-125651477D01*
X178237266Y-125786630D01*
X178139924Y-125820397D01*
X178042012Y-125838008D01*
X177943772Y-125840453D01*
X177845441Y-125828719D01*
X177747261Y-125803797D01*
X177649472Y-125766675D01*
X177552313Y-125718343D01*
X177456024Y-125659790D01*
X177360846Y-125592005D01*
X177267019Y-125515978D01*
X177174782Y-125432698D01*
X177084376Y-125343153D01*
X176910015Y-125149229D01*
X176745856Y-124942118D01*
X176593819Y-124729736D01*
X176455825Y-124519996D01*
X176333792Y-124320811D01*
X176229642Y-124140096D01*
X176082668Y-123865728D01*
X176030264Y-123760204D01*
X186143052Y-124929342D01*
G37*
G36*
X184068764Y-121715235D02*
G01*
X184077782Y-121716534D01*
X184086670Y-121718674D01*
X184095415Y-121721634D01*
X184104006Y-121725392D01*
X184112433Y-121729926D01*
X184120685Y-121735217D01*
X184128749Y-121741243D01*
X184144272Y-121755414D01*
X184158914Y-121772271D01*
X184172585Y-121791644D01*
X184185196Y-121813364D01*
X184196657Y-121837263D01*
X184206880Y-121863170D01*
X184215775Y-121890917D01*
X184223253Y-121920335D01*
X184229225Y-121951254D01*
X184233601Y-121983505D01*
X184236292Y-122016920D01*
X184237209Y-122051328D01*
X184236978Y-122068646D01*
X184236292Y-122085736D01*
X184235163Y-122102578D01*
X184233601Y-122119151D01*
X184231618Y-122135433D01*
X184229225Y-122151402D01*
X184226433Y-122167039D01*
X184223253Y-122182321D01*
X184219697Y-122197228D01*
X184215775Y-122211739D01*
X184211499Y-122225832D01*
X184206880Y-122239486D01*
X184201929Y-122252680D01*
X184196657Y-122265393D01*
X184191076Y-122277604D01*
X184185196Y-122289292D01*
X184179028Y-122300435D01*
X184172585Y-122311012D01*
X184165876Y-122321003D01*
X184158914Y-122330385D01*
X184151709Y-122339139D01*
X184144272Y-122347242D01*
X184136615Y-122354674D01*
X184128749Y-122361413D01*
X184120685Y-122367439D01*
X184112433Y-122372730D01*
X184104006Y-122377265D01*
X184095415Y-122381022D01*
X184086670Y-122383982D01*
X184077782Y-122386122D01*
X184068764Y-122387422D01*
X184059625Y-122387860D01*
X184050487Y-122387422D01*
X184041469Y-122386122D01*
X184032581Y-122383982D01*
X184023836Y-122381022D01*
X184015245Y-122377265D01*
X184006818Y-122372730D01*
X183998566Y-122367439D01*
X183990502Y-122361413D01*
X183974979Y-122347242D01*
X183960337Y-122330385D01*
X183946666Y-122311012D01*
X183934055Y-122289292D01*
X183922593Y-122265393D01*
X183912371Y-122239486D01*
X183903475Y-122211739D01*
X183895997Y-122182321D01*
X183890026Y-122151402D01*
X183885650Y-122119151D01*
X183882959Y-122085736D01*
X183882042Y-122051328D01*
X183882273Y-122034010D01*
X183882959Y-122016920D01*
X183884088Y-122000078D01*
X183885650Y-121983505D01*
X183887633Y-121967224D01*
X183890026Y-121951254D01*
X183892818Y-121935617D01*
X183895997Y-121920335D01*
X183899554Y-121905428D01*
X183903475Y-121890917D01*
X183907751Y-121876824D01*
X183912371Y-121863170D01*
X183917322Y-121849976D01*
X183922593Y-121837263D01*
X183928175Y-121825052D01*
X183934055Y-121813364D01*
X183940222Y-121802221D01*
X183946666Y-121791644D01*
X183953374Y-121781653D01*
X183960337Y-121772271D01*
X183967542Y-121763517D01*
X183974979Y-121755414D01*
X183982636Y-121747982D01*
X183990502Y-121741243D01*
X183998566Y-121735217D01*
X184006818Y-121729926D01*
X184015245Y-121725392D01*
X184023836Y-121721634D01*
X184032581Y-121718674D01*
X184041469Y-121716534D01*
X184050487Y-121715235D01*
X184059625Y-121714797D01*
X184068764Y-121715235D01*
G37*
G36*
X183570183Y-121719560D02*
G01*
X183579201Y-121720860D01*
X183588089Y-121723000D01*
X183596834Y-121725960D01*
X183605425Y-121729717D01*
X183613852Y-121734252D01*
X183622104Y-121739543D01*
X183630168Y-121745569D01*
X183645691Y-121759740D01*
X183660333Y-121776597D01*
X183674004Y-121795970D01*
X183686615Y-121817690D01*
X183698076Y-121841589D01*
X183708299Y-121867496D01*
X183717194Y-121895243D01*
X183724672Y-121924661D01*
X183730644Y-121955580D01*
X183735020Y-121987831D01*
X183737711Y-122021246D01*
X183738628Y-122055654D01*
X183738397Y-122072972D01*
X183737711Y-122090062D01*
X183736582Y-122106904D01*
X183735020Y-122123477D01*
X183733037Y-122139758D01*
X183730644Y-122155728D01*
X183727852Y-122171365D01*
X183724672Y-122186647D01*
X183721116Y-122201554D01*
X183717194Y-122216065D01*
X183712918Y-122230158D01*
X183708299Y-122243812D01*
X183703348Y-122257006D01*
X183698076Y-122269719D01*
X183692495Y-122281930D01*
X183686615Y-122293618D01*
X183680448Y-122304761D01*
X183674004Y-122315338D01*
X183667295Y-122325329D01*
X183660333Y-122334711D01*
X183653128Y-122343465D01*
X183645691Y-122351568D01*
X183638034Y-122359000D01*
X183630168Y-122365739D01*
X183622104Y-122371765D01*
X183613852Y-122377056D01*
X183605425Y-122381590D01*
X183596834Y-122385348D01*
X183588089Y-122388308D01*
X183579201Y-122390448D01*
X183570183Y-122391747D01*
X183561044Y-122392185D01*
X183551906Y-122391747D01*
X183542888Y-122390448D01*
X183534000Y-122388308D01*
X183525255Y-122385348D01*
X183516664Y-122381590D01*
X183508237Y-122377056D01*
X183499985Y-122371765D01*
X183491921Y-122365739D01*
X183476398Y-122351568D01*
X183461756Y-122334711D01*
X183448085Y-122315338D01*
X183435474Y-122293618D01*
X183424013Y-122269719D01*
X183413790Y-122243812D01*
X183404895Y-122216065D01*
X183397417Y-122186647D01*
X183391445Y-122155728D01*
X183387069Y-122123477D01*
X183384378Y-122090062D01*
X183383461Y-122055654D01*
X183383692Y-122038336D01*
X183384378Y-122021246D01*
X183385507Y-122004404D01*
X183387069Y-121987831D01*
X183389052Y-121971549D01*
X183391445Y-121955580D01*
X183394237Y-121939943D01*
X183397417Y-121924661D01*
X183400973Y-121909754D01*
X183404895Y-121895243D01*
X183409170Y-121881150D01*
X183413790Y-121867496D01*
X183418741Y-121854302D01*
X183424013Y-121841589D01*
X183429594Y-121829378D01*
X183435474Y-121817690D01*
X183441641Y-121806547D01*
X183448085Y-121795970D01*
X183454794Y-121785979D01*
X183461756Y-121776597D01*
X183468961Y-121767843D01*
X183476398Y-121759740D01*
X183484055Y-121752308D01*
X183491921Y-121745569D01*
X183499985Y-121739543D01*
X183508237Y-121734252D01*
X183516664Y-121729717D01*
X183525255Y-121725960D01*
X183534000Y-121723000D01*
X183542888Y-121720860D01*
X183551906Y-121719560D01*
X183561044Y-121719122D01*
X183570183Y-121719560D01*
G37*
G36*
X183065755Y-120606675D02*
G01*
X183073127Y-120607234D01*
X183080392Y-120608155D01*
X183087541Y-120609427D01*
X183094565Y-120611044D01*
X183101454Y-120612994D01*
X183108199Y-120615270D01*
X183114791Y-120617862D01*
X183121222Y-120620760D01*
X183127481Y-120623957D01*
X183133561Y-120627442D01*
X183139451Y-120631207D01*
X183145142Y-120635243D01*
X183150626Y-120639540D01*
X183155894Y-120644090D01*
X183160935Y-120648882D01*
X183165742Y-120653909D01*
X183170305Y-120659162D01*
X183174615Y-120664630D01*
X183178662Y-120670305D01*
X183182438Y-120676178D01*
X183185934Y-120682239D01*
X183189139Y-120688481D01*
X183192047Y-120694892D01*
X183194646Y-120701466D01*
X183196928Y-120708191D01*
X183198884Y-120715060D01*
X183200505Y-120722063D01*
X183201782Y-120729191D01*
X183202705Y-120736435D01*
X183203266Y-120743786D01*
X183203455Y-120751235D01*
X183203266Y-120758684D01*
X183202705Y-120766035D01*
X183201782Y-120773279D01*
X183200505Y-120780407D01*
X183198884Y-120787410D01*
X183196928Y-120794279D01*
X183194646Y-120801004D01*
X183192047Y-120807578D01*
X183189139Y-120813989D01*
X183185934Y-120820231D01*
X183182438Y-120826292D01*
X183178662Y-120832165D01*
X183174615Y-120837840D01*
X183170305Y-120843308D01*
X183165742Y-120848560D01*
X183160935Y-120853588D01*
X183155894Y-120858380D01*
X183150626Y-120862930D01*
X183145142Y-120867227D01*
X183139451Y-120871263D01*
X183133561Y-120875028D01*
X183127481Y-120878513D01*
X183121222Y-120881710D01*
X183114791Y-120884608D01*
X183108199Y-120887200D01*
X183101454Y-120889476D01*
X183094565Y-120891426D01*
X183087541Y-120893043D01*
X183080392Y-120894315D01*
X183073127Y-120895236D01*
X183065755Y-120895795D01*
X183058284Y-120895983D01*
X183050814Y-120895795D01*
X183043441Y-120895236D01*
X183036176Y-120894315D01*
X183029027Y-120893043D01*
X183022004Y-120891426D01*
X183015115Y-120889476D01*
X183008370Y-120887200D01*
X183001777Y-120884608D01*
X182995347Y-120881710D01*
X182989087Y-120878513D01*
X182983008Y-120875028D01*
X182977118Y-120871263D01*
X182971426Y-120867227D01*
X182965942Y-120862930D01*
X182960675Y-120858380D01*
X182955633Y-120853588D01*
X182950826Y-120848560D01*
X182946263Y-120843308D01*
X182941954Y-120837840D01*
X182937906Y-120832165D01*
X182934130Y-120826292D01*
X182930635Y-120820231D01*
X182927429Y-120813989D01*
X182924522Y-120807578D01*
X182921922Y-120801004D01*
X182919640Y-120794279D01*
X182917684Y-120787410D01*
X182916063Y-120780407D01*
X182914786Y-120773279D01*
X182913863Y-120766035D01*
X182913302Y-120758684D01*
X182913114Y-120751235D01*
X182913302Y-120743786D01*
X182913863Y-120736435D01*
X182914786Y-120729191D01*
X182916063Y-120722063D01*
X182917684Y-120715060D01*
X182919640Y-120708191D01*
X182921922Y-120701466D01*
X182924522Y-120694892D01*
X182927429Y-120688481D01*
X182930635Y-120682239D01*
X182934130Y-120676178D01*
X182937906Y-120670305D01*
X182941954Y-120664630D01*
X182946263Y-120659162D01*
X182950826Y-120653909D01*
X182955633Y-120648882D01*
X182960675Y-120644090D01*
X182965942Y-120639540D01*
X182971426Y-120635243D01*
X182977118Y-120631207D01*
X182983008Y-120627442D01*
X182989087Y-120623957D01*
X182995347Y-120620760D01*
X183001777Y-120617862D01*
X183008370Y-120615270D01*
X183015115Y-120612994D01*
X183022004Y-120611044D01*
X183029027Y-120609427D01*
X183036176Y-120608155D01*
X183043441Y-120607234D01*
X183050814Y-120606675D01*
X183058284Y-120606487D01*
X183065755Y-120606675D01*
G37*
G36*
X184524809Y-122414453D02*
G01*
X184531177Y-122437175D01*
X184538688Y-122464679D01*
X184548684Y-122502147D01*
X184560868Y-122548976D01*
X184574934Y-122604558D01*
X184590578Y-122668285D01*
X184607492Y-122739549D01*
X184625373Y-122817747D01*
X184643924Y-122902278D01*
X184662830Y-122992527D01*
X184672324Y-123039610D01*
X184681803Y-123087899D01*
X184691234Y-123137321D01*
X184700572Y-123187797D01*
X184709776Y-123239251D01*
X184718804Y-123291608D01*
X184727613Y-123344791D01*
X184736169Y-123398724D01*
X184744440Y-123453334D01*
X184752394Y-123508546D01*
X184759992Y-123564286D01*
X184767193Y-123620478D01*
X184773957Y-123677045D01*
X184780247Y-123733907D01*
X184786025Y-123790987D01*
X184791254Y-123848215D01*
X184795907Y-123905500D01*
X184798004Y-123934143D01*
X184799936Y-123962782D01*
X184801696Y-123991409D01*
X184803284Y-124020013D01*
X184804696Y-124048578D01*
X184805930Y-124077090D01*
X184806981Y-124105543D01*
X184807842Y-124133932D01*
X184808509Y-124162245D01*
X184808978Y-124190468D01*
X184809244Y-124218592D01*
X184809301Y-124246611D01*
X184809145Y-124274515D01*
X184808769Y-124302296D01*
X184808181Y-124329938D01*
X184807373Y-124357429D01*
X184806332Y-124384768D01*
X184805048Y-124411953D01*
X184803512Y-124438975D01*
X184801725Y-124465818D01*
X184799687Y-124492471D01*
X184797400Y-124518923D01*
X184794857Y-124545164D01*
X184792048Y-124571184D01*
X184788969Y-124596977D01*
X184785618Y-124622534D01*
X184781990Y-124647848D01*
X184778081Y-124672907D01*
X184773884Y-124697701D01*
X184769392Y-124722218D01*
X184764603Y-124746452D01*
X184759516Y-124770393D01*
X184754122Y-124794031D01*
X184748411Y-124817355D01*
X184742376Y-124840354D01*
X184736015Y-124863021D01*
X184729328Y-124885347D01*
X184722315Y-124907324D01*
X184714973Y-124928944D01*
X184707295Y-124950197D01*
X184703327Y-124960683D01*
X184699272Y-124971072D01*
X184695128Y-124981364D01*
X184690895Y-124991556D01*
X184686573Y-125001649D01*
X184682162Y-125011643D01*
X184677662Y-125021536D01*
X184673071Y-125031327D01*
X184668389Y-125041014D01*
X184663616Y-125050594D01*
X184658750Y-125060068D01*
X184653791Y-125069432D01*
X184648738Y-125078685D01*
X184643590Y-125087825D01*
X184638347Y-125096852D01*
X184633008Y-125105765D01*
X184627573Y-125114565D01*
X184622042Y-125123251D01*
X184616416Y-125131823D01*
X184610693Y-125140280D01*
X184604862Y-125148669D01*
X184598915Y-125157032D01*
X184592852Y-125165370D01*
X184586676Y-125173681D01*
X184580388Y-125181964D01*
X184573991Y-125190217D01*
X184567487Y-125198441D01*
X184560877Y-125206633D01*
X184554162Y-125214795D01*
X184547342Y-125222928D01*
X184540419Y-125231031D01*
X184533394Y-125239103D01*
X184526268Y-125247144D01*
X184519041Y-125255154D01*
X184511715Y-125263130D01*
X184504291Y-125271073D01*
X184496771Y-125278983D01*
X184489157Y-125286859D01*
X184481451Y-125294701D01*
X184473653Y-125302509D01*
X184465764Y-125310283D01*
X184457784Y-125318022D01*
X184449714Y-125325726D01*
X184441556Y-125333395D01*
X184424981Y-125348620D01*
X184408073Y-125363694D01*
X184390840Y-125378617D01*
X184373291Y-125393391D01*
X184355432Y-125408013D01*
X184337273Y-125422475D01*
X184318829Y-125436774D01*
X184300118Y-125450907D01*
X184281148Y-125464873D01*
X184261926Y-125478672D01*
X184242460Y-125492296D01*
X184222758Y-125505735D01*
X184202835Y-125518988D01*
X184182703Y-125532053D01*
X184162367Y-125544931D01*
X184141833Y-125557618D01*
X184121106Y-125570113D01*
X184100198Y-125582412D01*
X184079127Y-125594509D01*
X184057910Y-125606400D01*
X184036561Y-125618078D01*
X184015084Y-125629540D01*
X183993484Y-125640788D01*
X183971765Y-125651824D01*
X183949935Y-125662650D01*
X183928006Y-125673258D01*
X183905994Y-125683640D01*
X183883915Y-125693786D01*
X183861785Y-125703692D01*
X183839609Y-125713359D01*
X183817392Y-125722787D01*
X183795135Y-125731975D01*
X183772847Y-125740918D01*
X183750542Y-125749610D01*
X183728235Y-125758050D01*
X183705941Y-125766236D01*
X183683668Y-125774165D01*
X183661423Y-125781829D01*
X183639216Y-125789230D01*
X183617058Y-125796364D01*
X183594958Y-125803226D01*
X183572924Y-125809812D01*
X183550969Y-125816120D01*
X183529105Y-125822151D01*
X183507343Y-125827904D01*
X183485691Y-125833376D01*
X183464159Y-125838558D01*
X183442754Y-125843441D01*
X183421487Y-125848018D01*
X183400370Y-125852290D01*
X183379413Y-125856258D01*
X183358624Y-125859927D01*
X183338019Y-125863291D01*
X183317607Y-125866346D01*
X183297396Y-125869085D01*
X183277389Y-125871502D01*
X183257594Y-125873596D01*
X183238023Y-125875363D01*
X183218691Y-125876802D01*
X183199616Y-125877912D01*
X183180804Y-125878693D01*
X183162261Y-125879139D01*
X183143999Y-125879242D01*
X183126029Y-125878993D01*
X183108367Y-125878381D01*
X183091022Y-125877437D01*
X183082471Y-125876835D01*
X183073999Y-125876145D01*
X183065609Y-125875365D01*
X183057299Y-125874493D01*
X183049072Y-125873530D01*
X183040928Y-125872480D01*
X183032870Y-125871340D01*
X183024899Y-125870109D01*
X183017020Y-125868787D01*
X183009232Y-125867372D01*
X183001540Y-125865864D01*
X182993944Y-125864261D01*
X182986446Y-125862564D01*
X182979045Y-125860773D01*
X182971742Y-125858888D01*
X182964538Y-125856908D01*
X182957435Y-125854833D01*
X182950433Y-125852663D01*
X182943534Y-125850397D01*
X182936738Y-125848035D01*
X182930048Y-125845578D01*
X182923468Y-125843026D01*
X182916997Y-125840377D01*
X182910636Y-125837630D01*
X182904386Y-125834786D01*
X182898246Y-125831843D01*
X182892218Y-125828801D01*
X182886302Y-125825659D01*
X182883385Y-125824049D01*
X182880495Y-125822413D01*
X182877633Y-125820751D01*
X182874800Y-125819064D01*
X182871996Y-125817351D01*
X182869223Y-125815614D01*
X182866481Y-125813853D01*
X182863770Y-125812068D01*
X182861092Y-125810258D01*
X182858444Y-125808423D01*
X182855827Y-125806562D01*
X182853240Y-125804675D01*
X182850685Y-125802763D01*
X182848161Y-125800825D01*
X182845667Y-125798863D01*
X182843203Y-125796874D01*
X182840771Y-125794860D01*
X182838372Y-125792819D01*
X182836005Y-125790752D01*
X182833671Y-125788658D01*
X182831369Y-125786539D01*
X182829098Y-125784393D01*
X182826859Y-125782223D01*
X182824652Y-125780028D01*
X182822476Y-125777807D01*
X182820332Y-125775560D01*
X182818221Y-125773287D01*
X182816143Y-125770988D01*
X182814098Y-125768662D01*
X182812087Y-125766310D01*
X182810110Y-125763932D01*
X182808167Y-125761527D01*
X182806257Y-125759098D01*
X182804382Y-125756645D01*
X182802540Y-125754167D01*
X182800733Y-125751664D01*
X182798960Y-125749134D01*
X182797222Y-125746576D01*
X182795520Y-125743990D01*
X182793852Y-125741374D01*
X182792219Y-125738729D01*
X182790618Y-125736058D01*
X182789052Y-125733360D01*
X182787520Y-125730635D01*
X182786024Y-125727883D01*
X182784565Y-125725103D01*
X182783143Y-125722297D01*
X182781761Y-125719463D01*
X182780416Y-125716601D01*
X182779109Y-125713711D01*
X182777839Y-125710794D01*
X182776607Y-125707849D01*
X182775411Y-125704876D01*
X182774252Y-125701876D01*
X182773130Y-125698849D01*
X182772045Y-125695795D01*
X182770999Y-125692714D01*
X182769992Y-125689605D01*
X182769025Y-125686469D01*
X182768096Y-125683305D01*
X182767205Y-125680114D01*
X182766353Y-125676894D01*
X182765538Y-125673646D01*
X182764759Y-125670370D01*
X182764017Y-125667065D01*
X182763311Y-125663732D01*
X182762643Y-125660370D01*
X182762014Y-125656980D01*
X182761424Y-125653561D01*
X182760874Y-125650114D01*
X182760367Y-125646639D01*
X182759902Y-125643137D01*
X182759480Y-125639606D01*
X182759100Y-125636048D01*
X182758761Y-125632460D01*
X182758464Y-125628845D01*
X182758208Y-125625201D01*
X182757992Y-125621528D01*
X182757816Y-125617826D01*
X182757680Y-125614095D01*
X182757585Y-125610334D01*
X182757532Y-125606544D01*
X182757521Y-125602724D01*
X182757551Y-125598876D01*
X182757624Y-125594998D01*
X182757737Y-125591091D01*
X182758090Y-125583192D01*
X182758618Y-125575177D01*
X182759320Y-125567046D01*
X182760194Y-125558797D01*
X182761241Y-125550429D01*
X182762461Y-125541940D01*
X182763856Y-125533330D01*
X182765429Y-125524601D01*
X182767185Y-125515754D01*
X182769121Y-125506789D01*
X182771236Y-125497703D01*
X182773535Y-125488496D01*
X182776022Y-125479167D01*
X182778697Y-125469716D01*
X182781560Y-125460142D01*
X182784611Y-125450443D01*
X182787852Y-125440622D01*
X182791284Y-125430677D01*
X182794908Y-125420608D01*
X182798726Y-125410417D01*
X182802738Y-125400102D01*
X182806948Y-125389665D01*
X182811354Y-125379103D01*
X182815960Y-125368416D01*
X182820766Y-125357603D01*
X182825773Y-125346664D01*
X182830982Y-125335598D01*
X182836395Y-125324403D01*
X182842012Y-125313079D01*
X182853422Y-125290121D01*
X182864769Y-125266807D01*
X182876055Y-125243141D01*
X182887280Y-125219132D01*
X182898446Y-125194783D01*
X182909550Y-125170104D01*
X182920591Y-125145109D01*
X182931567Y-125119810D01*
X182942477Y-125094217D01*
X182953323Y-125068336D01*
X182964105Y-125042173D01*
X182974820Y-125015734D01*
X182985473Y-124989030D01*
X182996064Y-124962073D01*
X183006587Y-124934869D01*
X183017040Y-124907420D01*
X183037728Y-124851823D01*
X183058136Y-124795361D01*
X183078265Y-124738110D01*
X183098120Y-124680147D01*
X183117700Y-124621539D01*
X183136997Y-124562349D01*
X183156002Y-124502643D01*
X183174705Y-124442487D01*
X183193098Y-124381956D01*
X183211182Y-124321120D01*
X183228959Y-124260041D01*
X183246432Y-124198781D01*
X183280458Y-124075990D01*
X183313198Y-123953318D01*
X183344592Y-123831299D01*
X183374642Y-123710491D01*
X183403351Y-123591466D01*
X183430659Y-123474742D01*
X183456529Y-123360856D01*
X183480940Y-123250363D01*
X183503842Y-123143812D01*
X183525227Y-123041746D01*
X183563367Y-122853235D01*
X183595093Y-122689209D01*
X183599840Y-122663741D01*
X183603739Y-122642228D01*
X183611423Y-122599602D01*
X183611430Y-122599609D01*
X183618587Y-122603850D01*
X183622177Y-122605949D01*
X183623982Y-122606976D01*
X183625796Y-122607981D01*
X183633273Y-122611982D01*
X183640796Y-122615856D01*
X183648363Y-122619604D01*
X183655975Y-122623225D01*
X183663634Y-122626717D01*
X183671341Y-122630079D01*
X183679090Y-122633308D01*
X183686878Y-122636402D01*
X183694700Y-122639361D01*
X183702558Y-122642184D01*
X183710457Y-122644867D01*
X183718400Y-122647409D01*
X183726389Y-122649808D01*
X183734421Y-122652066D01*
X183742491Y-122654178D01*
X183750595Y-122656143D01*
X183758731Y-122657957D01*
X183766904Y-122659623D01*
X183775113Y-122661137D01*
X183783357Y-122662499D01*
X183791639Y-122663704D01*
X183799956Y-122664752D01*
X183808307Y-122665643D01*
X183816689Y-122666374D01*
X183825103Y-122666951D01*
X183833550Y-122667373D01*
X183842028Y-122667631D01*
X183850537Y-122667719D01*
X183859043Y-122667630D01*
X183867519Y-122667371D01*
X183875965Y-122666949D01*
X183884384Y-122666374D01*
X183892777Y-122665653D01*
X183901139Y-122664776D01*
X183909469Y-122663743D01*
X183917768Y-122662551D01*
X183926034Y-122661201D01*
X183934268Y-122659699D01*
X183942469Y-122658046D01*
X183950633Y-122656246D01*
X183958762Y-122654304D01*
X183966855Y-122652219D01*
X183974911Y-122649991D01*
X183982931Y-122647616D01*
X183990910Y-122645089D01*
X183998847Y-122642414D01*
X184006745Y-122639601D01*
X184014608Y-122636661D01*
X184022434Y-122633600D01*
X184030219Y-122630414D01*
X184037963Y-122627096D01*
X184045666Y-122623638D01*
X184053327Y-122620044D01*
X184060946Y-122616320D01*
X184068521Y-122612470D01*
X184076052Y-122608497D01*
X184083544Y-122604402D01*
X184091000Y-122600185D01*
X184098410Y-122595847D01*
X184105766Y-122591392D01*
X184113063Y-122586822D01*
X184120306Y-122582137D01*
X184127501Y-122577338D01*
X184134653Y-122572427D01*
X184141757Y-122567399D01*
X184148810Y-122562256D01*
X184155812Y-122557005D01*
X184162765Y-122551653D01*
X184169666Y-122546200D01*
X184176514Y-122540643D01*
X184183308Y-122534984D01*
X184190050Y-122529225D01*
X184196744Y-122523373D01*
X184203390Y-122517428D01*
X184209981Y-122511387D01*
X184216508Y-122505248D01*
X184222967Y-122499013D01*
X184229362Y-122492689D01*
X184235700Y-122486275D01*
X184241985Y-122479771D01*
X184248221Y-122473179D01*
X184254405Y-122466502D01*
X184260528Y-122459743D01*
X184266583Y-122452899D01*
X184272569Y-122445967D01*
X184278491Y-122438947D01*
X184284350Y-122431850D01*
X184290147Y-122424684D01*
X184294529Y-122419136D01*
X184298855Y-122413528D01*
X184303141Y-122407878D01*
X184307407Y-122402205D01*
X184524809Y-122414453D01*
G37*
G36*
X184820678Y-121884608D02*
G01*
X184821795Y-121931742D01*
X184820783Y-121979437D01*
X184817770Y-122026857D01*
X184812787Y-122073921D01*
X184805867Y-122120548D01*
X184786346Y-122212167D01*
X184759465Y-122301061D01*
X184725483Y-122386581D01*
X184705910Y-122427873D01*
X184684660Y-122468077D01*
X184661763Y-122507112D01*
X184637253Y-122544898D01*
X184611162Y-122581352D01*
X184583523Y-122616394D01*
X184554367Y-122649941D01*
X184523727Y-122681914D01*
X184491636Y-122712230D01*
X184458126Y-122740808D01*
X184423229Y-122767567D01*
X184386978Y-122792425D01*
X184349404Y-122815302D01*
X184310541Y-122836117D01*
X184270421Y-122854786D01*
X184229076Y-122871231D01*
X184186538Y-122885368D01*
X184142840Y-122897117D01*
X184098014Y-122906397D01*
X184052093Y-122913126D01*
X184005108Y-122917223D01*
X183957093Y-122918607D01*
X183908968Y-122917211D01*
X183861664Y-122913081D01*
X183815227Y-122906297D01*
X183769703Y-122896944D01*
X183725140Y-122885103D01*
X183681582Y-122870858D01*
X183639076Y-122854292D01*
X183597670Y-122835486D01*
X183557409Y-122814525D01*
X183518339Y-122791490D01*
X183480508Y-122766465D01*
X183443961Y-122739532D01*
X183408745Y-122710774D01*
X183374905Y-122680274D01*
X183342490Y-122648114D01*
X183311544Y-122614378D01*
X183282114Y-122579148D01*
X183254247Y-122542506D01*
X183227989Y-122504537D01*
X183203386Y-122465321D01*
X183180485Y-122424943D01*
X183159332Y-122383485D01*
X183139974Y-122341030D01*
X183122457Y-122297660D01*
X183106826Y-122253458D01*
X183093129Y-122208508D01*
X183081413Y-122162891D01*
X183071722Y-122116691D01*
X183064105Y-122069990D01*
X183058606Y-122022871D01*
X183055273Y-121975417D01*
X183054151Y-121927711D01*
X183055167Y-121880589D01*
X183058020Y-121837431D01*
X183205771Y-121837431D01*
X183205823Y-121846242D01*
X183205980Y-121855078D01*
X183206239Y-121863940D01*
X183206601Y-121872829D01*
X183207058Y-121881740D01*
X183207615Y-121890669D01*
X183208274Y-121899618D01*
X183209030Y-121908589D01*
X183209881Y-121917583D01*
X183210825Y-121926597D01*
X183211866Y-121935624D01*
X183213009Y-121944660D01*
X183214250Y-121953703D01*
X183215584Y-121962757D01*
X183217013Y-121971818D01*
X183218538Y-121980885D01*
X183220165Y-121989952D01*
X183221892Y-121999020D01*
X183223713Y-122008089D01*
X183225618Y-122017162D01*
X183227604Y-122026236D01*
X183229675Y-122035309D01*
X183231836Y-122044377D01*
X183234093Y-122053438D01*
X183236450Y-122062495D01*
X183238903Y-122071546D01*
X183241444Y-122080588D01*
X183244066Y-122089612D01*
X183246768Y-122098617D01*
X183249553Y-122107603D01*
X183252424Y-122116573D01*
X183255383Y-122125527D01*
X183258425Y-122134463D01*
X183261547Y-122143375D01*
X183264752Y-122152265D01*
X183268044Y-122161132D01*
X183271424Y-122169974D01*
X183274884Y-122178786D01*
X183278426Y-122187570D01*
X183282049Y-122196324D01*
X183285754Y-122205046D01*
X183289539Y-122213731D01*
X183293404Y-122222382D01*
X183297345Y-122230999D01*
X183301364Y-122239584D01*
X183305460Y-122248134D01*
X183309633Y-122256644D01*
X183313882Y-122265106D01*
X183318211Y-122273512D01*
X183322621Y-122281866D01*
X183327105Y-122290173D01*
X183331658Y-122298437D01*
X183336279Y-122306664D01*
X183340971Y-122314848D01*
X183345735Y-122322978D01*
X183350572Y-122331045D01*
X183355480Y-122339043D01*
X183360457Y-122346977D01*
X183365504Y-122354852D01*
X183370622Y-122362671D01*
X183375806Y-122370431D01*
X183381054Y-122378125D01*
X183386370Y-122385753D01*
X183391757Y-122393315D01*
X183397223Y-122400812D01*
X183402763Y-122408238D01*
X183408368Y-122415593D01*
X183414030Y-122422874D01*
X183419749Y-122430081D01*
X183425531Y-122437215D01*
X183431376Y-122444271D01*
X183437284Y-122451245D01*
X183443253Y-122458138D01*
X183449281Y-122464952D01*
X183455369Y-122471682D01*
X183461521Y-122478323D01*
X183467736Y-122484869D01*
X183474012Y-122491319D01*
X183480348Y-122497679D01*
X183486739Y-122503954D01*
X183493181Y-122510144D01*
X183499675Y-122516239D01*
X183506224Y-122522239D01*
X183512835Y-122528139D01*
X183519509Y-122533938D01*
X183526241Y-122539635D01*
X183533026Y-122545230D01*
X183539862Y-122550721D01*
X183546748Y-122556113D01*
X183553685Y-122561403D01*
X183560675Y-122566584D01*
X183567716Y-122571650D01*
X183574810Y-122576601D01*
X183581957Y-122581439D01*
X183589153Y-122586163D01*
X183596396Y-122590770D01*
X183603680Y-122595255D01*
X183611004Y-122599616D01*
X183618375Y-122603856D01*
X183625800Y-122607978D01*
X183633277Y-122611980D01*
X183640799Y-122615854D01*
X183648367Y-122619602D01*
X183655979Y-122623223D01*
X183663638Y-122626715D01*
X183671344Y-122630077D01*
X183679094Y-122633306D01*
X183686881Y-122636400D01*
X183694703Y-122639358D01*
X183702562Y-122642181D01*
X183710461Y-122644865D01*
X183718404Y-122647407D01*
X183726393Y-122649807D01*
X183734425Y-122652064D01*
X183742494Y-122654176D01*
X183750598Y-122656140D01*
X183758735Y-122657956D01*
X183766908Y-122659621D01*
X183775117Y-122661136D01*
X183783361Y-122662496D01*
X183791643Y-122663702D01*
X183799960Y-122664749D01*
X183808310Y-122665639D01*
X183816693Y-122666372D01*
X183825107Y-122666949D01*
X183833554Y-122667370D01*
X183842032Y-122667629D01*
X183850540Y-122667716D01*
X183859047Y-122667628D01*
X183867522Y-122667368D01*
X183875969Y-122666947D01*
X183884388Y-122666372D01*
X183892780Y-122665650D01*
X183901142Y-122664774D01*
X183909473Y-122663741D01*
X183917771Y-122662548D01*
X183926038Y-122661199D01*
X183934272Y-122659696D01*
X183942472Y-122658044D01*
X183950637Y-122656244D01*
X183958766Y-122654301D01*
X183966859Y-122652217D01*
X183974915Y-122649989D01*
X183982935Y-122647614D01*
X183990914Y-122645087D01*
X183998851Y-122642412D01*
X184006749Y-122639599D01*
X184014612Y-122636659D01*
X184022438Y-122633598D01*
X184030223Y-122630412D01*
X184037967Y-122627093D01*
X184045670Y-122623636D01*
X184053331Y-122620041D01*
X184060950Y-122616317D01*
X184068525Y-122612467D01*
X184076055Y-122608495D01*
X184083548Y-122604400D01*
X184091004Y-122600182D01*
X184098414Y-122595844D01*
X184105770Y-122591390D01*
X184113067Y-122586819D01*
X184120310Y-122582135D01*
X184127505Y-122577336D01*
X184134657Y-122572424D01*
X184141762Y-122567397D01*
X184148815Y-122562253D01*
X184155816Y-122557002D01*
X184162769Y-122551650D01*
X184169670Y-122546198D01*
X184176518Y-122540640D01*
X184183312Y-122534981D01*
X184190054Y-122529223D01*
X184196748Y-122523371D01*
X184203394Y-122517426D01*
X184209985Y-122511385D01*
X184216512Y-122505245D01*
X184222971Y-122499010D01*
X184229366Y-122492687D01*
X184235704Y-122486273D01*
X184241989Y-122479769D01*
X184248225Y-122473176D01*
X184254409Y-122466500D01*
X184260532Y-122459740D01*
X184266586Y-122452897D01*
X184272573Y-122445965D01*
X184278495Y-122438945D01*
X184284354Y-122431848D01*
X184290151Y-122424682D01*
X184295883Y-122417451D01*
X184301547Y-122410149D01*
X184307146Y-122402776D01*
X184312682Y-122395329D01*
X184318156Y-122387817D01*
X184323566Y-122380242D01*
X184328908Y-122372602D01*
X184334179Y-122364892D01*
X184339376Y-122357115D01*
X184344500Y-122349276D01*
X184349554Y-122341377D01*
X184354540Y-122333421D01*
X184359455Y-122325404D01*
X184364297Y-122317327D01*
X184369066Y-122309197D01*
X184373763Y-122301019D01*
X184378394Y-122292796D01*
X184382957Y-122284527D01*
X184387445Y-122276209D01*
X184391850Y-122267843D01*
X184396168Y-122259431D01*
X184400403Y-122250976D01*
X184404560Y-122242480D01*
X184408645Y-122233943D01*
X184412663Y-122225368D01*
X184416608Y-122216755D01*
X184420473Y-122208106D01*
X184424251Y-122199423D01*
X184427941Y-122190709D01*
X184431547Y-122181964D01*
X184435071Y-122173190D01*
X184438513Y-122164387D01*
X184441872Y-122155551D01*
X184445142Y-122146683D01*
X184448328Y-122137792D01*
X184451432Y-122128885D01*
X184454455Y-122119969D01*
X184457394Y-122111040D01*
X184460246Y-122102094D01*
X184463008Y-122093125D01*
X184465676Y-122084129D01*
X184468251Y-122075113D01*
X184470737Y-122066085D01*
X184473136Y-122057055D01*
X184475445Y-122048029D01*
X184477661Y-122039005D01*
X184479786Y-122029975D01*
X184481819Y-122020933D01*
X184483765Y-122011878D01*
X184485625Y-122002819D01*
X184487390Y-121993761D01*
X184489054Y-121984708D01*
X184490610Y-121975666D01*
X184492064Y-121966634D01*
X184493421Y-121957608D01*
X184494686Y-121948586D01*
X184495865Y-121939566D01*
X184496952Y-121930552D01*
X184497940Y-121921550D01*
X184498821Y-121912568D01*
X184499593Y-121903602D01*
X184500264Y-121894650D01*
X184500833Y-121885718D01*
X184501301Y-121876808D01*
X184501667Y-121867922D01*
X184501926Y-121859059D01*
X184502080Y-121850221D01*
X184502131Y-121841409D01*
X184502069Y-121832696D01*
X184501885Y-121824153D01*
X184501578Y-121815776D01*
X184501151Y-121807561D01*
X184500604Y-121799505D01*
X184499940Y-121791609D01*
X184499157Y-121783873D01*
X184498257Y-121776297D01*
X184497240Y-121768881D01*
X184496109Y-121761624D01*
X184494863Y-121754520D01*
X184493503Y-121747565D01*
X184492029Y-121740756D01*
X184490444Y-121734093D01*
X184489609Y-121730817D01*
X184488747Y-121727578D01*
X184487857Y-121724375D01*
X184486940Y-121721210D01*
X184485995Y-121718081D01*
X184485023Y-121714989D01*
X184484023Y-121711933D01*
X184482995Y-121708913D01*
X184481941Y-121705928D01*
X184480860Y-121702978D01*
X184479753Y-121700062D01*
X184478620Y-121697180D01*
X184477461Y-121694331D01*
X184476273Y-121691515D01*
X184475057Y-121688732D01*
X184473816Y-121685982D01*
X184472548Y-121683265D01*
X184471255Y-121680583D01*
X184469937Y-121677935D01*
X184468595Y-121675321D01*
X184467229Y-121672744D01*
X184465838Y-121670202D01*
X184464423Y-121667694D01*
X184462982Y-121665220D01*
X184461516Y-121662778D01*
X184460026Y-121660367D01*
X184458510Y-121657986D01*
X184456968Y-121655633D01*
X184455403Y-121653307D01*
X184453816Y-121651009D01*
X184452206Y-121648740D01*
X184450573Y-121646500D01*
X184448915Y-121644291D01*
X184447233Y-121642113D01*
X184445525Y-121639968D01*
X184443791Y-121637856D01*
X184442029Y-121635776D01*
X184440241Y-121633727D01*
X184438426Y-121631707D01*
X184436588Y-121629718D01*
X184434726Y-121627757D01*
X184432841Y-121625824D01*
X184430936Y-121623920D01*
X184429011Y-121622043D01*
X184427066Y-121620194D01*
X184425100Y-121618375D01*
X184423113Y-121616584D01*
X184421103Y-121614822D01*
X184419071Y-121613086D01*
X184417016Y-121611378D01*
X184414938Y-121609695D01*
X184412836Y-121608038D01*
X184410710Y-121606406D01*
X184408561Y-121604798D01*
X184406390Y-121603214D01*
X184404197Y-121601656D01*
X184401982Y-121600124D01*
X184399747Y-121598618D01*
X184397490Y-121597139D01*
X184395214Y-121595688D01*
X184392919Y-121594263D01*
X184390607Y-121592865D01*
X184388275Y-121591493D01*
X184385923Y-121590145D01*
X184383550Y-121588822D01*
X184381156Y-121587522D01*
X184378740Y-121586245D01*
X184376301Y-121584990D01*
X184373839Y-121583759D01*
X184371357Y-121582552D01*
X184368854Y-121581370D01*
X184366330Y-121580210D01*
X184363787Y-121579073D01*
X184361225Y-121577958D01*
X184356043Y-121575792D01*
X184350784Y-121573705D01*
X184345446Y-121571696D01*
X184340032Y-121569772D01*
X184334546Y-121567938D01*
X184328993Y-121566191D01*
X184323373Y-121564526D01*
X184317680Y-121562938D01*
X184311912Y-121561427D01*
X184306063Y-121559988D01*
X184300137Y-121558622D01*
X184294143Y-121557327D01*
X184288089Y-121556104D01*
X184281973Y-121554955D01*
X184275790Y-121553880D01*
X184269543Y-121552870D01*
X184263233Y-121551918D01*
X184256864Y-121551026D01*
X184250436Y-121550197D01*
X184243947Y-121549428D01*
X184237394Y-121548714D01*
X184230777Y-121548051D01*
X184224100Y-121547444D01*
X184217364Y-121546890D01*
X184210574Y-121546389D01*
X184203730Y-121545935D01*
X184196833Y-121545521D01*
X184189881Y-121545154D01*
X184182875Y-121544839D01*
X184168704Y-121544348D01*
X184154327Y-121544023D01*
X184139755Y-121543846D01*
X184124998Y-121543805D01*
X184110068Y-121543883D01*
X184094972Y-121544070D01*
X184079709Y-121544357D01*
X184064278Y-121544735D01*
X184032950Y-121545711D01*
X184001063Y-121546894D01*
X183935862Y-121549438D01*
X183902668Y-121550572D01*
X183869148Y-121551505D01*
X183835354Y-121552148D01*
X183818374Y-121552324D01*
X183801348Y-121552385D01*
X183784400Y-121552320D01*
X183767648Y-121552134D01*
X183751093Y-121551841D01*
X183734738Y-121551455D01*
X183702647Y-121550456D01*
X183671382Y-121549233D01*
X183611379Y-121546512D01*
X183554904Y-121544117D01*
X183541351Y-121543668D01*
X183528028Y-121543304D01*
X183514940Y-121543037D01*
X183502091Y-121542877D01*
X183502083Y-121542877D01*
X183489473Y-121542840D01*
X183477102Y-121542942D01*
X183464974Y-121543192D01*
X183453094Y-121543597D01*
X183447250Y-121543866D01*
X183441471Y-121544178D01*
X183435754Y-121544535D01*
X183430098Y-121544941D01*
X183424500Y-121545392D01*
X183418964Y-121545894D01*
X183413491Y-121546449D01*
X183408084Y-121547060D01*
X183402743Y-121547730D01*
X183397464Y-121548464D01*
X183392251Y-121549258D01*
X183387103Y-121550109D01*
X183382028Y-121551019D01*
X183377024Y-121551994D01*
X183372086Y-121553033D01*
X183367208Y-121554140D01*
X183362392Y-121555313D01*
X183357643Y-121556554D01*
X183352961Y-121557867D01*
X183348346Y-121559256D01*
X183343800Y-121560718D01*
X183339321Y-121562252D01*
X183337108Y-121563048D01*
X183334911Y-121563864D01*
X183332732Y-121564702D01*
X183330570Y-121565561D01*
X183328424Y-121566443D01*
X183326294Y-121567346D01*
X183324181Y-121568270D01*
X183322085Y-121569216D01*
X183320006Y-121570183D01*
X183317945Y-121571171D01*
X183315902Y-121572180D01*
X183313878Y-121573209D01*
X183311872Y-121574260D01*
X183309884Y-121575334D01*
X183307913Y-121576430D01*
X183305960Y-121577549D01*
X183304024Y-121578690D01*
X183302106Y-121579855D01*
X183300206Y-121581042D01*
X183298323Y-121582252D01*
X183296459Y-121583486D01*
X183294612Y-121584743D01*
X183292782Y-121586024D01*
X183290971Y-121587329D01*
X183289177Y-121588658D01*
X183287402Y-121590011D01*
X183285644Y-121591390D01*
X183283905Y-121592794D01*
X183282186Y-121594223D01*
X183280486Y-121595677D01*
X183278806Y-121597155D01*
X183277145Y-121598659D01*
X183275502Y-121600189D01*
X183273876Y-121601745D01*
X183272268Y-121603328D01*
X183270676Y-121604938D01*
X183269101Y-121606577D01*
X183267543Y-121608246D01*
X183266003Y-121609943D01*
X183264482Y-121611668D01*
X183262979Y-121613421D01*
X183261495Y-121615201D01*
X183260029Y-121617007D01*
X183258583Y-121618839D01*
X183257156Y-121620697D01*
X183255746Y-121622582D01*
X183254354Y-121624494D01*
X183252981Y-121626435D01*
X183251626Y-121628405D01*
X183250291Y-121630405D01*
X183248975Y-121632436D01*
X183247679Y-121634497D01*
X183246404Y-121636589D01*
X183245148Y-121638709D01*
X183243912Y-121640858D01*
X183242695Y-121643037D01*
X183241497Y-121645246D01*
X183240318Y-121647488D01*
X183239157Y-121649761D01*
X183238015Y-121652067D01*
X183236891Y-121654407D01*
X183235783Y-121656781D01*
X183234694Y-121659188D01*
X183233623Y-121661627D01*
X183232571Y-121664099D01*
X183231540Y-121666603D01*
X183230529Y-121669138D01*
X183229540Y-121671704D01*
X183228573Y-121674301D01*
X183227626Y-121676930D01*
X183226699Y-121679591D01*
X183225792Y-121682285D01*
X183224904Y-121685013D01*
X183224036Y-121687776D01*
X183223187Y-121690574D01*
X183222357Y-121693408D01*
X183220753Y-121699188D01*
X183219226Y-121705113D01*
X183217779Y-121711181D01*
X183216414Y-121717386D01*
X183215139Y-121723729D01*
X183213953Y-121730216D01*
X183212847Y-121736850D01*
X183211815Y-121743638D01*
X183210854Y-121750578D01*
X183209972Y-121757669D01*
X183209171Y-121764914D01*
X183208456Y-121772318D01*
X183207829Y-121779890D01*
X183207283Y-121787628D01*
X183206820Y-121795528D01*
X183206441Y-121803583D01*
X183206146Y-121811794D01*
X183205937Y-121820172D01*
X183205812Y-121828717D01*
X183205771Y-121837431D01*
X183058020Y-121837431D01*
X183058192Y-121834836D01*
X183063192Y-121790462D01*
X183070137Y-121747474D01*
X183078992Y-121705881D01*
X183089724Y-121665690D01*
X183102302Y-121626911D01*
X183116691Y-121589552D01*
X183132860Y-121553620D01*
X183150775Y-121519124D01*
X183170403Y-121486073D01*
X183191712Y-121454474D01*
X183214668Y-121424336D01*
X183239240Y-121395667D01*
X183265393Y-121368476D01*
X183293095Y-121342770D01*
X183322314Y-121318558D01*
X183353016Y-121295848D01*
X183385168Y-121274649D01*
X183418739Y-121254968D01*
X183453694Y-121236814D01*
X183490000Y-121220195D01*
X183527626Y-121205120D01*
X183566539Y-121191597D01*
X183606704Y-121179634D01*
X183648090Y-121169239D01*
X183690664Y-121160420D01*
X183734392Y-121153187D01*
X183779243Y-121147546D01*
X183825182Y-121143507D01*
X183872178Y-121141078D01*
X183920197Y-121140266D01*
X184015611Y-121143553D01*
X184107529Y-121153360D01*
X184195584Y-121169611D01*
X184238049Y-121180128D01*
X184279410Y-121192227D01*
X184319622Y-121205898D01*
X184358639Y-121221131D01*
X184396415Y-121237916D01*
X184432904Y-121256243D01*
X184468060Y-121276104D01*
X184501838Y-121297488D01*
X184534192Y-121320385D01*
X184565075Y-121344785D01*
X184594441Y-121370680D01*
X184622246Y-121398059D01*
X184648443Y-121426912D01*
X184672985Y-121457230D01*
X184695828Y-121489003D01*
X184716926Y-121522221D01*
X184736231Y-121556874D01*
X184753700Y-121592953D01*
X184769285Y-121630448D01*
X184782941Y-121669349D01*
X184794622Y-121709647D01*
X184804282Y-121751332D01*
X184811875Y-121794393D01*
X184817356Y-121838822D01*
X184817543Y-121841409D01*
X184820678Y-121884608D01*
G37*
D12*
X120369000Y-66471436D02*
X120369000Y-66925564D01*
X118899000Y-66471436D02*
X118899000Y-66925564D01*
X122655000Y-66424436D02*
X122655000Y-66878564D01*
X121185000Y-66424436D02*
X121185000Y-66878564D01*
X195108000Y-64912000D02*
X195108000Y-64262000D01*
X195108000Y-63612000D02*
X195108000Y-64262000D01*
X191988000Y-64912000D02*
X191988000Y-64262000D01*
X191988000Y-63612000D02*
X191988000Y-64262000D01*
X195388000Y-65664500D02*
X195058000Y-65424500D01*
X195388000Y-65184500D01*
X195388000Y-65664500D01*
G36*
X195388000Y-65664500D02*
G01*
X195058000Y-65424500D01*
X195388000Y-65184500D01*
X195388000Y-65664500D01*
G37*
X103785641Y-78388000D02*
X103478359Y-78388000D01*
X103785641Y-77628000D02*
X103478359Y-77628000D01*
X105637000Y-83338936D02*
X105637000Y-83793064D01*
X104167000Y-83338936D02*
X104167000Y-83793064D01*
X103332000Y-72880000D02*
X103932000Y-72880000D01*
X105132000Y-74030000D02*
X105132000Y-73430000D01*
X102632000Y-76330000D02*
X102632000Y-73530000D01*
X105132000Y-73430000D02*
X104832000Y-73730000D01*
X105132000Y-74030000D02*
X104832000Y-73730000D01*
X104632000Y-73530000D02*
X104632000Y-76330000D01*
X103932000Y-76980000D02*
X103332000Y-76980000D01*
X102632000Y-73580000D02*
G75*
G02*
X103332000Y-72880000I699999J1D01*
G01*
X103932000Y-72880000D02*
G75*
G02*
X104632000Y-73580000I1J-699999D01*
G01*
X103332000Y-76980000D02*
G75*
G02*
X102632000Y-76280000I0J700000D01*
G01*
X104632000Y-76280000D02*
G75*
G02*
X103932000Y-76980000I-700000J0D01*
G01*
X119980000Y-82244000D02*
X118780000Y-82244000D01*
X118780000Y-82244000D02*
X118780000Y-84204000D01*
X119980000Y-82244000D02*
X119980000Y-84204000D01*
X116390748Y-68607000D02*
X116913252Y-68607000D01*
X116390748Y-70077000D02*
X116913252Y-70077000D01*
X103783641Y-72292000D02*
X103476359Y-72292000D01*
X103783641Y-71532000D02*
X103476359Y-71532000D01*
X178190000Y-91817564D02*
X178190000Y-91363436D01*
X179660000Y-91817564D02*
X179660000Y-91363436D01*
X185560000Y-94576000D02*
X185560000Y-96386000D01*
X185560000Y-87796000D02*
X185560000Y-85986000D01*
X185560000Y-96386000D02*
X187060000Y-96386000D01*
X185560000Y-85986000D02*
X187060000Y-85986000D01*
X183237500Y-94906000D02*
X182757500Y-94906000D01*
X182997500Y-94576000D01*
X183237500Y-94906000D01*
G36*
X183237500Y-94906000D02*
G01*
X182757500Y-94906000D01*
X182997500Y-94576000D01*
X183237500Y-94906000D01*
G37*
X123062000Y-83158359D02*
X123062000Y-83465641D01*
X122302000Y-83158359D02*
X122302000Y-83465641D01*
X113137836Y-81894000D02*
X112922164Y-81894000D01*
X113137836Y-81174000D02*
X112922164Y-81174000D01*
X168724000Y-109611748D02*
X168724000Y-112384252D01*
X172144000Y-109611748D02*
X172144000Y-112384252D01*
X109212748Y-80799000D02*
X109735252Y-80799000D01*
X109212748Y-82269000D02*
X109735252Y-82269000D01*
X122026000Y-78124164D02*
X122026000Y-78339836D01*
X121306000Y-78124164D02*
X121306000Y-78339836D01*
X122012000Y-82244000D02*
X120812000Y-82244000D01*
X120812000Y-82244000D02*
X120812000Y-84204000D01*
X122012000Y-82244000D02*
X122012000Y-84204000D01*
X113686000Y-91293836D02*
X113686000Y-91078164D01*
X114406000Y-91293836D02*
X114406000Y-91078164D01*
X101138000Y-95126000D02*
X100538000Y-95126000D01*
X101838000Y-93026000D02*
X101838000Y-94426000D01*
X99838000Y-94426000D02*
X99838000Y-93026000D01*
X100538000Y-92326000D02*
X101138000Y-92326000D01*
X101838000Y-94426000D02*
G75*
G02*
X101138000Y-95126000I-699999J-1D01*
G01*
X100538000Y-95126000D02*
G75*
G02*
X99838000Y-94426000I-1J699999D01*
G01*
X101138000Y-92326000D02*
G75*
G02*
X101838000Y-93026000I0J-700000D01*
G01*
X99838000Y-93026000D02*
G75*
G02*
X100538000Y-92326000I700000J0D01*
G01*
X122302000Y-75083641D02*
X122302000Y-74776359D01*
X123062000Y-75083641D02*
X123062000Y-74776359D01*
X115190000Y-109629641D02*
X115190000Y-109322359D01*
X115950000Y-109629641D02*
X115950000Y-109322359D01*
X106453000Y-97405564D02*
X106453000Y-96951436D01*
X107923000Y-97405564D02*
X107923000Y-96951436D01*
X110382164Y-71522000D02*
X110597836Y-71522000D01*
X110382164Y-72242000D02*
X110597836Y-72242000D01*
X111968000Y-89644000D02*
X112568000Y-89644000D01*
X113768000Y-90794000D02*
X113768000Y-90194000D01*
X111268000Y-93094000D02*
X111268000Y-90294000D01*
X113768000Y-90194000D02*
X113468000Y-90494000D01*
X113768000Y-90794000D02*
X113468000Y-90494000D01*
X113268000Y-90294000D02*
X113268000Y-93094000D01*
X112568000Y-93744000D02*
X111968000Y-93744000D01*
X111268000Y-90344000D02*
G75*
G02*
X111968000Y-89644000I699999J1D01*
G01*
X112568000Y-89644000D02*
G75*
G02*
X113268000Y-90344000I1J-699999D01*
G01*
X111968000Y-93744000D02*
G75*
G02*
X111268000Y-93044000I0J700000D01*
G01*
X113268000Y-93044000D02*
G75*
G02*
X112568000Y-93744000I-700000J0D01*
G01*
X111074000Y-83528000D02*
X111074000Y-85128000D01*
X107874000Y-83528000D02*
X107874000Y-85128000D01*
X111254000Y-85818000D02*
X110924000Y-85578000D01*
X111254000Y-85338000D01*
X111254000Y-85818000D01*
G36*
X111254000Y-85818000D02*
G01*
X110924000Y-85578000D01*
X111254000Y-85338000D01*
X111254000Y-85818000D01*
G37*
X193900359Y-67438000D02*
X194207641Y-67438000D01*
X193900359Y-68198000D02*
X194207641Y-68198000D01*
X194207641Y-67182000D02*
X193900359Y-67182000D01*
X194207641Y-66422000D02*
X193900359Y-66422000D01*
X109278748Y-86387000D02*
X109801252Y-86387000D01*
X109278748Y-87857000D02*
X109801252Y-87857000D01*
X113479252Y-83793000D02*
X112956748Y-83793000D01*
X113479252Y-82323000D02*
X112956748Y-82323000D01*
X177710000Y-79020000D02*
X180430000Y-79020000D01*
X180430000Y-73960000D02*
X180430000Y-79020000D01*
X177710000Y-73960000D02*
X177710000Y-79020000D01*
X113964000Y-94595000D02*
X112014000Y-94595000D01*
X110064000Y-94595000D02*
X112014000Y-94595000D01*
X113964000Y-99715000D02*
X112014000Y-99715000D01*
X110064000Y-99715000D02*
X112014000Y-99715000D01*
X114714000Y-94690000D02*
X114474000Y-94360000D01*
X114954000Y-94360000D01*
X114714000Y-94690000D01*
G36*
X114714000Y-94690000D02*
G01*
X114474000Y-94360000D01*
X114954000Y-94360000D01*
X114714000Y-94690000D01*
G37*
X112188164Y-69490000D02*
X112403836Y-69490000D01*
X112188164Y-70210000D02*
X112403836Y-70210000D01*
X145822000Y-125312000D02*
X145822000Y-122592000D01*
X140762000Y-122592000D02*
X145822000Y-122592000D01*
X140762000Y-125312000D02*
X145822000Y-125312000D01*
X178190000Y-95373564D02*
X178190000Y-94919436D01*
X179660000Y-95373564D02*
X179660000Y-94919436D01*
X144743641Y-110800000D02*
X144436359Y-110800000D01*
X144743641Y-110040000D02*
X144436359Y-110040000D01*
X109266000Y-93744000D02*
X108666000Y-93744000D01*
X107466000Y-92594000D02*
X107466000Y-93194000D01*
X109966000Y-90294000D02*
X109966000Y-93094000D01*
X107466000Y-93194000D02*
X107766000Y-92894000D01*
X107466000Y-92594000D02*
X107766000Y-92894000D01*
X107966000Y-93094000D02*
X107966000Y-90294000D01*
X108666000Y-89644000D02*
X109266000Y-89644000D01*
X109966000Y-93044000D02*
G75*
G02*
X109266000Y-93744000I-699999J-1D01*
G01*
X108666000Y-93744000D02*
G75*
G02*
X107966000Y-93044000I-1J699999D01*
G01*
X109266000Y-89644000D02*
G75*
G02*
X109966000Y-90344000I0J-700000D01*
G01*
X107966000Y-90344000D02*
G75*
G02*
X108666000Y-89644000I700000J0D01*
G01*
X171933000Y-72556000D02*
X171933000Y-70746000D01*
X171933000Y-79336000D02*
X171933000Y-81146000D01*
X171933000Y-70746000D02*
X170433000Y-70746000D01*
X171933000Y-81146000D02*
X170433000Y-81146000D01*
X174495500Y-72556000D02*
X174255500Y-72226000D01*
X174735500Y-72226000D01*
X174495500Y-72556000D01*
G36*
X174495500Y-72556000D02*
G01*
X174255500Y-72226000D01*
X174735500Y-72226000D01*
X174495500Y-72556000D01*
G37*
X178713641Y-72262000D02*
X178406359Y-72262000D01*
X178713641Y-71502000D02*
X178406359Y-71502000D01*
X115972000Y-97260576D02*
X115972000Y-97044904D01*
X116692000Y-97260576D02*
X116692000Y-97044904D01*
X168936564Y-105156500D02*
X167482436Y-105156500D01*
X168936564Y-106976500D02*
X167482436Y-106976500D01*
X112410000Y-72082000D02*
X111960000Y-72082000D01*
X118730000Y-72082000D02*
X119180000Y-72082000D01*
X111960000Y-72082000D02*
X111960000Y-72532000D01*
X119180000Y-72082000D02*
X119180000Y-72532000D01*
X111960000Y-79302000D02*
X111960000Y-78852000D01*
X119180000Y-79302000D02*
X119180000Y-78852000D01*
X112410000Y-79302000D02*
X111960000Y-79302000D01*
X118730000Y-79302000D02*
X119180000Y-79302000D01*
X112410000Y-71492000D02*
X111940000Y-71832000D01*
X111940000Y-71152000D01*
X112410000Y-71492000D01*
G36*
X112410000Y-71492000D02*
G01*
X111940000Y-71832000D01*
X111940000Y-71152000D01*
X112410000Y-71492000D01*
G37*
X118490000Y-83160359D02*
X118490000Y-83467641D01*
X117730000Y-83160359D02*
X117730000Y-83467641D01*
%LPC*%
D14*
X116586000Y-67818000D03*
X117781000Y-67818000D03*
D15*
X181102000Y-73910000D03*
X181102000Y-74930000D03*
D16*
X121408000Y-71628000D03*
X122428000Y-71628000D03*
D17*
X122426000Y-70612000D03*
X121406000Y-70612000D03*
D18*
X192672000Y-73152000D03*
X193374944Y-71454944D03*
X193374944Y-74849056D03*
X195072000Y-70752000D03*
D19*
X195072000Y-73152000D03*
D18*
X195072000Y-75552000D03*
X196769056Y-71454944D03*
X196769056Y-74849056D03*
X197472000Y-73152000D03*
D17*
X105920000Y-88138000D03*
X104900000Y-88138000D03*
D16*
X104900000Y-89154000D03*
X105920000Y-89154000D03*
D20*
X119634000Y-67611000D03*
X119634000Y-65786000D03*
X121920000Y-67564000D03*
X121920000Y-65739000D03*
D21*
X149240000Y-80833000D03*
D22*
X144240000Y-80833000D03*
X149240000Y-84333000D03*
X144240000Y-84333000D03*
D23*
X172694000Y-105949000D03*
X172694000Y-116149000D03*
D24*
X188094000Y-119949000D03*
D25*
X195794000Y-119949000D03*
D24*
X185554000Y-102169000D03*
D26*
X128858000Y-81280000D03*
D27*
X133858000Y-81280000D03*
D28*
X194498000Y-65199500D03*
X192598000Y-65199500D03*
X193548000Y-63324500D03*
D16*
X103122000Y-78008000D03*
X104142000Y-78008000D03*
D20*
X104902000Y-84478500D03*
X104902000Y-82653500D03*
D29*
X103632000Y-73630000D03*
D30*
X103632000Y-74930000D03*
D31*
X103632000Y-76230000D03*
D32*
X147754000Y-63754000D03*
X170254000Y-63754000D03*
D33*
X119380000Y-82804000D03*
X119380000Y-84204000D03*
D34*
X117602000Y-69342000D03*
X115702000Y-69342000D03*
D35*
X145415000Y-138430000D03*
D36*
X145415000Y-131230000D03*
D16*
X103120000Y-71912000D03*
X104140000Y-71912000D03*
D37*
X178925000Y-90678000D03*
X178925000Y-92503000D03*
D21*
X149240000Y-90231000D03*
D22*
X144240000Y-90231000D03*
X149240000Y-93731000D03*
X144240000Y-93731000D03*
D38*
X182735000Y-93726000D03*
D39*
X191885000Y-91186000D03*
D38*
X182735000Y-88646000D03*
D40*
X105736000Y-129540000D03*
D41*
X108236000Y-129540000D03*
X110236000Y-129540000D03*
X112736000Y-129540000D03*
X105736000Y-126920000D03*
X108236000Y-126920000D03*
X110236000Y-126920000D03*
X112736000Y-126920000D03*
D25*
X102666000Y-132250000D03*
X115806000Y-132250000D03*
X102666000Y-126570000D03*
X115806000Y-126570000D03*
D42*
X122682000Y-83822000D03*
X122682000Y-82802000D03*
D43*
X112550000Y-81534000D03*
X113510000Y-81534000D03*
D44*
X170434000Y-108860500D03*
X170434000Y-113135500D03*
D45*
X101849000Y-62240000D03*
D46*
X104389000Y-62240000D03*
X101849000Y-64780000D03*
X104389000Y-64780000D03*
X101849000Y-67320000D03*
X104389000Y-67320000D03*
X101849000Y-69860000D03*
X104389000Y-69860000D03*
D34*
X110424000Y-81534000D03*
X108524000Y-81534000D03*
D35*
X174498000Y-138474000D03*
D36*
X174498000Y-131274000D03*
D35*
X194056000Y-138518000D03*
D36*
X194056000Y-131318000D03*
D47*
X121666000Y-78712000D03*
X121666000Y-77752000D03*
D33*
X121412000Y-82804000D03*
X121412000Y-84204000D03*
D48*
X114046000Y-90706000D03*
X114046000Y-91666000D03*
D49*
X100838000Y-94376000D03*
D50*
X100838000Y-93076000D03*
D15*
X122682000Y-74420000D03*
X122682000Y-75440000D03*
D35*
X184150000Y-138430000D03*
D36*
X184150000Y-131230000D03*
D51*
X139358000Y-73406000D03*
D52*
X133858000Y-73406000D03*
D53*
X128358000Y-73406000D03*
D15*
X115570000Y-108966000D03*
X115570000Y-109986000D03*
D37*
X107188000Y-96266000D03*
X107188000Y-98091000D03*
D54*
X110970000Y-71882000D03*
X110010000Y-71882000D03*
D29*
X112268000Y-90394000D03*
D30*
X112268000Y-91694000D03*
D31*
X112268000Y-92994000D03*
D40*
X127112000Y-129540000D03*
D41*
X129612000Y-129540000D03*
X131612000Y-129540000D03*
X134112000Y-129540000D03*
X127112000Y-126920000D03*
X129612000Y-126920000D03*
X131612000Y-126920000D03*
X134112000Y-126920000D03*
D25*
X124042000Y-132250000D03*
X137182000Y-132250000D03*
X124042000Y-126570000D03*
X137182000Y-126570000D03*
D55*
X110424000Y-85488000D03*
X109474000Y-85488000D03*
X108524000Y-85488000D03*
X108524000Y-83168000D03*
X110424000Y-83168000D03*
D17*
X194564000Y-67818000D03*
X193544000Y-67818000D03*
D53*
X128358000Y-63754000D03*
D52*
X133858000Y-63754000D03*
D51*
X139358000Y-63754000D03*
D56*
X115570000Y-61352000D03*
X115570000Y-59552000D03*
D16*
X193544000Y-66802000D03*
X194564000Y-66802000D03*
D34*
X110490000Y-87122000D03*
X108590000Y-87122000D03*
D57*
X112268000Y-83058000D03*
X114168000Y-83058000D03*
D35*
X164846000Y-138430000D03*
D36*
X164846000Y-131230000D03*
D58*
X179070000Y-78060000D03*
X179070000Y-73660000D03*
D59*
X114489000Y-95250000D03*
X114489000Y-96520000D03*
X114489000Y-97790000D03*
X114489000Y-99060000D03*
X109539000Y-99060000D03*
X109539000Y-97790000D03*
X109539000Y-96520000D03*
X109539000Y-95250000D03*
D54*
X112776000Y-69850000D03*
X111816000Y-69850000D03*
D60*
X144862000Y-123952000D03*
X140462000Y-123952000D03*
D37*
X178925000Y-94234000D03*
X178925000Y-96059000D03*
D41*
X103146000Y-95120000D03*
D61*
X101346000Y-96520000D03*
D62*
X103886000Y-97790000D03*
X101346000Y-99060000D03*
X103886000Y-100330000D03*
D16*
X144080000Y-110420000D03*
X145100000Y-110420000D03*
D21*
X149240000Y-99629000D03*
D22*
X144240000Y-99629000D03*
X149240000Y-103129000D03*
X144240000Y-103129000D03*
D63*
X108966000Y-92994000D03*
D30*
X108966000Y-91694000D03*
D64*
X108966000Y-90394000D03*
D65*
X174758000Y-73406000D03*
D66*
X165608000Y-75946000D03*
D65*
X174758000Y-78486000D03*
D16*
X178050000Y-71882000D03*
X179070000Y-71882000D03*
D36*
X155194000Y-131230000D03*
D35*
X155194000Y-138430000D03*
D48*
X116332000Y-96672740D03*
X116332000Y-97632740D03*
D67*
X102616000Y-86702000D03*
D68*
X102616000Y-84702000D03*
X102616000Y-82702000D03*
D69*
X102616000Y-80702000D03*
X102616000Y-88702000D03*
D70*
X169672000Y-106066500D03*
X166747000Y-106066500D03*
D71*
X112820000Y-71529500D03*
X113320000Y-71529500D03*
X113820000Y-71529500D03*
X114320000Y-71529500D03*
X114820000Y-71529500D03*
X115320000Y-71529500D03*
X115820000Y-71529500D03*
X116320000Y-71529500D03*
X116820000Y-71529500D03*
X117320000Y-71529500D03*
X117820000Y-71529500D03*
X118320000Y-71529500D03*
D72*
X119732500Y-72942000D03*
X119732500Y-73442000D03*
X119732500Y-73942000D03*
X119732500Y-74442000D03*
X119732500Y-74942000D03*
X119732500Y-75442000D03*
X119732500Y-75942000D03*
X119732500Y-76442000D03*
X119732500Y-76942000D03*
X119732500Y-77442000D03*
X119732500Y-77942000D03*
X119732500Y-78442000D03*
D71*
X118320000Y-79854500D03*
X117820000Y-79854500D03*
X117320000Y-79854500D03*
X116820000Y-79854500D03*
X116320000Y-79854500D03*
X115820000Y-79854500D03*
X115320000Y-79854500D03*
X114820000Y-79854500D03*
X114320000Y-79854500D03*
X113820000Y-79854500D03*
X113320000Y-79854500D03*
X112820000Y-79854500D03*
D72*
X111407500Y-78442000D03*
X111407500Y-77942000D03*
X111407500Y-77442000D03*
X111407500Y-76942000D03*
X111407500Y-76442000D03*
X111407500Y-75942000D03*
X111407500Y-75442000D03*
X111407500Y-74942000D03*
X111407500Y-74442000D03*
X111407500Y-73942000D03*
X111407500Y-73442000D03*
X111407500Y-72942000D03*
D45*
X107950000Y-112268000D03*
D68*
X110490000Y-112268000D03*
X113030000Y-112268000D03*
X115570000Y-112268000D03*
X118110000Y-112268000D03*
X120650000Y-112268000D03*
X140970000Y-112268000D03*
X143510000Y-112268000D03*
X146050000Y-112268000D03*
X148590000Y-112268000D03*
X151130000Y-112268000D03*
X153670000Y-112268000D03*
X156210000Y-112268000D03*
D42*
X118110000Y-83824000D03*
X118110000Y-82804000D03*
%LPD*%
M02*
